<svg width="240" height="160" viewBox="0 0 240 160" fill="none" xmlns="http://www.w3.org/2000/svg">
<g clip-path="url(#clip0_603_9557)">
<path opacity="0.4" d="M43.2922 122.131C43.2922 122.131 -1.78163 109.595 7.9053 67.2334C17.5922 24.8714 44.3949 13.4498 66.7409 10.2622C89.0869 7.0746 99.3135 49.1721 148.414 43.3508C197.514 37.5295 237.278 105.627 182.043 125.458C126.808 145.29 43.2922 122.131 43.2922 122.131Z" fill="#E3EBF5"/>
<path d="M77.2187 134.506C77.2187 134.506 104.893 118.51 115.428 106.012C134.363 83.5488 81.4926 34.877 81.4926 34.877L49.4393 108.958L30.7656 125.483C36.6918 135.788 47.883 144.088 62.9657 150.904L77.2187 134.506Z" fill="#FFCEBE"/>
<path d="M62.9675 150.906L77.2223 134.507C77.2223 134.507 102.262 119.139 106.083 114.489L84.5255 113.735C84.5255 113.735 93.2363 121.031 75.1479 131.71L52.8906 145.789C55.8275 147.615 59.2299 149.308 62.9675 150.906Z" fill="#FBB3A3"/>
<path d="M67.5113 110.343C70.3267 98.5724 65.5546 83.2601 70.2905 63.9517C70.2905 63.9517 92.9011 113.107 92.3738 114.113C91.8466 115.118 91.0567 122.368 88.6833 121.481C86.3099 120.595 65.098 125.681 67.5113 110.343Z" fill="#FBB3A3"/>
<path d="M133.677 115.117H76.1057C73.7812 115.117 71.8789 113.303 71.8789 111.086V8.6908C71.8789 6.47421 73.7812 4.66016 76.1057 4.66016H133.677C136.002 4.66016 137.904 6.47421 137.904 8.6908V111.086C137.904 113.303 136.002 115.117 133.677 115.117Z" fill="#58619A"/>
<path d="M131.198 110H78.8017C76.7114 110 75 108.325 75 106.275V12.7251C75 10.6769 76.7114 9 78.8017 9H131.198C133.289 9 135 10.6769 135 12.7251V106.275C135 108.323 133.29 110 131.198 110Z" fill="white"/>
<path d="M50.1377 115.964L48.2444 96.9806C47.9636 94.1697 48.3006 91.3346 49.2337 88.655L60.2726 56.9351C60.8252 55.3491 61.9213 53.9842 63.3834 53.0634L81.758 41.5018C83.1404 40.6311 85.108 42.2464 85.1279 43.8255C85.1514 45.8054 84.8398 46.7211 83.1839 49.0413C79.3955 54.3505 70.73 62.8178 70.73 62.8178L63.3834 81.8411L68.3602 116.165L52.839 115.994L50.1377 115.964Z" fill="#FFCEBE"/>
<path d="M81.645 44.4486L78.5506 46.6323C77.9817 47.0349 77.17 46.9191 76.7497 46.3766L76.5721 46.1468C76.15 45.6044 76.2714 44.8304 76.8403 44.4278L79.9347 42.244C80.5036 41.8415 81.3153 41.9573 81.7356 42.4997L81.9132 42.7295C82.3353 43.272 82.2139 44.046 81.645 44.4486Z" fill="#FFC2CD"/>
<path d="M121.428 34.0363C121.393 32.7025 121.165 31.3795 120.751 30.1042C120.444 29.1333 120.064 28.1843 119.614 27.2643C119 25.9099 116.618 21.1621 112.53 17.8125C112.991 18.2057 116.741 21.5845 116.249 26.638C115.65 32.0848 110.163 36.1772 107.32 38.7986C103.602 42.2211 104.385 48.7019 104.431 49.1242C105.039 49.1805 105.65 49.1999 106.26 49.1825C108.306 49.1325 110.321 48.7009 112.19 47.9126C114.06 47.1242 115.747 45.9944 117.155 44.5879C118.564 43.1813 119.666 41.5254 120.399 39.715C121.132 37.9045 121.482 35.9748 121.428 34.0363Z" fill="url(#paint0_linear_603_9557)"/>
<path d="M113.264 21.099C114.196 21.5371 115.055 22.1013 115.815 22.7739C115.49 21.8031 115.03 20.8775 114.447 20.0213L114.263 19.7636C114.109 19.5597 113.971 19.3849 113.848 19.1956C113.479 18.7475 113.084 18.3196 112.665 17.914C110.698 16.2246 109.484 17.2441 109.545 18.0596C109.607 19.1038 110.836 19.9631 113.264 21.099Z" fill="url(#paint1_linear_603_9557)"/>
<path d="M112.53 17.8219L112.469 17.793C112.499 17.793 112.515 17.8219 112.53 17.8219Z" fill="url(#paint2_linear_603_9557)"/>
<path d="M99.7717 47.8081C98.696 34.7591 93.5941 34.6426 90.3669 33.8562C90.3516 34.2203 90.3516 34.5698 90.3516 34.9339C90.43 37.7069 91.3365 40.4019 92.9657 42.7064C94.595 45.0109 96.8803 46.8304 99.5565 47.9538C99.581 47.964 99.6077 47.968 99.6343 47.9654C99.6608 47.9628 99.6862 47.9537 99.7079 47.939C99.7296 47.9243 99.7469 47.9045 99.7581 47.8816C99.7693 47.8586 99.774 47.8333 99.7717 47.8081Z" fill="url(#paint3_linear_603_9557)"/>
<path d="M121.272 34.1494C121.216 32.1264 120.718 30.1363 119.811 28.3043C118.904 26.4722 117.607 24.8377 116.001 23.5034V23.6199C116.078 27.0569 112.974 30.3337 110.992 31.5134C109.009 32.693 104.23 34.397 102.202 38.8098C100.649 42.1739 101.218 47.446 101.356 48.5819C103.7 49.2469 106.176 49.376 108.583 48.9587C110.989 48.5415 113.257 47.5898 115.2 46.1815C117.143 44.7733 118.707 42.9487 119.762 40.8572C120.818 38.7657 121.335 36.467 121.272 34.1494Z" fill="#FFF682"/>
<path opacity="0.82" d="M121.394 34.0355C121.334 31.9686 120.817 29.9366 119.877 28.0704C118.938 26.2042 117.596 24.5452 115.939 23.2002C117.937 30.3946 110.714 35.6666 107.303 38.7978C103.891 41.929 104.275 47.619 104.398 48.8904C104.403 48.9583 104.434 49.0223 104.485 49.0704C104.536 49.1186 104.603 49.1478 104.675 49.1525C105.201 49.1916 105.73 49.2013 106.258 49.1816C114.832 48.9734 121.609 42.1911 121.394 34.0355Z" fill="url(#paint4_linear_603_9557)"/>
<path d="M95.8056 30.507C94.3969 32.0207 93.4934 33.8962 93.2094 35.8965C92.9255 37.8968 93.2738 39.932 94.2103 41.7446C95.1468 43.5573 96.6294 45.0661 98.4707 46.0802C100.312 47.0944 102.429 47.5682 104.555 47.442C106.68 47.3157 108.719 46.5949 110.412 45.3708C112.105 44.1467 113.377 42.4742 114.068 40.5649C114.758 38.6556 114.835 36.5951 114.29 34.6441C113.745 32.6931 112.601 30.9392 111.004 29.6041C108.86 27.8179 106.057 26.9099 103.208 27.0791C100.359 27.2484 97.6971 28.4811 95.8056 30.507ZM112.11 37.7015C111.449 38.8811 110.434 39.8485 109.193 40.4812C107.952 41.114 106.54 41.3838 105.137 41.2564C103.734 41.129 102.403 40.6102 101.311 39.7656C100.219 38.9209 99.4161 37.7885 99.0034 36.5113C98.5908 35.2342 98.587 33.8698 98.9926 32.5906C99.3982 31.3114 100.195 30.175 101.282 29.3249C102.369 28.4749 103.698 27.9495 105.1 27.8151C106.502 27.6808 107.915 27.9435 109.16 28.5701C109.987 28.9848 110.721 29.5503 111.317 30.2341C111.914 30.918 112.362 31.7067 112.636 32.5551C112.91 33.4035 113.005 34.2948 112.915 35.1779C112.824 36.0611 112.551 36.9187 112.11 37.7015Z" fill="url(#paint5_linear_603_9557)"/>
<path opacity="0.4" d="M95.8056 30.507C94.3969 32.0207 93.4934 33.8962 93.2094 35.8965C92.9255 37.8968 93.2738 39.932 94.2103 41.7446C95.1468 43.5573 96.6294 45.0661 98.4707 46.0802C100.312 47.0944 102.429 47.5682 104.555 47.442C106.68 47.3157 108.719 46.5949 110.412 45.3708C112.105 44.1467 113.377 42.4742 114.068 40.5649C114.758 38.6556 114.835 36.5951 114.29 34.6441C113.745 32.6931 112.601 30.9392 111.004 29.6041C108.86 27.8179 106.057 26.9099 103.208 27.0791C100.359 27.2484 97.6971 28.4811 95.8056 30.507ZM112.11 37.7015C111.449 38.8811 110.434 39.8485 109.193 40.4812C107.952 41.114 106.54 41.3838 105.137 41.2564C103.734 41.129 102.403 40.6102 101.311 39.7656C100.219 38.9209 99.4161 37.7885 99.0034 36.5113C98.5908 35.2342 98.587 33.8698 98.9926 32.5906C99.3982 31.3114 100.195 30.175 101.282 29.3249C102.369 28.4749 103.698 27.9495 105.1 27.8151C106.502 27.6808 107.915 27.9435 109.16 28.5701C109.987 28.9848 110.721 29.5503 111.317 30.2341C111.914 30.918 112.362 31.7067 112.636 32.5551C112.91 33.4035 113.005 34.2948 112.915 35.1779C112.824 36.0611 112.551 36.9187 112.11 37.7015Z" fill="url(#paint6_linear_603_9557)"/>
<path d="M108.513 24.594C106.723 23.4791 104.624 22.8924 102.482 22.908C100.34 22.9236 98.2506 23.5409 96.4787 24.6818C94.7067 25.8227 93.3316 27.4359 92.5271 29.3175C91.7226 31.199 91.525 33.2644 91.9592 35.2525C92.3933 37.2405 93.4398 39.0618 94.9662 40.4862C96.4927 41.9106 98.4305 42.874 100.535 43.2546C102.639 43.6352 104.815 43.4159 106.788 42.6244C108.76 41.8329 110.441 40.5048 111.617 38.8081C113.191 36.5321 113.748 33.7575 113.166 31.0928C112.584 28.4281 110.911 26.091 108.513 24.594ZM101.951 40.1771C100.784 39.4508 99.8711 38.4129 99.3267 37.1946C98.7822 35.9763 98.6313 34.6324 98.8928 33.3328C99.1544 32.0332 99.8167 30.8363 100.796 29.8935C101.775 28.9507 103.028 28.3042 104.395 28.0359C105.762 27.7677 107.182 27.8896 108.476 28.3863C109.77 28.8831 110.879 29.7323 111.664 30.8265C112.449 31.9208 112.873 33.2111 112.884 34.534C112.895 35.857 112.491 37.1533 111.725 38.259C110.695 39.7394 109.088 40.7725 107.256 41.132C105.424 41.4915 103.517 41.1481 101.951 40.1771Z" fill="url(#paint7_linear_603_9557)"/>
<path d="M112.574 22.5129C110.065 21.25 107.218 20.7206 104.391 20.9915C101.565 21.2623 98.8866 22.3214 96.6953 24.0348C94.504 25.7482 92.898 28.0389 92.0804 30.6172C91.2628 33.1956 91.2703 35.9458 92.102 38.5201C92.9337 41.0945 94.5521 43.3772 96.7528 45.0798C98.9534 46.7824 101.637 47.8284 104.465 48.0854C107.293 48.3424 110.138 47.799 112.64 46.5238C115.142 45.2486 117.189 43.2989 118.521 40.9213C119.406 39.3425 119.955 37.614 120.135 35.8345C120.315 34.0549 120.123 32.2592 119.571 30.5498C119.019 28.8404 118.117 27.2508 116.916 25.8719C115.716 24.4929 114.24 23.3515 112.574 22.5129ZM111.929 37.6154C111.289 38.7614 110.305 39.7018 109.101 40.3177C107.898 40.9337 106.528 41.1974 105.166 41.0756C103.804 40.9538 102.511 40.4519 101.45 39.6335C100.389 38.815 99.6085 37.7167 99.2064 36.4776C98.8042 35.2384 98.7989 33.9141 99.1911 32.6721C99.5833 31.4301 100.355 30.3262 101.41 29.5001C102.464 28.674 103.753 28.1628 105.114 28.0312C106.475 27.8996 107.846 28.1535 109.055 28.7607C110.675 29.5744 111.887 30.964 112.426 32.6244C112.965 34.2847 112.786 36.0799 111.929 37.6154Z" fill="url(#paint8_linear_603_9557)"/>
<path opacity="0.54" d="M121.272 34.1494C121.216 32.1264 120.718 30.1363 119.811 28.3043C118.904 26.4722 117.607 24.8377 116.001 23.5034V23.6199C116.078 27.0569 112.974 30.3337 110.992 31.5134C109.009 32.693 104.23 34.397 102.202 38.8098C100.649 42.1739 101.218 47.446 101.356 48.5819C103.7 49.2469 106.176 49.376 108.583 48.9587C110.989 48.5415 113.257 47.5898 115.2 46.1815C117.143 44.7733 118.707 42.9487 119.762 40.8572C120.818 38.7657 121.335 36.467 121.272 34.1494Z" fill="url(#paint9_linear_603_9557)"/>
<path opacity="0.6" d="M99.7717 47.8081C98.696 34.7591 93.5941 34.6426 90.3669 33.8562C90.3516 34.2203 90.3516 34.5698 90.3516 34.9339C90.43 37.7069 91.3365 40.4019 92.9657 42.7064C94.595 45.0109 96.8803 46.8304 99.5565 47.9538C99.581 47.964 99.6077 47.968 99.6343 47.9654C99.6608 47.9628 99.6862 47.9537 99.7079 47.939C99.7296 47.9243 99.7469 47.9045 99.7581 47.8816C99.7693 47.8586 99.774 47.8333 99.7717 47.8081Z" fill="url(#paint10_linear_603_9557)"/>
<path opacity="0.38" d="M107.287 38.8094C106.227 39.7998 105.535 41.0231 105.074 42.2901C106.683 42.4303 108.3 42.1149 109.72 41.3838C111.139 40.6527 112.298 39.5389 113.05 38.1832C114.039 36.4113 114.276 34.3478 113.711 32.416C111.728 35.0957 109.024 37.222 107.287 38.8094Z" fill="url(#paint11_linear_603_9557)"/>
<path opacity="0.7" d="M106.213 48.4933C109.096 48.4209 111.893 47.5484 114.258 45.9839C116.622 44.4194 118.45 42.2317 119.515 39.6919C120.58 37.1522 120.836 34.3721 120.249 31.6962C119.663 29.0203 118.261 26.5662 116.217 24.6382C116.97 31.1044 110.485 35.8521 107.289 38.794C104.2 41.6339 104.216 46.571 104.354 48.4205C104.971 48.4893 105.593 48.5136 106.213 48.4933Z" fill="url(#paint12_linear_603_9557)"/>
<path d="M121.428 34.0363C121.393 32.7025 121.165 31.3795 120.751 30.1042C120.444 29.1333 120.064 28.1843 119.614 27.2643C119 25.9099 116.618 21.1621 112.53 17.8125C112.991 18.2057 116.741 21.5845 116.249 26.638C115.65 32.0848 110.163 36.1772 107.32 38.7986C103.602 42.2211 104.385 48.7019 104.431 49.1242C105.039 49.1805 105.65 49.1999 106.26 49.1825C108.306 49.1325 110.321 48.7009 112.19 47.9126C114.06 47.1242 115.747 45.9944 117.155 44.5879C118.564 43.1813 119.666 41.5254 120.399 39.715C121.132 37.9045 121.482 35.9748 121.428 34.0363Z" fill="url(#paint13_linear_603_9557)"/>
<path d="M113.264 21.099C114.196 21.5371 115.055 22.1013 115.815 22.7739C115.49 21.8031 115.03 20.8775 114.447 20.0213L114.263 19.7636C114.109 19.5597 113.971 19.3849 113.848 19.1956C113.479 18.7475 113.084 18.3196 112.665 17.914C110.698 16.2246 109.484 17.2441 109.545 18.0596C109.607 19.1038 110.836 19.9631 113.264 21.099Z" fill="url(#paint14_linear_603_9557)"/>
<path d="M112.53 17.8219L112.469 17.793C112.499 17.793 112.515 17.8219 112.53 17.8219Z" fill="url(#paint15_linear_603_9557)"/>
<path d="M99.7717 47.8081C98.696 34.7591 93.5941 34.6426 90.3669 33.8562C90.3516 34.2203 90.3516 34.5698 90.3516 34.9339C90.43 37.7069 91.3365 40.4019 92.9657 42.7064C94.595 45.0109 96.8803 46.8304 99.5565 47.9538C99.581 47.964 99.6077 47.968 99.6343 47.9654C99.6608 47.9628 99.6862 47.9537 99.7079 47.939C99.7296 47.9243 99.7469 47.9045 99.7581 47.8816C99.7693 47.8586 99.774 47.8333 99.7717 47.8081Z" fill="url(#paint16_linear_603_9557)"/>
<path d="M121.272 34.1494C121.216 32.1264 120.718 30.1363 119.811 28.3043C118.904 26.4722 117.607 24.8377 116.001 23.5034V23.6199C116.078 27.0569 112.974 30.3337 110.992 31.5134C109.009 32.693 104.23 34.397 102.202 38.8098C100.649 42.1739 101.218 47.446 101.356 48.5819C103.7 49.2469 106.176 49.376 108.583 48.9587C110.989 48.5415 113.257 47.5898 115.2 46.1815C117.143 44.7733 118.707 42.9487 119.762 40.8572C120.818 38.7657 121.335 36.467 121.272 34.1494Z" fill="#FFF682"/>
<path opacity="0.82" d="M121.394 34.0355C121.334 31.9686 120.817 29.9366 119.877 28.0704C118.938 26.2042 117.596 24.5452 115.939 23.2002C117.937 30.3946 110.714 35.6666 107.303 38.7978C103.891 41.929 104.275 47.619 104.398 48.8904C104.403 48.9583 104.434 49.0223 104.485 49.0704C104.536 49.1186 104.603 49.1478 104.675 49.1525C105.201 49.1916 105.73 49.2013 106.258 49.1816C114.832 48.9734 121.609 42.1911 121.394 34.0355Z" fill="url(#paint17_linear_603_9557)"/>
<path d="M112.574 22.5129C110.065 21.25 107.218 20.7206 104.391 20.9915C101.565 21.2623 98.8866 22.3214 96.6953 24.0348C94.504 25.7482 92.898 28.0389 92.0804 30.6172C91.2628 33.1956 91.2703 35.9458 92.102 38.5201C92.9337 41.0945 94.5521 43.3772 96.7528 45.0798C98.9534 46.7824 101.637 47.8284 104.465 48.0854C107.293 48.3424 110.138 47.799 112.64 46.5238C115.142 45.2486 117.189 43.2989 118.521 40.9213C119.406 39.3425 119.955 37.614 120.135 35.8345C120.315 34.0549 120.123 32.2592 119.571 30.5498C119.019 28.8404 118.117 27.2508 116.916 25.8719C115.716 24.4929 114.24 23.3515 112.574 22.5129ZM111.929 37.6154C111.289 38.7614 110.305 39.7018 109.101 40.3177C107.898 40.9337 106.528 41.1974 105.166 41.0756C103.804 40.9538 102.511 40.4519 101.45 39.6335C100.389 38.815 99.6085 37.7167 99.2064 36.4776C98.8042 35.2384 98.7989 33.9141 99.1911 32.6721C99.5833 31.4301 100.355 30.3262 101.41 29.5001C102.464 28.674 103.753 28.1628 105.114 28.0312C106.475 27.8996 107.846 28.1535 109.055 28.7607C110.675 29.5744 111.887 30.964 112.426 32.6244C112.965 34.2847 112.786 36.0799 111.929 37.6154Z" fill="url(#paint18_linear_603_9557)"/>
<path opacity="0.58" d="M95.7919 30.6248C94.3936 32.1284 93.4972 33.9912 93.216 35.9776C92.9349 37.9641 93.2816 39.9849 94.2124 41.7846C95.1431 43.5843 96.6161 45.082 98.4451 46.0883C100.274 47.0946 102.377 47.5643 104.487 47.438C106.598 47.3117 108.622 46.5951 110.303 45.3788C111.983 44.1625 113.246 42.5011 113.931 40.6048C114.615 38.7085 114.691 36.6623 114.148 34.7252C113.606 32.788 112.469 31.0468 110.883 29.7218C106.441 26.0372 99.6798 26.4304 95.7919 30.6248ZM111.927 37.6153C111.288 38.7613 110.304 39.7017 109.1 40.3176C107.896 40.9336 106.527 41.1973 105.165 41.0755C103.803 40.9537 102.51 40.4518 101.449 39.6334C100.388 38.8149 99.6072 37.7166 99.2051 36.4775C98.8029 35.2383 98.7976 33.914 99.1898 32.672C99.582 31.43 100.354 30.3261 101.408 29.5C102.463 28.6739 103.752 28.1627 105.113 28.0311C106.474 27.8995 107.845 28.1534 109.054 28.7606C110.673 29.5743 111.886 30.9639 112.424 32.6243C112.963 34.2846 112.785 36.0798 111.927 37.6153Z" fill="url(#paint19_linear_603_9557)"/>
<path opacity="0.58" d="M108.517 24.5944C106.73 23.4789 104.633 22.8908 102.493 22.9045C100.353 22.9183 98.2649 23.5332 96.4935 24.6716C94.7222 25.8099 93.3468 27.4206 92.5414 29.2998C91.736 31.179 91.5368 33.2424 91.9689 35.2289C92.4011 37.2155 93.4451 39.0359 94.9691 40.4601C96.4931 41.8842 98.4284 42.848 100.53 43.2296C102.632 43.6112 104.807 43.3935 106.778 42.6039C108.75 41.8144 110.43 40.4885 111.606 38.7939C112.388 37.6698 112.929 36.4105 113.197 35.088C113.466 33.7656 113.456 32.4059 113.169 31.087C112.882 29.7681 112.324 28.5157 111.525 27.4016C110.727 26.2876 109.705 25.3336 108.517 24.5944ZM102.017 40.0755C100.868 39.3612 99.9681 38.34 99.4316 37.1411C98.8951 35.9422 98.7458 34.6195 99.0025 33.3402C99.2592 32.0609 99.9105 30.8825 100.874 29.9539C101.837 29.0254 103.07 28.3885 104.415 28.1237C105.76 27.8589 107.158 27.9781 108.432 28.4664C109.706 28.9546 110.799 29.7898 111.572 30.8665C112.345 31.9431 112.763 33.2129 112.775 34.5151C112.787 35.8172 112.39 37.0934 111.637 38.1822C110.624 39.6404 109.043 40.6585 107.24 41.0135C105.436 41.3684 103.558 41.0311 102.017 40.0755Z" fill="url(#paint20_linear_603_9557)"/>
<path opacity="0.54" d="M102.585 40.3083C103.93 40.9807 105.47 41.2149 106.969 40.9748C108.468 40.7346 109.842 40.0336 110.879 38.9798C111.916 37.926 112.558 36.5781 112.706 35.1442C112.854 33.7103 112.499 32.2701 111.698 31.0459C111.485 31.2122 111.259 31.3632 111.022 31.4974C109.055 32.677 104.26 34.381 102.232 38.7937C102.076 39.1351 101.942 39.4853 101.832 39.8423C102.057 40.0323 102.311 40.1894 102.585 40.3083Z" fill="white"/>
<path opacity="0.54" d="M121.272 34.1494C121.216 32.1264 120.718 30.1363 119.811 28.3043C118.904 26.4722 117.607 24.8377 116.001 23.5034V23.6199C116.078 27.0569 112.974 30.3337 110.992 31.5134C109.009 32.693 104.23 34.397 102.202 38.8098C100.649 42.1739 101.218 47.446 101.356 48.5819C103.7 49.2469 106.176 49.376 108.583 48.9587C110.989 48.5415 113.257 47.5898 115.2 46.1815C117.143 44.7733 118.707 42.9487 119.762 40.8572C120.818 38.7657 121.335 36.467 121.272 34.1494Z" fill="url(#paint21_linear_603_9557)"/>
<path opacity="0.6" d="M99.7717 47.8081C98.696 34.7591 93.5941 34.6426 90.3669 33.8562C90.3516 34.2203 90.3516 34.5698 90.3516 34.9339C90.43 37.7069 91.3365 40.4019 92.9657 42.7064C94.595 45.0109 96.8803 46.8304 99.5565 47.9538C99.581 47.964 99.6077 47.968 99.6343 47.9654C99.6608 47.9628 99.6862 47.9537 99.7079 47.939C99.7296 47.9243 99.7469 47.9045 99.7581 47.8816C99.7693 47.8586 99.774 47.8333 99.7717 47.8081Z" fill="url(#paint22_linear_603_9557)"/>
<path opacity="0.38" d="M107.287 38.8094C106.227 39.7998 105.535 41.0231 105.074 42.2901C106.683 42.4303 108.3 42.1149 109.72 41.3838C111.139 40.6527 112.298 39.5389 113.05 38.1832C114.039 36.4113 114.276 34.3478 113.711 32.416C111.728 35.0957 109.024 37.222 107.287 38.8094Z" fill="#FFDF9A"/>
<path opacity="0.7" d="M106.213 48.4933C109.096 48.4209 111.893 47.5484 114.258 45.9839C116.622 44.4194 118.45 42.2317 119.515 39.6919C120.58 37.1522 120.836 34.3721 120.249 31.6962C119.663 29.0203 118.261 26.5662 116.217 24.6382C116.97 31.1044 110.485 35.8521 107.289 38.794C104.2 41.6339 104.216 46.571 104.354 48.4205C104.971 48.4893 105.593 48.5136 106.213 48.4933Z" fill="url(#paint23_linear_603_9557)"/>
<circle cx="90.5" cy="96.5" r="6.5" fill="#FFCAB9"/>
<circle cx="118.5" cy="96.5" r="6.5" fill="#BDEEC7"/>
<rect x="88" y="62" width="34" height="5" rx="2" fill="#E9F0F4"/>
<rect x="97" y="72" width="16" height="3" rx="1.5" fill="#E9F0F4"/>
<path d="M204.065 159.105C200.05 155.719 187.94 143.674 185.905 139.752C176.434 121.499 196.261 109.694 214.968 125.476C222.084 131.48 217.814 128.215 232.058 139.194C239.863 145.211 204.065 159.105 204.065 159.105Z" fill="#FFCEBE"/>
<path d="M204.064 159.105C200.049 155.719 187.94 143.674 185.905 139.752C176.433 121.499 177.553 125.29 195.768 141.585C207.358 151.953 222.742 150.453 222.742 150.453L204.064 159.105Z" fill="#FBB3A3"/>
<path d="M119.754 62.7951C120.439 61.8743 121.814 61.7309 122.698 62.4824C127.51 66.5701 132.322 69.4432 135.808 72.1055C148.3 81.644 152.469 83.1609 152.469 83.1609C152.63 83.185 153.315 84.061 153.48 84.0783C153.304 83.0451 152.699 79.1337 157.85 79.1993C158.803 79.0162 159.41 79.1941 160.134 79.3945C160.7 79.4775 161.305 79.5863 161.961 79.728C161.961 79.728 162.084 77.6997 163.818 76.784C163.962 76.6648 164.118 76.5404 164.294 76.4039C167.611 75.972 168.64 76.2139 171.03 77.9087C171.824 75.8476 174.916 76.2346 177.232 76.9292C179.547 77.6237 182.667 79.8403 184.339 81.1689C190.24 85.5191 196.771 91.5038 196.771 91.5038L214.968 125.473C214.968 125.473 199.471 138.308 189.432 143.088C179.393 147.867 155.505 125.566 155.353 125.432C155.215 125.433 152.847 123.652 152.28 123.103C150.391 121.271 148.505 119.44 146.624 117.605C142.29 113.708 124.818 103.521 125.269 103.825C125.269 103.825 126.425 98.6528 133.375 99.8899C141.798 101.389 156.301 109.326 156.322 108.991C156.576 105.078 146.548 95.4722 138.906 88.1694C135.489 84.9041 126.644 76.2191 125.237 74.8992C118.017 68.1319 118.47 64.5245 119.754 62.7951Z" fill="#FFCEBE"/>
<path d="M152.608 82.9935L152.305 83.2974L163.611 93.5783L163.915 93.2744L152.608 82.9935Z" fill="#FBB3A3"/>
<path d="M162.343 79.788L162.039 80.0918L173.345 90.3727L173.649 90.0689L162.343 79.788Z" fill="#FBB3A3"/>
<path d="M173.421 77.9335L173.117 78.2373L184.423 88.5197L184.727 88.2159L173.421 77.9335Z" fill="#FBB3A3"/>
<path d="M158.117 110.446L156.32 108.99C156.32 108.99 155.552 104.803 149.412 98.5872C143.272 92.3711 125.234 74.8975 125.234 74.8975C125.234 74.8975 158.404 96.2255 159.369 104.235C160.337 112.244 158.117 110.446 158.117 110.446Z" fill="#FBB3A3"/>
<path d="M129.643 106.514L132.158 107.738C132.919 108.11 133.859 107.82 134.248 107.092C134.638 106.367 134.332 105.47 133.571 105.099L131.056 103.874C130.295 103.502 129.355 103.792 128.965 104.52C128.578 105.245 128.882 106.144 129.643 106.514Z" fill="#FFC2CD"/>
<path d="M122.143 65.3481L125.437 67.9776C126.031 68.451 126.922 68.3749 127.419 67.81C127.915 67.245 127.835 66.3933 127.243 65.9199L123.949 63.2904C123.355 62.817 122.464 62.8931 121.967 63.458C121.471 64.0247 121.549 64.8747 122.143 65.3481Z" fill="#FFC2CD"/>
<path d="M194.364 140.393C194.364 140.393 189.271 144.883 184.673 143.66C180.073 142.435 168.969 139.296 152.277 123.104C152.277 123.104 174.404 140.703 182.644 141.026C190.886 141.347 194.364 140.393 194.364 140.393Z" fill="#FBB3A3"/>
</g>
<defs>
<linearGradient id="paint0_linear_603_9557" x1="104.363" y1="33.4568" x2="121.487" y2="33.4568" gradientUnits="userSpaceOnUse">
<stop stop-color="#FF8AB3"/>
<stop offset="0.4" stop-color="#F7BE6E"/>
<stop offset="1" stop-color="#FFF5B0"/>
</linearGradient>
<linearGradient id="paint1_linear_603_9557" x1="124.549" y1="28.6228" x2="112.651" y2="18.4077" gradientUnits="userSpaceOnUse">
<stop stop-color="#F7BE6E"/>
<stop offset="1" stop-color="#FFF5B0"/>
</linearGradient>
<linearGradient id="paint2_linear_603_9557" x1="112.523" y1="17.7463" x2="112.57" y2="17.7463" gradientUnits="userSpaceOnUse">
<stop stop-color="#FFF5B0"/>
<stop offset="1" stop-color="#F7BE6E"/>
</linearGradient>
<linearGradient id="paint3_linear_603_9557" x1="505.521" y1="-1600.5" x2="991.534" y2="-1600.5" gradientUnits="userSpaceOnUse">
<stop stop-color="#FFF5B0"/>
<stop offset="1" stop-color="#F7BE6E"/>
</linearGradient>
<linearGradient id="paint4_linear_603_9557" x1="2961.97" y1="-239.052" x2="2961.97" y2="-5980.28" gradientUnits="userSpaceOnUse">
<stop stop-color="#F7BE6E"/>
<stop offset="1" stop-color="#FFF5B0"/>
</linearGradient>
<linearGradient id="paint5_linear_603_9557" x1="105.331" y1="38.4709" x2="97.2416" y2="31.7267" gradientUnits="userSpaceOnUse">
<stop stop-color="white"/>
<stop offset="1" stop-color="#DEA8DE"/>
</linearGradient>
<linearGradient id="paint6_linear_603_9557" x1="105.331" y1="38.4709" x2="97.2416" y2="31.7267" gradientUnits="userSpaceOnUse">
<stop stop-color="white"/>
<stop offset="1" stop-color="#DEA8DE"/>
</linearGradient>
<linearGradient id="paint7_linear_603_9557" x1="-42417.6" y1="-12170.9" x2="-41710.9" y2="-13452.4" gradientUnits="userSpaceOnUse">
<stop stop-color="white"/>
<stop offset="1" stop-color="#DEA8DE"/>
</linearGradient>
<linearGradient id="paint8_linear_603_9557" x1="3792.44" y1="-6762.24" x2="3792.44" y2="-1774.85" gradientUnits="userSpaceOnUse">
<stop stop-color="#FF8AB3"/>
<stop offset="0.4" stop-color="#F7BE6E"/>
<stop offset="1" stop-color="#FFF5B0"/>
</linearGradient>
<linearGradient id="paint9_linear_603_9557" x1="107.006" y1="49.785" x2="115.382" y2="26.7804" gradientUnits="userSpaceOnUse">
<stop stop-color="#FF8AB3"/>
<stop offset="0.4" stop-color="#F7BE6E"/>
<stop offset="0.84" stop-color="#FFF5B0" stop-opacity="0.6"/>
</linearGradient>
<linearGradient id="paint10_linear_603_9557" x1="505.521" y1="-1600.5" x2="991.534" y2="-1600.5" gradientUnits="userSpaceOnUse">
<stop stop-color="#FFF5B0"/>
<stop offset="1" stop-color="#F7BE6E"/>
</linearGradient>
<linearGradient id="paint11_linear_603_9557" x1="1686.09" y1="-2144.67" x2="1686.09" y2="-1360.94" gradientUnits="userSpaceOnUse">
<stop stop-color="white"/>
<stop offset="1" stop-color="#DEA8DE"/>
</linearGradient>
<linearGradient id="paint12_linear_603_9557" x1="111.264" y1="50.6001" x2="113.677" y2="28.6471" gradientUnits="userSpaceOnUse">
<stop stop-color="#FF8AB3"/>
<stop offset="0.4" stop-color="#F7BE6E"/>
<stop offset="1" stop-color="#FFF5B0" stop-opacity="0"/>
</linearGradient>
<linearGradient id="paint13_linear_603_9557" x1="104.363" y1="33.4568" x2="121.487" y2="33.4568" gradientUnits="userSpaceOnUse">
<stop stop-color="#FF8AB3"/>
<stop offset="0.4" stop-color="#F7BE6E"/>
<stop offset="1" stop-color="#FFF5B0"/>
</linearGradient>
<linearGradient id="paint14_linear_603_9557" x1="124.549" y1="28.6228" x2="112.651" y2="18.4077" gradientUnits="userSpaceOnUse">
<stop stop-color="#F7BE6E"/>
<stop offset="1" stop-color="#FFF5B0"/>
</linearGradient>
<linearGradient id="paint15_linear_603_9557" x1="112.523" y1="17.7463" x2="112.57" y2="17.7463" gradientUnits="userSpaceOnUse">
<stop stop-color="#FFF5B0"/>
<stop offset="1" stop-color="#F7BE6E"/>
</linearGradient>
<linearGradient id="paint16_linear_603_9557" x1="505.521" y1="-1600.5" x2="991.534" y2="-1600.5" gradientUnits="userSpaceOnUse">
<stop stop-color="#FFF5B0"/>
<stop offset="1" stop-color="#F7BE6E"/>
</linearGradient>
<linearGradient id="paint17_linear_603_9557" x1="2961.97" y1="-239.052" x2="2961.97" y2="-5980.28" gradientUnits="userSpaceOnUse">
<stop stop-color="#F7BE6E"/>
<stop offset="1" stop-color="#FFF5B0"/>
</linearGradient>
<linearGradient id="paint18_linear_603_9557" x1="3792.44" y1="-6762.24" x2="3792.44" y2="-1774.85" gradientUnits="userSpaceOnUse">
<stop stop-color="#FF8AB3"/>
<stop offset="0.4" stop-color="#F7BE6E"/>
<stop offset="1" stop-color="#FFF5B0"/>
</linearGradient>
<linearGradient id="paint19_linear_603_9557" x1="103.917" y1="38.1978" x2="102.807" y2="27.4996" gradientUnits="userSpaceOnUse">
<stop stop-color="#FF947C" stop-opacity="0"/>
<stop offset="0.25" stop-color="#FF917A" stop-opacity="0.27"/>
<stop offset="0.46" stop-color="#FF8775" stop-opacity="0.48"/>
<stop offset="0.64" stop-color="#FF766B" stop-opacity="0.67"/>
<stop offset="0.81" stop-color="#FF5F5E" stop-opacity="0.85"/>
<stop offset="0.96" stop-color="#FF444F"/>
</linearGradient>
<linearGradient id="paint20_linear_603_9557" x1="102.41" y1="34.3491" x2="103.874" y2="23.1531" gradientUnits="userSpaceOnUse">
<stop stop-color="#FFFF1B" stop-opacity="0"/>
<stop offset="1" stop-color="#FF537E"/>
</linearGradient>
<linearGradient id="paint21_linear_603_9557" x1="107.006" y1="49.785" x2="115.382" y2="26.7804" gradientUnits="userSpaceOnUse">
<stop stop-color="#FF8AB3"/>
<stop offset="0.4" stop-color="#F7BE6E"/>
<stop offset="0.84" stop-color="#FFF5B0" stop-opacity="0.6"/>
</linearGradient>
<linearGradient id="paint22_linear_603_9557" x1="505.521" y1="-1600.5" x2="991.534" y2="-1600.5" gradientUnits="userSpaceOnUse">
<stop stop-color="#FFF5B0"/>
<stop offset="1" stop-color="#F7BE6E"/>
</linearGradient>
<linearGradient id="paint23_linear_603_9557" x1="111.264" y1="50.6001" x2="113.677" y2="28.6471" gradientUnits="userSpaceOnUse">
<stop stop-color="#FF8AB3"/>
<stop offset="0.4" stop-color="#F7BE6E"/>
<stop offset="1" stop-color="#FFF5B0" stop-opacity="0"/>
</linearGradient>
<clipPath id="clip0_603_9557">
<rect width="240" height="160" fill="white"/>
</clipPath>
</defs>
</svg>
