<svg width="240" height="160" viewBox="0 0 240 160" fill="none" xmlns="http://www.w3.org/2000/svg">
<g clip-path="url(#clip0_954_10350)">
<path opacity="0.4" d="M152.525 0.007409C219.899 0.880431 242.778 40.6026 223.317 83.8173C203.856 127.032 167.871 138.54 135.44 144.056C103.009 149.571 34.8679 143.183 19.7315 127.032C4.59517 110.881 3.33887 67.8036 64.1596 71.1585C124.982 74.5133 85.1501 -0.865613 152.525 0.007409Z" fill="#E3EBF5"/>
<g clip-path="url(#clip1_954_10350)">
<path d="M199.802 12.9998H39.4771C37.254 12.9998 35.4336 14.8223 35.4336 17.0436V124.014H203.842V17.0436C203.842 14.8181 202.021 12.9998 199.802 12.9998Z" fill="#58619A"/>
<path d="M196.523 19.9705H42.9297V118.769H196.523V19.9705Z" fill="#FAFCFC"/>
<path d="M221.891 134H17.1045L7 130.288H232L221.891 134Z" fill="#B8BFC9"/>
<path d="M120.2 17.1738C120.2 17.5685 119.881 17.8877 119.483 17.8877C119.084 17.8877 118.766 17.5685 118.766 17.1738C118.766 16.7791 119.089 16.4557 119.483 16.4557C119.877 16.4557 120.2 16.7749 120.2 17.1738Z" fill="#87888A"/>
<path d="M137.662 123.997H101.199V127.705H137.662V123.997Z" fill="#B1B3B4"/>
<path d="M134.768 123.997V125.345C134.768 126.273 134.009 127.033 133.086 127.033H105.801C104.878 127.033 104.119 126.273 104.119 125.345V123.997H7V130.288H232V123.997H134.772H134.768Z" fill="#D0D6DB"/>
<path d="M74.3736 38.5236C74.3541 37.778 74.2269 37.0383 73.9956 36.3254C73.8235 35.7826 73.611 35.2521 73.3599 34.7378C73.0162 33.9806 71.6846 31.3264 69.3994 29.4538C69.6572 29.6736 71.7534 31.5625 71.4784 34.3877C71.1434 37.4327 68.0764 39.7205 66.4871 41.186C64.4081 43.0993 64.8462 46.7223 64.872 46.9584C65.2117 46.9899 65.5532 47.0008 65.8943 46.991C67.0378 46.963 68.1644 46.7218 69.2095 46.2811C70.2546 45.8403 71.1978 45.2087 71.9853 44.4224C72.7727 43.6361 73.389 42.7104 73.7988 41.6982C74.2086 40.6861 74.4039 39.6074 74.3736 38.5236Z" fill="url(#paint0_linear_954_10350)"/>
<path d="M69.8107 31.2911C70.3315 31.536 70.8119 31.8514 71.2368 32.2274C71.0549 31.6847 70.7978 31.1672 70.4722 30.6886L70.3691 30.5445C70.2832 30.4305 70.2059 30.3328 70.1372 30.227C69.9312 29.9765 69.7103 29.7373 69.4757 29.5105C68.376 28.5661 67.6974 29.136 67.7317 29.5919C67.7661 30.1757 68.4534 30.656 69.8107 31.2911Z" fill="url(#paint1_linear_954_10350)"/>
<path d="M69.3974 29.459L69.3633 29.4429C69.3804 29.4429 69.3889 29.459 69.3974 29.459Z" fill="url(#paint2_linear_954_10350)"/>
<path d="M62.2663 46.2225C61.6649 38.9276 58.8127 38.8624 57.0086 38.4228C57 38.6263 57 38.8217 57 39.0253C57.0439 40.5755 57.5506 42.0821 58.4614 43.3704C59.3723 44.6588 60.6499 45.6759 62.146 46.304C62.1596 46.3097 62.1746 46.3119 62.1894 46.3105C62.2043 46.309 62.2185 46.3039 62.2306 46.2957C62.2427 46.2875 62.2524 46.2764 62.2587 46.2636C62.2649 46.2508 62.2675 46.2366 62.2663 46.2225Z" fill="url(#paint3_linear_954_10350)"/>
<path d="M74.2858 38.5868C74.2541 37.4559 73.976 36.3433 73.4689 35.3191C72.9618 34.2949 72.2366 33.3812 71.3391 32.6353V32.7004C71.382 34.6218 69.6466 36.4537 68.5384 37.1132C67.4302 37.7727 64.7584 38.7252 63.6244 41.1922C62.7567 43.0729 63.0745 46.0202 63.1519 46.6552C64.462 47.027 65.8464 47.0992 67.1917 46.8659C68.5369 46.6327 69.8047 46.1006 70.8911 45.3133C71.9775 44.526 72.8515 43.506 73.4416 42.3368C74.0317 41.1676 74.3209 39.8825 74.2858 38.5868Z" fill="#FFF682"/>
<path opacity="0.82" d="M74.3537 38.5231C74.3198 37.3676 74.0309 36.2316 73.5056 35.1884C72.9803 34.1451 72.2303 33.2176 71.3039 32.4657C72.4207 36.4877 68.383 39.435 66.4758 41.1855C64.5686 42.9359 64.7834 46.1169 64.8521 46.8276C64.8549 46.8656 64.8721 46.9014 64.9005 46.9283C64.9289 46.9552 64.9666 46.9715 65.0067 46.9742C65.3011 46.9961 65.5966 47.0015 65.8916 46.9905C70.6854 46.8741 74.474 43.0825 74.3537 38.5231Z" fill="url(#paint4_linear_954_10350)"/>
<path d="M60.0481 36.5506C59.2606 37.3968 58.7555 38.4453 58.5967 39.5636C58.438 40.6818 58.6327 41.8196 59.1562 42.8329C59.6798 43.8463 60.5086 44.6898 61.538 45.2567C62.5674 45.8237 63.7511 46.0886 64.9393 46.018C66.1276 45.9474 67.267 45.5444 68.2136 44.8601C69.1602 44.1758 69.8715 43.2408 70.2574 42.1734C70.6433 41.106 70.6865 39.9541 70.3817 38.8634C70.0768 37.7727 69.4375 36.7922 68.5446 36.0458C67.3462 35.0472 65.7789 34.5396 64.1863 34.6343C62.5936 34.7289 61.1055 35.418 60.0481 36.5506ZM69.1631 40.5726C68.7936 41.2321 68.226 41.7729 67.5321 42.1266C66.8382 42.4804 66.0492 42.6312 65.2649 42.56C64.4806 42.4887 63.7362 42.1987 63.1258 41.7265C62.5154 41.2544 62.0665 40.6212 61.8358 39.9073C61.6051 39.1933 61.603 38.4305 61.8298 37.7154C62.0565 37.0003 62.5019 36.365 63.1097 35.8898C63.7174 35.4146 64.4602 35.1208 65.2441 35.0457C66.028 34.9706 66.8178 35.1175 67.5137 35.4678C67.9764 35.6996 68.3862 36.0157 68.7197 36.398C69.0532 36.7803 69.3037 37.2213 69.457 37.6956C69.6102 38.1698 69.6632 38.6681 69.6127 39.1619C69.5623 39.6556 69.4095 40.135 69.1631 40.5726Z" fill="url(#paint5_linear_954_10350)"/>
<path opacity="0.4" d="M60.0481 36.5506C59.2606 37.3968 58.7555 38.4453 58.5967 39.5636C58.438 40.6818 58.6327 41.8196 59.1562 42.8329C59.6798 43.8463 60.5086 44.6898 61.538 45.2567C62.5674 45.8237 63.7511 46.0886 64.9393 46.018C66.1276 45.9474 67.267 45.5444 68.2136 44.8601C69.1602 44.1758 69.8715 43.2408 70.2574 42.1734C70.6433 41.106 70.6865 39.9541 70.3817 38.8634C70.0768 37.7727 69.4375 36.7922 68.5446 36.0458C67.3462 35.0472 65.7789 34.5396 64.1863 34.6343C62.5936 34.7289 61.1055 35.418 60.0481 36.5506ZM69.1631 40.5726C68.7936 41.2321 68.226 41.7729 67.5321 42.1266C66.8382 42.4804 66.0492 42.6312 65.2649 42.56C64.4806 42.4887 63.7362 42.1987 63.1258 41.7265C62.5154 41.2544 62.0665 40.6212 61.8358 39.9073C61.6051 39.1933 61.603 38.4305 61.8298 37.7154C62.0565 37.0003 62.5019 36.365 63.1097 35.8898C63.7174 35.4146 64.4602 35.1208 65.2441 35.0457C66.028 34.9706 66.8178 35.1175 67.5137 35.4678C67.9764 35.6996 68.3862 36.0157 68.7197 36.398C69.0532 36.7803 69.3037 37.2213 69.457 37.6956C69.6102 38.1698 69.6632 38.6681 69.6127 39.1619C69.5623 39.6556 69.4095 40.135 69.1631 40.5726Z" fill="url(#paint6_linear_954_10350)"/>
<path d="M67.1535 33.245C66.1527 32.6217 64.9793 32.2937 63.7818 32.3024C62.5842 32.3112 61.4163 32.6562 60.4257 33.294C59.4351 33.9318 58.6664 34.8337 58.2166 35.8856C57.7669 36.9375 57.6564 38.0921 57.8991 39.2035C58.1418 40.3149 58.7268 41.3331 59.5802 42.1294C60.4335 42.9257 61.5169 43.4643 62.6932 43.677C63.8696 43.8898 65.0861 43.7672 66.1889 43.3247C67.2917 42.8823 68.2313 42.1398 68.8889 41.1913C69.7687 39.9189 70.0802 38.3678 69.7548 36.8781C69.4295 35.3884 68.494 34.0818 67.1535 33.245ZM63.4852 41.9566C62.8328 41.5506 62.3222 40.9703 62.0179 40.2892C61.7135 39.6082 61.6291 38.8569 61.7753 38.1303C61.9215 37.4038 62.2918 36.7347 62.8393 36.2076C63.3868 35.6805 64.0869 35.3191 64.8512 35.1692C65.6154 35.0192 66.4094 35.0873 67.1327 35.365C67.8561 35.6427 68.4763 36.1175 68.9149 36.7292C69.3536 37.341 69.5909 38.0623 69.597 38.8019C69.6031 39.5415 69.3776 40.2662 68.949 40.8843C68.3734 41.7119 67.4751 42.2895 66.4509 42.4904C65.4267 42.6914 64.3602 42.4995 63.4852 41.9566Z" fill="url(#paint7_linear_954_10350)"/>
<path d="M69.4217 32.0815C68.0191 31.3755 66.4271 31.0795 64.847 31.2309C63.2669 31.3824 61.7697 31.9745 60.5447 32.9323C59.3196 33.8902 58.4218 35.1708 57.9647 36.6122C57.5077 38.0536 57.5119 39.5911 57.9768 41.0303C58.4418 42.4694 59.3466 43.7456 60.5768 44.6974C61.8071 45.6492 63.3075 46.234 64.8884 46.3777C66.4693 46.5213 68.0597 46.2175 69.4584 45.5046C70.8571 44.7917 72.0013 43.7018 72.7464 42.3726C73.2412 41.49 73.5476 40.5237 73.6483 39.5289C73.749 38.534 73.6419 37.5301 73.3332 36.5745C73.0244 35.6189 72.5201 34.7302 71.849 33.9593C71.1778 33.1884 70.353 32.5503 69.4217 32.0815ZM69.0609 40.5245C68.7033 41.1651 68.1532 41.6909 67.4803 42.0352C66.8074 42.3795 66.0418 42.527 65.2804 42.4589C64.519 42.3908 63.7961 42.1102 63.203 41.6527C62.6099 41.1951 62.1733 40.5811 61.9485 39.8884C61.7237 39.1956 61.7207 38.4553 61.94 37.7609C62.1592 37.0666 62.5908 36.4495 63.1802 35.9877C63.7696 35.5258 64.4903 35.2401 65.2511 35.1665C66.0119 35.0929 66.7787 35.2348 67.4544 35.5743C68.3597 36.0292 69.0375 36.8061 69.3387 37.7343C69.64 38.6625 69.54 39.666 69.0609 40.5245Z" fill="url(#paint8_linear_954_10350)"/>
<path opacity="0.54" d="M74.2858 38.5868C74.2541 37.4559 73.976 36.3433 73.4689 35.3191C72.9618 34.2949 72.2366 33.3812 71.3391 32.6353V32.7004C71.382 34.6218 69.6466 36.4537 68.5384 37.1132C67.4302 37.7727 64.7584 38.7252 63.6244 41.1922C62.7567 43.0729 63.0745 46.0202 63.1519 46.6552C64.462 47.027 65.8464 47.0992 67.1917 46.8659C68.5369 46.6327 69.8047 46.1006 70.8911 45.3133C71.9775 44.526 72.8515 43.506 73.4416 42.3368C74.0317 41.1676 74.3209 39.8825 74.2858 38.5868Z" fill="url(#paint9_linear_954_10350)"/>
<path opacity="0.6" d="M62.2663 46.2225C61.6649 38.9276 58.8127 38.8624 57.0086 38.4228C57 38.6263 57 38.8217 57 39.0253C57.0439 40.5755 57.5506 42.0821 58.4614 43.3704C59.3723 44.6588 60.6499 45.6759 62.146 46.304C62.1596 46.3097 62.1746 46.3119 62.1894 46.3105C62.2043 46.309 62.2185 46.3039 62.2306 46.2957C62.2427 46.2875 62.2524 46.2764 62.2587 46.2636C62.2649 46.2508 62.2675 46.2366 62.2663 46.2225Z" fill="url(#paint10_linear_954_10350)"/>
<path opacity="0.38" d="M66.4676 41.192C65.8748 41.7456 65.4882 42.4295 65.2305 43.1379C66.13 43.2162 67.0338 43.0399 67.8275 42.6312C68.6212 42.2225 69.2691 41.5998 69.6892 40.8419C70.2423 39.8514 70.3745 38.6978 70.0586 37.6178C68.9504 39.1159 67.4383 40.3046 66.4676 41.192Z" fill="url(#paint11_linear_954_10350)"/>
<path opacity="0.7" d="M65.8656 46.6057C67.4772 46.5653 69.0409 46.0775 70.3627 45.2028C71.6846 44.3282 72.7066 43.1052 73.302 41.6854C73.8974 40.2655 74.0401 38.7113 73.7124 37.2154C73.3847 35.7194 72.601 34.3475 71.4584 33.2697C71.8793 36.8846 68.2539 39.5388 66.467 41.1834C64.7402 42.771 64.7488 45.531 64.8261 46.565C65.1711 46.6035 65.5186 46.6171 65.8656 46.6057Z" fill="url(#paint12_linear_954_10350)"/>
<path d="M74.3736 38.5236C74.3541 37.778 74.2269 37.0383 73.9956 36.3254C73.8235 35.7826 73.611 35.2521 73.3599 34.7378C73.0162 33.9806 71.6846 31.3264 69.3994 29.4538C69.6572 29.6736 71.7534 31.5625 71.4784 34.3877C71.1434 37.4327 68.0764 39.7205 66.4871 41.186C64.4081 43.0993 64.8462 46.7223 64.872 46.9584C65.2117 46.9899 65.5532 47.0008 65.8943 46.991C67.0378 46.963 68.1644 46.7218 69.2095 46.2811C70.2546 45.8403 71.1978 45.2087 71.9853 44.4224C72.7727 43.6361 73.389 42.7104 73.7988 41.6982C74.2086 40.6861 74.4039 39.6074 74.3736 38.5236Z" fill="url(#paint13_linear_954_10350)"/>
<path d="M69.8107 31.2911C70.3315 31.536 70.8119 31.8514 71.2368 32.2274C71.0549 31.6847 70.7978 31.1672 70.4722 30.6886L70.3691 30.5445C70.2832 30.4305 70.2059 30.3328 70.1372 30.227C69.9312 29.9765 69.7103 29.7373 69.4757 29.5105C68.376 28.5661 67.6974 29.136 67.7317 29.5919C67.7661 30.1757 68.4534 30.656 69.8107 31.2911Z" fill="url(#paint14_linear_954_10350)"/>
<path d="M69.3974 29.459L69.3633 29.4429C69.3804 29.4429 69.3889 29.459 69.3974 29.459Z" fill="url(#paint15_linear_954_10350)"/>
<path d="M62.2663 46.2225C61.6649 38.9276 58.8127 38.8624 57.0086 38.4228C57 38.6263 57 38.8217 57 39.0253C57.0439 40.5755 57.5506 42.0821 58.4614 43.3704C59.3723 44.6588 60.6499 45.6759 62.146 46.304C62.1596 46.3097 62.1746 46.3119 62.1894 46.3105C62.2043 46.309 62.2185 46.3039 62.2306 46.2957C62.2427 46.2875 62.2524 46.2764 62.2587 46.2636C62.2649 46.2508 62.2675 46.2366 62.2663 46.2225Z" fill="url(#paint16_linear_954_10350)"/>
<path d="M74.2858 38.5868C74.2541 37.4559 73.976 36.3433 73.4689 35.3191C72.9618 34.2949 72.2366 33.3812 71.3391 32.6353V32.7004C71.382 34.6218 69.6466 36.4537 68.5384 37.1132C67.4302 37.7727 64.7584 38.7252 63.6244 41.1922C62.7567 43.0729 63.0745 46.0202 63.1519 46.6552C64.462 47.027 65.8464 47.0992 67.1917 46.8659C68.5369 46.6327 69.8047 46.1006 70.8911 45.3133C71.9775 44.526 72.8515 43.506 73.4416 42.3368C74.0317 41.1676 74.3209 39.8825 74.2858 38.5868Z" fill="#FFF682"/>
<path opacity="0.82" d="M74.3537 38.5231C74.3198 37.3676 74.0309 36.2316 73.5056 35.1884C72.9803 34.1451 72.2303 33.2176 71.3039 32.4657C72.4207 36.4877 68.383 39.435 66.4758 41.1855C64.5686 42.9359 64.7834 46.1169 64.8521 46.8276C64.8549 46.8656 64.8721 46.9014 64.9005 46.9283C64.9289 46.9552 64.9666 46.9715 65.0067 46.9742C65.3011 46.9961 65.5966 47.0015 65.8916 46.9905C70.6854 46.8741 74.474 43.0825 74.3537 38.5231Z" fill="url(#paint17_linear_954_10350)"/>
<path d="M69.4217 32.0815C68.0191 31.3755 66.4271 31.0795 64.847 31.2309C63.2669 31.3824 61.7697 31.9745 60.5447 32.9323C59.3196 33.8902 58.4218 35.1708 57.9647 36.6122C57.5077 38.0536 57.5119 39.5911 57.9768 41.0303C58.4418 42.4694 59.3466 43.7456 60.5768 44.6974C61.8071 45.6492 63.3075 46.234 64.8884 46.3777C66.4693 46.5213 68.0597 46.2175 69.4584 45.5046C70.8571 44.7917 72.0013 43.7018 72.7464 42.3726C73.2412 41.49 73.5476 40.5237 73.6483 39.5289C73.749 38.534 73.6419 37.5301 73.3332 36.5745C73.0244 35.6189 72.5201 34.7302 71.849 33.9593C71.1778 33.1884 70.353 32.5503 69.4217 32.0815ZM69.0609 40.5245C68.7033 41.1651 68.1532 41.6909 67.4803 42.0352C66.8074 42.3795 66.0418 42.527 65.2804 42.4589C64.519 42.3908 63.7961 42.1102 63.203 41.6527C62.6099 41.1951 62.1733 40.5811 61.9485 39.8884C61.7237 39.1956 61.7207 38.4553 61.94 37.7609C62.1592 37.0666 62.5908 36.4495 63.1802 35.9877C63.7696 35.5258 64.4903 35.2401 65.2511 35.1665C66.0119 35.0929 66.7787 35.2348 67.4544 35.5743C68.3597 36.0292 69.0375 36.8061 69.3387 37.7343C69.64 38.6625 69.54 39.666 69.0609 40.5245Z" fill="url(#paint18_linear_954_10350)"/>
<path opacity="0.58" d="M60.04 36.6164C59.2582 37.457 58.7571 38.4984 58.5999 39.6089C58.4428 40.7194 58.6366 41.8492 59.1569 42.8553C59.6773 43.8614 60.5007 44.6987 61.5232 45.2612C62.5457 45.8238 63.7212 46.0864 64.9011 46.0158C66.0811 45.9452 67.2124 45.5445 68.1521 44.8646C69.0918 44.1846 69.7976 43.2558 70.1803 42.1957C70.563 41.1356 70.6053 39.9917 70.302 38.9087C69.9987 37.8258 69.3634 36.8524 68.4763 36.1116C65.9935 34.0518 62.2135 34.2716 60.04 36.6164ZM69.0605 40.5244C68.7029 41.1651 68.1528 41.6908 67.4799 42.0352C66.807 42.3795 66.0414 42.5269 65.28 42.4588C64.5186 42.3908 63.7957 42.1102 63.2026 41.6526C62.6095 41.1951 62.1729 40.5811 61.9481 39.8883C61.7233 39.1956 61.7203 38.4552 61.9396 37.7609C62.1588 37.0666 62.5904 36.4494 63.1798 35.9876C63.7692 35.5258 64.4899 35.24 65.2507 35.1665C66.0115 35.0929 66.7783 35.2348 67.454 35.5743C68.3593 36.0291 69.0371 36.806 69.3383 37.7342C69.6396 38.6624 69.5396 39.666 69.0605 40.5244Z" fill="url(#paint19_linear_954_10350)"/>
<path opacity="0.58" d="M67.1569 33.2451C66.1576 32.6215 64.9857 32.2927 63.7892 32.3004C62.5927 32.3081 61.4256 32.6519 60.4353 33.2883C59.445 33.9247 58.6761 34.8251 58.2259 35.8757C57.7756 36.9262 57.6643 38.0798 57.9058 39.1903C58.1474 40.3009 58.7311 41.3186 59.5831 42.1147C60.435 42.9109 61.517 43.4497 62.6921 43.6631C63.8672 43.8764 65.0827 43.7547 66.1848 43.3133C67.2869 42.8719 68.2262 42.1306 68.8837 41.1833C69.3211 40.5549 69.6235 39.8508 69.7734 39.1115C69.9234 38.3722 69.918 37.6121 69.7576 36.8748C69.5972 36.1375 69.285 35.4373 68.8387 34.8145C68.3924 34.1917 67.8209 33.6584 67.1569 33.2451ZM63.5229 41.8998C62.8806 41.5004 62.3777 40.9295 62.0778 40.2593C61.7779 39.5891 61.6944 38.8496 61.8379 38.1344C61.9814 37.4192 62.3455 36.7604 62.8841 36.2413C63.4227 35.7223 64.1116 35.3662 64.8638 35.2182C65.6159 35.0701 66.3975 35.1368 67.1096 35.4097C67.8218 35.6827 68.4325 36.1496 68.8647 36.7515C69.2968 37.3534 69.5309 38.0632 69.5373 38.7912C69.5438 39.5192 69.3223 40.2327 68.9009 40.8413C68.3349 41.6565 67.4509 42.2257 66.4428 42.4241C65.4346 42.6225 64.3846 42.434 63.5229 41.8998Z" fill="url(#paint20_linear_954_10350)"/>
<path opacity="0.54" d="M63.8389 42.0299C64.5906 42.4058 65.452 42.5367 66.29 42.4025C67.128 42.2682 67.8961 41.8763 68.4757 41.2872C69.0552 40.6981 69.4141 39.9446 69.4968 39.1429C69.5796 38.3413 69.3815 37.5362 68.9334 36.8518C68.8142 36.9448 68.6879 37.0292 68.5554 37.1042C67.4557 37.7637 64.7753 38.7163 63.6413 41.1832C63.5542 41.374 63.4796 41.5698 63.418 41.7694C63.5438 41.8756 63.6857 41.9634 63.8389 42.0299Z" fill="white"/>
<path opacity="0.54" d="M74.2858 38.5868C74.2541 37.4559 73.976 36.3433 73.4689 35.3191C72.9618 34.2949 72.2366 33.3812 71.3391 32.6353V32.7004C71.382 34.6218 69.6466 36.4537 68.5384 37.1132C67.4302 37.7727 64.7584 38.7252 63.6244 41.1922C62.7567 43.0729 63.0745 46.0202 63.1519 46.6552C64.462 47.027 65.8464 47.0992 67.1917 46.8659C68.5369 46.6327 69.8047 46.1006 70.8911 45.3133C71.9775 44.526 72.8515 43.506 73.4416 42.3368C74.0317 41.1676 74.3209 39.8825 74.2858 38.5868Z" fill="url(#paint21_linear_954_10350)"/>
<path opacity="0.6" d="M62.2663 46.2225C61.6649 38.9276 58.8127 38.8624 57.0086 38.4228C57 38.6263 57 38.8217 57 39.0253C57.0439 40.5755 57.5506 42.0821 58.4614 43.3704C59.3723 44.6588 60.6499 45.6759 62.146 46.304C62.1596 46.3097 62.1746 46.3119 62.1894 46.3105C62.2043 46.309 62.2185 46.3039 62.2306 46.2957C62.2427 46.2875 62.2524 46.2764 62.2587 46.2636C62.2649 46.2508 62.2675 46.2366 62.2663 46.2225Z" fill="url(#paint22_linear_954_10350)"/>
<path opacity="0.38" d="M66.4676 41.192C65.8748 41.7456 65.4882 42.4295 65.2305 43.1379C66.13 43.2162 67.0338 43.0399 67.8275 42.6312C68.6212 42.2225 69.2691 41.5998 69.6892 40.8419C70.2423 39.8514 70.3745 38.6978 70.0586 37.6178C68.9504 39.1159 67.4383 40.3046 66.4676 41.192Z" fill="#FFDF9A"/>
<path opacity="0.7" d="M65.8656 46.6057C67.4772 46.5653 69.0409 46.0775 70.3627 45.2028C71.6846 44.3282 72.7066 43.1052 73.302 41.6854C73.8974 40.2655 74.0401 38.7113 73.7124 37.2154C73.3847 35.7194 72.601 34.3475 71.4584 33.2697C71.8793 36.8846 68.2539 39.5388 66.467 41.1834C64.7402 42.771 64.7488 45.531 64.8261 46.565C65.1711 46.6035 65.5186 46.6171 65.8656 46.6057Z" fill="url(#paint23_linear_954_10350)"/>
<rect x="78" y="34.9998" width="28" height="7" rx="2" fill="#E9F0F4"/>
<rect x="63" y="56.9998" width="23" height="51" rx="2" fill="#E9F0F4"/>
<rect x="93" y="56.9998" width="23" height="22" rx="2" fill="#E9F0F4"/>
<rect x="93" y="85.9998" width="23" height="22" rx="2" fill="#E9F0F4"/>
<rect x="124" y="56.9998" width="23" height="22" rx="2" fill="#E9F0F4"/>
<rect x="124" y="85.9998" width="23" height="22" rx="2" fill="#E9F0F4"/>
<rect x="154" y="56.9998" width="23" height="22" rx="2" fill="#E9F0F4"/>
<rect x="154" y="85.9998" width="23" height="22" rx="2" fill="#E9F0F4"/>
<rect x="118" y="36.9998" width="16" height="3" rx="1.5" fill="#E9F0F4"/>
<rect x="141" y="36.9998" width="16" height="3" rx="1.5" fill="#E9F0F4"/>
<rect x="163" y="36.9998" width="16" height="3" rx="1.5" fill="#E9F0F4"/>
</g>
</g>
<defs>
<linearGradient id="paint0_linear_954_10350" x1="64.8338" y1="38.1997" x2="74.4069" y2="38.1997" gradientUnits="userSpaceOnUse">
<stop stop-color="#FF8AB3"/>
<stop offset="0.4" stop-color="#F7BE6E"/>
<stop offset="1" stop-color="#FFF5B0"/>
</linearGradient>
<linearGradient id="paint1_linear_954_10350" x1="76.1192" y1="35.4972" x2="69.4679" y2="29.7865" gradientUnits="userSpaceOnUse">
<stop stop-color="#F7BE6E"/>
<stop offset="1" stop-color="#FFF5B0"/>
</linearGradient>
<linearGradient id="paint2_linear_954_10350" x1="69.3935" y1="29.4168" x2="69.4199" y2="29.4168" gradientUnits="userSpaceOnUse">
<stop stop-color="#FFF5B0"/>
<stop offset="1" stop-color="#F7BE6E"/>
</linearGradient>
<linearGradient id="paint3_linear_954_10350" x1="289.098" y1="-875.255" x2="560.801" y2="-875.255" gradientUnits="userSpaceOnUse">
<stop stop-color="#FFF5B0"/>
<stop offset="1" stop-color="#F7BE6E"/>
</linearGradient>
<linearGradient id="paint4_linear_954_10350" x1="1662.36" y1="-114.145" x2="1662.36" y2="-3323.75" gradientUnits="userSpaceOnUse">
<stop stop-color="#F7BE6E"/>
<stop offset="1" stop-color="#FFF5B0"/>
</linearGradient>
<linearGradient id="paint5_linear_954_10350" x1="65.3734" y1="41.0027" x2="60.8509" y2="37.2325" gradientUnits="userSpaceOnUse">
<stop stop-color="white"/>
<stop offset="1" stop-color="#DEA8DE"/>
</linearGradient>
<linearGradient id="paint6_linear_954_10350" x1="65.3734" y1="41.0027" x2="60.8509" y2="37.2325" gradientUnits="userSpaceOnUse">
<stop stop-color="white"/>
<stop offset="1" stop-color="#DEA8DE"/>
</linearGradient>
<linearGradient id="paint7_linear_954_10350" x1="-23706.8" y1="-6784.59" x2="-23311.7" y2="-7500.97" gradientUnits="userSpaceOnUse">
<stop stop-color="white"/>
<stop offset="1" stop-color="#DEA8DE"/>
</linearGradient>
<linearGradient id="paint8_linear_954_10350" x1="2126.63" y1="-3760.89" x2="2126.63" y2="-972.725" gradientUnits="userSpaceOnUse">
<stop stop-color="#FF8AB3"/>
<stop offset="0.4" stop-color="#F7BE6E"/>
<stop offset="1" stop-color="#FFF5B0"/>
</linearGradient>
<linearGradient id="paint9_linear_954_10350" x1="66.3102" y1="47.3278" x2="70.9928" y2="34.4672" gradientUnits="userSpaceOnUse">
<stop stop-color="#FF8AB3"/>
<stop offset="0.4" stop-color="#F7BE6E"/>
<stop offset="0.84" stop-color="#FFF5B0" stop-opacity="0.6"/>
</linearGradient>
<linearGradient id="paint10_linear_954_10350" x1="289.098" y1="-875.255" x2="560.801" y2="-875.255" gradientUnits="userSpaceOnUse">
<stop stop-color="#FFF5B0"/>
<stop offset="1" stop-color="#F7BE6E"/>
</linearGradient>
<linearGradient id="paint11_linear_954_10350" x1="949.089" y1="-1179.47" x2="949.089" y2="-741.331" gradientUnits="userSpaceOnUse">
<stop stop-color="white"/>
<stop offset="1" stop-color="#DEA8DE"/>
</linearGradient>
<linearGradient id="paint12_linear_954_10350" x1="68.6892" y1="47.7835" x2="70.038" y2="35.5108" gradientUnits="userSpaceOnUse">
<stop stop-color="#FF8AB3"/>
<stop offset="0.4" stop-color="#F7BE6E"/>
<stop offset="1" stop-color="#FFF5B0" stop-opacity="0"/>
</linearGradient>
<linearGradient id="paint13_linear_954_10350" x1="64.8338" y1="38.1997" x2="74.4069" y2="38.1997" gradientUnits="userSpaceOnUse">
<stop stop-color="#FF8AB3"/>
<stop offset="0.4" stop-color="#F7BE6E"/>
<stop offset="1" stop-color="#FFF5B0"/>
</linearGradient>
<linearGradient id="paint14_linear_954_10350" x1="76.1192" y1="35.4972" x2="69.4679" y2="29.7865" gradientUnits="userSpaceOnUse">
<stop stop-color="#F7BE6E"/>
<stop offset="1" stop-color="#FFF5B0"/>
</linearGradient>
<linearGradient id="paint15_linear_954_10350" x1="69.3935" y1="29.4168" x2="69.4199" y2="29.4168" gradientUnits="userSpaceOnUse">
<stop stop-color="#FFF5B0"/>
<stop offset="1" stop-color="#F7BE6E"/>
</linearGradient>
<linearGradient id="paint16_linear_954_10350" x1="289.098" y1="-875.255" x2="560.801" y2="-875.255" gradientUnits="userSpaceOnUse">
<stop stop-color="#FFF5B0"/>
<stop offset="1" stop-color="#F7BE6E"/>
</linearGradient>
<linearGradient id="paint17_linear_954_10350" x1="1662.36" y1="-114.145" x2="1662.36" y2="-3323.75" gradientUnits="userSpaceOnUse">
<stop stop-color="#F7BE6E"/>
<stop offset="1" stop-color="#FFF5B0"/>
</linearGradient>
<linearGradient id="paint18_linear_954_10350" x1="2126.63" y1="-3760.89" x2="2126.63" y2="-972.725" gradientUnits="userSpaceOnUse">
<stop stop-color="#FF8AB3"/>
<stop offset="0.4" stop-color="#F7BE6E"/>
<stop offset="1" stop-color="#FFF5B0"/>
</linearGradient>
<linearGradient id="paint19_linear_954_10350" x1="64.582" y1="40.8501" x2="63.9617" y2="34.8693" gradientUnits="userSpaceOnUse">
<stop stop-color="#FF947C" stop-opacity="0"/>
<stop offset="0.25" stop-color="#FF917A" stop-opacity="0.27"/>
<stop offset="0.46" stop-color="#FF8775" stop-opacity="0.48"/>
<stop offset="0.64" stop-color="#FF766B" stop-opacity="0.67"/>
<stop offset="0.81" stop-color="#FF5F5E" stop-opacity="0.85"/>
<stop offset="0.96" stop-color="#FF444F"/>
</linearGradient>
<linearGradient id="paint20_linear_954_10350" x1="63.7429" y1="38.6984" x2="64.5615" y2="32.4394" gradientUnits="userSpaceOnUse">
<stop stop-color="#FFFF1B" stop-opacity="0"/>
<stop offset="1" stop-color="#FF537E"/>
</linearGradient>
<linearGradient id="paint21_linear_954_10350" x1="66.3102" y1="47.3278" x2="70.9928" y2="34.4672" gradientUnits="userSpaceOnUse">
<stop stop-color="#FF8AB3"/>
<stop offset="0.4" stop-color="#F7BE6E"/>
<stop offset="0.84" stop-color="#FFF5B0" stop-opacity="0.6"/>
</linearGradient>
<linearGradient id="paint22_linear_954_10350" x1="289.098" y1="-875.255" x2="560.801" y2="-875.255" gradientUnits="userSpaceOnUse">
<stop stop-color="#FFF5B0"/>
<stop offset="1" stop-color="#F7BE6E"/>
</linearGradient>
<linearGradient id="paint23_linear_954_10350" x1="68.6892" y1="47.7835" x2="70.038" y2="35.5108" gradientUnits="userSpaceOnUse">
<stop stop-color="#FF8AB3"/>
<stop offset="0.4" stop-color="#F7BE6E"/>
<stop offset="1" stop-color="#FFF5B0" stop-opacity="0"/>
</linearGradient>
<clipPath id="clip0_954_10350">
<rect width="240" height="160" fill="white"/>
</clipPath>
<clipPath id="clip1_954_10350">
<rect width="225" height="121" fill="white" transform="translate(7 12.9998)"/>
</clipPath>
</defs>
</svg>
