<svg width="240" height="161" viewBox="0 0 240 161" fill="none" xmlns="http://www.w3.org/2000/svg">
<path opacity="0.4" d="M84.6484 160.205H153.585L215.465 123.463L143.943 82.0249L84.6484 160.205Z" fill="#E1E9F3"/>
<path d="M84.0017 93.5601L151.336 54.4688L84.0039 15.3799L16.6719 54.4711L84.0017 93.5601Z" fill="#CFAE88"/>
<path d="M84.6484 93.5601L151.5 55L84.6507 15.3799L84.6484 93.5601Z" fill="#BD9A75"/>
<path d="M128.25 88.4333L146.205 77.6754V65.3638L128.25 76.1217V88.4333Z" fill="#A17B51"/>
<path d="M151.344 55.1106L173.142 40.9506L106.167 0L84.6484 15.4407L151.344 55.1106Z" fill="#D6B48D"/>
<path d="M84.646 16.0059L66.5384 3.84424L0 42.7924L17.6041 55.1099L84.646 16.0059Z" fill="#D6B48D"/>
<path d="M135.945 58.3687V75.3023V80.6073V97.5409L96.1875 120.474V103.541V74.6074V57.6738L135.945 58.3687Z" fill="#9D4259"/>
<path d="M77.575 46.1392V57.0783L96.191 56.752V73.9342V103.292V120.474L77.575 109.745V109.862L37.1953 86.5915V69.4093V64.0287V46.8465L77.575 46.1392Z" fill="#C84969"/>
<path d="M37.1953 47.323L77.3446 24.3506L135.949 57.7704L95.8021 80.7428L37.1953 47.323Z" fill="#FF6B90"/>
<path d="M151.339 55.1108V83.767V92.7429V121.397L84.6484 160.206V131.552V94.0906L151.339 55.1108Z" fill="#BD9A75"/>
<path d="M84.6439 94.0892V131.551V160.206L17.9531 121.396V92.7414V83.7654V55.1108L84.6439 94.0892Z" fill="#D6B48D"/>
<path d="M84.646 93.7724L68.2911 105.095L0 66.4175L17.6046 55.1108L84.646 93.7724Z" fill="#E8C399"/>
<path d="M151.14 55.1108L169.294 67.8629L99.6873 108.94L84.6484 93.6243L151.14 55.1108Z" fill="#D6A985"/>
<path d="M48.7368 57.5251V61.519L42.3242 57.9434V53.8291L48.7368 57.5251Z" fill="white"/>
<path d="M53.8672 37.2568L111.989 71.7714L121.841 65.996L62.7667 32.0405L53.8672 37.2568Z" fill="#FFC2D2"/>
<path d="M59 34.6035L117.996 69.2079" stroke="#FF6B90" stroke-width="1.8696" stroke-miterlimit="10" stroke-linecap="round" stroke-linejoin="round"/>
<path d="M84.6484 93.5275L84.6507 105.648L96.3503 117.911L150.929 86.9975L151.339 78.1797L99.6395 108.9L84.6484 93.5275Z" fill="#BA8C66"/>
<path d="M16.6719 75.6172L68.0612 105.06L84.6429 93.4486L84.6452 105.881L70.8183 115.348L16.8628 86.6947L16.6719 75.6172Z" fill="#CCA17F"/>
</svg>
