<svg width="208" height="142" viewBox="0 0 208 142" fill="none" xmlns="http://www.w3.org/2000/svg">
<rect width="208" height="142" rx="6" fill="#F8F8FB"/>
<mask id="mask0_386_22482" style="mask-type:luminance" maskUnits="userSpaceOnUse" x="35" y="97" width="138" height="18">
<path d="M172.137 97H35V114.69H172.137V97Z" fill="white"/>
</mask>
<g mask="url(#mask0_386_22482)">
<path d="M77.4762 99.9969L81.2361 97.208H68.6523V113.967H81.2361V111.178H72.243V106.885H79.9146V104.096H72.243V99.9969H77.4762Z" fill="#21A038"/>
<path d="M60.1839 103.737H55.8151V99.9961H62.7876L66.5453 97.1987H52.2266V113.957H59.7218C63.924 113.957 66.3357 112.04 66.3357 108.696C66.3357 105.497 64.1513 103.737 60.1839 103.737ZM59.5602 111.168H55.8151V106.524H59.5602C61.833 106.524 62.8987 107.302 62.8987 108.846C62.8987 110.389 61.7648 111.168 59.5602 111.168Z" fill="#21A038"/>
<path d="M90.4865 97.2056H83.6367V113.964H87.2269V109.217H90.4865C94.8568 109.217 97.5602 106.902 97.5602 103.202C97.5602 99.503 94.8568 97.2056 90.4865 97.2056ZM90.4108 106.426H87.2269V99.9966H90.4108C92.7095 99.9966 93.9781 101.139 93.9781 103.212C93.9781 105.286 92.7095 106.426 90.4108 106.426Z" fill="#21A038"/>
<path d="M46.8398 110.01C45.9123 110.515 44.8732 110.777 43.8187 110.771C40.6622 110.771 38.3723 108.502 38.3723 105.378C38.3723 102.254 40.6622 99.9802 43.8187 99.9802C44.9569 99.9608 46.0716 100.308 46.9998 100.972L49.5112 99.1099L49.3414 98.9884C47.8764 97.6917 45.9189 97.0049 43.6784 97.0049C41.2481 97.0049 39.0445 97.8281 37.4711 99.3256C36.6756 100.097 36.0465 101.025 35.6228 102.051C35.1992 103.078 34.9902 104.182 35.009 105.294C34.9921 106.417 35.2002 107.532 35.6207 108.572C36.0412 109.612 36.6655 110.557 37.4564 111.349C39.0371 112.906 41.2358 113.763 43.6488 113.763C46.1701 113.763 48.3738 112.878 49.8659 111.267L47.6179 109.581L46.8398 110.01Z" fill="#21A038"/>
<path d="M111.796 103.737H107.429V99.9961H116.814V97.1987H103.838V113.957H111.324C115.525 113.957 117.937 112.04 117.937 108.696C117.947 105.497 115.763 103.737 111.796 103.737ZM111.172 111.168H107.429V106.524H111.172C113.445 106.524 114.51 107.302 114.51 108.846C114.51 110.389 113.386 111.168 111.172 111.168Z" fill="#21A038"/>
<path d="M158.755 113.933H155.115V97.1748H158.755V104.214H160.736L166.086 97.1748H170.211L163.866 105.147L171.234 113.933H166.404L160.989 107.342H158.755V113.933Z" fill="#21A038"/>
<path d="M131.16 110.748H123.46L122.155 114.003H118.281L125.503 97.2441H129.376L136.481 114.003H132.465L131.16 110.748ZM129.954 107.712L127.333 101.203L124.697 107.712H129.954Z" fill="#21A038"/>
<path d="M141.382 97.2441V104.242H148.914V97.2441H152.667V114.003H148.914V107.399H141.382V114.003H137.629V97.2441H141.382Z" fill="#21A038"/>
</g>
<path d="M126.155 39.0781C127.485 40.8292 128.611 42.7317 129.511 44.7472L104.005 63.8929L93.3457 57.0887V48.9028L104.005 55.7071L126.155 39.0781Z" fill="#21A038"/>
<path d="M82.4687 56.5116C82.4687 56.1443 82.4775 55.7794 82.4951 55.4166L76.0352 55.0942C76.0132 55.5644 76 56.0391 76 56.5182C75.9973 60.2615 76.7203 63.9684 78.1277 67.4263C79.5351 70.8844 81.5991 74.0254 84.2013 76.6691L88.7835 72.0054C86.7804 69.9738 85.1913 67.5591 84.1076 64.9002C83.0239 62.2412 82.4669 59.3904 82.4687 56.5116Z" fill="url(#paint0_linear_386_22482)"/>
<path d="M104.003 34.5856C104.363 34.5856 104.722 34.599 105.078 34.6169L105.401 28.0365C104.938 28.0141 104.472 28.003 104.003 28.003C100.325 27.9984 96.6829 28.7336 93.2851 30.1664C89.8873 31.5992 86.8009 33.7014 84.2031 36.3522L88.7853 41.0182C90.7804 38.9778 93.1519 37.359 95.7635 36.2551C98.3751 35.1512 101.175 34.5838 104.003 34.5856Z" fill="url(#paint1_linear_386_22482)"/>
<path d="M104.002 78.4386C103.642 78.4386 103.283 78.4386 102.925 78.4095L102.602 84.9877C103.066 85.0115 103.533 85.0236 104.002 85.0236C107.678 85.0274 111.319 84.2917 114.715 82.8585C118.111 81.4253 121.195 79.3228 123.791 76.6721L119.218 72.0083C117.222 74.0477 114.851 75.6655 112.24 76.769C109.629 77.8726 106.829 78.44 104.002 78.4386Z" fill="url(#paint2_linear_386_22482)"/>
<path d="M116.136 38.4114L121.58 34.3252C116.604 30.2222 110.393 27.9886 103.99 28V34.5849C108.326 34.5794 112.561 35.9137 116.136 38.4114Z" fill="url(#paint3_linear_386_22482)"/>
<path d="M131.999 56.5112C132.003 54.7982 131.855 53.0882 131.559 51.4019L125.533 55.9246C125.533 56.1195 125.533 56.3142 125.533 56.5112C125.534 59.5748 124.904 62.6046 123.682 65.404C122.46 68.2035 120.674 70.7102 118.439 72.7618L122.786 77.6541C125.691 74.9839 128.012 71.7219 129.599 68.0797C131.186 64.4373 132.004 60.496 131.999 56.5112Z" fill="#21A038"/>
<path d="M103.999 78.4383C100.99 78.4394 98.0149 77.797 95.2654 76.5527C92.516 75.3085 90.0538 73.49 88.0384 71.2153L83.2363 75.6396C85.8582 78.5979 89.0615 80.9618 92.6383 82.5784C96.2152 84.1949 100.086 85.0278 103.999 85.0231V78.4383Z" fill="url(#paint4_linear_386_22482)"/>
<path d="M89.5619 40.2604L85.2171 35.3682C82.3117 38.0379 79.9897 41.2997 78.4018 44.942C76.814 48.5843 75.9957 52.5258 76 56.5109H82.4687C82.4674 53.4475 83.0981 50.4178 84.32 47.6183C85.5419 44.8189 87.3278 42.3121 89.5619 40.2604Z" fill="url(#paint5_linear_386_22482)"/>
<defs>
<linearGradient id="paint0_linear_386_22482" x1="85.5096" y1="75.8475" x2="78.2105" y2="55.1268" gradientUnits="userSpaceOnUse">
<stop offset="0.14" stop-color="#F1E813"/>
<stop offset="0.3" stop-color="#E6E418"/>
<stop offset="0.58" stop-color="#C9DA26"/>
<stop offset="0.89" stop-color="#A2CC39"/>
</linearGradient>
<linearGradient id="paint1_linear_386_22482" x1="86.0501" y1="37.5164" x2="104.336" y2="30.6732" gradientUnits="userSpaceOnUse">
<stop offset="0.06" stop-color="#0FA7DF"/>
<stop offset="0.54" stop-color="#0098F8"/>
<stop offset="0.92" stop-color="#0290EA"/>
</linearGradient>
<linearGradient id="paint2_linear_386_22482" x1="102.175" y1="81.0493" x2="122.795" y2="76.4747" gradientUnits="userSpaceOnUse">
<stop offset="0.12" stop-color="#A2CC39"/>
<stop offset="0.28" stop-color="#86C239"/>
<stop offset="0.87" stop-color="#219F38"/>
</linearGradient>
<linearGradient id="paint3_linear_386_22482" x1="102.645" y1="30.2055" x2="120.298" y2="35.5553" gradientUnits="userSpaceOnUse">
<stop offset="0.06" stop-color="#0290EA"/>
<stop offset="0.79" stop-color="#0C89CA"/>
</linearGradient>
<linearGradient id="paint4_linear_386_22482" x1="84.859" y1="74.838" x2="104.099" y2="81.8992" gradientUnits="userSpaceOnUse">
<stop offset="0.13" stop-color="#F1E813"/>
<stop offset="0.3" stop-color="#EAE616"/>
<stop offset="0.53" stop-color="#D8DF1F"/>
<stop offset="0.8" stop-color="#BAD52D"/>
<stop offset="0.98" stop-color="#A2CC39"/>
</linearGradient>
<linearGradient id="paint5_linear_386_22482" x1="78.4098" y1="57.308" x2="86.3452" y2="37.0364" gradientUnits="userSpaceOnUse">
<stop offset="0.07" stop-color="#A2CC39"/>
<stop offset="0.26" stop-color="#81C45E"/>
<stop offset="0.92" stop-color="#0FA7DF"/>
</linearGradient>
</defs>
</svg>
