<svg width="208" height="142" viewBox="0 0 208 142" fill="none" xmlns="http://www.w3.org/2000/svg">
<rect width="208" height="142" rx="6" fill="#F8F8FB"/>
<path d="M171.567 119.691H36.8626C29.9933 119.691 24.4297 114.113 24.4297 107.244V35.1161C24.4297 28.2467 29.9791 22.6689 36.8626 22.6689H171.567C178.436 22.6689 184 28.2467 184 35.1161V107.244C184 114.113 178.436 119.691 171.567 119.691Z" fill="#F5809D"/>
<path d="M62 53.1037C62 56.7152 60.6926 58 57.0714 58H43.8707C40.2842 58 39 56.7152 39 53.1037V39.8963C39 36.2964 40.2842 35 43.8707 35H57.0714C60.6811 35 62 36.2964 62 39.8963V53.1037Z" fill="#FFF5B0" fill-opacity="0.6"/>
<rect x="132" y="91" width="41" height="17" rx="4" fill="white"/>
<circle cx="140.5" cy="99.5" r="4.5" fill="#FFAA90"/>
<circle cx="152.5" cy="99.5" r="4.5" fill="#80E084"/>
<circle cx="164.5" cy="99.5" r="4.5" fill="#9AB0FF"/>
<path d="M41.4414 70.6299L43.8834 69.8599V77.2409H45.3024V77.9999H41.5074V77.2409H42.9924V70.8499L41.4414 71.3229V70.6299Z" fill="#FFC7D5"/>
<path d="M50.6881 74.4799L50.1161 74.9969C49.1481 75.8659 48.9611 76.4049 48.8841 77.2409H52.4921V77.9999H47.9931V77.6149C47.9931 75.8989 48.6751 75.1069 49.9621 74.0179C50.8751 73.2369 51.5791 72.6099 51.5791 71.7739C51.5791 71.1139 51.1721 70.6189 50.4351 70.6189C49.5551 70.6189 49.1371 71.2129 49.0381 72.2689H48.1471C48.1801 71.9939 48.2021 71.6749 48.3121 71.3669C48.6421 70.3989 49.4011 69.8599 50.4461 69.8599C51.6671 69.8599 52.4701 70.6299 52.4701 71.8069C52.4701 72.8959 51.7881 73.4899 50.6881 74.4799Z" fill="#FFC7D5"/>
<path d="M59.5278 75.7449C59.5278 77.1859 58.4828 78.1539 56.9868 78.1539C55.6888 78.1539 55.0948 77.3949 54.5778 76.6029L55.3588 76.1409C55.6778 76.7899 56.0408 77.3949 57.0198 77.3949C57.9878 77.3949 58.6368 76.7899 58.6368 75.8549C58.6368 74.7659 57.9218 74.0949 56.8768 74.0949C56.7888 74.0949 56.6348 74.1059 56.5468 74.1059V73.3469C57.7788 73.3359 58.2738 72.6209 58.2738 71.8949C58.2738 71.1579 57.6798 70.6189 56.9318 70.6189C56.3158 70.6189 55.8208 71.0259 55.4358 71.7739L54.6878 71.3449C55.1498 70.5529 55.7878 69.8599 57.0198 69.8599C58.2078 69.8599 59.1648 70.7839 59.1648 71.9609C59.1648 72.7199 58.7688 73.2369 58.1528 73.6659C59.0218 74.1059 59.5278 74.7109 59.5278 75.7449Z" fill="#FFC7D5"/>
<path d="M62.2625 70.0139H65.8705V70.7729H63.0655L62.8565 73.4349C63.1975 73.1599 63.5715 72.9729 64.1325 72.9729C65.4085 72.9729 66.3655 73.9739 66.3655 75.5359C66.3655 77.0099 65.4085 78.1539 64.0115 78.1539C62.9225 78.1539 62.3285 77.4719 61.8335 76.7899L62.5265 76.2839C62.9005 76.9439 63.3625 77.3949 64.0665 77.3949C64.8805 77.3949 65.4745 76.6029 65.4745 75.5469C65.4745 74.4469 64.8475 73.7319 64.1545 73.7319C63.5055 73.7319 63.1425 74.1389 62.8235 74.6339L61.9325 74.4579L62.2625 70.0139Z" fill="#FFC7D5"/>
<path d="M76.1139 70.0139H79.7219V70.7729H76.9169L76.7079 73.4349C77.0489 73.1599 77.4229 72.9729 77.9839 72.9729C79.2599 72.9729 80.2169 73.9739 80.2169 75.5359C80.2169 77.0099 79.2599 78.1539 77.8629 78.1539C76.7739 78.1539 76.1799 77.4719 75.6849 76.7899L76.3779 76.2839C76.7519 76.9439 77.2139 77.3949 77.9179 77.3949C78.7319 77.3949 79.3259 76.6029 79.3259 75.5469C79.3259 74.4469 78.6989 73.7319 78.0059 73.7319C77.3569 73.7319 76.9939 74.1389 76.6749 74.6339L75.7839 74.4579L76.1139 70.0139Z" fill="#FFC7D5"/>
<path d="M87.1316 70.3659L86.7026 71.1029C86.3176 70.8499 85.9876 70.6189 85.5696 70.6189C84.6126 70.6189 83.7106 71.6639 83.4686 73.6329C83.8976 73.1819 84.3376 72.8849 85.1076 72.8849C86.3616 72.8849 87.2086 73.9629 87.2086 75.3819C87.2086 76.9329 86.2956 78.1539 84.8986 78.1539C83.3806 78.1539 82.5666 76.9219 82.5666 74.6009C82.5666 71.5539 83.9416 69.8599 85.6026 69.8599C86.1856 69.8599 86.6806 70.1019 87.1316 70.3659ZM86.3176 75.3929C86.3176 74.3259 85.8226 73.6439 84.9976 73.6439C84.1836 73.6439 83.5126 74.5459 83.5126 75.5799C83.5126 76.6139 84.0296 77.3949 84.8436 77.3949C85.7786 77.3949 86.3176 76.5589 86.3176 75.3929Z" fill="#FFC7D5"/>
<path d="M89.5913 70.7729V70.0139H94.1123L90.9993 77.9999H90.0423L92.9463 70.7729H89.5913Z" fill="#FFC7D5"/>
<path d="M96.407 72.0159C96.407 70.6629 97.408 69.8599 98.706 69.8599C100.07 69.8599 100.994 70.7179 100.994 72.0489C100.994 72.9179 100.642 73.3359 100.103 73.8089C100.917 74.1829 101.269 74.9859 101.269 75.8109C101.269 77.1969 100.312 78.1539 98.706 78.1539C97.089 78.1539 96.143 77.1969 96.143 75.8109C96.143 74.9749 96.506 74.1829 97.309 73.8089C96.792 73.3469 96.407 72.9179 96.407 72.0159ZM97.034 75.8109C97.034 76.7899 97.683 77.3949 98.706 77.3949C99.74 77.3949 100.378 76.7899 100.378 75.8109C100.378 74.8429 99.718 74.2269 98.706 74.2269C97.694 74.2269 97.034 74.8429 97.034 75.8109ZM100.103 72.0379C100.103 71.1579 99.575 70.6189 98.706 70.6189C97.793 70.6189 97.298 71.2129 97.298 72.0929C97.298 72.9619 97.892 73.4679 98.706 73.4679C99.575 73.4679 100.103 72.9179 100.103 72.0379Z" fill="#FFC7D5"/>
<path d="M110.28 77.6479L110.709 76.9109C111.072 77.1639 111.446 77.3949 111.842 77.3949C112.81 77.3949 113.69 76.3609 113.943 74.3699C113.503 74.8209 113.085 75.1289 112.304 75.1289C111.039 75.1289 110.192 74.0289 110.192 72.6319C110.192 71.0809 111.127 69.8599 112.513 69.8599C114.02 69.8599 114.845 71.0919 114.845 73.4129C114.845 76.4269 113.481 78.1539 111.809 78.1539C111.149 78.1539 110.654 77.8679 110.28 77.6479ZM111.083 72.6209C111.083 73.6769 111.578 74.3699 112.403 74.3699C113.217 74.3699 113.899 73.4679 113.899 72.4229C113.899 71.4219 113.371 70.6189 112.568 70.6189C111.633 70.6189 111.083 71.4549 111.083 72.6209Z" fill="#FFC7D5"/>
<path d="M117.624 70.6299L120.066 69.8599V77.2409H121.485V77.9999H117.69V77.2409H119.175V70.8499L117.624 71.3229V70.6299Z" fill="#FFC7D5"/>
<path d="M128.741 74.0069C128.741 76.7129 128.092 78.1539 126.409 78.1539C124.847 78.1539 124.077 76.7679 124.077 74.0069C124.077 72.9509 124.143 72.0599 124.462 71.2789C124.847 70.3439 125.507 69.8599 126.409 69.8599C127.311 69.8599 127.96 70.3109 128.345 71.2239C128.675 72.0049 128.741 72.9179 128.741 74.0069ZM126.409 70.6189C125.749 70.6189 125.32 71.1029 125.111 72.0599C124.957 72.7419 124.968 73.4239 124.968 74.0839C124.968 76.2619 125.364 77.3949 126.409 77.3949C127.41 77.3949 127.85 76.3059 127.85 74.0069C127.85 71.7189 127.421 70.6189 126.409 70.6189Z" fill="#FFC7D5"/>
<path d="M135.667 74.0069C135.667 76.7129 135.018 78.1539 133.335 78.1539C131.773 78.1539 131.003 76.7679 131.003 74.0069C131.003 72.9509 131.069 72.0599 131.388 71.2789C131.773 70.3439 132.433 69.8599 133.335 69.8599C134.237 69.8599 134.886 70.3109 135.271 71.2239C135.601 72.0049 135.667 72.9179 135.667 74.0069ZM133.335 70.6189C132.675 70.6189 132.246 71.1029 132.037 72.0599C131.883 72.7419 131.894 73.4239 131.894 74.0839C131.894 76.2619 132.29 77.3949 133.335 77.3949C134.336 77.3949 134.776 76.3059 134.776 74.0069C134.776 71.7189 134.347 70.6189 133.335 70.6189Z" fill="#FFC7D5"/>
<path d="M145.327 70.6299L147.769 69.8599V77.2409H149.188V77.9999H145.393V77.2409H146.878V70.8499L145.327 71.3229V70.6299Z" fill="#FFC7D5"/>
<path d="M152.253 70.6299L154.695 69.8599V77.2409H156.114V77.9999H152.319V77.2409H153.804V70.8499L152.253 71.3229V70.6299Z" fill="#FFC7D5"/>
<path d="M159.178 70.6299L161.62 69.8599V77.2409H163.039V77.9999H159.244V77.2409H160.729V70.8499L159.178 71.3229V70.6299Z" fill="#FFC7D5"/>
<path d="M168.425 74.4799L167.853 74.9969C166.885 75.8659 166.698 76.4049 166.621 77.2409H170.229V77.9999H165.73V77.6149C165.73 75.8989 166.412 75.1069 167.699 74.0179C168.612 73.2369 169.316 72.6099 169.316 71.7739C169.316 71.1139 168.909 70.6189 168.172 70.6189C167.292 70.6189 166.874 71.2129 166.775 72.2689H165.884C165.917 71.9939 165.939 71.6749 166.049 71.3669C166.379 70.3989 167.138 69.8599 168.183 69.8599C169.404 69.8599 170.207 70.6299 170.207 71.8069C170.207 72.8959 169.525 73.4899 168.425 74.4799Z" fill="#FFC7D5"/>
</svg>
