<svg width="208" height="142" viewBox="0 0 208 142" fill="none" xmlns="http://www.w3.org/2000/svg">
<rect width="208" height="142" rx="6" fill="#F8F8FB"/>
<g clip-path="url(#clip0_386_22291)">
<path fill-rule="evenodd" clip-rule="evenodd" d="M100.007 44.9802C100.007 57.1117 90.1482 66.9605 78.0037 66.9605C65.8593 66.9605 56 57.1373 56 44.9802C56 32.8231 65.8593 23 78.0037 23C90.1482 23 100.007 32.8488 100.007 44.9802ZM100.367 96.8915C100.367 109.023 90.5076 118.872 78.3632 118.872C66.2188 118.872 56.3595 109.023 56.3595 96.8915C56.3595 84.7601 66.2188 74.9113 78.3632 74.9113C90.5076 74.9113 100.367 84.7601 100.367 96.8915ZM129.996 119C142.141 119 152 109.151 152 97.0198C152 84.8883 142.141 75.0395 129.996 75.0395C117.852 75.0395 107.993 84.8883 107.993 97.0198C107.993 109.151 117.852 119 129.996 119Z" fill="url(#paint0_linear_386_22291)"/>
<path d="M151.64 45.3137C151.64 57.4452 141.781 67.294 129.637 67.294C117.492 67.294 107.633 57.4452 107.633 45.3137C107.633 33.1823 117.492 23.3335 129.637 23.3335C141.781 23.3335 151.64 33.1823 151.64 45.3137ZM116.106 45.3137C116.106 52.7773 122.165 58.8302 129.637 58.8302C137.108 58.8302 143.167 52.7773 143.167 45.3137C143.167 37.8502 137.108 31.7973 129.637 31.7973C122.165 31.7973 116.106 37.8502 116.106 45.3137Z" fill="url(#paint1_linear_386_22291)"/>
</g>
<defs>
<linearGradient id="paint0_linear_386_22291" x1="49.6068" y1="87.1966" x2="145.154" y2="58.6972" gradientUnits="userSpaceOnUse">
<stop stop-color="#F8EC4F"/>
<stop offset="0.57" stop-color="#4DE544"/>
<stop offset="1" stop-color="#49C8FF"/>
</linearGradient>
<linearGradient id="paint1_linear_386_22291" x1="142.885" y1="23.6413" x2="116.276" y2="67.2423" gradientUnits="userSpaceOnUse">
<stop stop-color="#CDEFFD"/>
<stop offset="1" stop-color="#91E5CB"/>
</linearGradient>
<clipPath id="clip0_386_22291">
<rect width="96" height="96" fill="white" transform="translate(56 23)"/>
</clipPath>
</defs>
</svg>
