<svg width="208" height="142" viewBox="0 0 208 142" fill="none" xmlns="http://www.w3.org/2000/svg">
<rect width="208" height="142" rx="6" fill="#F8F8FB"/>
<path fill-rule="evenodd" clip-rule="evenodd" d="M104 36C84.67 36 69 51.67 69 71C69 90.33 84.67 106 104 106C123.33 106 139 90.33 139 71C139 51.67 123.33 36 104 36ZM57 71C57 45.0426 78.0426 24 104 24C129.957 24 151 45.0426 151 71C151 96.9574 129.957 118 104 118C78.0426 118 57 96.9574 57 71Z" fill="#FF0001"/>
<path fill-rule="evenodd" clip-rule="evenodd" d="M104.993 29.5751C105.551 26.3088 108.652 24.1134 111.918 24.6717C121.652 26.3353 130.614 31.0224 137.533 38.0678C144.452 45.1132 148.976 54.159 150.464 63.9211C150.963 67.197 148.712 70.2572 145.436 70.7563C142.16 71.2554 139.1 69.0043 138.601 65.7284C137.493 58.4588 134.124 51.7226 128.971 46.476C123.819 41.2295 117.145 37.739 109.896 36.5002C106.63 35.9419 104.435 32.8414 104.993 29.5751Z" fill="black"/>
</svg>
