<svg width="208" height="142" viewBox="0 0 208 142" fill="none" xmlns="http://www.w3.org/2000/svg">
<g clip-path="url(#clip0_383_10399)">
<rect width="208" height="142" rx="6" fill="#F8F8FB"/>
<path d="M155.606 63.8276C155.606 63.8276 149.639 64.918 147.011 65.365C144.382 65.8119 132.231 61.6893 129.406 60.2059C126.58 58.7225 124.397 55.6093 126.53 54.8811C126.53 54.8811 123.759 54.2878 122.812 52.1532C121.869 50.0187 126.982 49.7798 126.982 49.7798L126.928 48.9476C126.928 48.9476 124.08 50.1536 122.058 48.9052C120.037 47.6569 120.412 44.8943 124.381 42.8715L122.781 40.9027C122.781 40.9027 119.689 39.9587 118.642 38.6063C117.594 37.2501 120.767 34.6031 120.767 34.6031L125.877 33.9019L152.418 46.447L155.606 63.8315V63.8276Z" fill="#FFCEBE"/>
<g style="mix-blend-mode:multiply">
<path d="M155.606 63.8276C155.606 63.8276 149.639 64.918 147.011 65.365C144.382 65.8119 132.231 61.6893 129.406 60.2059C126.58 58.7225 124.397 55.6093 126.53 54.8811C126.53 54.8811 123.759 54.2878 122.812 52.1532C121.869 50.0187 126.982 49.7798 126.982 49.7798L126.928 48.9476C126.928 48.9476 124.08 50.1536 122.058 48.9052C120.037 47.6569 120.412 44.8943 124.381 42.8715L122.781 40.9027C122.781 40.9027 119.689 39.9587 118.642 38.6063C117.594 37.2501 120.767 34.6031 120.767 34.6031L125.877 33.9019L152.418 46.447L155.606 63.8315V63.8276Z" fill="#FFCEBE"/>
</g>
<g style="mix-blend-mode:multiply">
<path d="M131.076 55.4857C131.076 55.4857 128.297 54.272 126.523 54.8847" stroke="#FFCEBE" stroke-width="0.99" stroke-linecap="round" stroke-linejoin="round"/>
</g>
<path d="M134.604 69.4488L153.971 63.076L142.585 9L123.117 12.8067L134.604 69.4488Z" fill="#BAC5EE"/>
<path d="M134.841 69.9768L153.718 62.2748L138.59 9.11963L119.432 14.2672L134.841 69.9768Z" fill="#C5A09D"/>
<path d="M135.195 70.4318L153.549 61.5662L135.11 9.45898L116.311 15.7971L135.195 70.4318Z" fill="#D3BCBA"/>
<path d="M135.79 70.9937L153.24 60.4713L130.027 10.2944L111.904 18.3432L135.79 70.9937Z" fill="#F2D6D4"/>
<path d="M128.496 13.8738L149.807 59.1459L136.662 66.5936C129.643 51.3861 117.449 24.9588 115.084 19.738C115.474 19.5762 115.965 19.3681 116.584 19.1023C117.851 18.559 119.614 17.7923 121.813 16.8252C124.476 15.6539 127.158 14.4672 128.496 13.8738ZM128.975 12.5908C128.975 12.5908 113.89 19.2949 113.766 19.1871C113.642 19.0792 136.218 67.9653 136.218 67.9653L151.079 59.5428L128.975 12.5908Z" fill="#D1A49A"/>
<path d="M137.257 54.9845C136.202 56.1751 136.318 57.9937 137.512 59.0455C138.706 60.0974 140.531 59.9818 141.586 58.7912C142.641 57.6007 142.525 55.7821 141.331 54.7302C140.136 53.6784 138.312 53.7939 137.257 54.9845Z" fill="#D1A49A"/>
<path d="M127.127 30.5239C125.479 32.3869 125.661 35.2319 127.524 36.8729C129.387 38.5207 132.232 38.3391 133.873 36.4761C135.521 34.6131 135.339 31.7681 133.476 30.1271C131.613 28.4793 128.768 28.6609 127.127 30.5239Z" fill="#D1A49A"/>
<path d="M148.183 59.2421C148.249 59.2999 148.299 59.2999 148.361 59.2999C148.489 59.2999 148.608 59.219 148.659 59.1034C148.713 58.9763 148.682 58.8299 148.589 58.7412C148.222 58.1402 145.138 51.6133 143.12 47.2903C143.043 47.1285 142.85 47.0553 142.687 47.1323C142.525 47.2094 142.452 47.402 142.529 47.5639C142.529 47.5639 143.878 50.4536 145.246 53.3394C147.461 58.0207 147.94 59.0264 148.187 59.2421H148.183Z" fill="#D1A49A"/>
<path d="M147.062 60.0781C147.128 60.1359 147.178 60.1359 147.24 60.1359C147.368 60.1359 147.487 60.0549 147.538 59.9394C147.592 59.8122 147.561 59.6658 147.468 59.5772C147.101 58.9761 144.021 52.4492 141.999 48.1262C141.926 47.9644 141.729 47.8912 141.566 47.9683C141.404 48.0453 141.331 48.238 141.408 48.3998C141.408 48.3998 142.757 51.2895 144.125 54.1754C146.34 58.8567 146.819 59.8623 147.066 60.0781H147.062Z" fill="#D1A49A"/>
<path d="M127.76 15.9999L126 16.8584L128.938 22.8458L130.699 21.9873L127.76 15.9999Z" fill="#D1A49A"/>
<path d="M118.76 19.9999L117 20.8584L118.255 23.415L120.015 22.5565L118.76 19.9999Z" fill="#D1A49A"/>
<path d="M209.5 72.5V104C193.253 95 163.06 68.0769 163.06 68.0769C163.06 68.0769 162.198 67.788 160.575 67.264C159.663 66.9711 158.503 66.6051 157.127 66.1736C153.29 64.9676 147.009 65.3683 147.009 65.3683L153.97 63.0797L152.207 54.6995C150.051 52.9426 148.381 51.2319 147.164 49.8333C145.432 47.8413 144.613 46.4773 144.613 46.4773L142.514 46.2654C140.137 47.1015 136.407 46.643 136.407 46.643C132.747 47.3365 130.316 46.3887 130.316 46.3887C122.741 42.767 126.66 39.7347 126.66 39.7347C127.591 39.831 131.051 40.8443 134.587 40.6247C138.12 40.4051 145.598 37.866 148.138 37.7851C150.677 37.7042 160.417 42.9403 163.099 45.1596C165.785 47.3751 169.785 50.8928 182.513 58.329C185.813 60.2555 189.539 62.3283 193.253 64.3357L209.5 72.5Z" fill="#FFCEBE"/>
<g style="mix-blend-mode:multiply">
<path d="M160.576 49.8301V67.2646C159.664 66.9718 158.504 66.6058 157.128 66.1743C153.29 64.9683 147.01 65.369 147.01 65.369L153.971 63.0803L152.208 54.7002C150.051 52.9433 148.382 51.2325 147.164 49.8339H160.576V49.8301Z" fill="#FFCEBE"/>
</g>
<path d="M82.4753 101.355C81.9883 101.844 81.4202 105.77 76.7552 106.044C76.1909 106.078 75.5609 106.059 74.8691 105.971C70.9461 105.481 64.4221 104.11 59.9542 103.116C57.1212 102.491 55.1152 102.017 55.1152 102.017L58.2536 96.3112L61.5272 90.3623C61.5272 90.3623 62.8877 89.8614 64.6926 89.4106C65.4888 89.2103 66.37 89.0215 67.259 88.8905C69.5934 88.5476 74.2468 85.2302 79.0007 83.5464C80.1602 83.1303 81.3313 82.8144 82.4753 82.668C82.4753 82.668 82.5565 85.4382 82.6338 88.8442C82.7381 94.1574 82.8077 101.023 82.4753 101.355Z" fill="#FFCEBE"/>
<g style="mix-blend-mode:multiply">
<path d="M82.4741 101.355C81.9871 101.844 81.4189 105.77 76.7539 106.044L78.9994 83.5464C80.1589 83.1303 81.33 82.8144 82.4741 82.668C82.4741 82.668 82.5552 85.4382 82.6325 88.8442C82.7369 94.1574 82.8064 101.023 82.4741 101.355Z" fill="#FFCEBE"/>
</g>
<g style="mix-blend-mode:multiply">
<path d="M82.4733 101.355C81.9284 101.902 81.2791 106.776 74.8632 105.974C70.9403 105.485 64.4162 104.113 59.9483 103.119C57.1153 102.495 55.1094 102.021 55.1094 102.021L58.2477 96.3151C60.2652 96.8045 62.8354 97.3323 64.6868 97.3323C67.8792 97.3323 74.7202 91.4142 82.6279 88.8481C82.7323 94.1614 82.8018 101.027 82.4695 101.359L82.4733 101.355Z" fill="#FFCEBE"/>
</g>
<g style="mix-blend-mode:multiply">
<path d="M64.6906 89.4106C63.4577 91.9883 61.2083 97.2051 59.9483 103.116C57.1153 102.491 55.1094 102.017 55.1094 102.017L61.5213 90.3623C61.5213 90.3623 62.8818 89.8614 64.6868 89.4106H64.6906Z" fill="#FFCEBE"/>
</g>
<path d="M52.9346 87.2261C52.5133 87.0874 52.0457 86.9603 51.5432 86.8408C47.7865 85.9084 42.0122 85.2534 37.0303 83.9011C31.3874 82.3676 25.617 78.9153 20.4844 77.8057C15.3517 76.6961 11.6336 72.7776 4.83511 69.0711C3.30845 68.2388 1.65425 67.5761 0.00390625 67.0444V108.444C6.41975 108.899 21.6477 109.639 28.8211 111.646C30.9159 112.236 33.3315 112.787 35.7664 113.284C42.9011 114.748 50.2407 115.738 50.2407 115.738C50.2407 115.738 53.4486 109.088 56.5252 102.072C57.3407 100.211 58.2335 98.4305 59.0992 96.82C61.4955 92.3698 63.7063 89.2297 63.7063 89.2297C59.8568 88.4167 56.5252 88.3743 52.9307 87.2261H52.9346Z" fill="#3C84E0"/>
<path d="M63.7055 89.2336C63.7055 89.2336 59.6009 95.0592 56.5244 102.075C53.4478 109.092 50.2399 115.742 50.2399 115.742C50.2399 115.742 42.9042 114.748 35.7656 113.287C38.4556 107.851 41.3544 101.975 43.8241 96.9471C46.9315 90.636 49.5558 87.9313 51.5385 86.8447C52.041 86.9642 52.5087 87.0913 52.9299 87.23C56.5205 88.3821 59.856 88.4206 63.7055 89.2336Z" fill="#337DCC"/>
<g style="mix-blend-mode:multiply" opacity="0.5">
<path d="M42.2867 91.0635C39.4652 90.0425 37.4129 89.7843 34.464 88.6323C31.515 87.4803 31.515 87.8656 26.1891 85.4729C20.867 83.0802 11.8926 81.3464 11.8926 81.3464C7.54836 78.1099 3.5172 76.0871 0.0078125 74.8311V108.448C6.42365 108.903 21.6516 109.642 28.825 111.65C30.9198 112.239 33.3354 112.79 35.7703 113.287C42.9051 114.751 50.2446 115.742 50.2446 115.742C50.2446 115.742 53.4525 109.091 56.5291 102.075C57.3446 100.214 58.2374 98.4342 59.1031 96.8236C53.4023 94.8895 44.2114 91.7609 42.2905 91.0635H42.2867Z" fill="#3C84E0"/>
</g>
<path d="M157.638 49.86L155.69 104.291L155.191 118.169L154.279 118.134L115.054 116.739L96.1 116.065L79.3105 115.468L81.7571 47.1553L157.638 49.86Z" fill="#E8B27E"/>
<g style="mix-blend-mode:multiply" opacity="0.5">
<path d="M155.69 104.291L155.195 118.169L154.283 118.135C154.283 117.907 154.303 117.649 154.349 117.356C155.362 110.756 150.032 111.662 143.929 107.693C137.826 103.729 141.212 99.9873 141.212 99.9873L144.957 100.638L155.69 104.295V104.291Z" fill="#FBB3A3"/>
</g>
<path d="M125.205 48.7151L114.182 48.3218L113.633 63.5928L124.657 63.9861L125.205 48.7151Z" fill="#F2D2B8"/>
<path d="M123.301 101.761L112.277 101.368L111.729 116.639L122.753 117.032L123.301 101.761Z" fill="#F2D2B8"/>
<path d="M151.889 52.6097L130.355 51.8413L129.913 64.1705L151.446 64.9389L151.889 52.6097Z" fill="white"/>
<path d="M139.521 53.8623L132.406 53.6084L132.363 54.8213L139.477 55.0752L139.521 53.8623Z" fill="#A2A2A2"/>
<path d="M149.599 57.4871L132.295 56.8696L132.27 57.5743L149.574 58.1917L149.599 57.4871Z" fill="#CFCFCF"/>
<path d="M149.536 59.1482L132.232 58.5308L132.207 59.2354L149.511 59.8529L149.536 59.1482Z" fill="#CFCFCF"/>
<path d="M149.476 60.8054L132.172 60.188L132.147 60.8926L149.451 61.5101L149.476 60.8054Z" fill="#CFCFCF"/>
<path d="M149.427 62.4416L132.123 61.8271L132.098 62.5318L149.402 63.1462L149.427 62.4416Z" fill="#CFCFCF"/>
<path d="M93.1499 53.4935L92.9219 59.8547L86.5408 59.6273L86.7688 53.2661L93.1499 53.4935ZM93.7142 52.9695L86.2393 52.7036L85.9727 60.1552L93.4475 60.4211L93.7142 52.9695Z" fill="#25262F"/>
<path d="M87.6895 58.4747C87.6933 58.336 87.7011 58.2011 87.7049 58.0547C89.0924 58.1048 90.48 58.1549 91.8752 58.205C91.8713 58.3398 91.8636 58.4785 91.8598 58.6249C90.4684 58.5748 89.0808 58.5247 87.6895 58.4747Z" fill="#25262F"/>
<path d="M90.6847 55.4431C90.592 55.4431 90.5185 55.4354 90.4258 55.4354C90.6036 55.1541 90.7659 54.8921 90.9437 54.6108C91.0983 54.8998 91.2452 55.1734 91.3998 55.4662C91.3109 55.4662 91.2374 55.4662 91.1524 55.4662C91.1215 56.2907 91.0944 57.1153 91.0635 57.9436C90.905 57.9398 90.7582 57.9321 90.5958 57.9282C90.6268 57.1075 90.6538 56.2869 90.6847 55.4431Z" fill="#25262F"/>
<path d="M88.632 55.3732C88.5392 55.3732 88.4658 55.3655 88.373 55.3655C88.547 55.0842 88.7132 54.8222 88.891 54.5371C89.0455 54.8261 89.1924 55.1035 89.3509 55.4002C89.2543 55.4002 89.1847 55.3925 89.0997 55.3925C89.0687 56.2247 89.0417 57.0454 89.0108 57.8738C88.8523 57.8699 88.7054 57.8622 88.547 57.8583C88.5779 57.0377 88.6049 56.2131 88.6359 55.3732H88.632Z" fill="#25262F"/>
<path d="M97.7927 58.5682C97.6806 58.5643 97.5724 58.5605 97.468 58.5566C97.2632 58.5489 97.0622 58.5451 96.8574 58.5374C96.7143 58.5297 96.61 58.4757 96.5404 58.3409C96.4052 58.0634 96.2544 57.7937 96.1191 57.5317C96.2621 57.551 96.409 57.578 96.5559 57.5857C96.9772 57.6049 97.3984 57.6165 97.8236 57.6319C97.812 57.9594 97.8004 58.2561 97.7888 58.5682H97.7927Z" fill="#25262F"/>
<path d="M99.5634 56.1753C99.7142 56.4566 99.8649 56.7263 100.008 57.0075C100.058 57.1116 100.047 57.2194 99.977 57.3196C99.8031 57.5778 99.6407 57.8436 99.4784 58.0941C99.4243 57.9708 99.3779 57.8398 99.3199 57.7165C99.146 57.3659 98.9682 57.0191 98.7904 56.6685C98.775 56.6338 98.7595 56.5991 98.7363 56.5529C99.0107 56.4257 99.2813 56.3024 99.5634 56.1753Z" fill="#25262F"/>
<path d="M97.3866 56.345C97.1354 56.1678 96.8958 55.9982 96.6445 55.8172C96.8185 55.5436 96.9846 55.27 97.1586 55.0042C97.2088 54.9233 97.2939 54.8809 97.3982 54.8886C97.7074 54.904 98.0166 54.9156 98.3258 54.931C98.3374 54.931 98.3528 54.9348 98.349 54.9348C98.2717 55.035 98.1867 55.1352 98.1132 55.2431C97.8929 55.5744 97.6765 55.9096 97.4562 56.241C97.433 56.2718 97.4098 56.3026 97.3827 56.345H97.3866Z" fill="#25262F"/>
<path d="M99.3006 55.5435C99.3663 55.5088 99.4243 55.4818 99.4823 55.4548C99.4862 55.4548 99.4939 55.4625 99.4978 55.4664C99.4475 55.5512 99.3973 55.6321 99.3509 55.7168C99.2736 55.844 99.2001 55.975 99.119 56.0983C99.0997 56.1252 99.061 56.1599 99.034 56.1599C98.775 56.1561 98.516 56.1445 98.2494 56.1098C98.3151 56.0713 98.3769 56.0366 98.4503 55.9942C98.3615 55.8247 98.2803 55.6552 98.1837 55.4972C98.1257 55.4009 98.1411 55.3354 98.1914 55.2391C98.3267 54.9925 98.5354 54.9116 98.7982 54.9385C98.9219 54.9501 99.0185 55.0079 99.0765 55.1235C99.146 55.2622 99.2233 55.4009 99.3006 55.5435Z" fill="#25262F"/>
<path d="M97.1903 57.0383C97.1284 57.0036 97.0704 56.9689 96.997 56.9265C96.9004 57.0807 96.796 57.2271 96.711 57.385C96.6492 57.5045 96.568 57.5314 96.4404 57.5276C96.166 57.5199 96.0114 57.4004 95.8916 57.1307C95.8452 57.0267 95.8568 56.9227 95.9187 56.8264C96.0037 56.6915 96.0887 56.5567 96.1738 56.418C96.1158 56.3794 96.0617 56.3447 96.0114 56.3101C96.0114 56.2985 96.0114 56.2869 96.0114 56.2754C96.1699 56.2792 96.3284 56.3062 96.483 56.287C96.7458 56.2561 96.9004 56.3486 96.9854 56.599C97.0357 56.7493 97.1284 56.8842 97.2018 57.0267C97.198 57.0344 97.1903 57.0383 97.1864 57.046L97.1903 57.0383Z" fill="#25262F"/>
<path d="M98.5186 57.4197C98.5186 57.4852 98.5148 57.5545 98.5109 57.6393C98.565 57.6393 98.6191 57.6393 98.6694 57.6431C98.7776 57.6431 98.8819 57.6431 98.9902 57.6547C99.0752 57.6624 99.1989 57.6547 99.2337 57.7009C99.3341 57.8358 99.4346 57.986 99.3883 58.171C99.3612 58.275 99.311 58.3752 99.253 58.4677C99.1873 58.5755 99.0829 58.6218 98.9515 58.6141C98.7969 58.6025 98.6385 58.6025 98.4723 58.5948C98.4723 58.6719 98.4684 58.7374 98.4645 58.8029C98.4568 58.8029 98.4491 58.8029 98.4413 58.8067C98.3409 58.6256 98.252 58.4368 98.136 58.2634C98.051 58.1363 98.0626 58.0438 98.1515 57.9244C98.2752 57.7587 98.3795 57.5776 98.4916 57.4004C98.4993 57.4004 98.507 57.4081 98.5148 57.4119L98.5186 57.4197Z" fill="#25262F"/>
<path d="M101.263 53.7825L101.035 60.1437L94.6541 59.9164L94.8821 53.5552L101.263 53.7825ZM101.827 53.2585L94.3526 52.9927L94.0859 60.4443L101.561 60.7101L101.827 53.2585Z" fill="#25262F"/>
<path d="M105.699 55.1353C105.629 55.22 105.571 55.3356 105.506 55.4281C105.467 55.4782 105.436 55.5321 105.39 55.6053L105.888 55.6246C105.621 55.979 105.366 56.3181 105.107 56.6649C105.536 57.0733 106.336 57.1542 106.893 56.846C107.33 56.6032 107.593 56.2179 107.778 55.771C107.852 55.5938 107.906 55.4088 107.967 55.2162L105.703 55.1353H105.699Z" fill="#25262F"/>
<path d="M104.605 59.0763C104.609 58.9376 104.613 58.8065 104.621 58.664C105.011 58.6794 105.39 58.691 105.784 58.7064C105.804 58.1901 105.819 57.6892 105.838 57.1768C105.993 57.1806 106.132 57.1883 106.287 57.1922C106.267 57.6969 106.252 58.1978 106.233 58.7179C106.627 58.7333 107.009 58.7449 107.4 58.7603C107.396 58.9067 107.388 59.0377 107.384 59.1803C106.465 59.1456 105.541 59.1148 104.605 59.0801V59.0763Z" fill="#25262F"/>
<path d="M105.42 55.1269L104.318 55.0884C104.407 55.6124 104.573 56.0863 104.921 56.4986C105.087 56.2789 105.242 56.0709 105.412 55.8474L104.921 55.8281C105.091 55.5893 105.25 55.3619 105.416 55.1269H105.42Z" fill="#25262F"/>
<path d="M109.375 54.0716L109.146 60.4328L102.765 60.2055L102.993 53.8443L109.375 54.0716ZM109.939 53.5476L102.464 53.2817L102.197 60.7333L109.672 60.9992L109.939 53.5476Z" fill="#25262F"/>
<g style="mix-blend-mode:multiply" opacity="0.5">
<path d="M115.053 116.74L96.0991 116.066L90.3867 103.486L90.9124 98.7311C90.9124 98.7311 112.398 89.9233 112.081 90.2393C111.942 90.3741 114.62 93.888 112.081 97.4481C109.538 101.012 105.657 101.266 100.954 102.153C96.2499 103.039 103.945 111.076 107.883 112.694C111.261 114.081 114.079 115.48 115.053 116.736V116.74Z" fill="#FBB3A3"/>
</g>
<path d="M114.219 116.713C114.219 116.713 113.77 122.407 111.892 124.318C110.01 126.226 105.735 123.856 105.735 123.856C105.735 123.856 104.877 126.738 95.1295 125.332C95.1295 125.332 93.7613 127.763 89.4016 128.187C89.4016 128.187 89.0615 128.699 87.3493 129.385C85.641 130.067 84.1878 129.385 84.1878 129.385C84.1878 129.385 82.5645 131.597 79.8281 131.77C77.084 131.94 71.1049 125.12 64.7741 121.537C64.7741 121.537 62.2078 119.41 57.8481 118.809C57.2877 118.732 56.6461 118.655 55.9542 118.57C51.2506 118.007 44.1738 117.352 44.1738 117.352L55.0266 98.7773C55.0266 98.7773 57.9949 98.9237 61.2608 98.9777C64.148 99.0316 67.2709 99.0162 68.7975 98.7773C68.7975 98.7773 70.5058 98.1801 72.0441 97.0743C73.5862 95.9647 78.715 94.0883 82.3056 93.4911C85.9 92.8939 88.2074 92.3545 91.0288 92.2851C93.8502 92.2119 101.804 90.7632 105.48 89.7422C107.18 89.2683 109.105 88.7057 110.891 88.9215C112.549 89.1219 113.318 91.1061 113.082 92.6203C112.839 94.1885 111.78 95.537 110.485 96.4579C109.19 97.3787 107.671 97.9297 106.164 98.4267C104.761 98.8891 103.683 98.6964 102.28 98.839C101.027 98.9661 99.7713 99.0894 98.523 99.2782C97.2668 99.4709 95.8639 99.6943 94.8744 100.565C93.4212 101.848 94.9633 104.233 96.2426 106.025C97.5258 107.812 105.905 115.322 108.297 116.593L113.832 116.709H114.219V116.713Z" fill="#FFCEBE"/>
<g style="mix-blend-mode:multiply">
<path d="M61.2608 98.9815C60.7274 102.388 59.1621 110.922 55.9503 118.57C51.2467 118.007 44.1699 117.352 44.1699 117.352L55.0227 98.7773C55.0227 98.7773 57.991 98.9238 61.2569 98.9777L61.2608 98.9815Z" fill="#FFCEBE"/>
</g>
<g style="mix-blend-mode:multiply">
<path d="M113.833 116.709C113.547 117.376 113.115 118.085 112.57 118.085C111.545 118.081 108.295 116.598 108.295 116.598L113.83 116.709H113.833Z" fill="#FFCEBE"/>
</g>
<g style="mix-blend-mode:multiply">
<path d="M98.6777 121.109C98.6777 121.109 100.834 121.645 102.867 122.643C104.974 123.675 105.735 123.849 105.735 123.849" stroke="#FFCEBE" stroke-width="0.99" stroke-linecap="round" stroke-linejoin="round"/>
<path d="M90.3867 124.781C90.3867 124.781 92.868 124.862 95.1329 125.328" stroke="#FFCEBE" stroke-width="0.99" stroke-linecap="round" stroke-linejoin="round"/>
<path d="M84.1879 129.381C84.1879 129.381 83.1405 129.104 81.6641 129.104" stroke="#FFCEBE" stroke-width="0.99" stroke-linecap="round" stroke-linejoin="round"/>
</g>
<path d="M59.2538 98.1452C56.3744 97.2051 45.8578 93.7529 41.9117 92.2849C41.7223 92.2117 41.5484 92.1462 41.3899 92.0846C37.4129 90.5511 35.3606 92.0846 29.0761 88.6323C22.7917 85.1801 15.3516 85.3072 12.5302 83.7738C9.70879 82.2403 6.11824 80.7068 0.0154599 77.8056C0.0115949 77.8056 0.00386496 77.8017 0 77.7979V125.979C5.02832 125.728 10.3117 125.648 14.9651 125.455C19.1277 125.281 21.4312 125.497 23.5028 125.763C25.6479 126.029 27.5456 126.353 30.997 126.353C37.7955 126.353 41.7725 128.013 44.4626 126.353C47.1564 124.692 53.0544 113.183 56.2623 107.134C58.4885 102.934 59.4161 100.353 59.7755 99.1663C59.9031 98.7386 59.6712 98.2916 59.246 98.1491L59.2538 98.1452Z" fill="#3C84E0"/>
<path d="M59.7825 99.167C59.423 100.354 58.4954 102.935 56.2692 107.135C53.0613 113.184 47.1633 124.693 44.4695 126.353C41.7756 128.014 37.7985 126.353 31.0039 126.353C27.5525 126.353 25.6548 126.03 23.5098 125.764H23.5136C33.7171 113.658 37.0333 99.6293 40.7514 93.8769C41.1456 93.2681 41.536 92.7403 41.9147 92.2856C45.8609 93.7536 56.3774 97.2058 59.2568 98.146C59.682 98.2885 59.9139 98.7355 59.7863 99.1631L59.7825 99.167Z" fill="#337DCC"/>
<path d="M35.553 125.332C37.3588 125.332 38.8227 123.94 38.8227 122.223C38.8227 120.505 37.3588 119.113 35.553 119.113C33.7471 119.113 32.2832 120.505 32.2832 122.223C32.2832 123.94 33.7471 125.332 35.553 125.332Z" fill="#3C84E0"/>
<path d="M193.252 120.624C189.499 119.229 185.634 117.699 183.245 116.509C177.344 113.569 172.601 110.244 166.955 107.558C161.316 104.873 160.543 104.619 155.8 102.573C151.05 100.527 150.413 99.76 146.242 98.6734C142.721 97.7564 140.151 99.1204 141.434 102.191C142.721 105.258 147.591 105.771 149.002 106.664C150.413 107.558 154.007 108.456 154.262 109.604C154.401 110.232 154.618 111.535 154.351 112.698C154.131 113.677 153.57 114.555 152.341 114.848C149.643 115.488 147.591 115.869 144.387 116.763C141.179 117.661 138.485 117.275 134.64 117.275C130.794 117.275 122.33 116.89 122.33 116.89C122.33 116.89 121.429 118.169 125.406 119.448C125.684 119.541 125.951 119.626 126.21 119.718C129.623 120.924 131.277 122.238 134.385 123.664C137.716 125.201 141.052 125.324 143.363 126.607C145.67 127.886 148.747 129.928 151.827 130.187C154.904 130.445 155.29 129.424 161.447 128.653C167.604 127.886 171.326 128.014 174.53 129.293C176.393 130.036 196.49 145.527 204 150L214 130.187L193.252 120.624Z" fill="#FFCEBE"/>
<g style="mix-blend-mode:multiply">
<path d="M154.343 112.698C154.343 115.341 151.39 116.316 149.199 117.114C147.007 117.907 143.857 119.36 141.283 119.36C139.583 119.36 131.509 119.526 126.202 119.722C125.943 119.63 125.677 119.545 125.398 119.452C121.421 118.169 122.322 116.894 122.322 116.894C122.322 116.894 130.786 117.279 134.632 117.279C138.477 117.279 141.171 117.665 144.379 116.767C147.583 115.873 149.636 115.488 152.333 114.852C153.562 114.559 154.123 113.681 154.343 112.702V112.698Z" fill="#FFCEBE"/>
</g>
<g style="mix-blend-mode:multiply">
<path d="M134.803 123.853C134.803 123.853 136.496 124.307 141.304 124.176C146.112 124.049 148.485 124.943 151.948 124.75" stroke="#FFCEBE" stroke-width="0.99" stroke-linecap="round" stroke-linejoin="round"/>
</g>
</g>
<defs>
<clipPath id="clip0_383_10399">
<rect width="208" height="142" rx="6" fill="white"/>
</clipPath>
</defs>
</svg>
