<svg width="208" height="142" viewBox="0 0 208 142" fill="none" xmlns="http://www.w3.org/2000/svg">
<rect width="208" height="142" rx="6" fill="#F8F8FB"/>
<g clip-path="url(#clip0_386_22198)">
<path d="M162.218 54.1215V73.9246H155.161V60.0331H148.366V73.9246H141.309V54.1201H162.218V54.1215Z" fill="#25262F"/>
<path fill-rule="evenodd" clip-rule="evenodd" d="M126.814 74.6326C133.131 74.6326 137.822 70.7513 137.822 64.8674C137.822 59.1724 134.361 55.4747 128.577 55.4747C125.907 55.4747 123.704 56.4164 122.045 58.0411C122.441 54.683 125.275 52.2314 128.395 52.2314C129.116 52.2314 134.537 52.2199 134.537 52.2199L137.603 46.3413C137.603 46.3413 130.796 46.4966 127.632 46.4966C120.403 46.6228 115.52 53.2074 115.52 61.2048C115.52 70.5218 120.282 74.6326 126.814 74.6326ZM126.852 60.6817C129.198 60.6817 130.824 62.2261 130.824 64.8667C130.824 67.2434 129.379 69.2015 126.852 69.2069C124.435 69.2069 122.809 67.3925 122.809 64.9072C122.809 62.2659 124.435 60.6817 126.852 60.6817Z" fill="#25262F"/>
<path d="M109.776 67.2945C109.776 67.2945 108.11 68.257 105.621 68.4393C102.759 68.5243 100.209 66.7133 100.209 63.4956C100.209 60.3568 102.459 58.558 105.549 58.558C107.443 58.558 109.949 59.8735 109.949 59.8735C109.949 59.8735 111.782 56.5019 112.732 54.8158C110.993 53.4948 108.676 52.7705 105.982 52.7705C99.1813 52.7705 93.9141 57.2134 93.9141 63.4558C93.9141 69.7778 98.8646 74.1174 105.982 73.9864C107.971 73.9122 110.715 73.2122 112.388 72.1356L109.776 67.2945Z" fill="#25262F"/>
<path d="M23 48.6309L32.7893 66.164V76.8587L23.0115 94.3574L23 48.6309Z" fill="#5B57A2"/>
<path d="M60.5879 59.7839L69.7608 54.1504L88.5338 54.1328L60.5879 71.2873V59.7839Z" fill="#D90751"/>
<path d="M60.5358 48.5277L60.5876 71.741L50.7754 65.6997V31L60.5358 48.5277Z" fill="#FAB718"/>
<path d="M88.5336 54.1329L69.7599 54.1505L60.5358 48.5277L50.7754 31L88.5336 54.1329Z" fill="#ED6F26"/>
<path d="M60.5876 94.4545V83.1921L50.7754 77.2656L50.7808 112L60.5876 94.4545Z" fill="#63B22F"/>
<path d="M69.7372 88.8723L32.7887 66.164L23 48.6309L88.4933 88.8494L69.7372 88.8723Z" fill="#1487C9"/>
<path d="M50.7812 112L60.5868 94.4548L69.7368 88.8726L88.493 88.8496L50.7812 112Z" fill="#017F36"/>
<path d="M23.0117 94.3578L50.8553 77.2668L41.4944 71.5117L32.7896 76.8591L23.0117 94.3578Z" fill="#984995"/>
<path d="M100.211 87.2522C99.9957 87.5276 99.7121 87.7355 99.3719 87.8759C99.0229 88.0183 98.6494 88.0907 98.2725 88.0892C97.8977 88.0943 97.5251 88.0316 97.1725 87.9042C96.8558 87.789 96.5663 87.6092 96.3223 87.3764C96.0814 87.1431 95.8923 86.8616 95.7673 86.5502C95.6319 86.209 95.5644 85.8447 95.5685 85.4776C95.5685 85.1131 95.6312 84.7756 95.7612 84.4557C95.8858 84.135 96.067 83.8603 96.294 83.6294C96.5211 83.3939 96.7932 83.2143 97.099 83.0739C97.4109 82.9389 97.7511 82.866 98.125 82.866C98.5278 82.866 98.9017 82.9167 99.2419 83.0172C99.5821 83.1185 99.8711 83.2872 100.109 83.5235L99.6953 84.2255C99.4952 84.0438 99.2596 83.9059 99.0034 83.8205C98.7599 83.7419 98.5055 83.7022 98.2496 83.703C98.0233 83.703 97.8077 83.7476 97.5982 83.832C97.3918 83.9153 97.2031 84.0374 97.0425 84.1917C96.8783 84.3504 96.7489 84.5417 96.6625 84.7533C96.5662 84.972 96.5211 85.2137 96.5211 85.483C96.5211 85.7584 96.5716 86.0055 96.6679 86.2188C96.7649 86.4381 96.8949 86.6238 97.0593 86.7804C97.2237 86.9383 97.4163 87.0557 97.6373 87.1347C97.8589 87.2191 98.0913 87.2583 98.3406 87.2583C98.6464 87.2583 98.9246 87.1962 99.1624 87.078C99.398 86.964 99.6098 86.8059 99.7862 86.6123L100.211 87.2522ZM101.379 87.9711V82.9727H102.275V86.6967L105.188 82.9727H106.084V87.9717H105.188V84.2477L102.275 87.9717L101.379 87.9711ZM112.019 87.2522C111.798 87.5299 111.509 87.7449 111.18 87.8759C110.831 88.0182 110.457 88.0906 110.08 88.0892C109.706 88.0942 109.333 88.0316 108.981 87.9042C108.664 87.789 108.374 87.6093 108.13 87.3764C107.889 87.1431 107.7 86.8616 107.575 86.5502C107.439 86.209 107.372 85.8447 107.376 85.4776C107.376 85.1131 107.439 84.7756 107.569 84.4557C107.694 84.135 107.875 83.8603 108.102 83.6294C108.329 83.3939 108.601 83.2143 108.907 83.0739C109.23 82.9314 109.58 82.8605 109.933 82.866C110.335 82.866 110.709 82.9167 111.049 83.0172C111.39 83.1185 111.679 83.2872 111.917 83.5235L111.503 84.2255C111.303 84.0437 111.068 83.9057 110.812 83.8205C110.568 83.7419 110.314 83.7023 110.058 83.703C109.608 83.7045 109.175 83.8795 108.85 84.1917C108.687 84.3516 108.558 84.5426 108.47 84.7533C108.374 84.972 108.329 85.2137 108.329 85.483C108.329 85.7584 108.38 86.0055 108.476 86.2188C108.572 86.4381 108.703 86.6238 108.867 86.7804C109.031 86.9383 109.225 87.0557 109.446 87.1347C109.666 87.213 109.899 87.2583 110.148 87.2583C110.455 87.2583 110.727 87.1962 110.97 87.078C111.206 86.964 111.417 86.8059 111.594 86.6123L112.019 87.2522ZM112.478 82.9727H117.075V83.8603H115.227V87.9711H114.331V83.8603H112.484V82.9727H112.478Z" fill="#25262F"/>
<path fill-rule="evenodd" clip-rule="evenodd" d="M121.258 87.9214C121.598 87.8147 121.887 87.6514 122.136 87.4273L121.864 86.7307C121.7 86.8771 121.479 87.0007 121.213 87.1019C120.946 87.2032 120.645 87.2531 120.317 87.2531C119.824 87.2531 119.415 87.1242 119.092 86.8603C118.769 86.5957 118.593 86.2258 118.554 85.7533H122.431C122.471 85.5791 122.488 85.3827 122.488 85.1525C122.488 84.8096 122.425 84.5011 122.301 84.2203C122.184 83.9476 122.015 83.7011 121.802 83.4954C121.586 83.2916 121.332 83.1332 121.054 83.0296C120.763 82.9165 120.453 82.8592 120.141 82.8609C119.721 82.8609 119.353 82.9338 119.03 83.0688C118.725 83.1974 118.449 83.3866 118.219 83.625C117.996 83.8621 117.824 84.1432 117.715 84.4505C117.595 84.7777 117.536 85.124 117.539 85.4725C117.539 85.866 117.607 86.2251 117.732 86.5457C117.853 86.8563 118.039 87.1376 118.276 87.3712C118.509 87.6007 118.792 87.7756 119.126 87.8991C119.485 88.0264 119.863 88.0891 120.243 88.084C120.588 88.0819 120.93 88.0266 121.258 87.9214ZM118.99 84.0739C119.268 83.8214 119.636 83.6979 120.101 83.6979C120.538 83.6979 120.889 83.816 121.145 84.0523C121.4 84.2878 121.535 84.6139 121.558 85.029H118.497C118.541 84.6614 118.716 84.3215 118.99 84.0739Z" fill="#25262F"/>
<path d="M123.707 82.9727H124.523L126.462 85.4499L128.299 82.9727H129.092V87.9717H128.197V84.3267L126.451 86.646H126.416L124.603 84.326V87.971H123.707V82.9727Z" fill="#25262F"/>
<path fill-rule="evenodd" clip-rule="evenodd" d="M131.529 82.9898C131.257 83.061 130.998 83.1725 130.759 83.3206L130.996 84.0293C131.201 83.9281 131.405 83.8437 131.609 83.7708C131.813 83.6972 132.074 83.6635 132.386 83.6635C132.635 83.6635 132.833 83.7033 132.986 83.7816C133.139 83.8545 133.252 83.9672 133.332 84.1022C133.411 84.2372 133.463 84.4053 133.491 84.6017C133.519 84.7981 133.531 85.0114 133.531 85.2423C133.347 85.1143 133.138 85.0279 132.918 84.9892C132.706 84.9468 132.489 84.9242 132.272 84.9217C132.006 84.9217 131.756 84.9615 131.518 85.0283C131.28 85.0958 131.076 85.1971 130.912 85.3321C130.744 85.4668 130.608 85.6375 130.515 85.8316C130.415 86.044 130.365 86.2765 130.367 86.5113C130.367 87 130.509 87.382 130.792 87.652C131.076 87.9214 131.45 88.0557 131.915 88.0557C132.334 88.0557 132.669 87.9828 132.924 87.837C133.179 87.6905 133.383 87.5224 133.531 87.3314V87.9774H134.369V84.9109C134.369 84.2588 134.228 83.7539 133.939 83.3995C133.655 83.0458 133.151 82.8663 132.437 82.8663C132.119 82.8663 131.818 82.9108 131.529 82.9898ZM133.027 87.0398C132.823 87.1856 132.556 87.2524 132.227 87.2524C131.938 87.2524 131.711 87.1795 131.553 87.0391C131.394 86.8933 131.314 86.7023 131.314 86.4661C131.314 86.3263 131.343 86.2082 131.405 86.1016C131.468 85.9949 131.553 85.9105 131.649 85.843C131.755 85.7724 131.872 85.721 131.995 85.6912C132.125 85.6574 132.256 85.6405 132.392 85.6405C132.834 85.6405 133.213 85.7472 133.525 85.972V86.6065C133.378 86.7715 133.211 86.9176 133.027 87.0398ZM142.278 81.2146C142.459 81.1309 142.629 80.9905 142.788 80.7826L142.3 80.0806C142.176 80.2493 142.034 80.3668 141.875 80.4289C141.707 80.4948 141.532 80.5437 141.354 80.5747L141.184 80.605C141.036 80.6307 140.878 80.659 140.708 80.6874C140.434 80.7381 140.168 80.821 139.914 80.9344C139.511 81.1086 139.189 81.3442 138.945 81.6418C138.701 81.9395 138.508 82.2763 138.378 82.6476C138.245 83.0237 138.156 83.4136 138.111 83.8099C138.066 84.2149 138.043 84.6017 138.043 84.9723C138.043 85.4502 138.105 85.8822 138.23 86.2696C138.355 86.6578 138.53 86.9831 138.763 87.247C138.995 87.517 139.273 87.7195 139.602 87.8653C139.931 88.0111 140.299 88.084 140.713 88.084C141.093 88.084 141.445 88.0111 141.762 87.8761C142.068 87.7464 142.345 87.5577 142.578 87.3206C142.805 87.0898 142.987 86.8144 143.111 86.5059C143.241 86.1967 143.304 85.8653 143.304 85.517C143.304 85.141 143.247 84.7988 143.14 84.4951C143.04 84.2055 142.882 83.9398 142.675 83.7148C142.467 83.4935 142.213 83.3207 141.932 83.2085C141.621 83.0861 141.29 83.0251 140.957 83.029C140.741 83.029 140.532 83.0573 140.328 83.1133C140.129 83.1694 139.939 83.2506 139.761 83.355C139.588 83.4541 139.43 83.5768 139.29 83.7195C139.154 83.8606 139.041 84.0178 138.962 84.1974H138.939C138.956 83.9672 138.985 83.7316 139.035 83.49C139.086 83.2483 139.16 83.0175 139.257 82.7988C139.353 82.5801 139.478 82.383 139.631 82.2034C139.794 82.0222 139.996 81.8785 140.22 81.7822C140.467 81.6645 140.728 81.5796 140.997 81.5298L141.175 81.4974C141.352 81.465 141.521 81.4339 141.682 81.4002C141.898 81.3556 142.096 81.2983 142.278 81.2146ZM139.126 86.0172C139.038 85.7336 138.996 85.4379 139.001 85.141C139.039 84.9707 139.109 84.8089 139.205 84.6638C139.302 84.5119 139.426 84.3776 139.574 84.2588C139.907 83.9975 140.318 83.8571 140.741 83.8606C141.269 83.8606 141.666 84.0232 141.943 84.3439C142.221 84.6692 142.357 85.0735 142.357 85.5622C142.357 85.8039 142.312 86.0233 142.233 86.2251C142.156 86.4242 142.04 86.6058 141.892 86.7592C141.744 86.9126 141.567 87.0347 141.371 87.1181C141.167 87.2079 140.945 87.2531 140.696 87.2531C140.447 87.2531 140.22 87.2025 140.01 87.1012C139.802 87.002 139.618 86.8582 139.472 86.68C139.318 86.4814 139.201 86.257 139.126 86.0172ZM150.174 82.9729H149.278V87.972H150.174V82.9729ZM144.596 82.9729H145.492V84.4728H146.32C146.71 84.4728 147.028 84.5234 147.283 84.6186C147.538 84.7144 147.743 84.8434 147.895 85.0006C148.048 85.1579 148.156 85.3435 148.219 85.5508C148.281 85.7587 148.315 85.972 148.315 86.1967C148.315 86.4215 148.281 86.6355 148.207 86.8488C148.139 87.0621 148.02 87.247 147.861 87.4158C147.703 87.5845 147.487 87.7195 147.215 87.8208C146.943 87.9214 146.614 87.9774 146.217 87.9774H144.591V82.9729H144.596ZM145.492 85.3091V87.1404H146.144C146.592 87.1404 146.909 87.0621 147.09 86.9041C147.272 86.7469 147.363 86.5228 147.363 86.2251C147.363 85.9213 147.266 85.6918 147.085 85.5339C146.898 85.3766 146.586 85.2976 146.155 85.2976H145.492V85.3091Z" fill="#25262F"/>
<path d="M156.1 87.2522C155.884 87.5276 155.601 87.7355 155.261 87.8759C154.912 88.0182 154.538 88.0907 154.161 88.0892C153.786 88.0943 153.414 88.0316 153.061 87.9042C152.744 87.7891 152.455 87.6094 152.211 87.3764C151.97 87.143 151.781 86.8615 151.655 86.5502C151.52 86.2089 151.453 85.8446 151.457 85.4776C151.457 85.1131 151.519 84.7756 151.65 84.4557C151.774 84.135 151.956 83.8603 152.183 83.6295C152.41 83.3939 152.681 83.2143 152.988 83.0739C153.311 82.9313 153.661 82.8604 154.014 82.866C154.416 82.866 154.79 82.9167 155.131 83.0172C155.471 83.1185 155.76 83.2872 155.998 83.5235L155.584 84.2255C155.384 84.0438 155.148 83.9059 154.892 83.8205C154.649 83.7419 154.394 83.7022 154.138 83.703C153.912 83.703 153.696 83.7476 153.486 83.832C153.28 83.9153 153.092 84.0374 152.931 84.1917C152.768 84.3515 152.639 84.5425 152.551 84.7533C152.455 84.972 152.41 85.2137 152.41 85.483C152.41 85.7584 152.46 86.0055 152.557 86.2188C152.653 86.4381 152.784 86.6238 152.948 86.7804C153.112 86.9383 153.305 87.0558 153.526 87.1347C153.748 87.213 153.98 87.2583 154.229 87.2583C154.535 87.2583 154.807 87.1962 155.051 87.078C155.287 86.964 155.498 86.8059 155.675 86.6123L156.1 87.2522ZM156.559 82.9727H161.156V83.8603H159.308V87.9711H158.413V83.8603H156.565V82.9727H156.559Z" fill="#25262F"/>
<path fill-rule="evenodd" clip-rule="evenodd" d="M163.025 82.9734H162.129V90.1959H163.025V87.7416C163.206 87.8598 163.422 87.9441 163.671 88.0002C163.92 88.0562 164.181 88.0839 164.448 88.0839C164.844 88.0839 165.201 88.011 165.525 87.8766C165.835 87.7437 166.116 87.5511 166.352 87.3096C166.584 87.0673 166.76 86.7865 166.885 86.4551C167.009 86.1243 167.072 85.77 167.072 85.394C167.072 85.0227 167.015 84.6805 166.908 84.3714C166.806 84.0778 166.648 83.8069 166.443 83.5742C166.241 83.3472 165.991 83.1686 165.711 83.0517C165.405 82.92 165.075 82.8549 164.742 82.8607C164.391 82.8607 164.062 82.9282 163.75 83.0632C163.438 83.1982 163.195 83.3602 163.025 83.5627V82.9734ZM163.649 83.9002C163.904 83.7652 164.181 83.6977 164.482 83.6977C164.743 83.6977 164.975 83.7369 165.185 83.8212C165.389 83.9056 165.559 84.0237 165.701 84.181C165.843 84.3383 165.95 84.5185 166.019 84.7311C166.092 84.9444 166.126 85.1753 166.126 85.4277C166.126 85.6977 166.08 85.9387 166.002 86.1635C165.927 86.3766 165.809 86.5718 165.655 86.7366C165.501 86.8993 165.313 87.0275 165.106 87.1125C164.874 87.2097 164.625 87.2575 164.374 87.2529C164.131 87.2529 163.904 87.2253 163.688 87.1692C163.452 87.1049 163.228 87.0023 163.026 86.8655V84.3882C163.184 84.1979 163.394 84.0352 163.649 83.9002ZM173.943 82.9728H173.047V87.9718H173.943V82.9728ZM168.359 82.9728H169.255V84.4726H170.082C170.473 84.4726 170.791 84.5232 171.046 84.6184C171.301 84.7143 171.505 84.8432 171.658 85.0005C171.811 85.1577 171.919 85.3434 171.981 85.5506C172.044 85.7585 172.077 85.9718 172.077 86.1966C172.077 86.4213 172.044 86.6353 171.97 86.8486C171.902 87.0619 171.783 87.2469 171.624 87.4156C171.466 87.5844 171.25 87.7194 170.978 87.8206C170.706 87.9212 170.377 87.9772 169.98 87.9772H168.353V82.9728H168.359ZM169.261 85.3089V87.1402H169.913C170.36 87.1402 170.678 87.0619 170.859 86.904C171.04 86.7467 171.131 86.5226 171.131 86.2249C171.131 85.9212 171.035 85.6917 170.854 85.5337C170.667 85.3764 170.355 85.2975 169.924 85.2975H169.261V85.3089Z" fill="#25262F"/>
<path d="M178.242 85.3824L180.158 87.9717H179.058L177.578 85.9494L176.076 87.9717H175.033L176.938 85.427L175.147 82.9727H176.247L177.613 84.86L179.001 82.9727H180.045L178.242 85.3824ZM99.5494 94.15H96.8002V98.3174H95.9043V93.3191H100.445V98.3174H99.5494V94.15ZM105.529 94.206H103.761L103.704 95.0484C103.642 95.7619 103.557 96.335 103.438 96.7724C103.318 97.2111 103.171 97.5479 103.001 97.7835C102.831 98.0198 102.633 98.1824 102.406 98.2614C102.171 98.3465 101.924 98.3883 101.675 98.3849L101.607 97.5196C101.703 97.525 101.816 97.5027 101.941 97.4467C102.066 97.3907 102.191 97.2671 102.309 97.0822C102.429 96.8905 102.536 96.6212 102.633 96.2729C102.729 95.9192 102.792 95.4588 102.825 94.8797L102.916 93.3238H106.425V98.3228H105.529V94.206Z" fill="#25262F"/>
<path fill-rule="evenodd" clip-rule="evenodd" d="M108.838 93.3306C108.548 93.4089 108.288 93.5209 108.067 93.6613L108.305 94.3694C108.509 94.2681 108.713 94.1838 108.917 94.1109C109.121 94.038 109.382 94.0042 109.693 94.0042C109.943 94.0042 110.141 94.0434 110.294 94.1217C110.448 94.1952 110.561 94.3073 110.641 94.4423C110.719 94.5773 110.771 94.746 110.799 94.9418C110.827 95.1389 110.839 95.3522 110.839 95.5824C110.655 95.4545 110.446 95.3684 110.226 95.3299C110.014 95.2875 109.797 95.2649 109.58 95.2624C109.314 95.2624 109.064 95.3016 108.826 95.3691C108.588 95.4366 108.384 95.5378 108.22 95.6728C108.052 95.8076 107.916 95.9782 107.823 96.1723C107.723 96.3848 107.673 96.6172 107.676 96.852C107.676 97.3401 107.817 97.7228 108.101 97.9921C108.384 98.2614 108.758 98.3964 109.223 98.3964C109.643 98.3964 109.977 98.3235 110.232 98.1771C110.487 98.0313 110.691 97.8625 110.839 97.6715V98.3175H111.678V95.2509C111.678 94.5996 111.536 94.094 111.247 93.7403C110.963 93.3859 110.459 93.207 109.745 93.207C109.438 93.2073 109.133 93.2493 108.838 93.3306ZM110.34 97.3792C110.137 97.5257 109.87 97.5932 109.541 97.5932C109.246 97.5932 109.025 97.5203 108.867 97.3792C108.708 97.2334 108.628 97.0424 108.628 96.8068C108.628 96.6664 108.657 96.5483 108.719 96.4416C108.781 96.335 108.867 96.2506 108.963 96.1831C109.06 96.1156 109.178 96.065 109.309 96.0312C109.438 95.9977 109.572 95.9809 109.706 95.9813C110.147 95.9813 110.527 96.0879 110.839 96.312V96.9465C110.692 97.1116 110.524 97.257 110.34 97.3792Z" fill="#25262F"/>
<path d="M112.559 93.3193H117.156V94.2063H115.308V98.3177H114.412V94.207H112.565V93.3193H112.559Z" fill="#25262F"/>
<path fill-rule="evenodd" clip-rule="evenodd" d="M121.34 98.267C121.681 98.1603 121.97 97.997 122.219 97.7729L121.947 97.0763C121.782 97.2228 121.561 97.3463 121.295 97.4475C121.028 97.5488 120.728 97.5987 120.399 97.5987C119.906 97.5987 119.498 97.4698 119.175 97.2059C118.851 96.942 118.676 96.5714 118.636 96.0989H122.514C122.553 95.9254 122.57 95.7283 122.57 95.4981C122.57 95.1559 122.508 94.8467 122.383 94.5659C122.267 94.2933 122.097 94.047 121.884 93.8417C121.669 93.6375 121.414 93.4789 121.136 93.3752C120.845 93.2622 120.536 93.2049 120.223 93.2065C119.804 93.2065 119.435 93.2794 119.113 93.4144C118.807 93.5427 118.531 93.7319 118.302 93.9706C118.078 94.2079 117.906 94.489 117.797 94.7961C117.678 95.1234 117.618 95.4696 117.621 95.8181C117.621 96.2116 117.689 96.5707 117.814 96.8913C117.939 97.2113 118.126 97.4867 118.358 97.7168C118.591 97.947 118.874 98.1212 119.209 98.2447C119.567 98.3723 119.945 98.4352 120.325 98.4303C120.66 98.4303 121 98.3736 121.34 98.267ZM119.068 94.4141C119.345 94.1616 119.714 94.0381 120.178 94.0381C120.621 94.0381 120.967 94.1616 121.222 94.3918C121.476 94.628 121.613 94.9534 121.635 95.3692H118.574C118.618 95.0014 118.793 94.6619 119.068 94.4141ZM123.007 93.3192H124.141L125.869 95.729L124.021 98.3176H122.922L124.86 95.7283L123.007 93.3192ZM126.09 93.3192H126.986V98.3176H126.09V93.3192ZM130.189 98.3176L128.216 95.7283L130.059 93.3185H128.947L127.207 95.7283L129.078 98.3176H130.189ZM134.282 98.267C134.622 98.1603 134.911 97.997 135.16 97.7729L134.888 97.0763C134.724 97.2228 134.503 97.3463 134.237 97.4475C133.97 97.5488 133.669 97.5987 133.341 97.5987C132.848 97.5987 132.439 97.4698 132.116 97.2059C131.793 96.942 131.617 96.5714 131.578 96.0989H135.455C135.495 95.9254 135.512 95.7283 135.512 95.4981C135.512 95.1559 135.45 94.8467 135.324 94.5659C135.208 94.2935 135.039 94.0472 134.826 93.8417C134.61 93.6375 134.356 93.4789 134.078 93.3752C133.787 93.2621 133.477 93.2049 133.165 93.2065C132.746 93.2065 132.377 93.2794 132.054 93.4144C131.749 93.5429 131.473 93.7321 131.244 93.9706C131.02 94.2075 130.848 94.4887 130.739 94.7961C130.619 95.1233 130.56 95.4696 130.563 95.8181C130.563 96.2116 130.631 96.5707 130.756 96.8913C130.88 97.2113 131.068 97.4867 131.3 97.7168C131.533 97.947 131.815 98.1212 132.15 98.2447C132.509 98.3723 132.887 98.4351 133.267 98.4303C133.612 98.4278 133.954 98.3727 134.282 98.267ZM132.009 94.4141C132.287 94.1616 132.656 94.0381 133.12 94.0381C133.557 94.0381 133.908 94.1616 134.163 94.3918C134.418 94.628 134.555 94.9534 134.577 95.3692H131.516C131.559 95.0014 131.734 94.6619 132.009 94.4141ZM139.146 91.6398C138.619 91.6398 138.33 91.3475 138.284 90.7637H137.44C137.44 90.9878 137.479 91.1903 137.553 91.3813C137.627 91.5723 137.735 91.735 137.876 91.87C138.018 92.005 138.2 92.1116 138.409 92.1953C138.619 92.2797 138.862 92.3189 139.14 92.3189C139.395 92.3189 139.622 92.2797 139.826 92.1953C140.031 92.117 140.2 92.005 140.348 91.87C140.489 91.735 140.603 91.5723 140.682 91.3813C140.761 91.1903 140.801 90.9878 140.801 90.7637H139.962C139.923 91.3475 139.645 91.6398 139.146 91.6398ZM136.725 93.3185V98.3176H137.621L140.534 94.5936V98.3176H141.43V93.3185H140.534L137.621 97.0425V93.3185H136.725Z" fill="#25262F"/>
</g>
<defs>
<clipPath id="clip0_386_22198">
<rect width="161" height="81" fill="white" transform="translate(23 31)"/>
</clipPath>
</defs>
</svg>
