<svg width="120" height="80" viewBox="0 0 120 80" fill="none" xmlns="http://www.w3.org/2000/svg">
<g clip-path="url(#clip0_2341_13487)">
<path d="M18.6829 60.9995C11.2616 60.9995 4.559 56.7994 1.26196 50.3111C0.607826 49.0276 1.22676 47.4622 2.58488 46.9922C3.69074 46.6104 4.91687 47.0949 5.4478 48.1406C7.94405 53.0809 13.0392 56.2795 18.6829 56.2795C23.4643 56.2795 27.8524 53.9826 30.6009 50.2759C31.4868 49.0805 32.7159 47.1772 32.7159 44.1196L36.9427 48.5547C36.9427 48.5547 36.7198 49.1892 36.2916 49.9969C35.8633 50.8017 35.6844 51.1072 35.4234 51.539C31.9386 57.3251 25.6261 60.9995 18.6829 60.9995Z" fill="#5EBC52"/>
<path d="M28.0276 40.3249C27.8486 37.9458 26.7957 36.0513 24.98 34.8442C23.4634 33.8367 21.4189 33.3227 18.9079 33.3227H18.6264V33.3139H16.1682V29.4456H24.0764C25.2615 29.4456 26.2295 28.5469 26.2295 27.3984C26.2295 26.2471 25.2498 25.2896 24.0764 25.2896H14.0152C12.8272 25.2896 11.8621 26.2529 11.8621 27.4454V35.3376C11.8621 36.5271 12.8242 37.4934 14.0152 37.4934H18.9959C22.3282 37.4934 23.3901 39.0238 23.3901 40.6039C23.3901 42.1577 22.5511 44.6514 19.0517 44.6514C16.1594 44.6514 14.4317 42.6922 14.0738 42.372C13.0032 41.4116 11.9237 41.4791 11.208 42.1107C10.2957 42.9184 10.4072 44.0492 10.9587 44.8892C11.6157 45.885 14.1736 48.9778 19.0488 48.9778C21.8178 48.9778 24.2642 47.9821 25.9362 46.1786C27.4262 44.5721 28.186 42.4397 28.0276 40.3249Z" fill="#58595B"/>
<path d="M76.4077 43.1597C74.0582 43.0452 71.823 42.0817 70.8139 41.1682C69.6964 40.1549 69.4851 38.8009 70.3564 38.0402C71.4974 37.0444 72.6531 37.955 73.146 38.2605C75.7038 39.8495 77.7454 39.7261 78.7134 38.9595C79.2794 38.513 79.5112 37.9579 79.4349 37.4968C79.2942 36.6597 78.3144 36.363 77.0942 36.0283C76.176 35.7756 73.7032 35.0502 72.53 34.3745C70.8491 33.4023 69.6934 31.784 70.0865 29.5312C70.5001 27.1492 72.5534 25.3545 75.2345 25.1049C78.6312 24.7877 80.2915 25.6101 81.2653 26.1358C82.6587 26.8878 82.9197 28.421 82.1893 29.2933C81.852 29.6957 80.8693 30.0746 79.8866 29.6399C76.528 28.1537 74.815 28.5619 74.3779 29.4343C73.9145 30.3595 74.7504 31.2494 75.824 31.6636C75.8886 31.6871 76.5309 31.9485 77.4374 32.2422C78.2206 32.4977 79.1914 32.7621 80.2533 33.1586C82.2098 33.887 83.8555 35.4379 83.609 38.0314C83.4771 39.4088 82.6646 40.9274 81.4501 41.8262C80.5554 42.487 78.7837 43.2772 76.4077 43.1597Z" fill="#58595B"/>
<path d="M96.6003 39.0093C96.1046 38.8243 95.3772 38.9036 94.9459 38.9799C94.3651 39.0828 93.4558 39.1915 92.7165 38.9799C91.426 38.6128 90.9478 37.8756 90.9478 36.7389V29.1434H94.0102C95.1747 29.1434 96.1221 28.2387 96.1221 27.1256C96.1221 26.0094 95.1777 25.1077 94.0102 25.1077H90.9478V22.2087C90.9478 20.9898 89.9622 20 88.742 20C87.5246 20 86.539 20.9898 86.539 22.2087V25.1077H85.5418C84.3772 25.1077 83.4297 26.0124 83.4297 27.1256C83.4297 28.2417 84.3743 29.1434 85.5418 29.1434H86.539V36.7389C86.539 40.3076 89.3813 43.2124 93.0041 43.2124C96.6267 43.2124 97.5858 41.9113 97.5858 40.6923C97.583 39.8171 97.2896 39.2649 96.6003 39.0093Z" fill="#58595B"/>
<path d="M60.3772 25.1079C55.5195 25.1079 51.5684 29.1583 51.5684 34.1338C51.5684 39.1123 55.5195 43.1597 60.3742 43.1597C65.2317 43.1597 69.18 39.1093 69.18 34.1338C69.1859 29.1553 65.2347 25.1079 60.3772 25.1079ZM60.3772 39.0918C57.8661 39.0918 55.8275 37.306 55.8275 34.1338C55.8275 30.9617 57.8691 29.1553 60.3772 29.1553C62.8851 29.1553 64.9267 30.9617 64.9267 34.1338C64.9267 37.306 62.8851 39.0918 60.3772 39.0918Z" fill="#58595B"/>
<path d="M41.9235 25.1079C40.1957 25.1079 38.0427 26.1095 36.9485 27.6603C36.887 26.1653 36.0862 25.1637 34.9187 25.1637C33.7014 25.1637 32.7129 26.1536 32.7129 27.3725V47.677C32.7129 48.896 33.7014 49.8858 34.9187 49.8858C36.136 49.8858 37.1246 48.899 37.1246 47.677V41.0126C37.9605 42.1023 40.0402 43.1686 42.1083 43.1686C46.9659 43.1686 50.4564 39.1123 50.4564 34.1338C50.4564 29.1553 46.9365 25.1079 41.9235 25.1079ZM41.6477 39.0918C38.8259 39.0918 36.8723 37.1151 36.8723 34.1338C36.8723 30.8706 39.2571 29.1553 41.6477 29.1553C44.1557 29.1553 46.1973 31.508 46.1973 34.1338C46.2002 36.7596 44.1586 39.0918 41.6477 39.0918Z" fill="#58595B"/>
<path d="M112.754 31.217L111.504 29.1375L110.278 31.217H108.815L110.698 28.0831L108.779 25.1753H110.308L111.537 27.1168L112.71 25.1753H114.174L112.288 28.18L114.227 31.217H112.754Z" fill="#231F20"/>
<path d="M118.992 29.164C118.992 30.4916 117.992 31.3228 116.68 31.3228C115.525 31.3228 114.554 30.6854 114.457 29.2932H115.707C115.795 29.8982 116.276 30.1567 116.801 30.1567C117.455 30.1567 117.739 29.7161 117.739 29.1463C117.739 28.5501 117.299 28.18 116.689 28.18C116.182 28.18 115.844 28.4238 115.689 28.6823H114.495L114.909 25.1782H118.836L118.704 26.3531H115.894L115.783 27.5133C115.783 27.5133 116.079 27.1667 116.974 27.1667C118.05 27.1608 118.992 27.8863 118.992 29.164Z" fill="#231F20"/>
<path d="M114.606 24.4234C113.94 21.824 111.828 20 107.446 20H102.154L102.873 24.8639C103.413 29.2521 105.091 30.6648 108.056 31.1847C108.071 31.1877 108.165 31.1994 108.165 31.0907C108.165 31.0525 108.141 31.0173 108.106 31.0026C106.1 30.1567 105.871 27.384 105.443 24.6025L105.111 22.385H108.132C110.919 22.385 113.069 22.3409 114.43 24.4939C114.451 24.5232 114.483 24.5467 114.518 24.5467C114.571 24.5467 114.609 24.5027 114.609 24.4498C114.609 24.441 114.609 24.4322 114.606 24.4234Z" fill="#5EBC52"/>
</g>
<defs>
<clipPath id="clip0_2341_13487">
<rect width="119" height="41" fill="white" transform="translate(1 20)"/>
</clipPath>
</defs>
</svg>
