<svg width="842" height="212" viewBox="0 0 842 212" fill="none" xmlns="http://www.w3.org/2000/svg">
<path opacity="0.4" d="M281.966 133.467C281.966 133.467 243.024 100.981 270.094 61.6995C297.165 22.4176 328.156 22.3531 351.365 28.8039C374.574 35.2547 367.116 82.9303 417.622 98.319C468.127 113.708 478.807 200.933 416.479 197.26C354.149 193.588 281.966 133.467 281.966 133.467Z" fill="#E3EBF5"/>
<path d="M330.713 165.654C330.713 165.654 355.868 150.365 365.444 138.421C382.655 116.952 334.598 70.4346 334.598 70.4346L305.462 141.236L288.488 157.029C293.875 166.879 304.047 174.811 317.757 181.325L330.713 165.654Z" fill="#FFCEBE"/>
<path d="M317.757 181.327L330.714 165.654C330.714 165.654 353.475 150.967 356.948 146.522L337.353 145.802C337.353 145.802 345.271 152.775 328.829 162.981L308.598 176.436C311.267 178.182 314.36 179.8 317.757 181.327Z" fill="#FBB3A3"/>
<path d="M321.89 142.56C324.45 131.31 320.112 116.676 324.417 98.2222C324.417 98.2222 344.969 145.202 344.49 146.163C344.011 147.124 343.293 154.052 341.135 153.205C338.978 152.358 319.697 157.219 321.89 142.56Z" fill="#FBB3A3"/>
<path d="M382.032 147.122H329.701C327.589 147.122 325.859 145.389 325.859 143.27V45.4074C325.859 43.2889 327.589 41.5552 329.701 41.5552H382.032C384.145 41.5552 385.875 43.2889 385.875 45.4074V143.27C385.875 145.389 384.145 147.122 382.032 147.122Z" fill="#58619A"/>
<path d="M380.229 142.558H331.271C329.318 142.558 327.719 140.957 327.719 138.997V49.5518C327.719 47.5935 329.318 45.9902 331.271 45.9902H380.229C382.182 45.9902 383.782 47.5935 383.782 49.5518V138.997C383.782 140.955 382.184 142.558 380.229 142.558Z" fill="url(#paint0_linear_383_9958)"/>
<path d="M306.095 147.932L304.374 129.789C304.119 127.102 304.425 124.393 305.274 121.832L315.308 91.516C315.81 90.0002 316.806 88.6957 318.135 87.8156L334.837 76.7659C336.094 75.9337 337.882 77.4776 337.9 78.9867C337.922 80.879 337.639 81.7541 336.133 83.9717C332.69 89.0458 324.813 97.1382 324.813 97.1382L318.135 115.319L322.659 148.124L308.551 147.96L306.095 147.932Z" fill="#FFCEBE"/>
<path d="M334.736 79.582L331.924 81.6691C331.407 82.0539 330.669 81.9432 330.287 81.4248L330.125 81.2052C329.742 80.6867 329.852 79.9469 330.369 79.5622L333.182 77.4751C333.699 77.0904 334.437 77.201 334.819 77.7195L334.98 77.9391C335.364 78.4576 335.254 79.1973 334.736 79.582Z" fill="#FFC2CD"/>
<path d="M392.979 82.994H348.571C346.331 82.994 344.498 81.1562 344.498 78.9106V54.4994C344.498 52.2538 346.331 50.416 348.571 50.416H392.979C395.219 50.416 397.051 52.2538 397.051 54.4994V78.9089C397.051 81.1562 395.219 82.994 392.979 82.994Z" fill="#50BC93"/>
<path d="M391.266 55.7515H384.368C383.844 55.7515 383.414 55.3222 383.414 54.7955V54.0937C383.414 53.5687 383.842 53.1377 384.368 53.1377H391.266C391.79 53.1377 392.22 53.567 392.22 54.0937V54.7955C392.218 55.3222 391.79 55.7515 391.266 55.7515Z" fill="white"/>
<path d="M355.868 71.8165H348.969C348.445 71.8165 348.016 71.3872 348.016 70.8604V70.1587C348.016 69.6336 348.444 69.2026 348.969 69.2026H355.868C356.391 69.2026 356.821 69.6319 356.821 70.1587V70.8604C356.82 71.3872 356.391 71.8165 355.868 71.8165Z" fill="white"/>
<path d="M368.213 71.8165H361.315C360.791 71.8165 360.361 71.3872 360.361 70.8604V70.1587C360.361 69.6336 360.789 69.2026 361.315 69.2026H368.213C368.737 69.2026 369.167 69.6319 369.167 70.1587V70.8604C369.165 71.3872 368.737 71.8165 368.213 71.8165Z" fill="white"/>
<path d="M380.563 71.8165H373.664C373.141 71.8165 372.711 71.3872 372.711 70.8604V70.1587C372.711 69.6336 373.139 69.2026 373.664 69.2026H380.563C381.087 69.2026 381.516 69.6319 381.516 70.1587V70.8604C381.515 71.3872 381.087 71.8165 380.563 71.8165Z" fill="white"/>
<path d="M392.907 71.8165H386.008C385.485 71.8165 385.055 71.3872 385.055 70.8604V70.1587C385.055 69.6336 385.483 69.2026 386.008 69.2026H392.907C393.43 69.2026 393.86 69.6319 393.86 70.1587V70.8604C393.859 71.3872 393.43 71.8165 392.907 71.8165Z" fill="white"/>
<path d="M356.741 66.1432H349.193C348.546 66.1432 348.016 65.6115 348.016 64.9626V58.4965C348.016 57.8476 348.546 57.3159 349.193 57.3159H356.741C357.388 57.3159 357.918 57.8476 357.918 58.4965V64.9626C357.918 65.6115 357.388 66.1432 356.741 66.1432Z" fill="white"/>
<path d="M367.389 78.2719H348.443C348.094 78.2719 347.809 77.9862 347.809 77.6362V77.1689C347.809 76.8189 348.094 76.5332 348.443 76.5332H367.389C367.738 76.5332 368.023 76.8189 368.023 77.1689V77.6362C368.023 77.9862 367.738 78.2719 367.389 78.2719Z" fill="white"/>
<path d="M376.841 126.883H336.691C334.322 126.883 332.383 125.071 332.383 122.857V92.4609C332.383 90.2464 334.322 88.4341 336.691 88.4341H376.841C379.211 88.4341 381.149 90.2464 381.149 92.4609V122.857C381.151 125.071 379.212 126.883 376.841 126.883Z" fill="white"/>
<path d="M370.899 107.279C370.867 106.004 370.66 104.74 370.284 103.521C370.004 102.593 369.659 101.686 369.251 100.807C368.692 99.5123 366.527 94.9748 362.811 91.7734C363.23 92.1492 366.638 95.3784 366.191 100.208C365.647 105.414 360.66 109.325 358.076 111.831C354.695 115.102 355.408 121.295 355.45 121.699C356.002 121.753 356.557 121.771 357.112 121.755C358.971 121.707 360.803 121.295 362.502 120.541C364.202 119.788 365.735 118.708 367.016 117.364C368.296 116.019 369.298 114.437 369.964 112.706C370.63 110.976 370.948 109.132 370.899 107.279Z" fill="url(#paint1_linear_383_9958)"/>
<path d="M363.482 94.9147C364.329 95.3334 365.11 95.8726 365.801 96.5154C365.505 95.5875 365.087 94.7029 364.558 93.8847L364.39 93.6383C364.25 93.4435 364.125 93.2764 364.013 93.0955C363.678 92.6673 363.319 92.2583 362.937 91.8706C361.149 90.256 360.046 91.2303 360.102 92.0098C360.158 93.0078 361.275 93.829 363.482 94.9147V94.9147Z" fill="url(#paint2_linear_383_9958)"/>
<path d="M362.811 91.7825L362.756 91.7549C362.784 91.7549 362.797 91.7825 362.811 91.7825Z" fill="url(#paint3_linear_383_9958)"/>
<path d="M351.217 120.441C350.239 107.97 345.602 107.859 342.668 107.107C342.654 107.455 342.654 107.789 342.654 108.137C342.726 110.787 343.55 113.363 345.03 115.565C346.511 117.768 348.589 119.507 351.021 120.58C351.044 120.59 351.068 120.594 351.092 120.592C351.116 120.589 351.139 120.58 351.159 120.566C351.179 120.552 351.194 120.533 351.205 120.511C351.215 120.49 351.219 120.465 351.217 120.441Z" fill="url(#paint4_linear_383_9958)"/>
<path d="M370.758 107.387C370.707 105.454 370.254 103.552 369.43 101.801C368.605 100.05 367.426 98.4876 365.967 97.2124V97.3238C366.037 100.609 363.215 103.74 361.413 104.868C359.611 105.995 355.267 107.624 353.423 111.841C352.013 115.056 352.529 120.095 352.655 121.181C354.785 121.816 357.036 121.94 359.224 121.541C361.411 121.142 363.472 120.233 365.239 118.887C367.005 117.541 368.426 115.797 369.386 113.798C370.345 111.799 370.815 109.602 370.758 107.387V107.387Z" fill="#FFF682"/>
<path opacity="0.82" d="M370.869 107.279C370.814 105.303 370.344 103.361 369.49 101.577C368.636 99.7939 367.417 98.2083 365.911 96.9229C367.726 103.799 361.161 108.837 358.06 111.83C354.959 114.823 355.309 120.261 355.42 121.476C355.425 121.541 355.453 121.602 355.499 121.648C355.545 121.694 355.607 121.722 355.672 121.726C356.15 121.764 356.631 121.773 357.11 121.754C364.905 121.555 371.065 115.073 370.869 107.279Z" fill="url(#paint5_linear_383_9958)"/>
<path d="M347.613 103.906C346.333 105.353 345.512 107.145 345.253 109.057C344.995 110.969 345.312 112.914 346.163 114.646C347.014 116.379 348.362 117.821 350.036 118.79C351.709 119.759 353.634 120.212 355.566 120.091C357.498 119.971 359.351 119.282 360.89 118.112C362.429 116.942 363.585 115.344 364.213 113.519C364.84 111.694 364.911 109.725 364.415 107.86C363.919 105.995 362.88 104.319 361.428 103.043C359.479 101.336 356.931 100.468 354.342 100.63C351.752 100.792 349.333 101.97 347.613 103.906ZM362.434 110.782C361.833 111.91 360.91 112.834 359.782 113.439C358.654 114.044 357.371 114.301 356.096 114.18C354.82 114.058 353.61 113.562 352.617 112.755C351.625 111.948 350.895 110.865 350.52 109.645C350.145 108.424 350.141 107.12 350.51 105.897C350.879 104.675 351.603 103.589 352.591 102.776C353.579 101.964 354.787 101.462 356.062 101.333C357.336 101.205 358.62 101.456 359.752 102.055C360.504 102.451 361.171 102.992 361.713 103.645C362.255 104.299 362.662 105.053 362.912 105.864C363.161 106.674 363.247 107.526 363.165 108.37C363.083 109.214 362.834 110.034 362.434 110.782Z" fill="url(#paint6_linear_383_9958)"/>
<path opacity="0.4" d="M347.613 103.906C346.333 105.353 345.512 107.145 345.253 109.057C344.995 110.969 345.312 112.914 346.163 114.646C347.014 116.379 348.362 117.821 350.036 118.79C351.709 119.759 353.634 120.212 355.566 120.091C357.498 119.971 359.351 119.282 360.89 118.112C362.429 116.942 363.585 115.344 364.213 113.519C364.84 111.694 364.911 109.725 364.415 107.86C363.919 105.995 362.88 104.319 361.428 103.043C359.479 101.336 356.931 100.468 354.342 100.63C351.752 100.792 349.333 101.97 347.613 103.906ZM362.434 110.782C361.833 111.91 360.91 112.834 359.782 113.439C358.654 114.044 357.371 114.301 356.096 114.18C354.82 114.058 353.61 113.562 352.617 112.755C351.625 111.948 350.895 110.865 350.52 109.645C350.145 108.424 350.141 107.12 350.51 105.897C350.879 104.675 351.603 103.589 352.591 102.776C353.579 101.964 354.787 101.462 356.062 101.333C357.336 101.205 358.62 101.456 359.752 102.055C360.504 102.451 361.171 102.992 361.713 103.645C362.255 104.299 362.662 105.053 362.912 105.864C363.161 106.674 363.247 107.526 363.165 108.37C363.083 109.214 362.834 110.034 362.434 110.782Z" fill="url(#paint7_linear_383_9958)"/>
<path d="M359.165 98.2547C357.538 97.1892 355.63 96.6284 353.683 96.6434C351.736 96.6583 349.837 97.2482 348.227 98.3386C346.616 99.429 345.366 100.971 344.635 102.769C343.903 104.567 343.724 106.541 344.118 108.441C344.513 110.341 345.464 112.082 346.852 113.443C348.239 114.805 350.001 115.725 351.913 116.089C353.826 116.453 355.804 116.243 357.597 115.487C359.39 114.731 360.918 113.461 361.987 111.84C363.418 109.664 363.924 107.013 363.395 104.466C362.866 101.919 361.345 99.6854 359.165 98.2547V98.2547ZM353.201 113.148C352.14 112.454 351.31 111.462 350.815 110.298C350.32 109.133 350.183 107.849 350.421 106.607C350.659 105.365 351.261 104.221 352.151 103.32C353.041 102.419 354.179 101.801 355.422 101.544C356.665 101.288 357.956 101.404 359.132 101.879C360.308 102.354 361.316 103.166 362.029 104.211C362.743 105.257 363.129 106.49 363.138 107.755C363.148 109.019 362.782 110.258 362.085 111.315C361.149 112.73 359.688 113.717 358.023 114.061C356.358 114.404 354.624 114.076 353.201 113.148V113.148Z" fill="url(#paint8_linear_383_9958)"/>
<path d="M362.855 96.2658C360.574 95.0588 357.986 94.5527 355.416 94.8116C352.847 95.0705 350.413 96.0827 348.421 97.7203C346.429 99.3578 344.969 101.547 344.226 104.011C343.483 106.476 343.49 109.104 344.246 111.564C345.002 114.025 346.473 116.206 348.473 117.834C350.474 119.461 352.913 120.461 355.484 120.706C358.054 120.952 360.64 120.432 362.914 119.214C365.188 117.995 367.049 116.132 368.26 113.859C369.065 112.35 369.563 110.698 369.727 108.998C369.89 107.297 369.716 105.581 369.214 103.947C368.712 102.313 367.892 100.794 366.801 99.476C365.71 98.1581 364.369 97.0672 362.855 96.2658V96.2658ZM362.268 110.7C361.686 111.795 360.792 112.694 359.698 113.282C358.604 113.871 357.359 114.123 356.121 114.007C354.883 113.89 353.708 113.411 352.743 112.628C351.779 111.846 351.069 110.797 350.704 109.612C350.338 108.428 350.333 107.162 350.69 105.975C351.046 104.788 351.748 103.733 352.706 102.944C353.665 102.154 354.836 101.666 356.073 101.54C357.31 101.414 358.557 101.657 359.656 102.237C361.128 103.015 362.23 104.343 362.72 105.93C363.209 107.516 363.047 109.232 362.268 110.7V110.7Z" fill="url(#paint9_linear_383_9958)"/>
<path opacity="0.54" d="M370.758 107.387C370.707 105.454 370.254 103.552 369.43 101.801C368.605 100.05 367.426 98.4876 365.967 97.2124V97.3238C366.037 100.609 363.215 103.74 361.413 104.868C359.611 105.995 355.267 107.624 353.423 111.841C352.013 115.056 352.529 120.095 352.655 121.181C354.785 121.816 357.036 121.94 359.224 121.541C361.411 121.142 363.472 120.233 365.239 118.887C367.005 117.541 368.426 115.797 369.386 113.798C370.345 111.799 370.815 109.602 370.758 107.387V107.387Z" fill="url(#paint10_linear_383_9958)"/>
<path opacity="0.6" d="M351.217 120.441C350.239 107.97 345.602 107.859 342.668 107.107C342.654 107.455 342.654 107.789 342.654 108.137C342.726 110.787 343.55 113.363 345.03 115.565C346.511 117.768 348.589 119.507 351.021 120.58C351.044 120.59 351.068 120.594 351.092 120.592C351.116 120.589 351.139 120.58 351.159 120.566C351.179 120.552 351.194 120.533 351.205 120.511C351.215 120.49 351.219 120.465 351.217 120.441Z" fill="url(#paint11_linear_383_9958)"/>
<path opacity="0.38" d="M358.049 111.841C357.085 112.787 356.456 113.957 356.037 115.167C357.5 115.301 358.969 115 360.26 114.301C361.55 113.603 362.604 112.538 363.287 111.242C364.186 109.549 364.401 107.577 363.887 105.73C362.085 108.292 359.627 110.324 358.049 111.841V111.841Z" fill="url(#paint12_linear_383_9958)"/>
<path opacity="0.7" d="M357.071 121.096C359.692 121.027 362.234 120.193 364.383 118.698C366.533 117.202 368.194 115.112 369.162 112.684C370.13 110.257 370.362 107.6 369.83 105.042C369.297 102.485 368.022 100.14 366.165 98.2969C366.849 104.477 360.954 109.014 358.049 111.826C355.241 114.54 355.255 119.259 355.381 121.026C355.942 121.092 356.507 121.115 357.071 121.096V121.096Z" fill="url(#paint13_linear_383_9958)"/>
<path d="M370.899 107.279C370.867 106.004 370.66 104.74 370.284 103.521C370.004 102.593 369.659 101.686 369.251 100.807C368.692 99.5123 366.527 94.9748 362.811 91.7734C363.23 92.1492 366.638 95.3784 366.191 100.208C365.647 105.414 360.66 109.325 358.076 111.831C354.695 115.102 355.408 121.295 355.45 121.699C356.002 121.753 356.557 121.771 357.112 121.755C358.971 121.707 360.803 121.295 362.502 120.541C364.202 119.788 365.735 118.708 367.016 117.364C368.296 116.019 369.298 114.437 369.964 112.706C370.63 110.976 370.948 109.132 370.899 107.279Z" fill="url(#paint14_linear_383_9958)"/>
<path d="M363.482 94.9147C364.329 95.3334 365.11 95.8726 365.801 96.5154C365.505 95.5875 365.087 94.7029 364.558 93.8847L364.39 93.6383C364.25 93.4435 364.125 93.2764 364.013 93.0955C363.678 92.6673 363.319 92.2583 362.937 91.8706C361.149 90.256 360.046 91.2303 360.102 92.0098C360.158 93.0078 361.275 93.829 363.482 94.9147V94.9147Z" fill="url(#paint15_linear_383_9958)"/>
<path d="M362.811 91.7825L362.756 91.7549C362.784 91.7549 362.797 91.7825 362.811 91.7825Z" fill="url(#paint16_linear_383_9958)"/>
<path d="M351.217 120.441C350.239 107.97 345.602 107.859 342.668 107.107C342.654 107.455 342.654 107.789 342.654 108.137C342.726 110.787 343.55 113.363 345.03 115.565C346.511 117.768 348.589 119.507 351.021 120.58C351.044 120.59 351.068 120.594 351.092 120.592C351.116 120.589 351.139 120.58 351.159 120.566C351.179 120.552 351.194 120.533 351.205 120.511C351.215 120.49 351.219 120.465 351.217 120.441Z" fill="url(#paint17_linear_383_9958)"/>
<path d="M370.758 107.387C370.707 105.454 370.254 103.552 369.43 101.801C368.605 100.05 367.426 98.4876 365.967 97.2124V97.3238C366.037 100.609 363.215 103.74 361.413 104.868C359.611 105.995 355.267 107.624 353.423 111.841C352.013 115.056 352.529 120.095 352.655 121.181C354.785 121.816 357.036 121.94 359.224 121.541C361.411 121.142 363.472 120.233 365.239 118.887C367.005 117.541 368.426 115.797 369.386 113.798C370.345 111.799 370.815 109.602 370.758 107.387V107.387Z" fill="#FFF682"/>
<path opacity="0.82" d="M370.869 107.279C370.814 105.303 370.344 103.361 369.49 101.577C368.636 99.7939 367.417 98.2083 365.911 96.9229C367.726 103.799 361.161 108.837 358.06 111.83C354.959 114.823 355.309 120.261 355.42 121.476C355.425 121.541 355.453 121.602 355.499 121.648C355.545 121.694 355.607 121.722 355.672 121.726C356.15 121.764 356.631 121.773 357.11 121.754C364.905 121.555 371.065 115.073 370.869 107.279Z" fill="url(#paint18_linear_383_9958)"/>
<path d="M362.855 96.2658C360.574 95.0588 357.986 94.5527 355.416 94.8116C352.847 95.0705 350.413 96.0827 348.421 97.7203C346.429 99.3578 344.969 101.547 344.226 104.011C343.483 106.476 343.49 109.104 344.246 111.564C345.002 114.025 346.473 116.206 348.473 117.834C350.474 119.461 352.913 120.461 355.484 120.706C358.054 120.952 360.64 120.432 362.914 119.214C365.188 117.995 367.049 116.132 368.26 113.859C369.065 112.35 369.563 110.698 369.727 108.998C369.89 107.297 369.716 105.581 369.214 103.947C368.712 102.313 367.892 100.794 366.801 99.476C365.71 98.1581 364.369 97.0672 362.855 96.2658V96.2658ZM362.268 110.7C361.686 111.795 360.792 112.694 359.698 113.282C358.604 113.871 357.359 114.123 356.121 114.007C354.883 113.89 353.708 113.411 352.743 112.628C351.779 111.846 351.069 110.797 350.704 109.612C350.338 108.428 350.333 107.162 350.69 105.975C351.046 104.788 351.748 103.733 352.706 102.944C353.665 102.154 354.836 101.666 356.073 101.54C357.31 101.414 358.557 101.657 359.656 102.237C361.128 103.015 362.23 104.343 362.72 105.93C363.209 107.516 363.047 109.232 362.268 110.7V110.7Z" fill="url(#paint19_linear_383_9958)"/>
<path opacity="0.58" d="M347.598 104.019C346.327 105.456 345.512 107.236 345.256 109.134C345.001 111.033 345.316 112.964 346.162 114.684C347.008 116.404 348.347 117.836 350.009 118.798C351.672 119.759 353.583 120.208 355.502 120.087C357.42 119.967 359.26 119.282 360.787 118.119C362.315 116.957 363.463 115.369 364.085 113.557C364.707 111.744 364.776 109.789 364.283 107.937C363.79 106.086 362.757 104.422 361.315 103.156C357.278 99.6341 351.132 100.01 347.598 104.019V104.019ZM362.264 110.7C361.683 111.795 360.789 112.694 359.694 113.282C358.6 113.871 357.356 114.123 356.118 114.007C354.88 113.89 353.704 113.411 352.74 112.628C351.775 111.846 351.066 110.796 350.7 109.612C350.335 108.428 350.33 107.162 350.686 105.975C351.043 104.788 351.745 103.733 352.703 102.944C353.661 102.154 354.833 101.665 356.07 101.54C357.307 101.414 358.554 101.657 359.652 102.237C361.124 103.015 362.226 104.343 362.716 105.93C363.206 107.516 363.043 109.232 362.264 110.7V110.7Z" fill="url(#paint20_linear_383_9958)"/>
<path opacity="0.58" d="M359.164 98.2549C357.539 97.1888 355.634 96.6267 353.688 96.6399C351.743 96.653 349.845 97.2407 348.235 98.3287C346.625 99.4167 345.375 100.956 344.643 102.752C343.911 104.548 343.73 106.52 344.122 108.419C344.515 110.317 345.464 112.057 346.85 113.418C348.235 114.779 349.994 115.701 351.905 116.065C353.815 116.43 355.792 116.222 357.584 115.467C359.376 114.713 360.903 113.445 361.972 111.826C362.683 110.752 363.175 109.548 363.418 108.284C363.662 107.02 363.654 105.721 363.393 104.46C363.132 103.2 362.624 102.003 361.899 100.938C361.173 99.8731 360.244 98.9614 359.164 98.2549V98.2549ZM353.256 113.051C352.211 112.368 351.394 111.392 350.906 110.246C350.418 109.1 350.282 107.836 350.516 106.614C350.749 105.391 351.341 104.265 352.217 103.377C353.093 102.49 354.213 101.881 355.436 101.628C356.659 101.375 357.929 101.489 359.087 101.955C360.245 102.422 361.238 103.22 361.941 104.249C362.643 105.278 363.024 106.492 363.035 107.736C363.045 108.981 362.685 110.201 362 111.241C361.08 112.635 359.642 113.608 358.003 113.947C356.364 114.286 354.657 113.964 353.256 113.051V113.051Z" fill="url(#paint21_linear_383_9958)"/>
<path opacity="0.54" d="M353.774 113.273C354.996 113.916 356.397 114.14 357.76 113.91C359.122 113.681 360.371 113.011 361.313 112.004C362.256 110.996 362.839 109.708 362.974 108.338C363.108 106.967 362.786 105.591 362.058 104.421C361.864 104.58 361.658 104.724 361.443 104.852C359.655 105.98 355.297 107.608 353.453 111.826C353.311 112.152 353.19 112.487 353.09 112.828C353.294 113.01 353.525 113.16 353.774 113.273Z" fill="white"/>
<path opacity="0.54" d="M370.758 107.387C370.707 105.454 370.254 103.552 369.43 101.801C368.605 100.05 367.426 98.4876 365.967 97.2124V97.3238C366.037 100.609 363.215 103.74 361.413 104.868C359.611 105.995 355.267 107.624 353.423 111.841C352.013 115.056 352.529 120.095 352.655 121.181C354.785 121.816 357.036 121.94 359.224 121.541C361.411 121.142 363.472 120.233 365.239 118.887C367.005 117.541 368.426 115.797 369.386 113.798C370.345 111.799 370.815 109.602 370.758 107.387V107.387Z" fill="url(#paint22_linear_383_9958)"/>
<path opacity="0.6" d="M351.217 120.441C350.239 107.97 345.602 107.859 342.668 107.107C342.654 107.455 342.654 107.789 342.654 108.137C342.726 110.787 343.55 113.363 345.03 115.565C346.511 117.768 348.589 119.507 351.021 120.58C351.044 120.59 351.068 120.594 351.092 120.592C351.116 120.589 351.139 120.58 351.159 120.566C351.179 120.552 351.194 120.533 351.205 120.511C351.215 120.49 351.219 120.465 351.217 120.441Z" fill="url(#paint23_linear_383_9958)"/>
<path opacity="0.38" d="M358.049 111.841C357.085 112.787 356.456 113.957 356.037 115.167C357.5 115.301 358.969 115 360.26 114.301C361.55 113.603 362.604 112.538 363.287 111.242C364.186 109.549 364.401 107.577 363.887 105.73C362.085 108.292 359.627 110.324 358.049 111.841V111.841Z" fill="#FFDF9A"/>
<path opacity="0.7" d="M357.071 121.096C359.692 121.027 362.234 120.193 364.383 118.698C366.533 117.202 368.194 115.112 369.162 112.684C370.13 110.257 370.362 107.6 369.83 105.042C369.297 102.485 368.022 100.14 366.165 98.2969C366.849 104.477 360.954 109.014 358.049 111.826C355.241 114.54 355.255 119.259 355.381 121.026C355.942 121.092 356.507 121.115 357.071 121.096V121.096Z" fill="url(#paint24_linear_383_9958)"/>
<path d="M449.486 212.001C445.837 208.765 434.829 197.252 432.98 193.504C424.37 176.059 442.393 164.777 459.396 179.86C465.865 185.598 461.984 182.478 474.931 192.971C482.025 198.722 449.486 212.001 449.486 212.001Z" fill="#FFCEBE"/>
<path d="M449.485 212.001C445.835 208.764 434.828 197.252 432.979 193.504C424.369 176.059 425.387 179.682 441.944 195.256C452.479 205.165 466.462 203.731 466.462 203.731L449.485 212.001Z" fill="#FBB3A3"/>
<path d="M372.852 119.954C373.474 119.074 374.724 118.937 375.528 119.655C379.902 123.562 384.276 126.308 387.444 128.852C398.799 137.968 402.588 139.418 402.588 139.418C402.735 139.441 403.357 140.278 403.507 140.295C403.347 139.307 402.797 135.569 407.479 135.632C408.346 135.457 408.897 135.627 409.556 135.818C410.07 135.898 410.62 136.002 411.216 136.137C411.216 136.137 411.328 134.199 412.904 133.323C413.036 133.21 413.177 133.091 413.337 132.96C416.352 132.547 417.288 132.779 419.46 134.398C420.181 132.428 422.992 132.798 425.097 133.462C427.202 134.126 430.037 136.244 431.557 137.514C436.921 141.672 442.858 147.392 442.858 147.392L459.399 179.857C459.399 179.857 445.312 192.124 436.187 196.693C427.062 201.26 405.348 179.946 405.21 179.818C405.085 179.819 402.932 178.117 402.417 177.592C400.699 175.842 398.985 174.091 397.276 172.338C393.336 168.613 377.454 158.877 377.864 159.168C377.864 159.168 378.915 154.224 385.232 155.406C392.888 156.84 406.071 164.425 406.091 164.105C406.322 160.365 397.206 151.184 390.26 144.205C387.154 141.084 379.114 132.784 377.835 131.522C371.272 125.054 371.684 121.607 372.852 119.954Z" fill="#FFCEBE"/>
<path d="M402.716 139.258L402.439 139.548L412.716 149.374L412.993 149.084L402.716 139.258Z" fill="#FBB3A3"/>
<path d="M411.565 136.194L411.289 136.485L421.566 146.311L421.842 146.02L411.565 136.194Z" fill="#FBB3A3"/>
<path d="M421.634 134.423L421.357 134.713L431.634 144.54L431.911 144.25L421.634 134.423Z" fill="#FBB3A3"/>
<path d="M407.72 165.495L406.086 164.103C406.086 164.103 405.388 160.103 399.807 154.162C394.226 148.221 377.83 131.521 377.83 131.521C377.83 131.521 407.98 151.904 408.858 159.559C409.737 167.214 407.72 165.495 407.72 165.495Z" fill="#FBB3A3"/>
<path d="M381.839 161.737L384.125 162.907C384.817 163.262 385.672 162.985 386.026 162.29C386.38 161.596 386.101 160.739 385.41 160.384L383.124 159.214C382.432 158.859 381.578 159.136 381.223 159.831C380.871 160.525 381.148 161.383 381.839 161.737Z" fill="#FFC2CD"/>
<path d="M375.023 122.394L378.017 124.907C378.557 125.359 379.367 125.286 379.819 124.747C380.27 124.207 380.197 123.393 379.659 122.94L376.665 120.427C376.125 119.975 375.315 120.047 374.863 120.587C374.412 121.129 374.483 121.941 375.023 122.394Z" fill="#FFC2CD"/>
<path d="M440.67 194.117C440.67 194.117 436.041 198.408 431.861 197.239C427.68 196.068 417.586 193.068 402.414 177.593C402.414 177.593 422.527 194.412 430.016 194.721C437.508 195.028 440.67 194.117 440.67 194.117Z" fill="#FBB3A3"/>
<path opacity="0.09" d="M55.2012 26.4C55.9488 25.5333 56.6279 24.7419 57.3138 23.9555C57.4089 23.8468 57.524 23.7581 57.6575 23.6343C57.9946 23.9254 58.3033 24.1931 58.5252 24.3872C58.6003 25.5718 58.6721 26.681 58.7538 27.971C58.1064 28.8963 58.1064 28.8963 57.539 28.3809C57.8094 28.0379 58.083 27.6916 58.2098 27.531C58.1648 26.6677 58.1348 25.9951 58.0897 25.3225C58.0797 25.1685 58.0296 24.8941 57.9796 24.8908C57.806 24.8757 57.5624 24.8975 57.4573 25.0096C56.8916 25.6186 56.3593 26.2594 55.7952 26.9153C55.5733 26.7229 55.4214 26.5907 55.2012 26.4Z" fill="#2A66F7"/>
<path opacity="0.09" d="M64.7356 43.0112C64.9676 43.1366 65.1995 43.2605 65.4598 43.401C66.3109 42.5695 66.5345 43.5834 67.0951 43.8812C66.7481 44.2827 66.4811 44.5939 66.3142 44.7863C65.8536 44.8466 65.5065 44.9152 65.1561 44.9286C65.0076 44.9336 64.7273 44.8298 64.7256 44.7679C64.7089 44.1823 64.7389 43.5951 64.7556 43.0078L64.7356 43.0112Z" fill="#2A66F7"/>
<path opacity="0.09" d="M64.7535 43.0097C64.3481 42.5914 64.348 42.5914 63.8024 42.9946C63.4803 42.7152 63.1516 42.4308 62.5742 41.9289C63.1516 41.8536 63.492 41.8101 64.0443 41.7381C64.1461 41.621 64.4148 41.3081 64.8954 40.751C65.0239 41.4671 65.1106 41.954 65.2258 42.5964C65.1273 42.6784 64.9304 42.8441 64.7335 43.0097C64.7319 43.0114 64.7535 43.0097 64.7535 43.0097Z" fill="#2A66F7"/>
<path opacity="0.09" d="M57.6797 22.6998C57.9467 22.3601 58.217 22.0155 58.3822 21.8046C58.3405 21.3546 58.3088 21.03 58.2788 20.7071C58.3605 20.6887 58.444 20.6703 58.5257 20.6519C58.8528 20.9363 59.1815 21.2207 59.5053 21.5018C58.6792 22.9608 58.2437 23.2552 57.6797 22.6998Z" fill="#2A66F7"/>
<path opacity="0.09" d="M68.7345 42.2136C68.5076 42.0764 68.2823 41.9392 68.022 41.782C67.3829 42.5064 67.0341 41.8054 66.6286 41.4473C66.5552 41.3821 66.5736 41.0625 66.6487 41.014C66.7771 40.9303 67.0275 40.8952 67.1493 40.9688C67.4229 41.1345 67.6499 41.3804 67.7233 41.444C68.2206 41.4423 68.5193 41.4423 68.818 41.4423C68.7829 41.7 68.7479 41.9576 68.7112 42.2153C68.7095 42.2153 68.7345 42.2136 68.7345 42.2136Z" fill="#2A66F7"/>
<path opacity="0.09" d="M61.9244 43.2182C61.4087 42.8184 60.8681 42.4469 60.3942 42.0019C60.264 41.8797 60.3358 41.5418 60.4826 41.2573C60.9115 41.9902 62.4734 41.8496 61.901 43.2199C61.9043 43.2182 61.9244 43.2182 61.9244 43.2182Z" fill="#2A66F7"/>
<path opacity="0.09" d="M57.3262 19.3697C57.7948 19.1087 58.2017 18.8828 58.6086 18.6553C58.5719 18.9196 58.6119 19.2358 58.4802 19.4383C58.2367 19.8131 57.9199 20.3267 57.3262 19.3697Z" fill="#2A66F7"/>
<path opacity="0.09" d="M59.2608 40.9949C59.2809 41.1421 59.3593 41.3278 59.3042 41.3897C59.1841 41.5219 59.0055 41.6323 58.8303 41.6758C58.5683 41.7411 58.2897 41.7645 58.0177 41.7628C57.8875 41.7628 57.7206 41.6976 57.6422 41.6022C57.5704 41.5152 57.5387 41.3195 57.5888 41.2241C57.6439 41.1203 57.8825 40.9882 57.9192 41.0183C58.298 41.3261 58.595 41.2023 58.9037 40.9095C58.9471 40.8677 59.1107 40.9547 59.2608 40.9949Z" fill="#2A66F7"/>
<path opacity="0.09" d="M69.7075 43.1431C69.559 43.3155 69.4105 43.4878 69.2353 43.6919C68.8581 43.364 68.5344 43.0846 68.1289 42.7316C68.3575 42.5341 68.5427 42.3735 68.7313 42.2129C68.733 42.2129 68.7079 42.2146 68.7096 42.2146C69.045 42.5358 69.3788 42.857 69.7108 43.1783C69.7092 43.1783 69.7075 43.1431 69.7075 43.1431Z" fill="#2A66F7"/>
<path opacity="0.4" d="M54.3217 201.91L108.096 172.289L59.6281 143.908L2.94727 171.588L54.3217 201.91Z" fill="#A8C4E5"/>
<path d="M54.3231 201.91L54.7953 201.848C56.0118 201.687 56.9162 200.806 56.8161 199.88L50.3032 139.782C50.203 138.856 49.1351 138.237 47.9186 138.398L47.4463 138.46C46.2299 138.62 45.3254 139.502 45.4255 140.427L51.9385 200.526C52.0386 201.451 53.1066 202.07 54.3231 201.91Z" fill="#6E88C7"/>
<path opacity="0.4" d="M109.39 192.336L80.573 207.625L62.6211 197.335L89.3921 182.036L109.39 192.336Z" fill="#A8C4E5"/>
<path d="M108.378 173.161L109.169 173.016C110.099 172.845 110.74 172.139 110.603 171.436L100.152 118.184C100.013 117.481 99.1488 117.05 98.2193 117.22L97.4284 117.366C96.4989 117.537 95.8581 118.243 95.995 118.945L106.446 172.198C106.585 172.9 107.449 173.332 108.378 173.161Z" fill="#6E88C7"/>
<path d="M58.9679 109.502L93.0011 129.448C99.0669 132.729 106.279 131.969 106.511 127.037C108.275 121.428 106.87 115.259 102.743 111.08C101.198 109.516 99.4056 108.13 97.4833 107.09L60.0359 86.8296C53.9701 83.5486 48.8188 84.8988 48.5852 89.8312L48.3616 94.5695C48.1297 99.5019 52.9022 106.221 58.9679 109.502Z" fill="#8CB5E5"/>
<path d="M103.029 128.503C104.793 122.895 103.388 116.726 99.261 112.546C97.7157 110.982 95.9235 109.597 94.0012 108.556L56.5521 88.296C53.9456 86.8855 51.5093 86.3334 49.5586 86.5509C51.4559 84.4244 55.3924 84.3507 59.8161 86.7433L97.2652 107.002C99.1875 108.042 100.981 109.428 102.525 110.992C106.652 115.171 108.057 121.34 106.293 126.949C106.179 129.36 104.396 130.77 101.896 131.203C102.567 130.516 102.977 129.616 103.029 128.503Z" fill="url(#paint25_linear_383_9958)"/>
<path d="M58.5488 147.029L98.556 131.674C103.609 129.836 106.059 129.872 98.5043 125.733L68.9983 109.397C61.4457 105.257 71.0641 99.547 66.0113 101.386L11.4814 121.236C6.42853 123.075 8.47269 127.967 16.0269 132.106L35.6292 142.848C43.1817 146.987 53.496 148.869 58.5488 147.029Z" fill="#69A2E5"/>
<path d="M2.9626 176.808C1.74111 176.678 0.910094 175.717 1.107 174.665L10.7554 123.206C10.9524 122.154 12.1038 121.408 13.3253 121.538C14.5467 121.669 15.3778 122.629 15.1809 123.682L5.5324 175.14C5.3355 176.193 4.18576 176.941 2.9626 176.808Z" fill="#6E88C7"/>
<path d="M11.7023 142.233L7.57227 140.197L9.4579 130.578L14.0902 131.436L11.7023 142.233Z" fill="#464F85"/>
<path d="M52.3967 159.908L47.2687 157.045L46.3359 149.494L51.5757 149.934L52.3967 159.908Z" fill="#464F85"/>
<path d="M104.438 140.011L99.8695 138.67L98.2559 130.449L102.483 130.226L104.438 140.011Z" fill="#464F85"/>
<path d="M68.2652 106.148L53.7692 50.9009C51.0025 44.6033 42.6122 41.8627 35.5987 44.9663L7.54774 57.3759C2.49323 59.6112 -0.498754 64.3462 0.0686053 69.2116L8.53561 126.141L68.2652 106.148Z" fill="#A8C4E5"/>
<path d="M7.71341 57.329L10.2749 56.1963C8.12892 58.7093 7.05427 61.8665 7.42806 65.0773L16.132 123.605L8.69962 126.093L0.234278 69.1647C-0.331412 64.2992 2.65891 59.5643 7.71341 57.329Z" fill="#97BBE5"/>
<path d="M59.5648 151.511L99.567 134.201C103.867 132.34 106.167 128.172 106.167 128.172C107.717 125.047 103.774 122.412 99.4736 124.272L57.4239 142.894C53.1237 144.755 51.5367 146.911 52.306 149.667C52.3043 149.667 54.1082 153.576 59.5648 151.511Z" fill="#A8C4E5"/>
<path d="M95.9908 124.539C95.9908 124.539 90.751 152.119 63.7497 140.825L63.3242 137.225L72.0232 120.386C72.0232 120.386 86.3457 115.641 95.9908 124.539Z" fill="#6E88C7"/>
<path d="M13.6669 84.8816C12.921 87.2792 12.2752 89.6299 11.8314 91.4704C11.219 94.0169 11.3474 96.4128 13.0645 98.2315C15.596 100.913 18.351 103.298 21.3346 105.372C19.0068 113.315 19.8411 118.455 21.635 121.759L63.3259 107.803C62.8336 107.547 62.3364 107.293 61.8341 107.042L51.947 97.5589C52.2207 93.9432 53.6174 85.6244 54.2548 80.6134C54.9073 75.487 58.0545 76.2466 56.9515 69.9974C56.8063 66.5876 51.6617 57.8254 51.3997 55.3358C51.0092 51.6148 51.5916 47.6829 44.6898 43.992C43.7654 43.8013 42.8125 43.6975 41.848 43.6875L39.7772 44.1376C38.045 44.514 36.3697 45.0762 34.7927 45.809C27.7208 49.0934 22.9716 51.066 19.9296 52.9817C17.7886 54.1295 15.9981 54.7904 15.2939 56.6007C13.3499 61.6084 10.8785 70.1346 10.8986 81.0719C10.9019 83.1198 12.0717 84.2675 13.6669 84.8816ZM20.275 93.0464L20.9942 84.7327C21.6984 84.2625 22.2741 83.5949 22.6663 82.7918L25.483 93.6186C25.0375 94.8986 24.3583 95.9426 24.5853 96.9047C23.272 95.6465 21.8486 94.3548 20.275 93.0464Z" fill="#8DB1DB"/>
<path d="M64.6728 36.8231C66.9072 37.8672 68.7845 39.5403 70.1745 41.5832C72.4389 44.911 75.8264 50.6264 75.3108 54.3893C74.5465 59.9708 62.8906 65.3817 62.8906 65.3817L66.8471 60.7321C66.8471 60.7321 79.888 56.4339 66.5634 41.6467C61.5323 36.0602 62.6937 35.8962 64.6728 36.8231Z" fill="#58619A"/>
<path d="M67.8353 40.1723C67.8353 40.1723 77.165 66.877 62.3536 67.8893C47.5422 68.9015 27.1406 59.0987 27.1406 59.0987L53.5195 17.3374C60.2177 22.9641 58.2186 29.9394 67.8353 40.1723Z" fill="#58619A"/>
<path d="M59.7393 42.2828C59.7393 42.2828 70.429 71.1593 55.6193 72.1715C40.8095 73.1838 49.5118 63.1433 49.5118 63.1433L46.7852 21.6196C53.4833 27.2464 55.6527 28.5715 59.7393 42.2828Z" fill="#464F85"/>
<path d="M59.5646 67.8905C64.2003 67.5743 66.4714 64.7384 67.4025 60.9922C68.6107 60.0787 69.7604 59.0665 70.6682 57.999C70.6632 58.071 70.6598 58.1446 70.6531 58.2165C71.349 57.4552 71.9597 56.4965 72.2985 55.3153C72.4036 55.0075 72.482 54.6996 72.5238 54.3901C72.5655 54.0856 72.5788 53.7677 72.5722 53.4414C72.6039 51.7382 72.0982 49.6836 70.7099 47.2224C69.687 45.1209 68.4188 43.1048 67.3858 41.5856C66.1059 39.705 64.4089 38.144 62.4031 37.0916C56.4758 29.4454 56.6043 23.7518 52.4609 19.0352L53.5322 17.3403C59.5362 22.3831 58.5534 28.5085 65.2082 37.0916C67.2123 38.144 68.911 39.705 70.1909 41.5856C72.4554 44.9135 75.8428 50.6289 75.3272 54.3918C75.0035 56.7576 72.724 59.0916 70.2059 60.9956C69.2748 64.7417 67.0037 67.576 62.368 67.8939C61.1816 67.9759 59.9584 67.9859 58.7119 67.9391C58.9989 67.924 59.2843 67.9089 59.5646 67.8905Z" fill="#8994D9"/>
<path d="M106.1 187.67L94.1686 179.216C92.4932 178.48 89.8166 178.408 87.4387 178.782C86.3708 178.951 85.6482 179.778 85.6849 180.735L85.7634 182.801C85.7584 185.778 86.1138 186.194 88.3248 187.166L101.458 192.937C103.669 193.909 106.864 193.899 108.556 192.915L109.035 192.636C110.729 191.654 108.868 189.599 106.1 187.67Z" fill="#58619A"/>
<path d="M87.0613 179.385C87.8006 183.082 94.976 183.857 94.5088 180.057C94.729 161.983 95.2463 147.529 94.966 133.906C94.9042 130.881 94.5522 128.095 93.022 126.139C89.1956 121.247 73.7267 113.656 68.3218 107.245L56.0234 116.957C65.4032 126.996 78.1188 125.764 82.0285 138.895C83.0681 142.389 82.1253 145.261 82.7678 152.187C83.4403 159.443 86.549 172.294 87.0613 179.385Z" fill="#FFA3B4"/>
<path d="M68.3567 106.399C68.6203 106.712 68.9073 107.015 69.2094 107.311L63.3756 111.919C70.1121 119.128 77.0857 109.672 93.0201 126.142C93.0201 126.142 84.6399 122.767 86.0383 131.437C86.619 135.036 86.6573 140.808 87.2998 147.734C87.9723 154.99 88.6531 170.895 89.1637 177.987C89.2739 178.534 87.9472 183.172 87.2063 179.474C86.6941 172.382 83.4751 158.599 82.801 151.341C82.1585 144.416 83.1013 141.543 82.0617 138.049C78.1536 124.919 65.4364 126.149 56.0566 116.111L68.3567 106.399Z" fill="#F08B9E"/>
<path d="M89.3945 182.037C89.3945 182.037 97.6813 187.262 100.53 185.112C101.92 184.063 94.5208 179.094 94.5208 179.094L89.3945 182.037Z" fill="#FFA3B4"/>
<path d="M82.1687 202.474L80.5567 193.189C80.1462 190.824 78.4692 188.863 76.188 188.13C75.9427 188.051 75.6991 187.984 75.4638 187.932C74.6495 187.753 73.6266 188.242 73.0175 189.072L71.7026 190.864C69.7318 193.41 71.202 196.085 72.018 197.588L75.3437 204.299C76.158 205.801 78.2689 206.762 80.0344 206.434L80.535 206.34C82.152 206.039 82.9413 204.756 82.434 203.385C82.3222 203.088 82.2238 202.786 82.1687 202.474Z" fill="#58619A"/>
<path d="M73.0894 190.342C73.5082 194.09 79.327 195.044 79.1885 191.219C80.9623 173.229 82.6744 157.263 83.5655 143.665C84.6435 127.225 65.2348 123.198 59.3142 114.799L46.2266 123.412C54.7086 134.224 68.0883 133.807 70.8533 147.227C71.5892 150.798 70.3861 153.851 70.4311 160.805C70.4762 168.093 73.1895 183.231 73.0894 190.342Z" fill="#FFA3B4"/>
<path d="M76.516 147.464C75.6666 160.419 75.2611 174.856 73.6308 191.706C73.0051 191.955 72.7297 190.684 72.668 190.137C72.7681 183.028 70.0431 168.555 69.9964 161.267C69.9513 154.313 71.5716 151.63 70.8374 148.059C68.0724 134.639 55.2984 134.766 46.8164 123.954C59.9992 120.978 71.056 113.054 79.3178 126.141C83.8166 131.212 69.4841 127.036 72.3526 134.922C73.8127 138.941 76.8614 142.19 76.516 147.464Z" fill="#F08B9E"/>
<path d="M73.002 191.336C73.002 191.336 75.0111 197.169 78.6722 196.894C80.2391 196.777 79.2479 190.137 79.2479 190.137L73.002 191.336Z" fill="#FFA3B4"/>
<path d="M63.7491 140.826L33.9544 124.539C33.9544 124.539 16.206 120.869 30.8923 91.6323L56.3851 93.9412L66.9997 104.122C78.8142 110.025 87.8152 117.109 95.9901 124.539C80.7716 116.047 71.2766 125.369 63.7491 140.826Z" fill="#F7BE6E"/>
<path d="M62.1721 57.4258L69.4827 83.5249L62.893 89.1968L50.8633 59.8217L62.1721 57.4258Z" fill="#FFA3B4"/>
<path d="M62.1721 57.4258L62.6794 76.6701L62.7228 88.7835L50.8633 59.8217L62.1721 57.4258Z" fill="#F08B9E"/>
<path d="M57.8809 77.7151L66.5765 73.2612C66.5765 73.2612 68.6774 77.3002 62.892 78.7541C58.9538 79.7429 57.8809 77.7151 57.8809 77.7151Z" fill="#F08B9E"/>
<path d="M58.671 77.2995C58.671 77.2995 66.1702 77.4952 67.7171 71.8585L65.4043 67.1904L55.6523 72.347L58.671 77.2995Z" fill="white"/>
<path d="M58.671 77.2995C58.671 77.2995 64.0392 78.1494 65.5878 72.5126L65.4043 67.1904L55.6523 72.347L58.671 77.2995Z" fill="#D8E8ED"/>
<path d="M50.6221 43.3331C54.9674 42.3476 59.0374 45.1166 60.953 53.0272L68.0901 69.3184C68.0901 69.3184 65.6171 79.4592 52.9983 74.3261C35.5203 67.217 50.6221 43.3331 50.6221 43.3331Z" fill="#F2AD4D"/>
<path d="M57.0684 95.5411C57.1151 92.6449 58.7237 83.1817 59.4229 77.6938C60.0754 72.5673 63.2226 73.3269 62.1195 67.0778C61.9744 63.668 56.8298 54.9058 56.5678 52.4162C56.1539 48.4776 56.8364 44.3049 48.5763 40.4282L44.9452 41.2179C43.2131 41.5944 41.5377 42.1566 39.9625 42.8894C23.1236 50.7096 19.4541 51.0911 20.6255 60.9792C20.8174 66.0639 23.8361 62.1086 24.7456 65.4749C26.4894 71.9366 33.2927 78.5136 30.8964 89.8424C30.4125 92.1295 28.627 93.6872 30.6595 95.2031C39.4602 101.778 56.9482 103.077 57.0684 95.5411Z" fill="#F7BE6E"/>
<path d="M59.082 93.9812C59.092 94.2246 59.1053 93.9646 59.082 93.9812V93.9812Z" fill="url(#paint26_linear_383_9958)"/>
<path d="M62.9741 64.5865C62.8289 61.1767 56.7999 51.4859 56.5396 48.9946L53.9414 52.8412C54.2284 55.575 55.6535 55.8427 58.487 64.7739C59.5266 70.66 59.3113 74.9197 59.3113 74.9197C59.3113 74.9197 63.9119 69.8987 62.9741 64.5865Z" fill="url(#paint27_linear_383_9958)"/>
<path d="M80.6118 102.442L77.256 104.356C75.6173 105.292 73.5064 105.245 72.5686 104.253L71.9112 103.558C70.9717 102.566 71.544 100.987 73.1844 100.051L76.5401 98.1374C78.1788 97.2021 80.2897 97.2489 81.2275 98.2411L81.885 98.9354C82.8245 99.9276 82.2521 101.507 80.6118 102.442Z" fill="#FFA3B4"/>
<path d="M38.264 114.361L38.1973 113.642L39.372 114.04L39.5689 113.592L66.662 101.201C66.9891 101.052 67.5948 101.092 68.0103 101.293L80.8577 107.477L80.841 107.316L83.1839 108.136L83.2623 108.9H83.2473C83.2256 108.974 83.1622 109.039 83.052 109.091L54.8593 121.986C54.5322 122.135 53.9265 122.095 53.511 121.894L38.6311 114.733C38.4008 114.619 38.2774 114.485 38.264 114.361Z" fill="#A8C4E5"/>
<path d="M54.7918 121.224L82.9845 108.329C83.3116 108.181 83.2382 107.894 82.8227 107.695L67.9428 100.534C67.5273 100.335 66.9216 100.293 66.5945 100.442L38.4018 113.337C38.0747 113.486 38.1481 113.772 38.5636 113.971L53.4435 121.132C53.859 121.331 54.4647 121.373 54.7918 121.224Z" fill="#E1EAF4"/>
<path d="M51.8501 112.186L58.6735 109.066C58.7519 109.029 58.7352 108.961 58.6351 108.912L55.034 107.179C54.9339 107.13 54.7871 107.12 54.7086 107.157L47.8853 110.277C47.8069 110.314 47.8235 110.383 47.9237 110.431L51.5247 112.165C51.6249 112.213 51.7717 112.223 51.8501 112.186Z" fill="#A8C4E5"/>
<path d="M30.668 47.1819C30.668 47.1819 37.1843 62.8374 46.6508 58.76C56.1174 54.6826 49.2573 40.5195 49.2573 40.5195C49.2573 40.5195 39.427 42.5457 30.668 47.1819Z" fill="#FFA3B4"/>
<path d="M41.424 50.6766L42.0615 50.8054C44.2174 51.2404 46.2065 49.9254 46.4835 47.8858L48.0421 36.3797C48.3191 34.3385 46.7806 32.314 44.6263 31.879L43.9888 31.7502C41.8329 31.3152 39.8438 32.6302 39.5668 34.6698L36.3528 45.3795C36.0758 47.4207 39.2681 50.2416 41.424 50.6766Z" fill="#FFA3B4"/>
<path d="M41.4882 105.666C41.4882 105.666 49.3511 105.042 51.8792 106.886C53.7348 108.239 56.2128 111.621 57.4009 113.326C57.5979 113.608 57.3142 113.955 57.0105 113.804L54.1186 112.37L56.041 115.28L54.0352 116.674C53.1891 117.261 52.0094 117.067 51.3135 116.224L49.1459 113.602C48.3349 112.62 47.2018 111.952 45.947 111.746C44.3934 111.49 42.1907 110.898 40.7673 109.526C39.6576 108.459 41.4882 105.666 41.4882 105.666Z" fill="#FFA3B4"/>
<path d="M56.3184 106.411C56.4669 105.814 57.106 105.098 57.7485 104.812L87.5298 91.5239C87.7951 91.4051 88.0188 91.38 88.1789 91.4335H88.1806L88.1856 91.4352C88.2424 91.4553 88.2924 91.4837 88.3325 91.5222L89.2603 92.2851L88.3859 92.24L84.945 106.092C84.7965 106.689 84.1574 107.405 83.5149 107.691L55.3555 120.256L54.4277 121.043L54.3076 121.235C53.7452 121.337 52.4453 120.631 52.4453 120.631L56.3184 106.411Z" fill="white"/>
<path d="M32.481 46.3117C32.481 46.3117 38.2213 62.4557 47.6712 58.1692C55.0051 54.843 49.6853 41.4897 49.6853 41.4897L51.6611 41.8729C51.6611 41.8729 58.3826 55.8218 47.6762 60.202C38.2547 64.0569 29.9629 47.523 29.9629 47.523L32.481 46.3117Z" fill="white"/>
<path d="M40.1352 17.0916C42.5499 14.3059 45.5669 14.2323 48.0015 16.4491C50.84 15.7916 53.8053 17.9031 55.534 22.3302C57.942 28.4957 56.3667 36.2673 53.5182 40.8517C51.9764 43.3346 50.3677 44.9777 44.1919 42.8494C40.0184 41.3319 37.7974 39.6772 36.0219 35.1313C33.6156 28.9658 36.6143 21.1557 40.1352 17.0916Z" fill="#FFA3B4"/>
<path d="M48.779 40.8539C51.6275 36.2695 53.2027 28.4979 50.7948 22.3324C49.066 17.9036 46.1007 15.7921 43.2622 16.4513C42.8968 16.1184 42.518 15.839 42.1309 15.6114C44.1617 14.3951 46.3894 14.7397 48.2717 16.4513C51.1102 15.7938 54.0754 17.9053 55.8042 22.3324C58.2122 28.4979 56.6369 36.2695 53.7884 40.8539C52.4117 43.0708 50.9783 44.6168 46.2909 43.4071C47.3956 42.8918 48.0948 41.9548 48.779 40.8539Z" fill="#FFA3B4"/>
<path d="M47.6761 43.7167C47.6761 43.7167 42.4948 43.6163 38.9121 38.7124C38.9121 38.7124 42.4831 46.121 47.2406 46.9342L47.6761 43.7167Z" fill="#F08B9E"/>
<path d="M32.4785 46.3122C32.4785 46.3122 33.7384 45.4456 36.6353 44.4367L38.9948 36.3438C38.9948 36.3438 37.8768 37.9817 40.3565 40.4513L39.9209 42.096C39.3336 44.3112 37.9218 46.1834 35.9561 47.3479L33.4397 48.6078L32.4785 46.3122Z" fill="#F08B9E"/>
<path d="M60.0094 74.1768C60.0094 74.1768 59.6656 74.6001 59.5622 74.744C59.0582 75.4534 57.4262 77.5899 55.7559 78.122L59.2535 78.3529" fill="#286DC9"/>
<path d="M41.8105 32.0639C41.8105 32.0639 47.9063 35.6762 53.2996 27.5448C53.2996 27.5448 55.1986 24.7624 54.7964 23.3888C54.3942 22.0151 41.8105 32.0639 41.8105 32.0639Z" fill="#F08B9E"/>
<path d="M54.4095 24.3824C44.8812 35.0067 40.9747 30.8925 40.4958 32.7146C40.4958 32.7146 36.6378 44.4265 36.6344 44.4365C35.2744 47.9885 32.2374 43.8944 31.8202 39.0657L29.9613 34.647C29.9613 34.647 27.0844 19.1706 36.5627 15.4111C48.1718 10.8049 60.1114 19.0668 57.0811 28.5719L54.4095 24.3824Z" fill="#58619A"/>
<path d="M54.4081 24.3823L57.078 28.5718C57.078 28.5718 58.6717 24.9143 56.2504 20.7549C56.2504 20.7549 53.6622 16.3864 50.3048 15.1918C46.9473 13.9972 42.2199 25.2473 50.6485 25.7927L54.4081 24.3823Z" fill="#8994D9"/>
<path d="M69.4825 83.525C69.4825 83.525 71.9672 92.1215 65.491 103.673C59.0164 115.222 59.0164 115.222 59.0164 115.222L56.3281 111.249C56.3281 111.249 60.8887 90.1037 62.9846 88.5009C62.9846 88.5009 68.0174 83.4213 69.4825 83.525Z" fill="#FFA3B4"/>
<path d="M57.8164 100.789C57.9649 100.191 58.6041 99.4754 59.2465 99.1893L89.0279 85.9013C89.2932 85.7825 89.5168 85.7574 89.677 85.811H89.6787L89.6837 85.8143C89.7404 85.8344 89.7905 85.8628 89.8305 85.9013L90.7583 86.6642L89.8839 86.6191L86.4431 100.471C86.2945 101.068 85.6554 101.784 85.013 102.07L56.8536 114.636L55.9258 115.422L55.8056 115.614C55.2433 115.716 53.9434 115.01 53.9434 115.01L57.8164 100.789Z" fill="white"/>
<path d="M89.9212 86.7058L60.1398 99.9937C59.499 100.28 58.8582 100.996 58.7097 101.593L55.2305 115.599C55.2271 115.609 55.2288 115.617 55.2271 115.627L53.8338 121.234C53.6853 121.831 54.0841 122.084 54.7249 121.798L84.5062 108.51C85.147 108.224 85.7878 107.508 85.9363 106.91L89.4156 92.9047C89.4189 92.8947 89.4172 92.8863 89.4189 92.8763L90.8123 87.2696C90.9608 86.6723 90.562 86.4197 89.9212 86.7058Z" fill="url(#paint28_linear_383_9958)"/>
<path d="M75.2805 105.044C76.4096 104.052 76.8847 102.744 76.3417 102.123C75.7987 101.502 74.4431 101.802 73.314 102.794C72.1849 103.787 71.7098 105.094 72.2528 105.716C72.7958 106.337 74.1514 106.036 75.2805 105.044Z" fill="white"/>
<path d="M103.987 50.9009L102.33 57.9079L78.2988 68.0186L79.9559 61.0099L103.987 50.9009Z" fill="#FFC248"/>
<path d="M82.8379 84.8801L106.869 74.7693L110.639 58.8345L86.6075 68.9435L82.8379 84.8801Z" fill="#FFC248"/>
<path d="M39.5158 35.6908L36.6339 44.4363C36.6339 44.4363 36.1917 46.6666 34.3194 45.3481C34.3194 45.3481 33.3382 43.6382 35.1538 38.3511C36.971 33.064 37.2563 32.0986 37.2563 32.0986L39.5158 35.6908Z" fill="#464F85"/>
<path d="M41.4159 34.7873C42.381 33.6403 42.1458 31.8498 40.8906 30.7881C39.6354 29.7263 37.8355 29.7954 36.8704 30.9423C35.9054 32.0893 36.1406 33.8798 37.3958 34.9415C38.651 36.0033 40.4509 35.9342 41.4159 34.7873Z" fill="#FFA3B4"/>
<path d="M39.5925 33.1036C39.9596 32.9162 40.0597 32.4377 39.8044 32.0864C39.4406 31.5844 38.8432 31.0708 38.2158 31.8354C37.5817 32.6084 37.9488 33.7879 38.3126 34.5609C38.3776 34.7015 38.5779 34.6529 38.5662 34.5024C38.5295 34.0389 38.6113 33.5202 39.0918 33.3261C39.2954 33.2475 39.459 33.1722 39.5925 33.1036Z" fill="#F08B9E"/>
<path d="M30.5906 90.4629L26.272 73.8689L29.7963 61.5981C29.9731 62.7944 30.155 63.9874 30.3536 65.1669C32.6698 70.6983 34.1783 77.7689 47.1925 81.0499C47.1925 81.0499 42.9824 81.8781 39.0025 82.3098C36.2575 82.6076 34.1766 84.9249 34.1766 87.6922C34.1766 91.3397 33.7094 94.972 32.8283 98.5107C28.1476 117.305 38.7522 120.765 38.7522 120.765L65.59 137.175C64.6905 138.95 63.9847 140.309 63.7527 140.822L34.1616 124.319C34.1599 124.32 16.47 119.15 30.5906 90.4629Z" fill="#DA9C45"/>
<path d="M41.7735 109.671C32.382 106.964 24.6109 102.072 18.2298 95.3108C16.5127 93.4921 16.3842 91.0962 16.9966 88.5497C18.4 82.7138 21.8492 71.723 24.0736 70.4766L26.7018 75.5378L25.4402 90.1291C33.2648 96.6292 37.4332 102.795 42.4276 105.944L41.7735 109.671Z" fill="#FFA3B4"/>
<path d="M20.4245 95.4965C18.8008 93.6075 18.2585 88.968 18.392 86.567C18.6073 82.6854 19.0778 76.6956 20.0273 72.9929L19.46 72.23C17.4842 73.6739 16.6699 83.4232 16.3628 88.9295C16.2294 91.3321 16.8601 94.5763 18.7925 96.1407C23.9938 100.35 27.5932 105.564 40.4606 109.276C40.4606 109.275 27.2378 103.427 20.4245 95.4965Z" fill="#F08B9E"/>
<path d="M17.7988 83.4545L25.8904 83.0396C25.8904 83.0396 22.7048 86.9279 17.899 85.5208L17.7988 83.4545Z" fill="#F08B9E"/>
<path d="M16.4062 82.4825C16.4062 82.4825 20.3661 85.4238 26.1532 83.0363L26.6087 78.7313L16.4062 78.144V82.4825V82.4825Z" fill="white"/>
<path d="M16.4062 82.4825C16.4062 82.4825 19.8121 85.2481 22.8792 82.3536L26.6087 78.7313L16.4062 78.144V82.4825V82.4825Z" fill="#D8E8ED"/>
<path d="M30.9744 61.4343L28.3195 78.3211C27.9391 80.7455 26.0885 82.4872 23.8074 82.5776C20.4232 82.7098 16.0712 82.1108 16.0646 78.1538C16.0445 67.2166 18.5176 58.6903 20.4599 53.6827C21.3043 51.5076 23.7156 50.9956 26.4189 49.3024C26.8561 49.028 26.5457 51.4457 27.0313 51.7987C29.9899 53.952 31.5502 57.7684 30.9744 61.4343Z" fill="#F7BE6E"/>
<path d="M20.4652 53.6807C20.4652 53.6807 14.9135 68.7957 16.0682 78.6889C16.0682 78.6889 16.0515 81.3241 19.2237 82.0987C19.2237 82.0987 18.1107 79.7296 18.1875 76.7297C18.2642 73.7298 19.5358 77.7871 19.998 76.7029C20.4602 75.617 20.6989 71.6015 20.4636 68.799C20.2283 65.9966 21.9554 57.9706 21.121 56.0732C20.2884 54.1759 20.4652 53.6807 20.4652 53.6807Z" fill="#DA9C45"/>
<path d="M13.0701 133.524L49.296 151.27C55.1632 154.144 59.8656 152.789 59.7455 148.258L59.6303 143.906C59.5102 139.375 54.6109 133.317 48.7437 130.444L12.5161 112.697C6.64897 109.823 1.94656 111.178 2.06671 115.709L2.18185 120.061C2.30366 124.592 7.20298 130.65 13.0701 133.524Z" fill="#8CB5E5"/>
<path d="M59.1205 151.153L59.0053 146.801C58.8852 142.27 53.9859 136.212 48.1187 133.339L11.8911 115.592C7.54249 113.462 3.83629 113.656 2.2577 115.744C2.14923 111.229 6.84664 109.88 12.7055 112.751L48.9314 130.496C54.7985 133.371 59.6978 139.429 59.818 143.958L59.9331 148.31C59.9648 149.483 59.6695 150.44 59.1188 151.17C59.1205 151.165 59.1205 151.159 59.1205 151.153Z" fill="#A8C4E5"/>
<path d="M4.18841 111.421L4.23514 113.161C4.35528 117.692 9.2546 123.751 15.1218 126.623L51.3477 144.369C54.6167 145.97 57.5235 146.258 59.4359 145.414L59.506 148.026C59.6261 152.557 54.9254 153.912 49.0565 151.038L12.8323 133.293C6.96514 130.418 2.06582 124.36 1.94567 119.831L1.83053 115.479C1.77547 113.473 2.66822 112.091 4.18841 111.421Z" fill="#7FAADE"/>
<path d="M46.2394 22.1268C46.1909 22.1084 46.084 22.0883 46.084 22.0682C46.0857 21.8825 46.1024 21.6968 46.1258 21.5127C46.1274 21.5044 46.2277 21.501 46.2795 21.5111C46.3012 21.5144 46.3329 21.5579 46.3329 21.583C46.3329 21.7286 46.3262 21.8758 46.3162 22.0214C46.3162 22.0448 46.2828 22.0682 46.2394 22.1268Z" fill="#8994D9"/>
<path d="M47.3315 17.595C47.2981 17.6469 47.278 17.6904 47.2463 17.7255C47.1895 17.7908 47.131 17.8577 47.0642 17.9129C47.0157 17.9531 46.9556 17.9915 46.8971 18.0033C46.872 18.0083 46.8019 17.9347 46.8069 17.9096C46.8203 17.8527 46.8637 17.7991 46.9021 17.7523C46.9506 17.6921 47.004 17.6335 47.0625 17.5833C47.1093 17.5431 47.1661 17.5047 47.2246 17.493C47.2513 17.4879 47.2897 17.5515 47.3315 17.595Z" fill="#8994D9"/>
<path d="M63.137 81.0469C62.6917 81.5839 62.5667 81.0987 62.4082 80.9264C62.3365 80.8494 62.4249 80.6102 62.4549 80.2939C62.7668 80.6386 62.9436 80.8327 63.137 81.0469Z" fill="#F08B9E"/>
<path d="M88.9972 173.2C89.1222 173.325 89.2456 173.454 89.3757 173.575C89.6175 173.797 89.5641 173.97 89.2406 174.124C89.0672 173.931 88.8921 173.739 88.6953 173.521C88.8104 173.407 88.9138 173.304 89.0172 173.2C89.0188 173.198 88.9972 173.2 88.9972 173.2Z" fill="#F08B9E"/>
<path d="M76.0697 155.22C75.918 155.3 75.7662 155.379 75.5444 155.495C75.411 155.116 75.2926 154.783 75.1759 154.447C75.1592 154.397 75.1275 154.32 75.1509 154.293C75.2192 154.211 75.346 154.074 75.3893 154.091C75.6828 154.2 75.9647 154.335 76.2365 154.482C76.2615 154.496 76.2148 154.718 76.1598 154.742C75.8346 154.885 75.8596 155.046 76.0581 155.235C76.0614 155.233 76.0697 155.22 76.0697 155.22Z" fill="#F08B9E"/>
<path d="M704.686 42.2939C704.686 42.7273 707.295 48.5875 709.168 52.7376C709.857 54.2615 711.996 54.1673 712.558 52.5916L716.236 42.2939H704.686Z" fill="#F7BE6E"/>
<path opacity="0.4" d="M711.102 208.908H780.082L842.002 172.166L770.434 130.728L711.102 208.908Z" fill="#E1E9F3"/>
<path d="M718.145 44.8575H701.493C692.662 44.8575 685.436 37.4772 685.436 28.4543V16.4032C685.436 7.38257 692.66 0 701.493 0H718.145C726.975 0 734.202 7.38027 734.202 16.4032V28.4543C734.202 37.4772 726.975 44.8575 718.145 44.8575Z" fill="#FFA11E"/>
<path d="M715.154 44.8575H698.064C689.001 44.8575 681.584 37.4772 681.584 28.4543V16.4032C681.584 7.38257 688.999 0 698.064 0H715.154C724.217 0 731.634 7.38027 731.634 16.4032V28.4543C731.634 37.4772 724.219 44.8575 715.154 44.8575Z" fill="#F7BE6E"/>
<path d="M698.266 19.3312L704.897 30.7595L713.666 14.0981" stroke="white" stroke-width="5.4312" stroke-miterlimit="10" stroke-linecap="round" stroke-linejoin="round"/>
<path d="M710.457 142.263L777.834 103.171L710.459 64.0825L643.084 103.174L710.457 142.263Z" fill="#CFAE88"/>
<path d="M711.102 142.263L777.835 103.171L711.104 64.0825L711.102 142.263Z" fill="#BD9A75"/>
<path d="M754.734 137.136L772.701 126.378V114.066L754.734 124.824V137.136Z" fill="#A17B51"/>
<path d="M777.839 103.813L799.652 89.6533L732.634 48.7026L711.102 64.1434L777.839 103.813Z" fill="#D6B48D"/>
<path d="M711.1 64.7086L692.981 52.5469L626.4 91.4951L644.016 103.813L711.1 64.7086Z" fill="#D6B48D"/>
<path d="M762.432 107.071V124.005V129.31V146.243L722.648 169.177V152.243V123.31V106.376L762.432 107.071Z" fill="#9D4259"/>
<path d="M704.023 94.8418V105.781L722.651 105.455V122.637V151.995V169.177L704.023 158.448V158.564L663.617 135.294V118.112V112.731V95.5492L704.023 94.8418Z" fill="#C84969"/>
<path d="M663.617 96.0257L703.792 73.0532L762.434 106.473L722.261 129.445L663.617 96.0257Z" fill="#FF6B90"/>
<path d="M777.835 103.813V132.47V141.446V170.099L711.102 208.908V180.254V142.793L777.835 103.813Z" fill="#BD9A75"/>
<path d="M711.101 142.792V180.254V208.908L644.367 170.099V141.444V132.468V103.813L711.101 142.792Z" fill="#D6B48D"/>
<path d="M711.1 142.475L694.735 153.798L626.4 115.12L644.016 103.813L711.1 142.475Z" fill="#E8C399"/>
<path d="M777.636 103.813L795.802 116.566L726.15 157.642L711.102 142.327L777.636 103.813Z" fill="#D6A985"/>
<path d="M675.169 106.228V110.222L668.752 106.646V102.532L675.169 106.228Z" fill="white"/>
<path d="M680.301 85.9595L738.46 120.474L748.317 114.699L689.206 80.7432L680.301 85.9595Z" fill="#FFC2D2"/>
<path d="M685.436 83.3062L744.469 117.91" stroke="#FF6B90" stroke-width="1.8696" stroke-miterlimit="10" stroke-linecap="round" stroke-linejoin="round"/>
<path d="M711.102 142.23L711.104 154.35L722.811 166.613L777.424 135.7L777.835 126.882L726.102 157.603L711.102 142.23Z" fill="#BA8C66"/>
<path d="M643.084 124.32L694.506 153.763L711.098 142.151L711.101 154.583L697.265 164.051L643.275 135.397L643.084 124.32Z" fill="#CCA17F"/>
<path fill-rule="evenodd" clip-rule="evenodd" d="M191.242 98.8787C192.414 97.7071 194.315 97.7071 195.487 98.8787L208.223 111.607C208.843 112.226 209.135 113.048 209.1 113.859C209.138 114.673 208.846 115.5 208.224 116.121L195.488 128.849C194.315 130.021 192.415 130.021 191.242 128.849C190.07 127.678 190.07 125.778 191.242 124.607L199.097 116.757H170.105C168.449 116.757 167.105 115.414 167.105 113.757C167.105 112.101 168.449 110.757 170.105 110.757H198.883L191.242 103.121C190.069 101.95 190.069 100.05 191.242 98.8787Z" fill="#F4F7FB"/>
<path fill-rule="evenodd" clip-rule="evenodd" d="M558.478 98.8787C559.65 97.7071 561.551 97.7071 562.723 98.8787L575.459 111.607C576.079 112.226 576.371 113.048 576.336 113.859C576.374 114.673 576.082 115.5 575.46 116.121L562.724 128.849C561.552 130.021 559.651 130.021 558.479 128.849C557.306 127.678 557.306 125.778 558.479 124.607L566.333 116.757H537.342C535.685 116.757 534.342 115.414 534.342 113.757C534.342 112.101 535.685 110.757 537.342 110.757H566.119L558.478 103.121C557.306 101.95 557.306 100.05 558.478 98.8787Z" fill="#F4F7FB"/>
<defs>
<linearGradient id="paint0_linear_383_9958" x1="349.71" y1="47.4208" x2="349.71" y2="143.544" gradientUnits="userSpaceOnUse">
<stop stop-color="#F7BE6E"/>
<stop offset="1" stop-color="#F7BE6E"/>
</linearGradient>
<linearGradient id="paint1_linear_383_9958" x1="355.388" y1="106.725" x2="370.953" y2="106.725" gradientUnits="userSpaceOnUse">
<stop stop-color="#FF8AB3"/>
<stop offset="0.4" stop-color="#F7BE6E"/>
<stop offset="1" stop-color="#FFF5B0"/>
</linearGradient>
<linearGradient id="paint2_linear_383_9958" x1="373.739" y1="102.105" x2="362.468" y2="92.9017" gradientUnits="userSpaceOnUse">
<stop stop-color="#F7BE6E"/>
<stop offset="1" stop-color="#FFF5B0"/>
</linearGradient>
<linearGradient id="paint3_linear_383_9958" x1="362.805" y1="91.7103" x2="362.848" y2="91.7103" gradientUnits="userSpaceOnUse">
<stop stop-color="#FFF5B0"/>
<stop offset="1" stop-color="#F7BE6E"/>
</linearGradient>
<linearGradient id="paint4_linear_383_9958" x1="720.032" y1="-1454.9" x2="1161.8" y2="-1454.9" gradientUnits="userSpaceOnUse">
<stop stop-color="#FFF5B0"/>
<stop offset="1" stop-color="#F7BE6E"/>
</linearGradient>
<linearGradient id="paint5_linear_383_9958" x1="2952.87" y1="-153.721" x2="2952.87" y2="-5640.8" gradientUnits="userSpaceOnUse">
<stop stop-color="#F7BE6E"/>
<stop offset="1" stop-color="#FFF5B0"/>
</linearGradient>
<linearGradient id="paint6_linear_383_9958" x1="356.272" y1="111.517" x2="348.619" y2="105.45" gradientUnits="userSpaceOnUse">
<stop stop-color="white"/>
<stop offset="1" stop-color="#DEA8DE"/>
</linearGradient>
<linearGradient id="paint7_linear_383_9958" x1="356.272" y1="111.517" x2="348.619" y2="105.45" gradientUnits="userSpaceOnUse">
<stop stop-color="white"/>
<stop offset="1" stop-color="#DEA8DE"/>
</linearGradient>
<linearGradient id="paint8_linear_383_9958" x1="-38295.9" y1="-11557.4" x2="-37602.8" y2="-12752.7" gradientUnits="userSpaceOnUse">
<stop stop-color="white"/>
<stop offset="1" stop-color="#DEA8DE"/>
</linearGradient>
<linearGradient id="paint9_linear_383_9958" x1="3707.75" y1="-6388.14" x2="3707.75" y2="-1621.54" gradientUnits="userSpaceOnUse">
<stop stop-color="#FF8AB3"/>
<stop offset="0.4" stop-color="#F7BE6E"/>
<stop offset="1" stop-color="#FFF5B0"/>
</linearGradient>
<linearGradient id="paint10_linear_383_9958" x1="357.79" y1="122.331" x2="366.105" y2="100.613" gradientUnits="userSpaceOnUse">
<stop stop-color="#FF8AB3"/>
<stop offset="0.4" stop-color="#F7BE6E"/>
<stop offset="0.84" stop-color="#FFF5B0" stop-opacity="0.6"/>
</linearGradient>
<linearGradient id="paint11_linear_383_9958" x1="720.032" y1="-1454.9" x2="1161.8" y2="-1454.9" gradientUnits="userSpaceOnUse">
<stop stop-color="#FFF5B0"/>
<stop offset="1" stop-color="#F7BE6E"/>
</linearGradient>
<linearGradient id="paint12_linear_383_9958" x1="1793.14" y1="-1974.98" x2="1793.14" y2="-1225.95" gradientUnits="userSpaceOnUse">
<stop stop-color="white"/>
<stop offset="1" stop-color="#DEA8DE"/>
</linearGradient>
<linearGradient id="paint13_linear_383_9958" x1="361.662" y1="123.109" x2="364.084" y2="102.155" gradientUnits="userSpaceOnUse">
<stop stop-color="#FF8AB3"/>
<stop offset="0.4" stop-color="#F7BE6E"/>
<stop offset="1" stop-color="#FFF5B0" stop-opacity="0"/>
</linearGradient>
<linearGradient id="paint14_linear_383_9958" x1="355.388" y1="106.725" x2="370.953" y2="106.725" gradientUnits="userSpaceOnUse">
<stop stop-color="#FF8AB3"/>
<stop offset="0.4" stop-color="#F7BE6E"/>
<stop offset="1" stop-color="#FFF5B0"/>
</linearGradient>
<linearGradient id="paint15_linear_383_9958" x1="373.739" y1="102.105" x2="362.468" y2="92.9017" gradientUnits="userSpaceOnUse">
<stop stop-color="#F7BE6E"/>
<stop offset="1" stop-color="#FFF5B0"/>
</linearGradient>
<linearGradient id="paint16_linear_383_9958" x1="362.805" y1="91.7103" x2="362.848" y2="91.7103" gradientUnits="userSpaceOnUse">
<stop stop-color="#FFF5B0"/>
<stop offset="1" stop-color="#F7BE6E"/>
</linearGradient>
<linearGradient id="paint17_linear_383_9958" x1="720.032" y1="-1454.9" x2="1161.8" y2="-1454.9" gradientUnits="userSpaceOnUse">
<stop stop-color="#FFF5B0"/>
<stop offset="1" stop-color="#F7BE6E"/>
</linearGradient>
<linearGradient id="paint18_linear_383_9958" x1="2952.87" y1="-153.721" x2="2952.87" y2="-5640.8" gradientUnits="userSpaceOnUse">
<stop stop-color="#F7BE6E"/>
<stop offset="1" stop-color="#FFF5B0"/>
</linearGradient>
<linearGradient id="paint19_linear_383_9958" x1="3707.75" y1="-6388.14" x2="3707.75" y2="-1621.54" gradientUnits="userSpaceOnUse">
<stop stop-color="#FF8AB3"/>
<stop offset="0.4" stop-color="#F7BE6E"/>
<stop offset="1" stop-color="#FFF5B0"/>
</linearGradient>
<linearGradient id="paint20_linear_383_9958" x1="354.983" y1="111.256" x2="353.869" y2="101.043" gradientUnits="userSpaceOnUse">
<stop stop-color="#FF947C" stop-opacity="0"/>
<stop offset="0.25" stop-color="#FF917A" stop-opacity="0.27"/>
<stop offset="0.46" stop-color="#FF8775" stop-opacity="0.48"/>
<stop offset="0.64" stop-color="#FF766B" stop-opacity="0.67"/>
<stop offset="0.81" stop-color="#FF5F5E" stop-opacity="0.85"/>
<stop offset="0.96" stop-color="#FF444F"/>
</linearGradient>
<linearGradient id="paint21_linear_383_9958" x1="353.613" y1="107.578" x2="355.082" y2="96.8964" gradientUnits="userSpaceOnUse">
<stop stop-color="#FFFF1B" stop-opacity="0"/>
<stop offset="1" stop-color="#FF537E"/>
</linearGradient>
<linearGradient id="paint22_linear_383_9958" x1="357.79" y1="122.331" x2="366.105" y2="100.613" gradientUnits="userSpaceOnUse">
<stop stop-color="#FF8AB3"/>
<stop offset="0.4" stop-color="#F7BE6E"/>
<stop offset="0.84" stop-color="#FFF5B0" stop-opacity="0.6"/>
</linearGradient>
<linearGradient id="paint23_linear_383_9958" x1="720.032" y1="-1454.9" x2="1161.8" y2="-1454.9" gradientUnits="userSpaceOnUse">
<stop stop-color="#FFF5B0"/>
<stop offset="1" stop-color="#F7BE6E"/>
</linearGradient>
<linearGradient id="paint24_linear_383_9958" x1="361.662" y1="123.109" x2="364.084" y2="102.155" gradientUnits="userSpaceOnUse">
<stop stop-color="#FF8AB3"/>
<stop offset="0.4" stop-color="#F7BE6E"/>
<stop offset="1" stop-color="#FFF5B0" stop-opacity="0"/>
</linearGradient>
<linearGradient id="paint25_linear_383_9958" x1="93.0456" y1="93.2318" x2="51.1638" y2="132.704" gradientUnits="userSpaceOnUse">
<stop offset="0.086" stop-color="#D7E7FA"/>
<stop offset="0.1022" stop-color="#C7DCF6"/>
<stop offset="0.1311" stop-color="#B1CEEF"/>
<stop offset="0.1653" stop-color="#A0C3EB"/>
<stop offset="0.2076" stop-color="#95BBE7"/>
<stop offset="0.2669" stop-color="#8EB6E6"/>
<stop offset="0.4316" stop-color="#8CB5E5"/>
</linearGradient>
<linearGradient id="paint26_linear_383_9958" x1="59.0951" y1="94.0333" x2="59.0828" y2="94.0333" gradientUnits="userSpaceOnUse">
<stop stop-color="#579FFF"/>
<stop offset="0.5521" stop-color="#3D89ED"/>
</linearGradient>
<linearGradient id="paint27_linear_383_9958" x1="62.6902" y1="60.5566" x2="53.8967" y2="63.1279" gradientUnits="userSpaceOnUse">
<stop stop-color="#FFE4BE"/>
<stop offset="0.5521" stop-color="#F7BE6E"/>
</linearGradient>
<linearGradient id="paint28_linear_383_9958" x1="54.6658" y1="102.442" x2="90.0739" y2="104.047" gradientUnits="userSpaceOnUse">
<stop stop-color="#FF6B90"/>
<stop offset="1" stop-color="#FF7698"/>
</linearGradient>
</defs>
</svg>
