<svg width="120" height="80" viewBox="0 0 120 80" fill="none" xmlns="http://www.w3.org/2000/svg">
<path d="M76.2813 33.5015H85.6562V26.721H76.2813V33.5015Z" fill="#3B3F4A"/>
<path d="M12 61L80 61V38L12 38V61Z" fill="#3B3F4A"/>
<path d="M75.377 61.527L108.379 61.9443L108.225 51.9761L75.377 50.1343V61.527Z" fill="#0090E7"/>
<path d="M106.174 46.313C104.37 44.8195 102.622 43.2727 100.692 41.8576C99.1952 40.7594 98.2274 39.1561 96.1976 38.4533C94.8539 37.9889 77.5479 37.9167 76.887 38.0705C75.1298 38.4815 75.4869 39.7052 75.512 40.7124C75.6122 44.4556 75.2206 48.1705 75.4462 51.9169C75.4618 52.1836 76.7241 56.1495 78.7664 56.1433C90.998 56.1025 79.3334 55.9456 91.5619 55.886C98.9416 55.8483 97.8233 56.3566 105.203 56.3566C106.396 56.3472 108.313 54.085 108.204 52.0298C108.104 50.1253 108.169 48.2364 106.569 46.6958C106.437 46.5703 106.312 46.4323 106.168 46.313H106.174Z" fill="#0090E7"/>
<path d="M99.7861 41.5874C98.3014 39.2436 96.8605 36.8119 95.2724 34.5873C94.0383 32.8616 93.2427 30.3452 91.5732 29.2439C90.4643 28.5129 77.3181 28.403 76.7731 28.6446C75.3259 29.2879 75.6204 31.2144 75.6423 32.7957C75.7237 38.6725 75.4011 44.5085 75.5891 50.3916C75.6016 50.8089 76.1497 57.0403 77.8286 57.0277C87.9021 56.9618 77.6877 56.7171 87.7581 56.6229C93.8347 56.5665 92.9138 57.3603 98.9905 57.3603C99.974 57.3446 101.55 53.7928 101.462 50.5673C101.38 47.574 101.434 44.6089 100.115 42.1898C100.005 41.9921 99.9051 41.7757 99.7861 41.5874Z" fill="#0090E7"/>
<path d="M93.4481 57.6714H109.974V60.9408H93.3917C92.8561 60.9408 92.4238 60.5047 92.4238 59.9713V58.6974C92.4238 58.1326 92.8842 57.6714 93.4481 57.6714Z" fill="#3B3F4A"/>
<path d="M78.9394 31.167H91.7161L97.0441 40.8121V41.5526L79.7538 41.1133L78.4414 40.0747L78.9394 31.167Z" fill="#9AC6DC"/>
<path d="M97.1328 40.1971L91.1751 30.4234C91.0592 30.3387 78.9467 30.4234 78.9467 30.4234C78.1041 30.4234 77.9005 30.5238 77.7658 30.7026L77.5841 39.6104C77.5403 40.0748 77.7439 40.8717 77.9569 41.1447L78.9122 41.9009H96.735C97.5462 41.9009 97.4429 40.8184 97.4429 40.8184C97.4429 40.5705 97.327 40.3383 97.1328 40.2003V40.1971ZM79.0469 39.739L79.0782 31.9138H90.5612L94.2667 39.4535L94.0099 40.7399H79.783L79.0438 39.739H79.0469Z" fill="#3B3F4A"/>
<path d="M107.929 55.8354C109.154 55.7758 109.286 54.9192 109.138 52.8954C108.991 50.8717 108.647 50.4136 108.302 50.4136H106.711C106.774 52.0671 106.711 53.7771 106.711 55.8637C107.087 55.8637 107.513 55.8574 107.933 55.8354H107.929Z" fill="#D3D3C7"/>
<path d="M107.8 48.4434H107.277C106.931 48.4434 106.65 48.7243 106.65 49.0709V49.7863C106.65 50.1328 106.931 50.4138 107.277 50.4138H107.8C108.146 50.4138 108.426 50.1328 108.426 49.7863V49.0709C108.426 48.7243 108.146 48.4434 107.8 48.4434Z" fill="#BC332C"/>
<path d="M107.8 55.8384H107.277C106.931 55.8384 106.65 56.1193 106.65 56.4659V57.1813C106.65 57.5279 106.931 57.8088 107.277 57.8088H107.8C108.146 57.8088 108.426 57.5279 108.426 57.1813V56.4659C108.426 56.1193 108.146 55.8384 107.8 55.8384Z" fill="#FECB00"/>
<path d="M101.393 64.2982C104.002 64.1539 106.595 63.6989 108.456 62.494C109.161 62.0391 109.136 61.5026 109.073 60.9409H101.825C102.119 62.0736 101.972 63.2126 101.396 64.2982H101.393Z" fill="#3B3F4A"/>
<g opacity="0.2">
<path d="M77.9316 53.3096L78.1196 53.2437L78.1008 42.9429H77.963L77.9316 53.3096Z" fill="#3B3F4A"/>
</g>
<g opacity="0.2">
<path d="M97.4434 53.3101L97.6344 53.2442L97.6125 42.9434H97.4747L97.4434 53.3101Z" fill="#3B3F4A"/>
</g>
<path opacity="0.1" d="M80.0527 44.0444H82.7966C82.8812 44.0444 82.9501 44.1135 82.9501 44.1982V44.7881C82.9501 44.8728 82.8812 44.9418 82.7966 44.9418H80.0558C79.9713 44.9418 79.9023 44.8728 79.9023 44.7881V44.1982C79.9023 44.1135 79.9713 44.0444 80.0558 44.0444H80.0527Z" fill="#3B3F4A"/>
<path d="M80.0539 43.7529H82.7947C82.8792 43.7529 82.9481 43.822 82.9481 43.9067V44.4966C82.9481 44.5813 82.8792 44.6503 82.7947 44.6503H80.0539C79.9693 44.6503 79.9004 44.5813 79.9004 44.4966V43.9067C79.9004 43.822 79.9693 43.7529 80.0539 43.7529Z" fill="#3B3F4A"/>
<path d="M12 58L74 58V13L12 13L12 58Z" fill="#FFC800"/>
<g style="mix-blend-mode:overlay" opacity="0.3">
<path d="M44.4514 64.8643C45.1844 63.1512 45.388 61.1964 44.8962 59.2479C43.8907 55.26 40.3168 52.6024 36.3889 52.6024C35.6778 52.6024 34.9543 52.6903 34.2338 52.8723C29.5323 54.0614 26.6819 58.8432 27.869 63.5528C27.9849 64.0077 28.1353 64.4439 28.3138 64.8643H27.6654C27.5151 64.4815 27.3866 64.0925 27.2895 63.7003C26.6756 61.2686 27.0452 58.7396 28.3295 56.5841C29.6137 54.4285 31.6591 52.9036 34.0866 52.2887C34.8415 52.0973 35.6152 52 36.3889 52C40.6864 52 44.4232 54.918 45.4757 59.0973C45.9643 61.0364 45.8328 63.0162 45.0998 64.8612H44.4514V64.8643Z" fill="white"/>
</g>
<path d="M28.3927 65.0404C28.1797 64.5698 28.0011 64.074 27.8727 63.5532C26.6856 58.8436 29.536 54.0618 34.2375 52.8727C38.9391 51.6835 43.7127 54.5388 44.8999 59.2484C45.4073 61.2627 45.1755 63.2865 44.3799 65.0404H28.3958H28.3927Z" fill="#25262F"/>
<path d="M40.383 61.6133C40.4712 59.3554 38.7153 57.4534 36.4612 57.3651C34.2071 57.2767 32.3084 59.0355 32.2202 61.2935C32.132 63.5514 33.8878 65.4534 36.1419 65.5418C38.396 65.6301 40.2948 63.8712 40.383 61.6133Z" fill="#3B3F4A"/>
<path d="M36.2888 53.0166C31.6373 53.0166 27.8691 56.7943 27.8691 61.4506C27.8691 66.1068 31.6404 69.8845 36.2888 69.8845C40.9371 69.8845 44.7084 66.1068 44.7084 61.4506C44.7084 56.7943 40.9371 53.0166 36.2888 53.0166ZM36.2888 67.2552C33.0907 67.2552 30.4972 64.6572 30.4972 61.4537C30.4972 58.2502 33.0907 55.6522 36.2888 55.6522C39.4869 55.6522 42.0804 58.2502 42.0804 61.4537C42.0804 64.6572 39.4869 67.2552 36.2888 67.2552Z" fill="#3B3F4A"/>
<path d="M36.7146 64.0954C38.1644 63.8599 39.1491 62.4917 38.914 61.0395C38.6789 59.5872 37.3131 58.6009 35.8633 58.8363C34.4135 59.0718 33.4288 60.44 33.6639 61.8922C33.899 63.3444 35.2648 64.3308 36.7146 64.0954Z" fill="#939393"/>
<path d="M36.2877 55.646C33.0896 55.646 30.4961 58.244 30.4961 61.4475C30.4961 64.651 33.0896 67.249 36.2877 67.249C39.4858 67.249 42.0793 64.651 42.0793 61.4475C42.0793 58.244 39.4858 55.646 36.2877 55.646ZM36.2877 66.6811C33.4029 66.6811 31.063 64.3372 31.063 61.4475C31.063 58.5577 33.4029 56.2139 36.2877 56.2139C39.1726 56.2139 41.5124 58.5577 41.5124 61.4475C41.5124 64.3372 39.1726 66.6811 36.2877 66.6811Z" fill="#666666"/>
<path d="M36.033 58.0238C36.0832 58.2811 36.1301 58.5384 36.1834 58.7957C36.2178 58.7957 36.2523 58.7862 36.2899 58.7862C36.3275 58.7862 36.3588 58.7957 36.3964 58.7957C36.4497 58.5384 36.4966 58.2811 36.5467 58.0238C36.6063 57.6787 36.6564 57.3335 36.7002 56.9884C36.7315 56.7405 36.8099 56.4895 36.8224 56.2416C36.647 56.2228 36.4716 56.2134 36.293 56.2134C36.1145 56.2134 35.9359 56.2228 35.7637 56.2416C35.7762 56.4895 35.8545 56.7405 35.8858 56.9884C35.9297 57.3335 35.9798 57.6787 36.0393 58.0238H36.033Z" fill="#969696"/>
<path d="M36.5447 65.1502C36.4758 64.805 36.4226 64.4599 36.3411 64.1147H36.2378C36.1563 64.4599 36.1031 64.805 36.0342 65.1502C35.9746 65.4953 35.9245 65.8404 35.8807 66.1856C35.8619 66.3425 35.8212 66.5025 35.793 66.6594C35.9558 66.6751 36.1219 66.6845 36.291 66.6845C36.4602 66.6845 36.623 66.6751 36.7891 66.6594C36.7609 66.5025 36.7201 66.3425 36.7013 66.1856C36.6575 65.8404 36.6074 65.4953 36.5479 65.1502H36.5447Z" fill="#969696"/>
<path d="M32.732 61.8424C33.039 61.7796 33.3428 61.7294 33.6498 61.6604C33.6466 61.6102 33.6341 61.56 33.6341 61.5067C33.3334 61.4408 33.0327 61.3906 32.732 61.3278C32.3874 61.2682 32.0429 61.218 31.6984 61.1741C31.4916 61.149 31.288 61.0925 31.0813 61.0674C31.0719 61.1929 31.0625 61.3184 31.0625 61.447C31.0625 61.6667 31.0813 61.8832 31.1064 62.0965C31.3037 62.0683 31.501 62.0181 31.6984 61.993C32.0429 61.9491 32.3874 61.8989 32.732 61.8392V61.8424Z" fill="#969696"/>
<path d="M39.8416 61.3315C39.5409 61.3911 39.2402 61.4445 38.9395 61.5104C38.9395 61.5637 38.927 61.6139 38.9238 61.6641C39.2308 61.7331 39.5346 61.7833 39.8416 61.8461C40.1862 61.9057 40.5307 61.9559 40.8752 61.9998C41.0726 62.0249 41.2699 62.0751 41.4641 62.1034C41.4892 61.89 41.508 61.6735 41.508 61.4539C41.508 61.3252 41.4986 61.1997 41.4892 61.0742C41.2825 61.1025 41.0789 61.1558 40.8721 61.1809C40.5276 61.2248 40.183 61.275 39.8385 61.3346L39.8416 61.3315Z" fill="#969696"/>
<path d="M33.9554 64.2869C34.1464 64.0014 34.3438 63.7253 34.5255 63.4335C34.4973 63.4084 34.4628 63.3864 34.4377 63.3613C34.1496 63.5433 33.877 63.7378 33.5951 63.9261C33.3101 64.1269 33.0313 64.334 32.7557 64.5474C32.6179 64.654 32.4644 64.745 32.3203 64.8454C32.5396 65.1027 32.7807 65.3349 33.047 65.5451C33.1441 65.4071 33.2318 65.2596 33.3352 65.1247C33.5482 64.8517 33.7549 64.5693 33.9554 64.2838V64.2869Z" fill="#969696"/>
<path d="M38.6221 58.8871C38.4718 59.113 38.3152 59.3358 38.168 59.5648C38.215 59.6119 38.2494 59.6652 38.2932 59.7154C38.525 59.5617 38.7537 59.4048 38.9855 59.2479C39.2705 59.0471 39.5493 58.84 39.8249 58.6267C40.0066 58.4855 40.2165 58.3662 40.395 58.2188C40.1789 57.9427 39.9346 57.6885 39.6652 57.4595C39.5117 57.6415 39.3927 57.858 39.2455 58.0462C39.0325 58.3192 38.8257 58.6016 38.6253 58.8871H38.6221Z" fill="#969696"/>
<path d="M38.9811 63.9227C38.6992 63.7344 38.4266 63.5368 38.1385 63.3579C38.1103 63.3861 38.079 63.405 38.0508 63.4332C38.2325 63.7282 38.4329 64.0011 38.6208 64.2867C38.8213 64.5722 39.028 64.8514 39.241 65.1275C39.3444 65.2593 39.4321 65.4099 39.5292 65.548C39.7923 65.3378 40.0366 65.1024 40.2559 64.8483C40.1118 64.7479 39.9583 64.6569 39.8205 64.5502C39.548 64.3369 39.2661 64.1298 38.9811 63.929V63.9227Z" fill="#969696"/>
<path d="M33.5939 59.2509C33.8257 59.4046 34.0512 59.5646 34.2862 59.7184C34.33 59.6682 34.3645 59.6148 34.4115 59.5678C34.2611 59.3387 34.1076 59.1159 33.9573 58.89C33.7568 58.6045 33.5501 58.3253 33.3371 58.0491C33.1898 57.8609 33.0708 57.6444 32.9173 57.4624C32.648 57.6914 32.4068 57.9456 32.1875 58.2217C32.366 58.3692 32.5728 58.4853 32.7576 58.6296C33.0301 58.843 33.312 59.05 33.597 59.2509H33.5939Z" fill="#969696"/>
<path d="M36.2859 53.5908C31.9539 53.5908 28.4395 57.1081 28.4395 61.4506C28.4395 65.7931 31.9508 69.3104 36.2859 69.3104C40.621 69.3104 44.1323 65.7931 44.1323 61.4506C44.1323 57.1081 40.621 53.5908 36.2859 53.5908ZM36.2859 67.8106C32.7777 67.8106 29.9367 64.9616 29.9367 61.4506C29.9367 57.9396 32.7808 55.0906 36.2859 55.0906C39.7909 55.0906 42.635 57.9396 42.635 61.4506C42.635 64.9616 39.7909 67.8106 36.2859 67.8106Z" fill="#3B3F4A"/>
<g style="mix-blend-mode:overlay" opacity="0.3">
<path d="M100.448 65.1793C101.18 63.4661 101.384 61.5114 100.892 59.5629C99.8868 55.5749 96.3129 52.9174 92.385 52.9174C91.6739 52.9174 90.9504 53.0052 90.23 53.1872C85.5284 54.3764 82.678 59.1581 83.8651 63.8677C83.981 64.3227 84.1314 64.7588 84.3099 65.1793H83.6615C83.5112 64.7965 83.3827 64.4074 83.2856 64.0152C82.6717 61.5835 83.0413 59.0546 84.3255 56.899C85.6098 54.7435 87.6552 53.2186 90.0827 52.6036C90.8376 52.4122 91.6113 52.3149 92.385 52.3149C96.6825 52.3149 100.419 55.2329 101.472 59.4123C101.96 61.3513 101.829 63.3312 101.096 65.1761H100.448V65.1793Z" fill="white"/>
</g>
<path d="M84.3888 65.3554C84.1758 64.8847 83.9972 64.389 83.8688 63.8681C82.6817 59.1585 85.5321 54.3768 90.2336 53.1876C94.9352 51.9984 99.7088 54.8537 100.896 59.5633C101.403 61.5777 101.172 63.6014 100.376 65.3554H84.3919H84.3888Z" fill="#25262F"/>
<path d="M96.383 61.9297C96.4712 59.6718 94.7153 57.7698 92.4612 57.6814C90.2071 57.5931 88.3084 59.3519 88.2202 61.6099C88.132 63.8678 89.8878 65.7698 92.1419 65.8582C94.396 65.9465 96.2948 64.1876 96.383 61.9297Z" fill="#3B3F4A"/>
<path d="M92.2849 53.3315C87.6334 53.3315 83.8652 57.1093 83.8652 61.7655C83.8652 66.4218 87.6365 70.1995 92.2849 70.1995C96.9332 70.1995 100.704 66.4218 100.704 61.7655C100.704 57.1093 96.9332 53.3315 92.2849 53.3315ZM92.2849 67.5701C89.0868 67.5701 86.4932 64.9722 86.4932 61.7686C86.4932 58.5651 89.0868 55.9672 92.2849 55.9672C95.4829 55.9672 98.0765 58.5651 98.0765 61.7686C98.0765 64.9722 95.4829 67.5701 92.2849 67.5701Z" fill="#3B3F4A"/>
<path d="M92.7126 64.4132C94.1624 64.1778 95.1471 62.8096 94.912 61.3574C94.677 59.9051 93.3111 58.9187 91.8614 59.1542C90.4116 59.3897 89.4269 60.7578 89.662 62.2101C89.897 63.6623 91.2629 64.6487 92.7126 64.4132Z" fill="#939393"/>
<path d="M92.2838 55.9609C89.0857 55.9609 86.4922 58.5589 86.4922 61.7624C86.4922 64.966 89.0857 67.5639 92.2838 67.5639C95.4819 67.5639 98.0754 64.966 98.0754 61.7624C98.0754 58.5589 95.4819 55.9609 92.2838 55.9609ZM92.2838 66.996C89.399 66.996 87.0592 64.6522 87.0592 61.7624C87.0592 58.8727 89.399 56.5288 92.2838 56.5288C95.1686 56.5288 97.5085 58.8727 97.5085 61.7624C97.5085 64.6522 95.1686 66.996 92.2838 66.996Z" fill="#666666"/>
<path d="M92.0311 58.3387C92.0812 58.596 92.1282 58.8533 92.1815 59.1106C92.2159 59.1106 92.2504 59.1012 92.288 59.1012C92.3255 59.1012 92.3569 59.1106 92.3944 59.1106C92.4477 58.8533 92.4947 58.596 92.5448 58.3387C92.6043 57.9936 92.6545 57.6485 92.6983 57.3033C92.7296 57.0554 92.8079 56.8044 92.8204 56.5566C92.645 56.5377 92.4696 56.5283 92.2911 56.5283C92.1126 56.5283 91.934 56.5377 91.7617 56.5566C91.7742 56.8044 91.8526 57.0554 91.8839 57.3033C91.9277 57.6485 91.9778 57.9936 92.0374 58.3387H92.0311Z" fill="#969696"/>
<path d="M92.5408 65.4646C92.4719 65.1195 92.4187 64.7743 92.3372 64.4292H92.2338C92.1524 64.7743 92.0992 65.1195 92.0303 65.4646C91.9707 65.8098 91.9206 66.1549 91.8768 66.5C91.858 66.6569 91.8173 66.8169 91.7891 66.9738C91.9519 66.9895 92.1179 66.9989 92.2871 66.9989C92.4562 66.9989 92.6191 66.9895 92.7851 66.9738C92.7569 66.8169 92.7162 66.6569 92.6974 66.5C92.6536 66.1549 92.6034 65.8098 92.5439 65.4646H92.5408Z" fill="#969696"/>
<path d="M88.7281 62.1573C89.0351 62.0946 89.3389 62.0444 89.6458 61.9753C89.6427 61.9251 89.6302 61.8749 89.6302 61.8216C89.3295 61.7557 89.0288 61.7055 88.7281 61.6427C88.3835 61.5831 88.039 61.5329 87.6944 61.489C87.4877 61.4639 87.2841 61.4074 87.0774 61.3823C87.068 61.5078 87.0586 61.6333 87.0586 61.762C87.0586 61.9816 87.0774 62.1981 87.1024 62.4115C87.2997 62.3832 87.4971 62.333 87.6944 62.3079C88.039 62.264 88.3835 62.2138 88.7281 62.1542V62.1573Z" fill="#969696"/>
<path d="M95.8396 61.6464C95.5389 61.7061 95.2382 61.7594 94.9375 61.8253C94.9375 61.8786 94.925 61.9288 94.9219 61.979C95.2288 62.0481 95.5327 62.0983 95.8396 62.161C96.1842 62.2206 96.5287 62.2708 96.8733 62.3148C97.0706 62.3399 97.268 62.3901 97.4622 62.4183C97.4872 62.2049 97.506 61.9885 97.506 61.7688C97.506 61.6402 97.4966 61.5147 97.4872 61.3892C97.2805 61.4174 97.0769 61.4707 96.8702 61.4958C96.5256 61.5398 96.181 61.59 95.8365 61.6496L95.8396 61.6464Z" fill="#969696"/>
<path d="M89.9515 64.6019C90.1426 64.3163 90.3399 64.0402 90.5216 63.7484C90.4934 63.7233 90.4589 63.7014 90.4338 63.6763C90.1457 63.8583 89.8732 64.0528 89.5913 64.241C89.3062 64.4418 89.0274 64.6489 88.7518 64.8623C88.614 64.969 88.4605 65.06 88.3164 65.1604C88.5357 65.4177 88.7769 65.6498 89.0431 65.8601C89.1402 65.722 89.2279 65.5745 89.3313 65.4396C89.5443 65.1666 89.751 64.8843 89.9515 64.5987V64.6019Z" fill="#969696"/>
<path d="M94.6183 59.2015C94.4679 59.4275 94.3113 59.6502 94.1641 59.8793C94.211 59.9263 94.2455 59.9797 94.2894 60.0299C94.5212 59.8761 94.7498 59.7193 94.9816 59.5624C95.2666 59.3616 95.5454 59.1545 95.8211 58.9411C96.0027 58.7999 96.2126 58.6807 96.3911 58.5332C96.175 58.2571 95.9307 58.003 95.6613 57.7739C95.5078 57.9559 95.3888 58.1724 95.2416 58.3607C95.0286 58.6336 94.8218 58.916 94.6214 59.2015H94.6183Z" fill="#969696"/>
<path d="M94.9811 64.2376C94.6992 64.0494 94.4267 63.8517 94.1385 63.6729C94.1103 63.7011 94.079 63.7199 94.0508 63.7482C94.2325 64.0431 94.4329 64.3161 94.6208 64.6016C94.8213 64.8871 95.0281 65.1664 95.2411 65.4425C95.3444 65.5743 95.4321 65.7249 95.5292 65.8629C95.7923 65.6527 96.0367 65.4174 96.2559 65.1632C96.1118 65.0628 95.9584 64.9718 95.8205 64.8652C95.548 64.6518 95.2661 64.4447 94.9811 64.2439V64.2376Z" fill="#969696"/>
<path d="M89.59 59.5658C89.8218 59.7195 90.0473 59.8796 90.2822 60.0333C90.3261 59.9831 90.3605 59.9298 90.4075 59.8827C90.2572 59.6536 90.1037 59.4309 89.9533 59.205C89.7529 58.9194 89.5461 58.6402 89.3331 58.3641C89.1859 58.1758 89.0669 57.9593 88.9134 57.7773C88.644 58.0064 88.4029 58.2605 88.1836 58.5367C88.3621 58.6841 88.5688 58.8002 88.7537 58.9445C89.0262 59.1579 89.3081 59.365 89.5931 59.5658H89.59Z" fill="#969696"/>
<path d="M92.2839 53.9058C87.9519 53.9058 84.4375 57.4231 84.4375 61.7655C84.4375 66.108 87.9488 69.6253 92.2839 69.6253C96.619 69.6253 100.13 66.108 100.13 61.7655C100.13 57.4231 96.619 53.9058 92.2839 53.9058ZM92.2839 68.1255C88.7757 68.1255 85.9347 65.2766 85.9347 61.7655C85.9347 58.2545 88.7788 55.4056 92.2839 55.4056C95.7889 55.4056 98.6331 58.2545 98.6331 61.7655C98.6331 65.2766 95.7889 68.1255 92.2839 68.1255Z" fill="#3B3F4A"/>
<path d="M88.9357 28.2182C88.0399 26.7718 86.2921 24.3683 83.2851 22.3132C80.5506 20.4463 77.9194 19.6493 76.2812 19.2822V28.099C80.5005 28.1366 84.7165 28.1774 88.9357 28.2151V28.2182Z" fill="#0090E7"/>
<path d="M11.2559 55.3921C10.0311 55.3324 9.89959 54.4759 10.0499 52.4521C10.1972 50.4283 10.5417 49.9702 10.8863 49.9702H12.4775C12.4148 51.6237 12.4775 53.3338 12.4775 55.4203C12.1016 55.4203 11.6756 55.414 11.2559 55.3921Z" fill="#BC332C"/>
<path d="M11.3817 49.9702H11.9048C12.2508 49.9702 12.5312 49.6893 12.5312 49.3427V48.6273C12.5312 48.2807 12.2508 47.9998 11.9048 47.9998H11.3817C11.0357 47.9998 10.7552 48.2807 10.7552 48.6273V49.3427C10.7552 49.6893 11.0357 49.9702 11.3817 49.9702Z" fill="#D3D3C7"/>
<path d="M11.3817 57.3657H11.9048C12.2508 57.3657 12.5312 57.0848 12.5312 56.7382V56.0228C12.5312 55.6762 12.2508 55.3953 11.9048 55.3953H11.3817C11.0357 55.3953 10.7552 55.6762 10.7552 56.0228V56.7382C10.7552 57.0848 11.0357 57.3657 11.3817 57.3657Z" fill="#FECB00"/>
<path d="M94.8125 41.8859C95.0255 42.1683 95.1633 43.028 95.1633 43.028C95.1633 43.028 96.2032 40.7124 97.0489 40.8254C97.8946 40.9352 96.4287 37.5811 96.4287 37.5811L95.1633 38.2274L94.8125 41.889V41.8859Z" fill="#3B3F4A"/>
<path d="M94.2031 33.978C95.0363 33.978 95.7098 36.2685 95.7098 39.0924C95.7098 41.9162 95.0363 44.2036 94.2031 44.2004V33.978Z" fill="#3B3F4A"/>
<path fill-rule="evenodd" clip-rule="evenodd" d="M49.3724 43.2727C54.253 43.2727 58.2096 39.4061 58.2096 34.6364C58.2096 29.8666 54.253 26 49.3724 26C44.4917 26 40.5352 29.8666 40.5352 34.6364C40.5352 39.4061 44.4917 43.2727 49.3724 43.2727ZM30.7347 26.9092C29.9816 26.9092 29.3711 27.5197 29.3711 28.2728C29.3711 29.0259 29.9816 29.6365 30.7347 29.6365H37.3098C38.0629 29.6365 38.6734 29.0259 38.6734 28.2728C38.6734 27.5197 38.0629 26.9092 37.3098 26.9092H30.7347ZM21 34.6366C21 33.8835 21.6105 33.2729 22.3636 33.2729H36.3806C37.1337 33.2729 37.7442 33.8835 37.7442 34.6366C37.7442 35.3897 37.1337 36.0002 36.3806 36.0002H22.3636C21.6105 36.0002 21 35.3897 21 34.6366ZM28.8754 39.6367C28.1222 39.6367 27.5117 40.2472 27.5117 41.0004C27.5117 41.7535 28.1222 42.364 28.8754 42.364H38.2411C38.9942 42.364 39.6047 41.7535 39.6047 41.0004C39.6047 40.2472 38.9942 39.6367 38.2411 39.6367H28.8754Z" fill="#FFECA6"/>
</svg>
