<svg width="120" height="80" viewBox="0 0 120 80" fill="none" xmlns="http://www.w3.org/2000/svg">
<path fill-rule="evenodd" clip-rule="evenodd" d="M18.4155 48.747H13.1896C5.03801 48.747 10.9602 31.218 17.823 31.218H26.0797C27.4031 31.218 29.7372 31.4645 30.8871 28.1495L32.6638 23H21.3417C15.2102 23 10.4375 25.1865 6.98876 28.855C1.0314 35.133 -0.988762 44.938 0.439338 49.6285C1.79802 53.967 5.49074 56.8235 11.2736 56.894L15.7676 56.9295H21.3069L22.6656 52.803C23.6757 49.8755 21.4111 48.747 18.4155 48.747ZM82.0274 41.4815L83.7347 35.8735H65.515C62.4843 35.8735 61.1256 36.72 60.603 38.4835L58.8957 44.0915H77.1159C80.1466 44.0915 81.5053 43.245 82.0274 41.4815ZM56.1788 51.357L54.4716 56.9645H72.6912C75.6873 56.9645 77.0807 56.1185 77.6033 54.355L79.3106 48.747H61.0904C58.0949 48.747 56.7362 49.5935 56.1788 51.357ZM86.278 28.643L87.9848 23.0355H69.7651C66.7344 23.0355 65.3757 23.8815 64.8531 25.645L63.1458 31.253H81.366C84.362 31.253 85.7202 30.4065 86.278 28.643ZM58.7564 29.772C57.9902 24.552 55.2382 23.0355 48.5494 23.0355H36.3565L29.2497 44.0915H33.7438C36.4259 44.0915 37.7846 44.1265 39.2132 40.247L42.174 31.218H46.7028C50.5701 31.218 49.6988 36.1205 47.7481 40.8815C46.0061 45.079 42.9754 48.782 39.3173 48.782H31.7578C28.7271 48.782 27.3337 49.6285 26.7764 51.392L24.895 57H30.4339L35.8686 56.9645C40.676 56.9295 44.6127 56.577 49.2114 52.3795C54.0883 47.9005 59.7322 36.4025 58.7564 29.772ZM120 23H109.444L99.5157 33.6865C98.3663 34.921 97.1817 36.1555 96.0322 37.6015H95.9276L100.874 23H92.2696L80.6693 56.9645H89.2736L92.9663 46.278L96.7983 42.998L99.8296 52.662C100.77 55.66 101.746 56.9645 103.836 56.9645H110.42L103.662 37.9895L120 23Z" fill="#00B33C"/>
</svg>
