<svg width="301" height="196" viewBox="0 0 301 196" fill="none" xmlns="http://www.w3.org/2000/svg">
<path d="M258.963 127.656C258.786 127.786 258.608 127.915 258.428 128.042C251.747 132.853 244.226 137.406 236.076 141.686C235.981 141.736 235.882 141.79 235.784 141.84C235.562 141.958 235.337 142.074 235.116 142.19C229.845 144.93 224.316 147.553 218.588 150.057C217.296 150.625 215.99 151.183 214.676 151.738C210.111 153.661 205.43 155.507 200.665 157.277C189.798 161.312 178.487 164.934 167.054 168.113C162.888 169.272 158.709 170.369 154.528 171.405C151.355 172.195 148.18 172.946 145.012 173.664C143.861 173.923 142.711 174.179 141.564 174.429C141.355 174.472 141.149 174.517 140.944 174.563C134.43 175.977 127.965 177.235 121.6 178.332C116.918 179.14 112.295 179.86 107.752 180.494C101.049 181.427 94.5188 182.164 88.2462 182.698C87.4515 182.766 86.6586 182.828 85.8729 182.891C85.813 182.894 85.7532 182.9 85.6951 182.903C85.5427 182.916 85.3903 182.928 85.2397 182.941C79.379 183.384 73.7596 183.643 68.4432 183.711C66.5362 183.736 64.671 183.736 62.8456 183.711L62.1906 183.702C58.2822 183.636 54.5681 183.456 51.0843 183.155H51.0807C50.4129 183.096 49.7507 183.034 49.0975 182.966H49.092C40.0633 182.049 32.6766 180.289 27.5054 177.621C27.2514 177.49 27.001 177.358 26.7614 177.224C23.6823 175.51 21.4705 173.446 20.2602 171.016C13.4179 157.268 22.2997 139.758 40.3917 122.001C40.5477 121.848 40.7056 121.696 40.8598 121.542C44.643 117.861 48.8217 114.169 53.3324 110.503C53.5157 110.35 53.7026 110.201 53.8876 110.055C66.2241 100.088 81.0174 90.2985 97.1117 81.3094C97.3403 81.1808 97.5671 81.0539 97.7957 80.9288C106.035 76.3449 114.61 71.9773 123.367 67.9027C123.567 67.8098 123.766 67.7151 123.966 67.6257C126.187 66.5964 128.42 65.5849 130.663 64.5966C133.25 63.4475 135.856 62.3306 138.465 61.2458C139.637 60.7562 140.813 60.2719 141.987 59.7983C143.638 59.1281 145.291 58.4723 146.944 57.8271C151.502 56.0526 156.067 54.3727 160.623 52.8036C168.014 50.2553 175.377 47.9857 182.631 46.0449C182.849 45.9859 183.064 45.9287 183.28 45.8733C183.866 45.7179 184.449 45.5642 185.035 45.414C185.621 45.2604 186.204 45.112 186.788 44.9655C190.44 44.0451 194.062 43.2124 197.638 42.4725C199.552 42.0758 201.456 41.7076 203.341 41.3645C208.556 40.4191 213.656 39.6864 218.61 39.1807C219.082 39.1342 219.551 39.0878 220.016 39.0431C220.9 38.9591 221.78 38.884 222.654 38.8179C222.787 38.8054 222.917 38.7965 223.05 38.7875C224.069 38.7089 225.084 38.6446 226.091 38.5874C226.472 38.5695 226.847 38.5499 227.225 38.532C227.619 38.5105 228.01 38.4945 228.404 38.4784C231.275 38.3658 234.078 38.3408 236.812 38.4122C245.29 38.6267 253.086 39.7454 259.954 41.8917C260.157 41.9543 260.357 42.0168 260.556 42.0829C272.877 46.0735 282.139 53.447 286.911 64.979C287.06 65.3347 287.205 65.6992 287.342 66.0656C287.797 67.2612 288.207 68.496 288.568 69.7792C294.65 91.4172 281.84 111.038 258.963 127.665V127.656Z" fill="#FFC2D1"/>
<g opacity="0.66">
<path d="M198.772 141.01C196.776 141.01 195.154 142.61 195.154 144.574C195.154 146.538 196.778 148.137 198.772 148.137C200.766 148.137 202.39 146.538 202.39 144.574C202.39 142.61 200.766 141.01 198.772 141.01ZM198.772 147.513C197.127 147.513 195.788 146.195 195.788 144.574C195.788 142.953 197.127 141.634 198.772 141.634C200.418 141.634 201.757 142.953 201.757 144.574C201.757 146.195 200.418 147.513 198.772 147.513Z" fill="white"/>
<path d="M52.3719 138.318C54.3678 138.318 55.99 136.719 55.99 134.755C55.99 132.791 54.366 131.191 52.3719 131.191C50.3778 131.191 48.7539 132.791 48.7539 134.755C48.7539 136.719 50.3778 138.318 52.3719 138.318ZM52.3719 131.815C54.0177 131.815 55.3567 133.134 55.3567 134.755C55.3567 136.376 54.0177 137.695 52.3719 137.695C50.7262 137.695 49.3872 136.376 49.3872 134.755C49.3872 133.134 50.7262 131.815 52.3719 131.815Z" fill="white"/>
<path d="M267.856 90.5981C265.86 90.5981 264.238 92.1976 264.238 94.1616C264.238 96.1256 265.862 97.725 267.856 97.725C269.85 97.725 271.474 96.1256 271.474 94.1616C271.474 92.1976 269.85 90.5981 267.856 90.5981ZM267.856 97.1013C266.211 97.1013 264.872 95.7825 264.872 94.1616C264.872 92.5407 266.211 91.2218 267.856 91.2218C269.502 91.2218 270.841 92.5407 270.841 94.1616C270.841 95.7825 269.502 97.1013 267.856 97.1013Z" fill="white"/>
<path d="M253.609 59.7977C247.46 72.6987 238.378 85.4102 228.687 94.6691C208.926 113.555 192.509 113.871 182.217 110.81C161.897 104.77 142.72 105.731 126.758 113.591C111.593 121.061 99.9169 134.337 92.9911 151.988C89.912 159.839 84.4468 166.49 76.7426 171.767C70.568 175.999 62.9527 179.355 54.1018 181.748C52.4107 182.208 50.7342 182.61 49.0957 182.969C49.7489 183.037 50.4112 183.099 51.0789 183.16H51.0825C52.1313 182.91 53.1891 182.645 54.256 182.356C63.1777 179.943 70.862 176.555 77.1001 172.288C84.9095 166.939 90.4563 160.184 93.5826 152.215C100.447 134.711 112.018 121.55 127.043 114.152C142.854 106.364 161.868 105.415 182.032 111.412C185.501 112.442 188.907 112.904 192.226 112.904C207.039 112.904 220.116 103.731 229.126 95.123C238.872 85.8123 248 73.0346 254.182 60.0676C257.296 53.5268 259.462 47.3524 260.557 42.0823C260.357 42.0162 260.157 41.9537 259.954 41.8911C258.88 47.1148 256.723 53.2677 253.609 59.8013V59.7977Z" fill="white"/>
<path d="M210.4 130.64C207.177 129.469 203.886 128.36 200.569 127.336C195.659 125.818 190.695 124.49 185.815 123.425C185.797 123.42 185.777 123.416 185.761 123.413C185.358 123.325 184.959 123.241 184.558 123.157C184.028 123.045 183.5 122.939 182.974 122.836C182.357 122.711 181.738 122.593 181.123 122.48C180.642 122.392 180.163 122.305 179.684 122.224C177.556 121.856 175.459 121.551 173.403 121.309C172.32 121.181 171.249 121.072 170.193 120.984C169.87 120.956 169.551 120.931 169.229 120.909C169.026 120.893 168.825 120.879 168.622 120.866C168.516 120.861 168.417 120.854 168.315 120.848C168.242 120.843 168.17 120.839 168.097 120.832C167.667 120.807 167.239 120.786 166.814 120.766C164.445 120.661 162.16 120.666 159.985 120.791C154.532 121.109 149.74 122.189 145.954 124.233C145.377 124.546 144.823 124.878 144.293 125.241C143.834 125.554 143.393 125.881 142.969 126.229C139.877 128.765 137.712 132.27 136.506 136.694C136.157 137.958 135.891 139.296 135.702 140.71C135.188 144.529 135.243 148.891 135.863 153.752C136.028 155.062 136.234 156.411 136.488 157.793C136.517 157.961 136.544 158.131 136.58 158.302C136.58 158.302 136.576 158.302 136.58 158.306C136.89 159.987 137.264 161.719 137.696 163.501C138.63 167.348 139.764 171.101 140.94 174.561C141.145 174.515 141.352 174.47 141.561 174.427C140.385 170.967 139.247 167.207 138.313 163.354C137.897 161.64 137.536 159.975 137.233 158.356V158.352C136.936 156.771 136.691 155.232 136.504 153.743C135.88 148.907 135.82 144.576 136.33 140.794C136.551 139.141 136.885 137.59 137.32 136.148C138.514 132.232 140.507 129.103 143.279 126.79C143.709 126.428 144.163 126.085 144.634 125.766C145.152 125.411 145.692 125.084 146.257 124.778C149.991 122.759 154.979 121.637 160.988 121.386H160.992C162.763 121.315 164.623 121.315 166.568 121.395C167.065 121.413 167.566 121.438 168.075 121.47C168.304 121.483 168.535 121.495 168.767 121.511C168.809 121.515 168.852 121.517 168.897 121.52C169.012 121.529 169.122 121.536 169.237 121.545C169.56 121.567 169.886 121.595 170.213 121.624C171.04 121.69 171.877 121.771 172.728 121.863C173.47 121.947 174.219 122.039 174.98 122.139C175.557 122.214 176.139 122.294 176.725 122.382C177.625 122.512 178.538 122.659 179.459 122.818C179.935 122.898 180.414 122.984 180.895 123.07C181.472 123.173 182.05 123.284 182.635 123.4C183.259 123.518 183.889 123.647 184.525 123.785C184.984 123.878 185.447 123.978 185.91 124.081C185.928 124.085 185.944 124.087 185.964 124.094C190.571 125.107 195.423 126.399 200.476 127.966C201.487 128.279 202.507 128.603 203.534 128.94C205.925 129.72 208.308 130.547 210.655 131.408C213.466 132.434 216.228 133.512 218.915 134.621C224.81 137.052 230.33 139.636 235.116 142.188C235.338 142.072 235.563 141.957 235.784 141.838C230.854 139.182 225.115 136.48 218.928 133.935C216.166 132.799 213.31 131.692 210.403 130.638L210.4 130.64Z" fill="white"/>
<path d="M153.65 91.4825C172.036 91.4825 189.353 88.6714 201.283 83.6265C211.696 79.2213 217.909 73.2078 219.248 66.2381C220.039 62.1135 219.023 58.4822 216.223 55.4459C211.433 50.2473 201.559 46.741 186.787 44.9629C186.205 45.1094 185.62 45.2595 185.034 45.4114C200.459 47.1181 210.965 50.669 215.753 55.8641C218.411 58.7502 219.377 62.2011 218.624 66.1238C217.328 72.8789 211.242 78.7352 201.032 83.0528C187.123 88.9377 165.821 91.7613 144.057 90.6032C126.291 89.6614 110.035 86.2195 97.7915 80.928C97.5628 81.0531 97.336 81.1799 97.1074 81.3086C109.475 86.7378 125.981 90.2673 144.022 91.2269C147.25 91.3985 150.462 91.4825 153.65 91.4825Z" fill="white"/>
<path d="M71.5513 140.027C73.05 132.005 71.6565 125.157 67.4107 119.661C63.7636 114.95 58.5053 111.932 53.8839 110.05C53.7006 110.197 53.5137 110.347 53.3286 110.499C57.9446 112.34 63.261 115.326 66.9026 120.037C71.0396 125.385 72.3932 132.071 70.9253 139.912C69.6606 146.673 65.8284 153.064 59.5341 158.902C54.4772 163.586 47.8381 167.929 39.7982 171.803C35.2421 173.999 30.7404 175.797 26.7559 177.22C26.9972 177.354 27.2476 177.484 27.4998 177.616C31.3682 176.219 35.6921 174.478 40.0631 172.368C48.1665 168.465 54.86 164.086 59.9605 159.36C66.3601 153.428 70.2557 146.923 71.5494 140.023L71.5513 140.027Z" fill="white"/>
</g>
<path d="M185.034 98.1268C186.509 94.1422 188.01 90.1571 189.789 86.2918C190.928 83.8176 193.056 78.811 195.995 76.0092C194.676 75.8305 193.381 75.8946 192.234 76.4597C190.977 77.0785 190.099 78.1004 189.38 79.2701C188.089 81.3835 187.121 83.704 185.98 85.8986C183.883 89.9313 181.652 93.9589 179.902 98.1551C179.181 99.8826 178.493 101.774 178.392 103.665C179.666 104.197 180.932 105.315 182.002 105.886C183.285 103.445 184.085 100.698 185.036 98.1297L185.034 98.1268Z" fill="#FFCEB3"/>
<path d="M235.156 98.3389C236.25 94.5825 235.198 91.4457 231.807 89.3274C229.633 87.9724 227.254 87.0855 224.87 86.1625C222.273 85.1559 219.721 84.0342 217.132 83.0089C212.147 81.0334 207.06 79.2932 201.932 77.7133C201.718 77.6469 201.494 77.5741 201.269 77.499C199.617 79.2928 197.596 80.7647 196.211 82.8328C194.217 85.8077 192.681 89.0378 191.169 92.2681C188.879 97.1574 186.668 102.115 184.942 107.229C186.71 107.994 188.501 108.709 190.288 109.431C196.175 111.811 201.879 114.645 207.683 117.215C212.425 119.314 217.187 121.58 222.222 122.904C223.06 123.125 223.902 123.342 224.74 123.572C225.254 123.556 225.767 123.314 226.175 122.746C231.284 115.628 232.759 106.561 235.157 98.3374L235.156 98.3389Z" fill="#FFCEB3"/>
<path d="M207.436 163.264C208.824 158.448 210.105 153.745 212.356 149.233C214.513 144.92 216.956 140.753 218.195 136.061C218.223 135.947 218.249 135.831 218.274 135.716C211.363 132.527 204.428 129.471 197.285 126.796C197.004 126.691 196.724 126.59 196.442 126.485C195.343 128.819 193.957 131.052 192.632 133.227C192.196 133.943 191.751 134.655 191.3 135.364C193.955 136.251 196.604 137.158 199.225 138.137C201.636 139.037 204.064 139.947 206.385 141.057C207.173 141.434 208.005 141.885 207.997 142.86C207.986 144.119 207.259 145.645 206.798 146.805C206.288 148.091 205.749 149.379 204.473 150.079C201.831 151.526 198.029 149.893 195.558 148.795C192.106 147.26 188.727 145.4 185.193 144.006C182.89 146.925 180.422 149.675 177.92 152.436C176.504 154 175.108 155.594 173.578 157.052C172.341 158.231 170.522 159.327 169.845 160.911C169.383 161.993 167.715 161.212 168.177 160.136C168.901 158.441 170.414 157.551 171.716 156.31C173.25 154.846 174.677 153.287 176.099 151.718C178.591 148.968 181.094 146.256 183.39 143.344C182.992 143.21 182.593 143.08 182.19 142.962C180.053 142.334 177.841 141.664 175.861 140.636C175.367 140.378 174.702 139.932 174.243 139.418C173.976 139.435 173.708 139.314 173.536 138.99C173.115 138.203 173.304 137.581 173.63 136.777C173.956 135.972 174.085 135.17 174.279 134.33C174.509 133.333 174.763 131.297 175.996 130.952C178.56 130.236 181.764 132.187 184.142 132.986C185.933 133.587 187.727 134.177 189.519 134.771C189.902 134.175 190.279 133.577 190.647 132.972C192.034 130.694 193.569 128.33 194.741 125.859C189.65 123.988 184.53 122.194 179.415 120.384C177.896 119.895 176.353 119.498 174.678 119.459C174.005 119.443 173.507 120.07 173.367 120.647C172.36 124.761 170.1 128.558 168.381 132.415C166.437 136.764 164.525 141.125 162.735 145.539C161.47 148.65 159.984 151.705 158.841 154.856C158.412 156.044 158.017 157.291 157.865 158.538C157.183 160.007 156.955 161.532 158.124 162.647C159.264 163.73 160.947 163.733 162.429 163.67C164.672 163.579 166.654 163.587 168.897 164.002C174.074 164.963 178.891 167.321 183.406 169.925C185.397 171.072 187.121 172.509 188.645 174.211C190.098 175.836 191.329 177.805 193.216 178.979C196.288 180.888 199.514 179.402 201.626 176.873C204.747 173.136 206.122 167.825 207.436 163.264Z" fill="#FFCEB3"/>
<path fill-rule="evenodd" clip-rule="evenodd" d="M199.729 187.649C199.002 187.363 198.568 187.02 198.175 187.063C195.388 187.37 193.077 186.197 190.671 185.061C187.024 183.339 183.259 181.861 179.551 180.266C178.424 179.781 177.327 179.227 176.199 178.745C170.817 176.448 165.39 174.249 160.058 171.843C156.979 170.454 154.048 168.747 151.059 167.166C150.702 166.978 150.387 166.703 150.085 166.433C148.083 164.637 147.875 163.634 149.114 161.264C151.359 156.97 153.207 152.513 155.034 148.036C157.265 142.565 159.8 137.216 162.148 131.791C163.504 128.655 164.678 125.44 166.061 122.316C168.573 116.645 171.188 111.015 173.74 105.36C173.943 104.912 173.999 104.397 174.114 103.911C174.353 102.915 174.099 101.649 175.726 101.47C176.033 101.437 176.336 100.811 176.525 100.406C177.504 98.3029 178.412 96.167 179.409 94.0728C181.077 90.5683 182.702 87.0387 184.525 83.6115C185.498 81.7827 186.854 80.1544 188.022 78.4235C188.641 77.5046 189.519 77.1495 190.59 77.2366C191.636 77.3213 192.715 77.3274 193.718 77.5903C197.969 78.7019 202.298 79.6315 206.402 81.1411C210.173 82.5283 213.775 84.4 217.22 86.5416C220.845 88.7962 224.763 90.531 228.764 92.0562C229.357 92.2824 230.02 92.332 230.651 92.4654C231.279 92.598 231.923 92.6881 232.535 92.8753C234.338 93.4272 235.063 94.479 235.177 96.3122C235.348 99.0209 234.641 101.573 233.954 104.149C232.935 107.962 231.515 111.615 229.859 115.204C228.112 118.99 226.569 122.868 224.922 126.699C224.627 127.389 224.308 128.077 223.917 128.716C222.072 131.713 221.317 135.15 219.865 138.306C219.114 139.935 218.422 141.592 217.716 143.241C216.348 146.432 215.019 149.639 213.619 152.817C212.079 156.315 210.462 159.78 208.914 163.276C207.976 165.394 207.08 167.532 206.209 169.677C204.75 173.275 203.328 176.888 201.878 180.49C201.662 181.026 201.366 181.531 201.12 182.056C200.314 183.783 198.975 185.361 199.727 187.648L199.729 187.649ZM225.352 123.038C227.182 118.872 229.001 114.742 230.808 110.608C232.14 107.563 232.964 104.362 233.629 101.132C233.954 99.5612 234.003 97.9194 234.019 96.3095C234.034 94.6921 233.284 94.0192 231.683 93.8454C231.051 93.7774 230.405 93.6918 229.804 93.4984C225.317 92.0606 221.121 90.0139 217.115 87.5712C216.071 86.9339 215.046 86.2576 213.96 85.6924C208.759 82.9823 203.313 80.9119 197.508 79.687C197.287 80.0517 197.144 80.5408 196.813 80.7849C195.679 81.6219 195.091 82.799 194.49 83.9978C193.713 85.5545 192.849 87.0671 192.061 88.6188C191.04 90.6342 189.972 92.6335 189.076 94.7032C187.808 97.6253 186.696 100.612 185.486 103.558C185.098 104.503 184.608 105.409 184.067 106.538C187.123 107.989 189.931 109.422 192.824 110.668C195.619 111.871 198.509 112.851 201.337 113.978C205.361 115.58 209.437 117.078 213.359 118.897C217.145 120.652 220.901 122.381 225.351 123.037L225.352 123.038ZM167.099 163.521C169.419 164.599 171.481 165.539 173.529 166.514C175.057 167.241 176.51 168.145 178.087 168.735C182.014 170.204 185.443 172.542 189.017 174.624C189.894 175.135 190.617 175.949 191.313 176.711C192.63 178.155 193.973 179.489 196.091 179.679C197.606 179.815 198.097 179.628 198.714 178.239C200.289 174.692 201.83 171.128 203.35 167.559C205.186 163.245 206.946 158.9 208.809 154.598C211.062 149.393 213.398 144.221 215.676 139.023C215.97 138.35 216.126 137.617 216.427 136.65C209.394 134.137 202.634 131.273 195.413 129.162C193.915 132.007 192.448 134.789 190.906 137.717C196.398 139.776 201.629 141.737 207.098 143.787C206.058 146.729 205.466 149.831 203.329 152.408C201.612 151.955 199.981 151.672 198.464 151.094C195.297 149.888 192.187 148.532 189.06 147.223C188.253 146.884 187.468 146.49 186.677 146.115C185.958 145.773 185.334 145.568 184.615 146.27C183.202 147.648 181.616 148.855 180.232 150.258C178.811 151.703 177.634 153.383 176.191 154.805C174.162 156.807 171.967 158.647 169.884 160.598C168.932 161.489 168.08 162.484 167.097 163.52L167.099 163.521ZM149.664 163.831C150.004 164.846 150.937 165.705 151.979 166.299C156.192 168.7 160.444 171.037 164.949 172.892C166.356 173.471 167.701 174.204 169.113 174.769C174.594 176.964 180.117 179.057 185.57 181.318C188.05 182.345 190.423 183.635 192.806 184.878C194.201 185.605 195.673 185.893 197.208 185.867C197.593 185.861 198.156 185.556 198.322 185.232C199.329 183.274 200.32 181.301 201.175 179.276C203.785 173.082 206.137 166.784 209.053 160.713C210.633 157.421 211.975 154.018 213.422 150.664C215.143 146.671 216.859 142.674 218.58 138.679C220.116 135.115 221.66 131.555 223.193 127.99C223.349 127.629 223.458 127.249 223.632 126.753C222.822 126.549 222.112 126.369 221.256 126.153C220.823 127.26 220.387 128.263 220.034 129.292C219.116 131.961 218.274 134.657 217.322 137.315C216.737 138.948 216.006 140.53 215.344 142.137C214.352 144.545 213.424 146.98 212.365 149.357C210.431 153.693 208.357 157.97 206.461 162.323C204.824 166.084 203.366 169.923 201.798 173.713C201.024 175.582 200.243 177.453 199.329 179.257C199.017 179.873 198.319 180.674 197.746 180.716C195.802 180.857 193.734 181.134 192.2 179.393C191.395 178.476 190.547 177.596 189.687 176.729C189.199 176.236 188.708 175.704 188.116 175.363C185.387 173.79 182.629 172.266 179.867 170.75C178.955 170.25 178.007 169.813 177.064 169.372C174.686 168.262 172.353 167.046 169.908 166.099C167.516 165.172 165.017 164.51 162.554 163.77C161.883 163.569 161.141 163.301 160.488 163.408C158.568 163.722 157.096 162.782 155.534 161.997C154.787 161.623 154.501 161.081 154.674 160.303C154.937 159.125 155.095 157.905 155.53 156.79C156.545 154.202 157.714 151.672 158.792 149.107C160.253 145.635 161.686 142.152 163.134 138.675C163.447 137.926 163.776 137.184 164.095 136.436C164.87 134.625 165.621 132.805 166.422 131.006C167.769 127.989 169.204 125.009 170.498 121.969C172.039 118.349 173.488 114.69 174.939 111.031C175.577 109.424 176.121 107.783 176.732 106.092C176.25 105.813 175.811 105.56 175.322 105.278C175.071 105.562 174.825 105.745 174.706 105.989C173.258 108.959 171.743 111.904 170.41 114.924C168.678 118.846 167.13 122.846 165.437 126.784C163.561 131.149 161.583 135.47 159.703 139.831C158.579 142.439 157.568 145.093 156.476 147.714C154.915 151.459 153.327 155.193 151.749 158.93C151.085 160.504 150.412 162.074 149.664 163.831ZM181.454 144.168C181.322 144.036 181.256 143.926 181.157 143.875C178.358 142.418 175.571 140.94 172.745 139.535C171.825 139.078 171.359 138.566 171.681 137.509C172.267 135.582 172.784 133.633 173.361 131.702C173.6 130.9 174.191 130.828 174.899 131.113C176.849 131.904 178.792 132.711 180.754 133.467C182.871 134.282 185.008 135.043 187.174 135.842C187.726 135.236 188.241 134.825 188.557 134.295C189.569 132.602 190.517 130.871 191.462 129.142C191.672 128.759 191.774 128.317 191.918 127.918C191.595 127.735 191.403 127.58 191.185 127.511C188.277 126.606 185.504 125.433 182.755 124.109C179.611 122.597 176.219 121.586 172.93 120.369C172.788 120.316 172.597 120.39 172.334 120.413C171.953 121.361 171.593 122.333 171.173 123.28C169.061 128.047 166.9 132.792 164.821 137.574C162.281 143.42 159.784 149.282 157.322 155.16C156.613 156.855 155.95 158.592 155.932 160.572C157.198 161.309 158.4 162.086 159.98 162.017C161.514 161.951 163.013 162.163 164.409 162.874C164.656 163 164.97 163.008 165.257 163.043C165.328 163.052 165.415 162.953 165.436 162.939C165.221 162.546 165.014 162.165 164.854 161.875C165.581 161.169 166.205 160.585 166.806 159.978C169.635 157.131 172.429 154.251 175.291 151.436C177.574 149.19 179.64 146.782 181.453 144.17L181.454 144.168ZM192.546 112.843C187.614 110.891 182.758 108.969 177.664 106.955C176.236 111.01 174.107 114.898 172.784 119.35C175.022 120.175 177.045 120.917 179.066 121.665C180.38 122.151 181.713 122.596 183 123.147C184.506 123.79 185.943 124.602 187.466 125.202C189.086 125.839 190.771 126.312 192.528 126.89C194.293 123.369 196.601 120.303 197.891 116.689C195.905 116.043 194.152 115.472 192.384 114.897C192.44 114.186 192.479 113.685 192.544 112.846L192.546 112.843ZM216.793 135.412C217.845 132.463 218.864 129.594 219.894 126.728C220.19 125.905 219.887 125.427 219.093 125.109C217.954 124.655 216.84 124.136 215.71 123.66C212.695 122.393 209.621 121.26 207.062 119.123C206.377 118.551 205.508 118.182 204.448 118.515C203.959 118.669 203.309 118.38 202.745 118.242C202.195 118.109 201.659 117.914 201.14 117.751L196.07 128.335C203.292 130.335 209.795 133.598 216.793 135.413L216.793 135.412ZM174.269 132.223C173.718 133.854 173.296 135.222 172.793 136.559C172.447 137.476 172.634 138.114 173.521 138.571C176.059 139.885 178.552 141.285 181.133 142.512C184.295 144.015 187.523 145.388 190.734 146.79C191.804 147.258 192.912 147.641 194.002 148.065C194.868 148.401 195.748 148.709 196.594 149.088C198.671 150.016 200.774 150.829 203.129 150.878C203.919 149.052 204.705 147.321 205.409 145.56C205.757 144.689 205.513 144.321 204.571 144.017C204.017 143.837 203.425 143.765 202.882 143.557C199.336 142.199 195.742 140.943 192.276 139.41C188.111 137.568 183.852 135.968 179.614 134.314C177.933 133.658 176.251 133.001 174.268 132.225L174.269 132.223ZM180.003 104.444C181.77 100.755 183.462 97.2687 185.111 93.7631C186.319 91.1999 187.584 88.6524 188.613 86.019C189.447 83.8839 190.485 81.9186 192.006 80.1976C192.375 79.7806 192.729 79.349 193.12 78.8907C190.984 78.1 189.487 78.2458 188.694 79.4653C186.839 82.3162 184.346 84.792 183.4 88.1897C183.219 88.8391 182.741 89.407 182.411 90.0204C181.892 90.9875 181.312 91.9337 180.883 92.9388C179.485 96.2184 178.145 99.5213 176.738 102.925L180.002 104.442L180.003 104.444ZM195.763 79.3214C195.655 79.2659 195.547 79.2083 195.44 79.1529C195.314 79.2395 195.182 79.3211 195.064 79.4165C194.929 79.5241 194.823 79.686 194.673 79.7539C192.45 80.7706 191.326 82.6888 190.373 84.7687C188.373 89.133 186.36 93.4909 184.332 97.8418C183.238 100.188 182.1 102.514 180.942 104.93L182.97 105.872C183.131 105.687 183.333 105.542 183.421 105.346C184.458 103.085 185.526 100.835 186.486 98.5438C187.444 96.2554 188.105 93.8306 189.225 91.6261C191.215 87.707 193.455 83.9129 195.581 80.0583C195.699 79.8435 195.706 79.5682 195.763 79.3214ZM224.311 124.529C224.314 124.46 224.316 124.39 224.319 124.321C223.389 123.985 222.463 123.639 221.528 123.314C220.037 122.797 218.499 122.391 217.056 121.77C212.761 119.919 208.515 117.962 204.226 116.099C203.162 115.636 201.987 115.424 200.899 115.001C198.289 113.988 195.702 112.918 193.106 111.871C193.649 112.411 194.298 112.744 194.97 113.02C198.055 114.284 201.147 115.534 204.237 116.787C204.507 116.896 204.804 116.948 205.065 117.071C206.111 117.566 207.178 118.027 208.178 118.6C209.24 119.207 210.163 120.085 211.272 120.573C214.699 122.083 218.181 123.47 221.65 124.885C222.344 125.169 223.097 125.536 223.545 124.477C223.577 124.402 224.044 124.506 224.309 124.528L224.311 124.529ZM167.955 160.277C168.06 160.368 168.166 160.462 168.272 160.551C170.913 158.194 173.561 155.844 176.188 153.472C176.574 153.124 176.846 152.658 177.204 152.278C178.994 150.38 180.791 148.486 182.598 146.605C183.059 146.126 183.573 145.694 184.081 145.222C183.238 144.457 182.639 144.609 182.115 145.236C181.37 146.126 180.717 147.097 179.915 147.929C177.341 150.603 174.705 153.222 172.114 155.881C170.705 157.325 169.34 158.811 167.955 160.277ZM199.859 116.995C199.395 117.073 199.13 117.047 199.083 117.135C197.266 120.469 195.471 123.815 193.657 127.186C194.454 127.754 195.02 127.841 195.437 126.955C196.813 124.03 198.2 121.11 199.566 118.181C199.702 117.89 199.727 117.55 199.86 116.993L199.859 116.995ZM188.657 136.417C188.867 136.575 188.992 136.707 189.145 136.776C189.343 136.864 189.565 136.902 189.893 136.995C191.401 134.298 192.879 131.652 194.336 129.045C193.522 128.258 193.006 128.235 192.551 129.103C191.291 131.504 190.004 133.891 188.658 136.419L188.657 136.417ZM186.035 108.67L176.285 104.139C179.214 106.875 182.554 107.921 186.035 108.67ZM195.821 114.845C195.836 114.814 195.848 114.781 195.861 114.748L194.49 114.111C194.466 114.164 194.445 114.217 194.421 114.27C194.887 114.463 195.352 114.653 195.818 114.846L195.821 114.845Z" fill="white"/>
<path fill-rule="evenodd" clip-rule="evenodd" d="M210.97 136.804C209.888 137.462 208.769 137.105 207.698 137.009C207.374 136.979 207.035 136.578 206.797 136.276C206.347 135.707 205.966 135.085 205.499 134.401C206.247 133.951 206.882 134.45 207.2 134.929C207.891 135.973 208.813 136.17 209.928 136.037C210.425 135.979 210.887 135.948 210.97 136.802L210.97 136.804Z" fill="white"/>
<path fill-rule="evenodd" clip-rule="evenodd" d="M202.316 134.209L196.45 131.483C196.926 131.349 197.304 131.104 197.574 131.189C199.024 131.647 200.454 132.167 201.875 132.709C202.446 132.927 202.602 133.39 202.317 134.21L202.316 134.209Z" fill="white"/>
<path fill-rule="evenodd" clip-rule="evenodd" d="M187.057 155.97C187.473 155.975 187.91 155.897 188.299 155.999C189.622 156.346 192.175 157.842 192.642 158.481C191.564 158.728 188.721 157.655 186.999 156.35C187.019 156.224 187.037 156.097 187.057 155.97Z" fill="white"/>
<path fill-rule="evenodd" clip-rule="evenodd" d="M190.038 153.195C186.368 152.417 185.884 152.203 185.269 151.074C185.942 150.989 189.402 151.869 189.971 152.3C190.191 152.467 190.353 152.709 190.54 152.917C190.372 153.009 190.204 153.104 190.037 153.196L190.038 153.195Z" fill="white"/>
<path fill-rule="evenodd" clip-rule="evenodd" d="M184.661 154.485C184.198 154.674 183.889 154.915 183.742 154.841C182.232 154.088 180.624 153.499 179.006 152.454C180.636 152.074 182.069 152.615 184.662 154.486L184.661 154.485Z" fill="white"/>
<path fill-rule="evenodd" clip-rule="evenodd" d="M202.655 137.197C200.989 136.56 199.697 136.068 198.567 135.028C200.096 134.416 201.815 135.268 202.655 137.197Z" fill="white"/>
<path fill-rule="evenodd" clip-rule="evenodd" d="M181.46 155.761C182.856 155.209 184.275 155.717 185.117 156.961C183.771 156.979 182.613 156.72 181.46 155.761Z" fill="white"/>
<path fill-rule="evenodd" clip-rule="evenodd" d="M188.008 168.331C189.009 167.043 189.443 167.065 191.047 168.242C190.072 168.894 189.175 168.222 188.008 168.331Z" fill="white"/>
<path fill-rule="evenodd" clip-rule="evenodd" d="M179.906 164.422C179.147 164.192 178.388 163.962 177.376 163.655C177.771 163.269 177.95 162.95 178.119 162.955C178.932 162.975 179.628 163.271 180.078 163.948C180.02 164.106 179.964 164.263 179.906 164.422Z" fill="white"/>
<path fill-rule="evenodd" clip-rule="evenodd" d="M174.357 146.306C172.796 145.737 171.35 145.208 169.704 144.607C170.026 144.263 170.259 143.841 170.425 143.865C171.938 144.09 173.352 144.576 174.466 145.679C174.511 145.724 174.434 145.889 174.358 146.307L174.357 146.306Z" fill="white"/>
<path fill-rule="evenodd" clip-rule="evenodd" d="M171.073 147.717C170.179 147.486 169.283 147.257 168.347 147.017C169.105 145.75 169.983 145.89 171.073 147.717Z" fill="white"/>
<path fill-rule="evenodd" clip-rule="evenodd" d="M162.206 155.361C163.601 154.341 164.1 154.573 164.53 156.306C163.736 155.982 163.104 155.727 162.206 155.361Z" fill="white"/>
<path fill-rule="evenodd" clip-rule="evenodd" d="M247.073 118.202C246.245 123.211 243.673 129.622 241.833 133.74C241.753 133.919 241.674 134.095 241.596 134.268L241.371 134.767L235.131 132.604L235.53 131.486L238.178 132.404C237.716 132.014 237.263 131.629 236.818 131.251C230.353 125.758 225.506 121.639 217.536 120.061C220.566 124.172 223.392 126.706 228.7 130.948L227.942 131.868C222.114 127.21 219.174 124.531 215.705 119.562L214.915 118.43L216.293 118.641C225.494 120.048 230.801 124.564 237.646 130.386C238.551 131.156 239.483 131.95 240.455 132.761C240.359 132.427 240.251 132.058 240.135 131.659C239.379 129.071 238.253 125.219 237.718 121.563C237.367 119.168 237.256 116.787 237.69 114.848C238.129 112.893 239.151 111.288 241.125 110.677C242.45 110.267 243.577 110.164 244.509 110.383C245.465 110.607 246.163 111.159 246.622 111.94C247.068 112.701 247.276 113.657 247.329 114.704C247.382 115.757 247.281 116.945 247.073 118.202ZM241.406 131.724C243.139 127.688 245.179 122.288 245.886 118.012C246.086 116.804 246.175 115.705 246.128 114.763C246.08 113.816 245.895 113.069 245.581 112.533C245.278 112.018 244.847 111.68 244.23 111.535C243.588 111.384 242.698 111.432 241.486 111.807C240.071 112.246 239.25 113.388 238.865 115.103C238.477 116.833 238.564 119.046 238.908 121.393C239.43 124.957 240.515 128.671 241.271 131.26C241.317 131.419 241.363 131.574 241.406 131.724Z" fill="white"/>
<path d="M94.1699 129.821C91.8616 127.349 89.021 125.194 86.5545 122.892C83.8721 120.382 81.2017 117.861 78.4641 115.405C75.8057 113.018 73.1593 110.615 70.5465 108.179C69.5476 107.247 68.6423 106.223 67.6399 105.297C67.0751 104.774 66.3892 104.084 65.611 103.832C65.1973 103.312 64.4372 103.092 63.9277 103.745C61.1619 106.195 58.2103 108.278 55.6604 110.973C53.2064 113.57 50.9911 116.392 48.8129 119.217C46.4812 122.241 44.1712 125.204 41.5445 127.989C39.7223 129.916 37.1303 131.446 36.1391 133.97C36.024 134.263 36.1643 134.684 36.3922 134.89C39.8935 138.041 42.9705 141.614 46.2849 144.95C49.6879 148.372 53.3787 151.54 56.9209 154.821C59.0145 156.76 61.1357 158.684 63.2821 160.562C64.0267 161.21 66.293 163.551 67.2976 162.179C67.4343 161.992 67.4127 161.791 67.3119 161.626C68.301 160.524 69.1627 157.741 69.2957 157.322C69.8303 155.631 70.2509 154.048 71.0601 152.452C72.6016 149.42 74.7126 146.755 77.3597 144.587C78.5741 143.594 79.9673 142.888 81.2908 142.055C82.6755 141.187 83.9391 140.131 85.2507 139.158C87.2072 137.708 89.249 136.909 91.473 136.006C92.932 135.415 94.5997 134.54 95.199 133.007C95.6928 131.734 95.1927 130.51 94.1699 129.823V129.821ZM77.5279 126.782C78.3361 127.594 79.2654 128.533 79.3315 129.732C79.394 130.861 77.7503 132.069 77.0262 132.718C75.7926 133.824 74.511 134.876 73.2834 135.989C71.2706 137.813 69.3764 139.841 67.2748 141.562C66.896 141.871 66.4128 142.2 65.9189 142.555C65.9777 142.849 65.8698 143.158 65.5053 143.33C64.828 143.65 64.2525 144.264 63.7167 144.813C63.6904 145.394 62.8799 145.912 62.2804 145.399C59.2515 142.815 56.5091 139.908 53.3747 137.445C51.9166 136.299 50.4837 135.086 48.9753 134.009C48.3038 133.53 47.6935 133.082 47.5135 132.246C46.9845 129.793 50.1351 127.297 51.5988 125.78C53.9317 123.359 56.2851 120.973 58.5232 118.469C59.7185 117.131 61.8835 114.311 63.9973 114.483C65.8233 114.63 67.3845 115.972 68.6712 117.15C71.6173 119.843 74.6019 122.932 76.9811 126.255C77.1658 126.428 77.3492 126.603 77.5267 126.783L77.5279 126.782Z" fill="#FC4C8A"/>
<path d="M42.5714 100.756C41.2644 100.527 40.3989 101.254 39.4746 102.077C36.0267 105.152 33.2084 109.016 30.185 112.481C29.9404 112.762 29.8781 113.208 30.1851 113.482C31.0508 114.255 31.9897 115.085 33.0509 115.584C33.3446 115.723 33.6048 115.625 33.7511 115.438C33.9177 115.404 34.0736 115.324 34.1982 115.175C37.4506 111.265 41.5699 108.169 44.815 104.25C45.0776 103.933 45.255 103.437 44.9792 103.059C44.4048 102.271 43.6516 100.944 42.5714 100.754L42.5714 100.756ZM40.9015 103.539C40.1918 104.418 39.3922 105.215 38.5542 105.974C39.3406 105.166 40.0995 104.331 40.9015 103.539Z" fill="#FF8AB3"/>
<path d="M33.6159 82.3209C28.9142 88.5436 23.0207 93.8404 17.7507 99.5812C15.7511 101.759 13.6831 103.854 11.5899 105.942C10.2401 107.288 8.53052 108.78 7.80655 110.575C7.42779 111.515 8.92656 112.033 9.42044 111.223C10.4406 109.549 12.0338 108.148 13.4209 106.775C15.6615 104.556 17.8278 102.283 19.9629 99.9629C25.1106 94.3685 30.9442 89.4709 35.5859 83.4229C36.4598 82.2835 34.479 81.1779 33.6159 82.3209Z" fill="#FF8AB3"/>
<path fill-rule="evenodd" clip-rule="evenodd" d="M33.1455 94.0125C33.8122 94.91 34.3937 95.2089 35.2569 94.4792C36.5289 93.4059 38.0899 93.5242 39.5887 93.7275C40.8332 93.8953 41.5156 95.0774 41.2088 96.3244C41.059 96.9325 40.7617 97.5088 40.6371 98.1205C40.5269 98.6636 40.5641 99.2364 40.533 99.8552C42.0558 101.18 43.6159 102.54 45.1411 103.867C47.9574 102.985 50.1981 101.293 52.6258 99.9486C54.0441 99.1635 55.4252 98.2993 56.8927 97.6145C59.8851 96.2191 61.0721 96.4908 63.902 98.7183C65.9428 100.324 67.5593 102.453 69.6049 104.052C74.5559 107.917 78.9998 112.318 83.5324 116.612C88.0626 120.904 92.3075 125.486 96.6927 129.928C97.1711 130.413 97.7215 130.849 98.2934 131.224C99.0369 131.71 99.2335 132.291 98.844 133.301C98.4411 133.02 98.0934 132.861 97.8608 132.604C93.6362 127.917 89.2019 123.433 84.5674 119.14C80.8274 115.676 77.1558 112.145 73.411 108.688C72.0524 107.433 70.5416 106.339 69.159 105.107C67.5174 103.646 65.9922 102.057 64.317 100.636C63.2702 99.7467 62.1072 98.9341 60.8697 98.3436C60.2271 98.0365 59.2151 98.0529 58.5353 98.3232C56.8149 99.0068 55.164 99.8722 53.5311 100.746C51.4846 101.843 49.4813 103.022 47.4647 104.17C47.0619 104.399 46.6135 104.59 46.2898 104.902C44.669 106.453 43.083 108.041 41.4633 109.636C44.7513 113.25 47.9086 116.721 51.0959 120.224C55.4296 115.72 59.6303 111.363 63.8142 106.989C64.1595 106.628 64.3932 106.161 64.7565 105.629C62.724 103.882 60.7599 102.2 58.4361 100.986C57.6616 100.582 56.8343 100.719 56.079 101.123C54.1404 102.156 52.2125 103.209 50.2751 104.246C50.2068 104.282 50.0797 104.214 49.8099 104.165C50.0305 103.868 50.166 103.576 50.3925 103.4C52.3335 101.902 54.4687 100.729 56.7814 99.8948C57.7118 99.5595 58.6051 99.7639 59.4132 100.371C62.1016 102.388 64.857 104.325 67.4878 106.413C70.4399 108.756 73.3549 111.153 76.1524 113.672C78.7712 116.032 81.2126 118.583 83.7344 121.05C86.1757 123.438 88.6495 125.794 91.0489 128.221C92.3907 129.578 93.5995 131.059 94.8885 132.465C95.5073 133.141 95.3982 133.7 94.9139 134.448C93.8434 136.102 92.382 137.225 90.592 137.999C90.2204 138.159 89.8523 138.349 89.519 138.578C85.5544 141.295 81.5609 143.976 77.6562 146.776C76.3158 147.737 75.1962 149 73.9482 150.154C74.4171 151.057 74.7996 151.755 75.1462 152.47C75.7279 153.671 75.6344 153.928 74.3084 154.837C73.8371 154.323 73.3563 153.798 72.8035 153.194C71.5831 154.304 71.118 155.662 70.4947 156.935C69.5094 158.945 68.4845 160.935 67.4273 162.907C67.1612 163.405 66.7452 163.838 66.34 164.244C65.3809 165.208 64.6052 165.103 63.677 164.148C60.6972 161.084 57.6959 158.038 54.6489 155.039C52.5865 153.008 50.4329 151.066 48.3141 149.09C47.4663 148.3 46.5802 147.55 45.7516 146.744C41.8257 142.91 37.9226 139.054 33.992 135.225C33.0818 134.338 32.083 133.539 31.1465 132.678C30.1968 131.806 29.367 130.857 29.3489 129.372C30.5874 129.05 31.3894 128.175 32.1554 127.248C34.8515 123.998 37.8881 121.075 41.0555 118.277C41.4871 117.894 41.8791 117.452 42.3622 117.148C42.6416 116.975 43.066 117.027 43.4257 116.977C43.4006 117.394 43.3898 117.813 43.3407 118.228C43.3311 118.306 43.1717 118.38 43.0698 118.431C40.479 119.681 38.8426 121.999 36.831 123.888C34.8973 125.705 33.0823 127.646 31.2061 129.523C30.5383 130.19 30.4688 130.513 31.1919 131.261C32.5961 132.715 34.0626 134.109 35.5027 135.528C35.6262 135.406 48.8481 122.091 49.0219 121.917C46.0744 118.396 43.5753 114.43 39.14 112.329C35.7353 114.777 33.2957 117.844 31.62 121.535C30.7653 123.419 29.8711 125.289 28.8906 127.112C27.7218 129.286 28.0279 131.585 29.8289 133.352C35.948 139.357 42.085 145.345 48.1693 151.385C52.5664 155.751 56.8808 160.196 61.2552 164.585C62.1941 165.526 63.1953 166.416 64.2265 167.259C65.2925 168.132 65.6941 167.819 66.9638 167.27C69.1458 166.325 69.9848 164.162 71.7016 162.811C74.242 160.812 76.7044 158.697 79.0313 156.459C82.1915 153.42 85.4259 150.466 88.0597 146.899C90.2786 143.893 93.0095 141.26 95.4407 138.403C96.3662 137.314 97.119 136.077 97.8886 134.87C98.247 134.309 98.1787 134.268 99.3944 133.885C99.2997 134.46 99.3562 135.007 99.12 135.363C98.39 136.464 97.5928 137.531 96.7404 138.547C93.5121 142.393 90.2681 146.226 86.9929 150.035C85.944 151.255 84.8087 152.403 83.6722 153.544C82.2024 155.02 80.7063 156.47 79.1946 157.902C78.5244 158.536 77.8267 159.155 77.0762 159.691C74.2397 161.715 71.7149 164.055 69.4444 166.679C68.7695 167.459 67.971 168.153 67.1474 168.783C66.8585 169.003 66.3033 169.019 65.9053 168.945C64.4173 168.668 63.241 167.804 62.1978 166.779C59.3104 163.935 56.4505 161.067 53.5726 158.213C50.3218 154.99 47.0795 151.759 43.8095 148.555C38.5946 143.447 33.3677 138.351 28.1324 133.266C27.2019 132.361 26.6514 131.335 26.9258 130.039C27.1607 128.927 27.3728 127.783 27.8247 126.749C28.6973 124.751 29.7126 122.814 30.7063 120.871C31.2781 119.753 31.9242 118.67 32.5823 117.488C30.7908 115.854 29.0977 114.311 27.2763 112.65C26.7044 113.114 26.099 113.634 25.4624 114.115C24.3654 114.943 22.9555 114.921 21.9087 114.091C21.2324 113.555 21.056 112.229 21.5654 111.217C21.8711 110.613 22.2355 110.039 22.552 109.487C21.7965 108.341 20.6778 108.191 19.5172 107.891C18.1673 109.095 16.7227 110.188 16.2265 112.148C15.7855 113.895 14.0711 114.585 12.4236 113.775C11.6058 113.373 10.8252 112.814 10.1825 112.174C8.69561 110.693 7.1428 109.346 5.23992 108.378C3.38381 107.436 2.81402 105.17 3.88689 103.374C4.20815 102.835 4.62774 102.339 5.07371 101.893C6.66216 100.295 8.31894 98.7604 9.88101 97.1368C11.8866 95.0528 13.8143 92.8991 15.79 90.7879C18.5569 87.8313 21.3345 84.8853 24.111 81.9382C24.3088 81.7292 24.5222 81.4316 24.768 81.3879C26.4105 81.0929 28.143 80.4259 29.6921 80.7048C31.7184 81.0711 33.5134 82.3336 34.9823 83.8843C35.4512 84.3791 35.6802 84.8905 35.6131 85.5872C35.4802 86.996 35.4732 88.4177 35.3103 89.823C35.2468 90.3674 34.9388 90.9023 34.6702 91.4029C34.2075 92.2626 33.6897 93.0938 33.1455 94.0196L33.1455 94.0125ZM73.4337 149.269C75.0653 147.157 76.9786 145.695 79.1474 144.535C79.5479 144.32 79.8512 143.936 80.2288 143.67C81.7873 142.568 83.3471 141.466 84.9284 140.395C85.6921 139.877 86.5073 139.435 87.2914 138.946C88.3224 138.304 89.3787 137.696 90.3605 136.989C91.3832 136.251 92.3866 135.47 93.2917 134.6C94.0973 133.823 94.0889 133.255 93.4821 132.313C93.2351 131.93 92.9149 131.584 92.5911 131.258C89.6185 128.26 86.6411 125.266 83.659 122.279C82.1493 120.766 80.6911 119.198 79.0976 117.775C75.2533 114.345 71.3478 110.98 67.4544 107.604C66.9939 107.204 66.4591 106.888 65.9304 106.513C60.9888 111.336 56.1155 115.968 51.843 121.298C52.903 122.37 53.6357 123.46 54.7892 124.178C57.8954 121.327 60.9081 118.56 63.9567 115.761C65.4327 116.367 66.4436 117.414 67.5395 118.335C71.8647 121.97 75.1276 126.579 79.0859 130.553C79.7442 131.213 79.7215 131.826 79.1245 132.518C78.8619 132.824 78.5358 133.074 78.2421 133.354C75.8636 135.633 73.4839 137.91 71.1103 140.194C70.3754 140.901 69.6573 141.625 68.9032 142.368C70.3962 144.641 71.846 146.846 73.4385 149.269L73.4337 149.269ZM64.3921 117.056C62.4596 118.733 60.7356 120.171 59.08 121.679C57.1259 123.459 55.4824 125.541 53.3927 127.209C51.5321 128.697 50.1152 130.612 49.0112 132.734C48.6803 133.369 48.6204 133.887 49.1672 134.437C50.1445 135.421 51.0295 136.498 52.0499 137.434C54.8186 139.975 57.6353 142.466 60.4376 144.971C61.2074 145.658 61.9916 146.331 62.8262 147.063C63.163 146.732 63.458 146.469 63.7205 146.178C65.2202 144.509 66.6396 142.767 68.2221 141.18C70.6269 138.769 73.1409 136.465 75.6117 134.119C76.1991 133.562 76.8201 133.037 77.3847 132.458C78.2047 131.617 78.1855 131.31 77.3989 130.429C75.358 128.147 73.3974 125.791 71.2654 123.597C69.0998 121.369 66.7675 119.301 64.3921 117.054L64.3921 117.056ZM36.4512 136.497C45.9541 145.484 55.5385 154.546 65.2776 163.753C65.9945 162.761 66.7294 161.948 67.2316 161.011C68.7264 158.226 70.1097 155.382 71.5841 152.584C71.9521 151.886 71.7026 151.324 71.3465 150.822C70.0454 148.988 68.6927 147.188 67.3437 145.387C67.1878 145.179 66.9264 145.047 66.623 144.81L63.216 148.165C62.2591 147.586 61.3443 147.132 60.5469 146.523C59.6739 145.857 58.9161 145.047 58.1055 144.305C57.7638 143.993 57.4076 143.694 57.0683 143.378C53.9746 140.501 50.8893 137.616 47.7884 134.749C47.2452 134.247 47.0474 133.726 47.4537 133.075C48.0939 132.05 48.6776 130.982 49.4089 130.025C50.4123 128.716 51.5308 127.494 52.6505 126.174C52.0629 125.522 51.5425 124.945 51.0221 124.369C49.4843 125.759 48.4281 126.423 47.8534 126.361C48.297 125.822 48.7273 125.368 49.0774 124.86C49.419 124.365 50.1444 124.008 49.8649 122.903C45.3237 127.442 40.2969 131.113 36.45 136.494L36.4512 136.497ZM10.8214 110.945C11.1907 110.581 11.6474 110.155 12.0778 109.705C14.5917 107.066 17.0877 104.41 19.6112 101.78C22.9367 98.3156 26.3474 94.9281 29.5914 91.3929C31.3333 89.4954 33.0404 87.5188 34.1576 85.1832C32.0338 81.9674 28.9499 80.9586 25.5186 82.3445C25.2129 82.4685 24.936 82.7176 24.7034 82.9609C21.7927 86.0167 18.8915 89.0795 15.9952 92.1471C13.3758 94.9207 10.7683 97.7037 8.1465 100.473C7.27136 101.396 6.30148 102.238 5.4791 103.204C4.00577 104.929 4.33449 106.601 6.21462 107.801C7.72184 108.766 9.1715 109.816 10.8238 110.947L10.8214 110.945ZM11.6177 111.85C13.2388 113.399 14.4522 113.236 15.2325 111.336C15.9696 109.54 17.4346 108.4 18.8589 107.236C19.2281 106.933 19.9931 106.863 20.487 107C21.4307 107.263 22.3431 107.689 23.2065 108.162C24.0278 108.612 24.1382 109.245 23.6587 110.041C23.3338 110.583 22.8459 111.061 22.6505 111.638C22.4863 112.126 22.4277 112.911 22.7095 113.205C22.9889 113.497 23.8509 113.543 24.2801 113.338C25.045 112.972 25.7524 112.407 26.347 111.798C28.97 109.118 31.4515 106.317 34.2916 103.829C36.0575 102.284 37.4925 100.353 38.9742 98.5159C39.4585 97.9137 39.7078 97.08 39.9067 96.3124C40.1536 95.356 39.807 94.9343 38.7723 94.8079C37.6393 94.6672 36.5866 94.823 35.7007 95.6743C35.359 96.0037 34.678 96.45 34.419 96.3201C33.3243 95.7732 32.1373 95.2559 31.4825 94.2142C32.7867 92.1148 34.6042 90.424 34.1159 87.6004C27.1749 96.3287 18.7901 103.456 11.6188 111.848L11.6177 111.85ZM33.1121 116.4C37.0623 112.493 41.0136 108.972 44.5765 104.945C43.6041 104.195 42.7863 103.565 41.9469 102.917C40.7804 103.266 39.9112 103.93 39.1104 104.823C37.3074 106.837 35.3893 108.753 33.5347 110.723C32.5241 111.796 31.5494 112.9 30.4765 114.082C31.4202 114.91 32.1852 115.584 33.1133 116.398L33.1121 116.4ZM28.3264 111.533C29.4992 113.146 29.8661 113.162 31.0673 111.788C31.7519 111.005 32.4783 110.259 33.1868 109.497C35.6204 106.878 38.054 104.26 40.5296 101.595L39.2322 100.317C36.0566 104.614 31.4421 107.37 28.3264 111.533ZM68.1204 143.665C67.9885 143.774 67.8567 143.883 67.7236 143.992C69.448 146.451 71.1736 148.909 72.898 151.368C71.7431 148.513 70.2584 145.877 68.1204 143.665ZM40.2238 111.342C42.1699 113.006 44.0081 114.578 45.8367 116.142C44.8498 114.209 43.1147 112.916 41.5858 111.448C41.2093 111.087 40.7237 110.526 40.2238 111.342ZM47.7745 118.077C47.675 118.189 47.5755 118.301 47.4772 118.412C48.235 119.274 48.9917 120.135 49.7495 120.998C49.8646 120.898 49.9785 120.798 50.0936 120.699C49.3202 119.824 48.5479 118.95 47.7757 118.076L47.7745 118.077ZM52.3324 123.404C52.1958 123.508 52.0591 123.615 51.9236 123.72C52.3889 124.228 52.8553 124.734 53.3218 125.241C53.4093 125.166 53.498 125.091 53.5855 125.016C53.167 124.479 52.7497 123.941 52.3324 123.404Z" fill="#FFC5C5"/>
<path fill-rule="evenodd" clip-rule="evenodd" d="M56.9271 103.002L54.6062 105.288C54.1313 104.376 54.4657 103.44 55.4583 102.611C56.0338 102.131 56.463 102.209 56.9271 103.002Z" fill="#FFC5C5"/>
<path fill-rule="evenodd" clip-rule="evenodd" d="M84.991 130.186C83.5093 131.525 82.711 133.482 80.6261 134.723C80.6764 134.197 80.614 133.899 80.7363 133.736C81.663 132.495 82.622 131.279 83.575 130.057C83.985 129.53 84.4083 129.505 84.991 130.186Z" fill="#FFC5C5"/>
<path fill-rule="evenodd" clip-rule="evenodd" d="M78.5914 139.723C79.0864 138.071 80.1186 137.161 80.9086 136.125C81.0668 135.92 81.5668 135.971 81.9097 135.902C81.9816 136.004 82.056 136.106 82.1279 136.207C81.3092 137.233 80.5048 138.273 79.6584 139.277C79.5122 139.45 79.1933 139.48 78.5914 139.721L78.5914 139.723Z" fill="#FFC5C5"/>
<path fill-rule="evenodd" clip-rule="evenodd" d="M75.6759 139.322C76.154 137.472 76.389 137.26 77.8482 137.346C77.075 138.884 76.4708 139.435 75.6759 139.322Z" fill="#FFC5C5"/>
<path fill-rule="evenodd" clip-rule="evenodd" d="M86.7803 132.51C86.1988 133.024 85.7948 133.382 85.2457 133.868C85.26 132.934 85.7715 132.482 86.7803 132.51Z" fill="#FFC5C5"/>
<path fill-rule="evenodd" clip-rule="evenodd" d="M39.7534 135.756C40.7532 134.771 41.7434 133.777 42.7684 132.817C42.8643 132.727 43.1653 132.849 43.3991 132.876C42.542 134.717 41.2449 135.919 40.0052 136.072C39.9212 135.966 39.8373 135.86 39.7546 135.754L39.7534 135.756Z" fill="#FFC5C5"/>
<path fill-rule="evenodd" clip-rule="evenodd" d="M44.5625 134.471C44.2893 136.23 43.3651 137.422 42.0175 137.913C42.2355 136.368 43.3133 135.548 44.5625 134.471Z" fill="#FFC5C5"/>
<path fill-rule="evenodd" clip-rule="evenodd" d="M60.6379 153.432C60.76 152.11 61.0801 151.358 62.1543 150.982C62.156 151.763 61.6505 152.58 60.6379 153.432Z" fill="#FFC5C5"/>
<path fill-rule="evenodd" clip-rule="evenodd" d="M45.0755 131.008C45.073 130.188 45.4002 129.67 46.7803 129.7C46.2336 130.387 45.8656 130.849 45.4975 131.31C45.3572 131.21 45.217 131.11 45.0767 131.009L45.0755 131.008Z" fill="#FFC5C5"/>
<path d="M253.653 28.7035C252.905 27.724 251.932 26.8275 250.626 26.7827C249.703 26.7529 248.722 27.2431 247.912 27.61C246.76 28.1308 245.647 28.6178 244.441 29.0051C241.808 29.8543 239.258 30.8732 236.692 31.8923C236.5 31.9686 236.306 32.0409 236.112 32.1142C236.358 33.0303 236.633 33.9431 236.854 34.8707C237.299 36.7359 237.466 38.6336 237.505 40.547C237.547 42.6249 237.485 44.7226 237.756 46.788C238.008 48.7127 237.945 50.693 238.598 52.5474C238.731 52.9207 238.138 53.105 238.006 52.7325C237.365 50.9173 237.421 49.0043 237.175 47.1215C236.903 45.05 236.931 42.9674 236.89 40.8837C236.846 38.7051 236.679 36.5574 236.104 34.4449C235.913 33.7415 235.707 33.0407 235.52 32.3372C233.245 33.166 230.906 33.8228 228.579 34.4879C227.397 34.826 226.175 35.0952 225.017 35.5039C224.349 35.7395 223.423 36.1954 223.216 36.936C223.02 37.6481 223.273 38.5595 223.378 39.2627C223.574 40.5809 223.839 41.8868 224.079 43.197C224.851 47.4087 226.352 52.2187 230.354 54.5041C230.992 54.8696 231.701 55.1245 232.421 55.3151C233.677 55.5867 234.908 55.5363 236.166 55.216C236.866 55.0382 237.556 54.8119 238.13 54.3638C238.569 54.0212 238.976 53.6063 239.452 53.3112C240.454 52.6897 241.568 52.2857 242.715 52.0089C245.329 51.3785 247.989 50.9543 250.603 50.313C251.876 50.0006 253.155 49.7008 254.424 49.3744C254.692 49.3052 255.007 49.2285 255.329 49.13C255.566 48.8576 255.79 48.5604 255.997 48.2289C257.042 46.5538 257.387 44.5009 257.564 42.5779C257.749 40.595 257.623 38.5584 257.164 36.6217C256.513 33.8764 255.384 30.9674 253.654 28.7051L253.653 28.7035Z" fill="#FFB6CF"/>
<path d="M226.6 7.7089C225.655 7.77395 224.544 8.10183 224.029 8.94057C223.45 9.88344 224.28 11.2494 224.541 12.1636C224.99 13.7326 225.35 15.3646 225.632 16.9701C225.836 18.1302 225.996 19.3911 226.599 20.4266C226.826 20.8158 227.486 20.5092 227.324 20.089C226.929 19.0688 226.872 18.0015 226.758 16.9273C226.632 15.7526 226.327 14.5689 226.097 13.4104C225.875 12.2885 225.543 11.2234 225.225 10.1296C224.901 9.01335 226.45 9.00572 226.934 8.22739C227.075 7.9994 226.859 7.69032 226.6 7.7089Z" fill="#FFB6CF"/>
<path d="M236.981 10.2438C236.79 9.99646 236.38 10.035 236.303 10.3632C236.177 10.8987 236.284 11.3631 236.449 11.8808C236.603 12.3587 236.685 12.8047 237.134 13.0937C237.263 13.1767 237.486 13.1341 237.577 13.0151C237.899 12.596 237.805 12.1754 237.662 11.6996C237.503 11.1708 237.32 10.6837 236.98 10.2432L236.981 10.2438Z" fill="#FFB6CF"/>
<path d="M231.717 24.3182C231.026 23.0792 230.109 21.2764 230.535 19.83C230.538 19.818 230.543 19.8083 230.547 19.7971C230.523 19.7676 230.503 19.7321 230.49 19.689C230.385 19.33 230.309 18.9182 230.562 18.5974C230.687 18.4399 230.925 18.3186 231.114 18.1754C231.045 18.1435 230.986 18.0876 230.958 18.0058C230.348 16.2203 229.938 14.3774 229.352 12.5863C229.338 12.5443 229.325 12.5015 229.309 12.4601C229.244 12.3014 229.179 12.1414 229.112 11.984C228.862 11.3966 228.443 10.6749 228.375 9.98105C228.332 10.0034 228.289 10.024 228.247 10.0463C228.159 10.1542 228.077 10.2687 228.004 10.3973C227.387 11.4951 228.341 12.9942 228.743 13.9975C228.76 14.0401 228.782 14.0786 228.805 14.1147C229.155 15.4322 229.578 16.7412 229.702 18.0931C229.74 18.5139 229.458 18.9205 229.335 19.3075C229.205 19.7109 229.17 20.0794 229.23 20.4981C229.401 21.6948 230.005 22.8421 230.448 23.9795C230.451 23.9992 230.453 24.0194 230.457 24.0391C230.471 24.1179 230.504 24.1872 230.549 24.2476C230.567 24.2981 230.586 24.3491 230.603 24.3999C230.732 24.7707 231.19 24.737 231.363 24.4931C231.496 24.4552 231.619 24.406 231.738 24.3507C231.73 24.3405 231.722 24.3303 231.716 24.3187L231.717 24.3182Z" fill="#FFB6CF"/>
<path d="M238.161 16.6408C237.963 16.1358 237.611 15.5985 237.047 15.4497C236.855 15.4 236.643 15.3857 236.439 15.4086C236.391 15.3096 236.344 15.2091 236.304 15.1059C235.925 14.1902 235.719 13.1747 235.441 12.2251C235.181 11.3368 234.864 10.4608 234.648 9.56061C234.617 9.43163 234.582 9.30585 234.544 9.18277C234.414 9.03704 234.257 8.91222 234.063 8.82151C233.396 8.50665 232.608 8.53169 231.897 8.67494C231.069 8.84212 230.268 9.11477 229.494 9.44975C229.744 9.87422 229.85 10.3506 229.993 10.83C230.225 11.6085 230.521 12.3717 230.774 13.1444C231.293 14.7259 231.854 16.3013 232.31 17.9017C232.35 18.0456 232.292 18.1706 232.184 18.2416C232.178 18.2805 232.163 18.3215 232.133 18.3642C231.928 18.6655 231.873 18.9788 231.888 19.3387C231.892 19.4181 231.862 19.4843 231.816 19.536C231.816 19.5377 231.816 19.5396 231.816 19.5423C231.821 19.6936 231.715 19.8047 231.587 19.8427C231.558 19.9124 231.522 19.9754 231.473 20.0288C231.478 20.0378 231.484 20.0461 231.489 20.0563C232.025 21.2068 232.473 22.4305 232.685 23.6856C232.806 23.5747 232.924 23.4582 233.042 23.3399C233.81 22.5687 234.731 22.2613 235.775 21.9894C236.993 21.6727 238.976 21.9118 239.027 20.2274C239.044 19.6663 238.732 19.045 238.628 18.49C238.51 17.8633 238.395 17.2375 238.162 16.6414L238.161 16.6408Z" fill="#FFB6CF"/>
<path fill-rule="evenodd" clip-rule="evenodd" d="M240.407 18.2402C239.712 17.9487 239.08 17.9632 238.363 18.3959C238.585 19.0836 238.814 19.7842 239.035 20.4882C239.189 20.9795 239.509 21.1777 240.039 21.1814C241.029 21.1874 242.029 21.1728 243.006 21.3053C246.063 21.7195 248.876 22.7095 251.335 24.6503C253.99 26.746 255.934 29.3864 257.312 32.3678C258.431 34.7876 259.17 37.3748 259.386 40.0811C259.631 43.1466 259.178 46.1086 258.274 49.0241C258.137 49.4689 257.969 49.8354 257.444 50.0728C257.019 50.2641 256.722 50.7726 256.423 51.18C255.795 52.0359 255.08 52.7227 254.049 53.1549C253.205 53.5091 252.476 54.1321 251.701 54.6439C250.68 55.3186 249.508 55.6183 248.35 55.9408C246.902 56.344 245.441 56.7006 243.987 57.0794C242.503 57.466 241.01 57.8279 239.538 58.2558C238.645 58.5156 237.754 58.4859 236.851 58.4329C236.462 58.4106 236.07 58.3374 235.683 58.3558C234.36 58.4177 233.143 57.9196 231.878 57.6782C230.904 57.4934 229.946 57.2231 228.984 56.9784C228.179 56.7745 227.484 56.3788 226.906 55.7833C225.396 54.2297 224.077 52.508 223.114 50.6008C222.316 49.0214 221.808 47.2835 221.313 45.5758C220.893 44.1255 220.588 42.6285 220.389 41.1317C220.047 38.5645 219.903 35.9815 220.952 33.5078C221.171 32.9924 221.503 32.523 221.795 32.0399C223.094 29.8852 224.847 28.1684 226.972 26.7998C227.876 26.217 228.747 25.5857 229.656 24.9617L228.453 21.2256C227.719 21.5265 227.076 21.7905 226.317 22.1007C225.975 21.9685 225.749 21.582 225.619 21.1601C225.337 20.2532 225.062 19.3415 224.848 18.4171C224.265 15.9006 223.706 13.3785 223.158 10.8546C223.027 10.2493 222.965 9.62782 222.889 9.01133C222.817 8.4148 223.096 7.97651 223.603 7.68592C223.913 7.50761 224.242 7.35605 224.577 7.22804C225.334 6.93811 226.119 6.70944 226.861 6.38462C228.982 5.45613 231.292 5.30789 233.507 4.7702C234.209 4.60007 234.909 4.42418 235.613 4.26583C236.334 4.10418 236.515 4.16059 236.793 4.85591C237.199 5.87431 237.577 6.90868 237.885 7.96031C238.587 10.3546 239.246 12.7623 239.907 15.1685C240.134 15.9982 240.327 16.8388 240.51 17.6796C240.543 17.8296 240.454 18.0057 240.408 18.2392L240.407 18.2402ZM246.31 55.9116C246.306 55.8992 246.303 55.8874 246.3 55.8748C246.74 55.7718 247.177 55.6535 247.62 55.5669C249.704 55.1561 251.565 54.2945 253.183 52.9302C253.363 52.7781 253.567 52.6149 253.787 52.5551C254.691 52.3082 255.306 51.7133 255.776 50.9683C256.202 50.2931 256.994 49.8793 257.176 49.0367C257.708 48.868 257.876 48.4261 257.977 47.9566C258.2 46.9127 258.422 45.8669 258.613 44.8161C258.998 42.6933 259.035 40.5491 258.605 38.4448C257.99 35.4369 257.027 32.5565 255.298 29.9352C253.862 27.7582 252.112 25.9329 249.99 24.4276C249.599 24.1512 249.237 23.8099 248.806 23.6213C246.199 22.4818 243.516 21.6762 240.611 21.7271C237.855 21.7763 235.321 22.4146 233.049 24.0046C232.368 24.4815 231.591 24.829 230.849 25.2166C230.425 25.4375 229.948 25.5675 229.553 25.8248C227.746 27.0008 225.925 28.156 224.371 29.6706C223.152 30.8584 222.298 32.2937 221.513 33.7564C220.514 35.6161 220.599 37.6889 220.731 39.6906C220.937 42.7867 221.696 45.7932 222.838 48.6873C223.745 50.9875 224.951 53.0797 226.919 54.7345C228.076 55.7068 229.263 56.4741 230.737 56.806C231.264 56.9247 231.789 57.0749 232.324 57.1343C233.396 57.2539 234.351 57.8093 235.462 57.8291C236.995 57.8567 238.506 58.0377 240.029 57.5794C242.101 56.9558 244.215 56.4625 246.312 55.9138L246.31 55.9116ZM239.666 17.3103C239.642 16.4568 239.395 15.7112 239.165 14.9429C238.595 13.0379 238.122 11.1054 237.587 9.19028C237.276 8.07529 236.946 6.96549 236.58 5.86745C236.247 4.86539 235.992 4.76314 234.976 5.02146C234.335 5.18429 233.687 5.31535 233.039 5.45134C231.568 5.75866 230.068 5.9706 228.631 6.3895C227.224 6.79983 225.872 7.40035 224.51 7.95052C223.504 8.35689 223.392 8.60442 223.529 9.65791C223.983 13.1418 225.05 16.4956 225.768 19.9231C225.873 20.4243 226.18 20.8834 226.396 21.3699C226.775 21.2515 227.067 21.1797 227.342 21.0693C227.64 20.949 227.924 20.7932 228.185 20.6666C228.089 19.5674 228.36 18.8133 228.997 18.4044C228.559 16.8422 228.12 15.2745 227.677 13.7076C227.506 13.1071 227.332 12.5088 227.142 11.9147C227.014 11.5174 226.97 11.0929 227.348 10.8619C228.133 10.3805 228.925 9.8599 229.787 9.56523C230.799 9.21953 231.89 9.0963 232.946 8.87869C233.563 8.75127 233.824 8.87707 234.107 9.43956C234.174 9.57262 234.239 9.70893 234.285 9.84933C234.781 11.3753 235.274 12.9026 235.768 14.4293C235.921 14.9039 236.074 15.3794 236.223 15.8416C237.485 15.6865 237.568 15.7467 237.894 16.914C237.955 17.1338 238.066 17.3401 238.161 17.5729C238.453 17.5316 238.69 17.5037 238.925 17.4629C239.157 17.4229 239.386 17.3687 239.667 17.31L239.666 17.3103ZM229.548 18.2451C231.82 17.9747 234.692 17.1914 235.583 16.177C235.583 16.1057 235.602 16.0127 235.577 15.9326C234.993 14.0629 234.404 12.1939 233.815 10.3255C233.797 10.2687 233.774 10.2133 233.751 10.1592C233.452 9.50012 233.352 9.44817 232.65 9.60465C232.095 9.72916 231.545 9.92525 230.983 9.96778C230.123 10.0316 229.369 10.3314 228.613 10.7013C227.818 11.0909 227.631 11.3853 227.848 12.2129C228.224 13.6454 228.599 15.0771 228.993 16.5047C229.156 17.0973 229.366 17.6773 229.549 18.2449L229.548 18.2451ZM237.717 18.5098C234.776 19.3494 231.932 20.1611 228.974 21.0059C229.522 22.2949 229.659 23.5929 230.408 24.8166C231.119 24.4133 231.805 24.0582 232.455 23.6496C234.007 22.6746 235.574 21.7536 237.452 21.5111C237.822 21.4636 238.175 21.2955 238.574 21.1709L237.717 18.5098ZM237.047 16.4271C236.605 16.6004 236.243 16.7188 235.904 16.8808C235.23 17.2025 234.6 17.6491 233.895 17.8647C232.527 18.2835 231.126 18.5987 229.729 18.9172C228.675 19.1575 228.556 19.3171 228.856 20.3593C229.704 20.2866 237.028 18.0778 237.476 17.7588L237.047 16.4279L237.047 16.4271Z" fill="#FFD79F"/>
<path fill-rule="evenodd" clip-rule="evenodd" d="M251.15 27.5676C251.264 27.9303 251.041 28.1285 250.77 28.2863C250.434 28.4828 250.096 28.6842 249.74 28.8416C247.817 29.6928 245.845 30.38 243.79 30.8947C241.547 31.4565 239.362 32.2436 237.153 32.9361C237.042 32.9707 236.942 33.04 236.769 33.1275C236.848 33.6712 236.929 34.2182 237.008 34.7646C237.308 34.9605 237.884 34.6922 237.896 35.3419L237.219 35.5533C237.248 35.8594 237.275 36.1504 237.315 36.5735C237.652 36.4681 237.926 36.3979 238.188 36.2981C239.59 35.7627 240.986 35.2138 242.392 34.6905C242.518 34.644 242.701 34.7488 242.857 34.7832C242.802 34.9355 242.789 35.175 242.682 35.2263C242.306 35.4061 241.898 35.5235 241.502 35.6626C240.145 36.1406 238.788 36.6177 237.373 37.1166C237.392 37.5778 237.381 37.9559 237.428 38.3269C237.611 39.7705 237.826 41.2096 238.002 42.6539C238.105 43.5061 238.141 44.3665 238.231 45.2201C238.395 46.7821 238.59 48.3416 238.743 49.9051C238.835 50.8477 238.886 51.7948 238.933 52.7408C238.961 53.3195 238.191 53.817 237.677 53.5502C237.543 53.4806 237.433 53.2887 237.396 53.1337C237.322 52.8174 237.289 52.4881 237.267 52.1639C237.037 48.7894 236.816 45.4131 236.584 42.0383C236.503 40.8535 236.438 39.6662 236.294 38.488C236.197 37.6891 235.979 36.9046 235.802 36.0519L234.682 36.4015C234.61 35.6292 235.284 35.6388 235.709 35.3116L235.174 33.6491C231.053 35.0142 226.939 36.4635 222.596 37.6367C222.771 38.6403 222.964 39.7424 223.154 40.8452C223.295 41.6613 223.438 42.4775 223.562 43.2958C223.59 43.4826 223.546 43.6801 223.533 43.9168C223.047 43.8316 222.978 43.5252 222.924 43.1991C222.641 41.5014 222.241 39.8139 222.102 38.106C221.946 36.2163 222.261 34.3772 223.667 32.9009C223.868 32.6899 224.049 32.4622 224.27 32.2067C224.648 32.5919 224.333 32.8342 224.187 33.0783C223.868 33.6104 223.508 34.1193 223.206 34.6607C222.805 35.3788 222.761 36.1829 222.648 37.1261C226.912 35.8185 231.108 34.6414 235.15 33.0263C235.17 32.9035 235.206 32.8134 235.194 32.7303C234.876 30.6216 234.689 28.4913 234.117 26.4231C233.935 25.7674 233.821 25.0925 233.702 24.4218C233.676 24.2804 233.764 24.119 233.886 23.9614C234.448 24.8397 234.417 25.8759 234.724 26.8129C235.036 27.7664 235.144 28.7845 235.34 29.7753C235.531 30.7395 235.392 31.7688 235.968 32.8606C236.054 32.5469 236.142 32.3989 236.123 32.2655C235.97 31.2099 235.84 30.1488 235.619 29.1061C235.27 27.4527 234.853 25.813 234.471 24.1654C234.44 24.0328 234.451 23.8911 234.443 23.7586C234.856 23.5835 234.886 23.844 234.936 24.0789C235.061 24.65 235.188 25.2205 235.327 25.8497C235.984 25.7632 236.529 25.691 237.176 25.6055C236.808 26.2763 236.135 26.186 235.675 26.4835C236.024 28.4437 236.371 30.3886 236.735 32.4338C237.093 32.3411 237.433 32.2628 237.767 32.1651C240.132 31.4719 242.512 30.8211 244.856 30.0624C246.681 29.4718 248.524 28.8972 250.186 27.8968C250.472 27.7242 250.84 27.6842 251.171 27.5829L251.146 27.5697L251.15 27.5676ZM237.989 52.8771C238.093 52.8683 238.196 52.8594 238.299 52.85C238.304 52.5813 238.334 52.3104 238.31 52.0446C238.156 50.3402 237.981 48.6378 237.828 46.9337C237.678 45.257 237.551 43.5787 237.4 41.9023C237.374 41.617 237.283 41.3368 237.222 41.0542C237.156 42.823 237.237 44.562 237.319 46.3016C237.323 46.3898 237.342 46.4772 237.349 46.5657C237.468 48.243 237.571 49.9215 237.712 51.5975C237.748 52.029 237.894 52.4506 237.989 52.8771ZM236.338 34.9559C236.484 34.3697 236.418 33.8253 236.021 33.2063C235.779 33.9481 236.153 34.4341 236.338 34.9559ZM236.585 35.7692L236.373 35.8357C236.437 36.1142 236.502 36.3927 236.568 36.6709C236.72 36.4597 236.73 36.2625 236.709 36.0693C236.697 35.9662 236.629 35.8689 236.585 35.7692Z" fill="#FFD79F"/>
<path fill-rule="evenodd" clip-rule="evenodd" d="M251.173 27.5812C250.945 27.3066 250.711 27.0366 250.493 26.7542C250.448 26.6952 250.461 26.5925 250.437 26.4513C250.583 26.472 250.716 26.4513 250.79 26.5067C252.275 27.6129 253.516 28.9129 254.212 30.6554C254.387 31.0949 254.586 31.5478 254.878 31.9148C255.933 33.242 256.414 34.779 256.673 36.4065C256.965 38.2515 257.275 40.0954 257.517 41.9473C257.709 43.4278 257.568 44.877 257.165 46.3435C256.793 47.6932 256.194 48.8752 255.333 49.9498C255.156 50.1696 254.896 50.3476 254.64 50.4775C252.469 51.5742 250.069 51.9198 247.742 52.5061C246.256 52.8814 244.752 53.2088 243.298 53.6817C241.506 54.2657 239.697 54.8358 238.1 55.8912C237.631 56.2006 237.066 56.3643 236.567 56.6359C235.731 57.0917 234.888 56.9781 234.032 56.7285C232.879 56.3923 231.724 56.0679 230.574 55.7217C230.154 55.5949 229.705 55.4704 229.583 54.9602C229.666 54.9044 229.723 54.8387 229.754 54.8489C230.459 55.0904 231.152 55.3702 231.866 55.5806C232.873 55.8765 233.895 56.1242 234.911 56.389C235.656 56.5836 236.26 56.194 236.869 55.8907C237.701 55.4763 238.48 54.9525 239.329 54.5824C241.147 53.7894 243.002 53.0835 244.942 52.6182C247.167 52.0845 249.397 51.5683 251.608 50.9795C252.355 50.7809 253.046 50.3866 253.763 50.0797C254.034 49.9633 254.317 49.8667 254.567 49.7145C254.813 49.5645 255.079 49.3945 255.239 49.1671C256.769 47.0003 257.3 44.5822 256.95 41.9884C256.673 39.9296 256.345 37.8767 255.975 35.8314C255.763 34.6611 255.31 33.5659 254.666 32.5404C254.032 31.5334 253.499 30.4641 252.885 29.4445C252.441 28.7069 251.967 27.9779 251.15 27.5667L251.174 27.5799L251.173 27.5812Z" fill="#FFD79F"/>
<path fill-rule="evenodd" clip-rule="evenodd" d="M242.196 38.1225C243.009 37.3924 244.191 36.9962 244.753 37.2244C244.259 37.8178 242.99 38.2864 242.196 38.1225Z" fill="#FFD79F"/>
<path fill-rule="evenodd" clip-rule="evenodd" d="M228.089 42.6458C228.772 42.4009 229.454 42.1492 230.143 41.9205C230.205 41.9001 230.317 42.0218 230.423 42.0875C229.488 42.8164 228.709 43.067 228.09 42.6456L228.089 42.6458Z" fill="#FFD79F"/>
<path fill-rule="evenodd" clip-rule="evenodd" d="M227.47 45.0009C228.22 44.1538 228.859 43.9408 229.433 44.2966C228.958 44.7181 228.178 45.0151 227.47 45.0009Z" fill="#FFD79F"/>
<path fill-rule="evenodd" clip-rule="evenodd" d="M228.849 46.2631C228.489 46.7291 228.067 47.0594 227.328 46.9768C227.678 46.2817 228.271 46.283 228.849 46.2631Z" fill="#FFD79F"/>
<path fill-rule="evenodd" clip-rule="evenodd" d="M235.884 9.83324C235.72 9.50309 235.546 9.17743 235.398 8.84069C235.174 8.33036 234.949 7.81839 234.77 7.29234C234.731 7.17961 234.864 6.99407 234.956 6.8677C234.975 6.83987 235.219 6.89502 235.252 6.96346C235.684 7.84606 236.108 8.73564 236.135 9.73212C236.051 9.76555 235.968 9.79954 235.885 9.83297L235.884 9.83324Z" fill="#FFD79F"/>
<path fill-rule="evenodd" clip-rule="evenodd" d="M226.492 15.3892C225.731 15.2187 225.467 14.6186 225.749 13.8913C226.371 14.2284 226.207 14.9127 226.492 15.3892Z" fill="#FFD79F"/>
<path fill-rule="evenodd" clip-rule="evenodd" d="M236.673 12.9773C236.071 12.7968 236.3 12.1919 235.85 11.7705C236.201 11.7369 236.402 11.6569 236.478 11.7202C236.795 11.9904 236.858 12.494 236.672 12.9765L236.673 12.9773Z" fill="#FFD79F"/>
<path fill-rule="evenodd" clip-rule="evenodd" d="M232.619 11.3172C233.16 11.2941 233.749 11.6517 233.828 12.1798C233.925 12.8168 233.954 13.4722 233.917 14.1146C233.904 14.3478 233.657 14.6902 233.443 14.7578C233.22 14.8274 232.841 14.7004 232.649 14.5297C231.901 13.8696 231.842 12.9657 231.977 12.0744C232.019 11.797 232.396 11.5681 232.619 11.3181L232.619 11.3172ZM232.765 11.7388C232.198 12.8726 232.397 13.667 233.335 14.2131C233.387 13.9074 233.433 13.6322 233.475 13.3782C233.255 13.256 233.092 13.1657 232.864 13.0396C233.072 12.8262 233.223 12.6712 233.426 12.463C233.218 12.2348 233.03 12.0282 232.765 11.7388Z" fill="#FFD79F"/>
<path fill-rule="evenodd" clip-rule="evenodd" d="M243.862 18.8526C245.99 20.0736 248.454 22.3007 250.005 23.814C250.073 23.8798 250.139 23.9448 250.204 24.0087L250.392 24.1934L248.344 26.5657L247.906 26.1989L248.774 25.1924C248.518 25.3285 248.267 25.4616 248.019 25.5925C244.424 27.4943 241.729 28.9201 239.65 32.153C242.031 31.5244 243.663 30.7158 246.493 29.1089L246.78 29.5994C243.673 31.3639 241.956 32.1975 239.111 32.8721L238.463 33.0257L238.794 32.4561C241.006 28.653 243.96 27.0928 247.769 25.0808C248.273 24.8147 248.792 24.5407 249.326 24.2525C249.158 24.2374 248.973 24.2217 248.772 24.2046C247.47 24.0941 245.532 23.9297 243.784 23.5396C242.639 23.2841 241.541 22.9255 240.736 22.4025C239.926 21.8754 239.374 21.1514 239.434 20.1795C239.475 19.5267 239.621 19.0138 239.88 18.6417C240.145 18.2598 240.515 18.0475 240.947 17.9796C241.368 17.9135 241.837 17.9857 242.321 18.1416C242.807 18.2984 243.328 18.5462 243.862 18.8526ZM249.019 23.6569C247.486 22.2049 245.389 20.3843 243.572 19.3418C243.059 19.0475 242.577 18.82 242.142 18.6797C241.704 18.5387 241.334 18.4922 241.038 18.5388C240.753 18.5835 240.526 18.7151 240.354 18.9615C240.176 19.2177 240.046 19.6173 240.008 20.2143C239.965 20.9112 240.342 21.4675 241.053 21.93C241.771 22.3966 242.788 22.7369 243.911 22.9874C245.615 23.3676 247.483 23.5263 248.785 23.637C248.865 23.6438 248.943 23.6504 249.019 23.6569Z" fill="#FFD79F"/>
<path d="M135.85 60.0547C132.386 58.7959 128.765 59.5514 125.475 60.917C121.577 62.5378 117.437 63.8284 113.319 64.9688C113.612 67.7001 113.387 70.5082 113.025 73.1937C112.551 76.6905 111.718 80.2246 110.125 83.4019C109.551 84.5481 107.813 83.5518 108.385 82.4124C109.985 79.221 110.787 75.5258 111.166 72.0045C111.395 69.868 111.544 67.6661 111.35 65.5071C110.912 65.6226 110.478 65.7415 110.042 65.8565C105.61 67.0219 100.848 67.1789 97.0956 70.0882C96.8922 70.2492 96.6938 70.413 96.4994 70.584C95.4811 70.9601 94.7173 72.018 94.147 73.3943C92.8272 75.5111 92.0774 77.983 91.7939 80.4599C91.6008 82.106 91.9625 84.7675 92.8148 87.3077C93.2914 89.3983 94.2272 91.3903 95.65 92.9938C96.7386 94.2233 98.0857 95.7023 99.8778 95.7679C101.921 95.8478 103.99 94.5672 105.822 93.8402C114.259 90.4972 123.143 89.0668 132.019 87.4755C138.162 86.3703 146.999 84.4281 148.618 77.3829C150.511 69.1181 142.883 62.6085 135.85 60.0547Z" fill="#FC4C8A"/>
<path d="M152.363 26.9979C148.411 25.0465 143.133 25.2178 138.85 25.7125C136.336 26.0045 133.292 26.5252 131.087 28.0232C129.823 27.3435 128.436 26.8244 127.211 26.3573C123.873 25.0838 120.168 24.5986 116.606 24.773C113.797 24.9098 111.278 25.7477 108.678 26.7083C107.881 27.0034 106.194 27.2938 104.945 27.8608C104.136 26.3675 102.98 24.6649 101.514 24.3419C98.7134 23.7272 99.1322 27.6613 99.3597 29.1676C99.9574 33.1122 100.46 37.3834 102.613 40.8494C102.87 41.2605 103.31 41.4084 103.729 41.3227C103.734 41.8206 103.805 42.3179 103.894 42.74C103.914 42.8339 103.949 42.9276 103.993 43.0173C103.213 43.8091 102.684 44.8071 102.574 45.9775C102.384 47.9674 103.252 50.1177 103.746 52.0116C104.234 53.8844 104.48 56.3887 105.714 57.9532C105.903 58.1924 106.164 58.3196 106.431 58.3543C106.737 58.973 107.427 59.3358 108.153 59.435C110.096 59.6984 112.845 58.2484 114.444 57.2632C116.047 56.2746 116.94 54.7576 117.037 52.9119C117.153 50.698 116.104 48.0836 115.415 46.0038C114.793 44.127 113.768 42.2742 111.852 41.4549C110.368 40.819 108.574 40.8012 106.961 41.2867C106.932 41.2098 106.907 41.1338 106.876 41.0555C107.252 40.8694 107.594 40.5935 107.871 40.2171C109.048 38.6166 108.256 36.0976 107.735 34.4048C107.373 33.2373 106.922 32.081 106.428 30.9486C109.446 30.7155 113.792 29.1743 114.792 29.0094C118.206 28.4429 121.694 28.8843 124.979 29.8787C126.025 30.197 127.002 30.6861 127.961 31.2089C125.286 36.3207 134.254 41.5191 138.21 43.3786C145.175 46.6539 157.197 46.2445 158.36 36.7753C158.864 32.6761 155.915 28.7533 152.365 26.9993L152.363 26.9979ZM148.706 30.3403C148.859 30.2193 148.973 30.1458 149.166 30.0929C149.302 30.0548 149.439 30.0579 149.569 30.0876C149.573 30.0866 149.579 30.0851 149.583 30.084C149.983 29.9928 150.393 30.1756 150.566 30.5325C150.672 30.5994 150.765 30.6882 150.833 30.8002C151.069 31.1981 150.927 31.7062 150.532 31.9424C149.894 32.3233 149.2 32.1805 148.649 31.7337C148.372 31.5096 148.342 31.1049 148.481 30.7936C148.503 30.6187 148.568 30.4489 148.707 30.3378L148.706 30.3403ZM135.237 37.2316C135.109 37.6863 134.645 37.914 134.195 37.816C133.701 37.7072 133.247 37.47 132.81 37.2219C132.411 36.995 132.27 36.4751 132.5 36.0821C132.731 35.6891 133.258 35.5498 133.657 35.7768C133.833 35.8768 134.01 35.9789 134.192 36.0648C134.212 36.0742 134.31 36.1122 134.317 36.1164C134.336 36.1219 134.354 36.1293 134.371 36.1353C134.46 36.1634 134.55 36.187 134.641 36.2063C135.091 36.3043 135.352 36.8091 135.235 37.2322L135.237 37.2316ZM136.635 32.9479C136.166 32.8488 135.695 32.6801 135.276 32.4501C134.873 32.2286 134.737 31.7009 134.966 31.3103C135.195 30.9197 135.721 30.7829 136.123 31.005C136.2 31.0468 136.28 31.0875 136.36 31.1219C136.36 31.1219 136.362 31.1214 136.365 31.1248C136.398 31.1368 136.429 31.1493 136.463 31.1609C136.667 31.2329 136.872 31.2924 137.083 31.3377C137.534 31.4333 137.794 31.9425 137.676 32.3636C137.549 32.8202 137.086 33.0435 136.635 32.9479ZM141.625 36.8849C141.497 37.3439 141.036 37.5604 140.584 37.4692C140.172 37.3861 139.756 37.3059 139.354 37.1748C138.915 37.0326 138.633 36.6036 138.761 36.1489C138.879 35.7278 139.363 35.4224 139.802 35.5646C140.204 35.6938 140.619 35.774 141.032 35.859C141.484 35.9502 141.742 36.4681 141.625 36.8849ZM139.683 28.7119C139.449 29.1098 138.929 29.2369 138.526 29.0173C138.462 28.9826 138.394 28.9489 138.327 28.919C138.29 28.9042 138.236 28.8833 138.224 28.8782C138.08 28.8254 137.935 28.7771 137.787 28.7292C137.352 28.5841 137.066 28.1624 137.194 27.7034C137.311 27.2847 137.798 26.9725 138.235 27.119C138.621 27.2485 139.016 27.3774 139.373 27.5721C139.776 27.7937 139.91 28.3238 139.683 28.7119ZM145.986 42.2406C145.474 42.3695 144.939 42.4199 144.416 42.3309C143.961 42.2528 143.71 41.7125 143.823 41.305C143.953 40.8353 144.409 40.6426 144.864 40.7207C144.579 40.6722 144.817 40.7103 144.889 40.7101C144.975 40.7101 145.06 40.7082 145.146 40.7001C145.177 40.6981 145.205 40.6947 145.235 40.6908C145.245 40.6883 145.255 40.6857 145.272 40.6854C145.364 40.6694 145.454 40.6495 145.545 40.6277C145.992 40.5159 146.462 40.7736 146.583 41.2183C146.704 41.6631 146.433 42.1288 145.984 42.2412L145.986 42.2406ZM143.272 32.7421C142.859 32.6571 142.455 32.5347 142.042 32.4477C141.589 32.3546 141.332 31.8405 141.448 31.4218C141.576 30.9652 142.039 30.7439 142.49 30.8375C142.902 30.9225 143.307 31.0449 143.72 31.1319C144.17 31.2255 144.43 31.7391 144.313 32.1578C144.186 32.6144 143.724 32.8352 143.272 32.7421ZM148.353 36.2424C148.226 36.699 147.764 36.9198 147.311 36.8267C146.825 36.726 146.346 36.5903 145.86 36.4876C145.407 36.3945 145.15 35.8804 145.266 35.4617C145.396 35.0046 145.857 34.7838 146.308 34.8774C146.794 34.9782 147.273 35.1139 147.759 35.2146C148.212 35.3077 148.469 35.8218 148.352 36.2405L148.353 36.2424ZM152.363 39.5114C152.361 39.9412 151.97 40.3765 151.51 40.3392C151.317 40.324 151.126 40.2919 150.936 40.2636C151.002 40.275 150.842 40.2555 150.815 40.2564C150.792 40.2563 150.781 40.255 150.77 40.2537C150.322 40.3472 149.865 40.113 149.742 39.6625C149.627 39.2389 149.891 38.738 150.341 38.6396C150.573 38.5889 150.801 38.574 151.035 38.603C151.178 38.621 151.321 38.6433 151.462 38.6637C151.264 38.6355 151.492 38.6642 151.522 38.6666C151.982 38.702 152.366 39.0278 152.362 39.5075L152.363 39.5114ZM154.098 35.4484C153.969 35.9118 153.511 36.1171 153.057 36.0327C152.956 36.0141 152.808 35.9952 152.629 36.0011C152.626 36.0021 152.431 36.0203 152.46 36.0107C152.39 36.0229 152.319 36.0377 152.25 36.0538C151.802 36.1637 151.333 35.9079 151.212 35.4632C151.091 35.0184 151.361 34.5507 151.811 34.4403C152.378 34.3009 152.931 34.314 153.504 34.4206C153.957 34.5055 154.214 35.034 154.098 35.4464L154.098 35.4484Z" fill="#FF7E9E"/>
<path fill-rule="evenodd" clip-rule="evenodd" d="M103.086 58.5274C101.747 54.4378 100.718 50.2561 100.289 45.9469C100.09 43.936 100.111 43.9347 101.866 42.8647C101.875 42.2041 101.748 41.5979 100.858 41.806C99.566 42.1097 99.2179 41.2998 99.0694 40.3691C98.3459 35.8386 97.616 31.3076 96.9977 26.7638C96.7876 25.2137 98.0371 23.262 99.4486 22.7678C101.049 22.2051 102.479 22.7356 103.64 23.8822C105.083 25.3069 106.2 26.9415 106.57 29.147C107.601 28.8746 108.511 28.6449 109.413 28.3965C112.622 27.5104 115.82 26.5839 119.04 25.7383C121.656 25.052 123.763 26.3614 125.863 27.6027C126.275 27.8468 126.64 28.1652 126.742 28.2394C128.46 27.786 129.899 27.3465 131.366 27.0437C132.134 26.8865 132.975 26.6192 133.672 27.4631C133.862 27.6915 134.614 27.6477 135.021 27.4968C138.733 26.1253 142.32 27.3971 145.91 28.022C148.021 28.3894 150.085 29.0622 152.136 29.7076C153.968 30.2846 155.427 31.4185 156.593 32.9494C158.511 35.4725 158.735 38.3336 157.109 40.9994C155.86 43.0502 154.195 44.7235 151.925 45.6096C149.798 46.4391 147.594 47.0929 145.39 47.7013C144.621 47.9127 143.733 47.8621 142.924 47.758C138.272 47.1594 133.936 45.7964 130.66 42.2571C129.691 41.2109 128.945 39.9569 128.144 38.7672C127.575 37.9228 127.19 36.9389 126.532 36.1776C125.6 35.0988 124.742 34.0604 125.152 32.5137C121.668 30.8949 118.32 29.7894 114.584 31.0642C113.141 31.5565 111.61 31.7892 110.147 32.2331C109.369 32.4693 108.654 32.9056 107.717 33.3408C108.083 34.6885 108.318 35.9678 108.791 37.1577C109.153 38.065 109.194 38.8075 108.752 39.6938C108.436 40.3261 108.399 41.0931 108.142 42.2195C109.082 41.9714 109.641 41.8239 110.198 41.6769C111.87 41.2398 112.252 41.395 112.854 43.0149C113.284 44.1726 113.573 45.3799 113.934 46.5619C114.773 49.3142 115.619 52.0624 116.472 54.8502C120.303 53.732 123.764 54.8367 127.19 55.6867C131.631 56.7887 136.033 58.0785 140.388 59.4817C144.013 60.6485 147.117 62.6874 149.517 65.688C150.871 67.3778 152.073 69.1241 152.243 71.3493C152.435 73.8719 152.596 76.3985 152.77 78.9238C152.795 79.2599 152.723 79.6339 152.85 79.9243C153.714 81.9311 152.982 83.7752 151.997 85.4054C150.328 88.1652 147.982 90.2743 144.817 91.3612C137.72 93.7997 130.649 96.32 123.515 98.6566C120.888 99.5171 118.14 100.075 115.409 100.559C109.73 101.568 104.032 102.476 98.329 103.341C96.8041 103.572 95.2105 103.374 93.9364 102.432C91.6656 100.753 89.4124 99.039 87.299 97.1761C85.5244 95.6118 85.0586 93.2605 84.2223 91.1721C82.6978 87.3626 82.7965 83.4983 84.4384 79.755C86.5183 75.0191 89.1293 70.5722 92.6038 66.6816C95.1841 63.7927 98.1971 61.3549 101.362 59.1124C101.841 58.7713 102.523 58.7088 103.087 58.5249L103.086 58.5274ZM109.665 67.7527C105.448 68.8657 101.688 69.8518 97.9323 70.8533C96.6924 71.1846 95.2127 71.2512 94.3012 71.989C93.3533 72.7551 92.9062 74.1608 92.3368 75.3325C91.6469 76.7465 90.8004 78.1544 90.4728 79.6606C89.6115 83.6168 90.3036 87.4623 92.1798 91.0324C94.1473 94.7766 95.3704 95.5454 99.4113 93.5215C104.452 90.9985 109.764 89.1054 115.141 87.4636C121.555 85.5068 128.279 85.2923 134.903 84.5326C137.796 84.2005 140.717 83.8506 143.526 83.134C146.315 82.4227 147.309 81.1245 147.335 78.2492C147.342 77.5664 147.345 76.8826 147.32 76.1999C147.17 72.0607 146.038 68.2447 142.645 65.5907C139.574 63.1882 136.004 61.5839 132.159 60.7021C130.566 60.3363 129.036 60.6164 127.498 61.3153C124.783 62.5457 121.971 63.5683 119.209 64.6955C117.672 65.3219 116.152 65.9872 114.751 66.5799C114.198 69.4745 113.675 72.2106 113.094 75.2406C114.457 75.1079 115.664 75.0473 116.85 74.858C118.199 74.6443 118.563 74.7795 119.1 75.9233C117.879 76.3157 116.671 76.7936 115.414 77.0778C114.621 77.2582 113.759 77.1491 112.572 77.1799C112.409 77.5075 112.012 78.1407 111.771 78.8273C111.227 80.3763 110.767 81.9567 110.26 83.5186C109.867 84.7304 108.647 85.4072 107.447 85.016C106.287 84.6372 106.43 83.7017 106.596 82.7934C106.622 82.6585 106.643 82.5228 106.672 82.3874C107.139 80.1015 107.129 77.7494 107.995 75.5028C108.654 73.7914 108.854 71.9083 109.246 70.0983C109.372 69.5141 109.457 68.9199 109.661 67.7581L109.665 67.7527ZM108.845 59.2073C107.467 59.4264 106.189 59.7845 104.906 59.7989C102.603 59.8248 100.859 60.8443 99.2572 62.3257C98.1908 63.3108 97.027 64.1916 95.9372 65.1519C91.7559 68.839 89.0922 73.5618 86.5298 78.3797C83.6345 83.8219 84.3789 89.0837 87.0905 94.2926C87.5295 95.1363 88.0576 95.9916 88.7411 96.6408C90.0384 97.875 91.4986 98.9383 92.8523 100.118C94.5658 101.612 96.4953 102.275 98.793 101.92C101.951 101.434 105.132 101.081 108.281 100.545C112.462 99.8361 116.621 99.0108 120.786 98.2191C121.26 98.1291 121.716 97.9345 122.175 97.7741C123.946 97.1622 125.712 96.5292 127.489 95.9322C133.218 94.0075 138.991 92.2054 144.667 90.1381C147.836 88.9838 150.159 86.687 151.485 83.5697C151.849 82.7123 152.101 81.744 151.33 80.8453C151.1 80.5779 150.986 80.0489 151.077 79.7051C151.829 76.8115 151.131 73.9766 150.778 71.1293C150.595 69.6586 149.947 68.406 149.026 67.2313C146.974 64.6175 144.392 62.7629 141.337 61.4146C135.507 58.8405 129.287 57.6508 123.136 56.1994C120.81 55.6494 118.566 55.4863 116.372 56.7608C115.142 57.4754 113.779 57.9649 112.341 58.6168C113.301 60.8192 114.165 62.8013 115.062 64.8612C119.054 63.0402 123.389 62.3976 127.016 59.9153C125.847 58.5131 123.622 59.1436 122.621 57.202C123.329 57.3866 123.772 57.4905 124.206 57.6172C125.803 58.0811 127.371 58.823 128.994 58.9703C133.335 59.3661 137.156 61.0818 140.913 63.0432C142.983 64.123 144.67 65.6114 145.94 67.5709C149.228 72.6422 149.355 77.9412 147.343 83.3606C145.983 83.7196 144.796 84.0453 143.602 84.344C142.595 84.5951 141.59 84.9119 140.565 85.0319C136.149 85.5452 131.732 86.0567 127.302 86.4519C123.058 86.829 118.914 87.673 114.87 88.9321C109.427 90.6287 104.143 92.7495 99.0259 95.2617C98.2258 95.6545 97.3337 95.894 96.4602 96.1018C95.1125 96.4224 94.0134 95.9242 93.1201 94.9197C89.1574 90.4557 88.0357 85.178 89.2244 79.5609C90.1134 75.36 92.5207 71.7429 95.3019 68.4376C95.6896 67.9763 96.3247 67.7158 96.8448 67.3639C96.9508 67.4763 97.0543 67.5872 97.1622 67.6991C96.8253 68.3163 96.4879 68.9315 95.923 69.9659C100.855 68.6703 105.499 67.7669 109.967 66.3896C110.404 64.3076 110.277 63.4849 108.847 59.2087L108.845 59.2073ZM147.755 45.9279C151.376 45.0776 154.373 43.4282 156.245 40.1235C157 38.7891 157.215 37.4366 156.861 35.9678C156.259 33.4771 154.515 31.9645 152.274 30.9876C148.294 29.2523 143.99 28.7248 139.747 28.043C138.625 27.8623 137.373 28.104 136.252 28.4102C135.131 28.7164 133.915 29.1426 133.081 29.8889C132.077 30.7873 131.402 32.057 130.642 33.2049C128.435 36.534 128.556 38.0642 131.207 41.0853C131.343 41.2412 131.491 41.3857 131.647 41.5243C136.275 45.6621 141.614 47.2492 147.756 45.9318L147.755 45.9279ZM111.345 43.0045C109.739 43.2694 108.519 43.4902 107.293 43.6695C105.861 43.8803 104.421 44.0496 102.988 44.2483C101.943 44.3942 101.414 44.8927 101.511 46.0413C101.865 50.2898 102.928 54.3738 104.204 58.3726C107.496 58.5087 112.318 57.2445 115.24 55.5054C113.735 51.4413 113.093 47.0893 111.345 43.0045ZM107.607 38.574C107.008 34.8919 106.043 31.269 104.759 27.7573C104.315 26.5414 103.276 25.4349 102.26 24.562C101.689 24.073 100.479 23.829 99.7857 24.0841C98.9649 24.3853 98.2713 25.27 98.2757 26.3563C98.2761 26.6967 98.2776 27.0409 98.3236 27.3796C98.7776 30.7576 99.2174 34.1372 99.7218 37.5081C99.8614 38.437 100.203 39.3375 100.505 40.4503L107.61 38.5755L107.607 38.574ZM126.003 31.082C126.841 30.2047 126.467 29.6326 125.959 29.2735C123.842 27.7748 121.607 26.5589 118.837 27.1395C117.001 27.5227 115.137 27.7982 113.341 28.3133C111.413 28.8653 109.543 29.621 107.669 30.3405C107.44 30.4279 107.339 30.8444 107.178 31.1077C107.508 31.2478 107.829 31.4107 108.169 31.5168C108.273 31.5494 108.423 31.4231 108.558 31.3895C111.311 30.6835 114.064 29.9757 116.819 29.2794C118.344 28.8935 119.81 28.9936 121.302 29.5781C122.835 30.1785 124.443 30.5919 126.001 31.0825L126.003 31.082ZM108.929 76.5583C109.097 76.6977 109.263 76.8376 109.43 76.975C110.11 76.4716 111.095 76.1087 111.413 75.4386C112.626 72.8898 112.795 70.1089 113.016 67.2956C111.338 67.5467 111.285 67.5316 111.027 68.485C110.302 71.1692 109.623 73.8658 108.927 76.5569L108.929 76.5583ZM127.794 35.0955C129.661 33.0697 131.575 29.7808 131.709 28.3629C130.739 28.4248 129.702 28.3167 129.07 29.1955C128.271 30.3038 127.539 31.4691 126.905 32.6743C126.4 33.6351 126.604 34.5161 127.794 35.0955ZM111.137 59.0399C110.926 59.0956 110.714 59.1474 110.502 59.2012C110.235 61.5066 111.908 63.4463 111.723 65.7528C113.362 65.3573 113.601 65.1807 113.263 64.23C112.636 62.4722 111.854 60.7658 111.137 59.0399ZM107.739 83.3151C107.849 83.4037 107.961 83.4937 108.071 83.5823C108.39 83.3701 108.87 83.2292 109.003 82.9359C109.477 81.8886 109.859 80.7973 110.219 79.7054C110.378 79.226 110.395 78.7036 110.51 78.0025C109.533 78.215 108.715 78.2101 108.515 79.1524C108.222 80.5318 107.996 81.9266 107.741 83.3145L107.739 83.3151ZM106.591 40.7284C104.933 40.9679 103.711 41.4704 102.927 42.236C104.361 42.5343 105.546 42.463 106.87 42.0868C106.77 41.6035 106.692 41.2238 106.591 40.7303L106.591 40.7284Z" fill="#FF7E9E"/>
<path fill-rule="evenodd" clip-rule="evenodd" d="M97.3853 76.0993C98.3842 74.2426 100.122 73.7159 102.266 73.635C101.989 74.0114 101.781 74.6173 101.423 74.7242C100.066 75.1276 98.9857 76.3537 97.3878 76.1007L97.3853 76.0993Z" fill="#FF7E9E"/>
<path fill-rule="evenodd" clip-rule="evenodd" d="M116.013 79.4169C116.565 78.1198 117.85 77.7639 119.036 77.3106C119.677 77.0651 120.246 77.2307 120.689 78.0652C119.197 78.6961 117.755 79.306 116.312 79.9158C116.212 79.7501 116.112 79.5826 116.013 79.4169Z" fill="#FF7E9E"/>
<path fill-rule="evenodd" clip-rule="evenodd" d="M99.9487 78.4006C98.955 78.8981 97.9715 79.4177 96.955 79.8696C96.8015 79.9369 96.3338 79.7116 96.3043 79.5646C96.2516 79.2938 96.3238 78.8125 96.5047 78.7152C97.4975 78.1911 98.5121 77.6241 99.6904 77.8435C99.7745 78.0297 99.8601 78.2135 99.9463 78.3992L99.9487 78.4006Z" fill="#FF7E9E"/>
<path fill-rule="evenodd" clip-rule="evenodd" d="M125.656 66.8345C124.648 67.441 123.838 68.3585 122.395 68.1595C123.278 66.4304 124.442 65.9746 125.656 66.8345Z" fill="#FF7E9E"/>
<path fill-rule="evenodd" clip-rule="evenodd" d="M123.166 71.7076C121.865 72.2469 120.947 72.6276 119.968 73.0345C119.407 72.0105 120.112 71.6986 120.654 71.3657C121.372 70.9264 122.106 70.7286 123.165 71.7101L123.166 71.7076Z" fill="#FF7E9E"/>
<path fill-rule="evenodd" clip-rule="evenodd" d="M124.018 77.4353C125.584 75.9613 126.27 75.774 127.549 76.365C126.531 77.356 125.915 77.5577 124.018 77.4353Z" fill="#FF7E9E"/>
<path d="M278.096 167.249C279.165 165.898 279.657 164.232 280.511 162.757C280.229 161.243 278.057 160.327 276.845 159.7C276.7 159.625 276.557 159.549 276.413 159.474C275.866 161.689 275.073 163.767 273.809 165.78C273.027 167.024 272.12 168.151 271.237 169.324C270.879 169.799 270.431 170.347 269.773 170.368C268.847 170.398 267.932 169.861 267.167 169.403C265.959 168.683 264.717 168.047 263.54 167.274C262.282 166.448 261.025 165.651 259.624 165.075C258.185 164.482 256.743 163.938 255.463 163.043C255.242 162.889 255.071 162.623 255.166 162.343C255.992 159.9 257.472 157.52 258.816 155.331C259.266 154.597 260.26 152.631 261.414 151.668C260.257 150.783 258.712 149.271 257.291 149.455C255.706 149.665 254.584 151.82 253.798 152.997C252.23 155.358 250.852 157.778 249.602 160.318C248.618 162.312 247.439 164.367 247.038 166.577C246.824 167.774 247.038 169.213 247.967 170.005C249.07 171.378 251.848 171.764 253.418 172.158C255.774 172.75 258.025 173.729 260.083 174.993C261.189 175.67 262.192 176.476 263.147 177.342C263.804 177.939 264.392 178.65 265.137 179.147C266.623 180.137 268.32 180.565 269.951 179.625C271.497 178.735 272.269 176.848 273.074 175.367C274.332 173.043 275.758 170.778 277.186 168.553C277.405 168.211 277.682 167.849 277.979 167.471C278.002 167.394 278.038 167.317 278.097 167.244L278.096 167.249Z" fill="#FF8AB3"/>
<path d="M270.635 141.686C271.406 140.943 272.342 141.419 273.191 141.745C275.122 138.747 276.569 135.484 278.419 132.437C280.157 129.574 281.875 126.701 283.572 123.815C283.031 123.758 282.49 123.837 281.986 124.138C280.717 124.9 280.268 126.932 279.624 128.154C277.389 132.394 275.044 136.729 271.994 140.469C270.973 139.888 269.956 139.298 268.728 139.473C267.798 139.607 267.364 140.321 267.137 141.142C266.89 141.608 266.764 142.141 266.795 142.651C266.8 142.762 266.82 142.87 266.846 142.973C266.844 142.986 266.842 142.999 266.84 143.012C266.827 143.132 266.878 143.223 266.958 143.283C267.279 143.972 268.006 144.485 268.631 144.855C268.714 144.905 268.8 144.951 268.883 145.001C269.301 143.809 269.715 142.572 270.636 141.687L270.635 141.686Z" fill="#F7BE6E"/>
<path d="M282.337 147.568C282.424 146.449 281.619 145.53 280.911 144.747C280.776 144.6 280.623 144.433 280.454 144.266C282.756 140.276 284.832 136.15 287.439 132.341C288.267 131.131 289.239 129.894 289.25 128.37C289.26 126.732 287.319 125.543 286.087 124.805C285.703 124.575 285.28 124.345 284.838 124.16C283.001 127.269 281.091 130.34 279.282 133.464C277.488 136.561 275.995 139.826 274.005 142.813C273.852 143.041 273.575 143.189 273.294 143.106C273.114 143.054 272.945 142.988 272.782 142.925C272.776 142.938 272.773 142.949 272.767 142.96C272.206 144.03 271.567 145.058 270.941 146.092C273.347 147.276 275.857 148.287 278.081 149.787C278.836 150.296 279.925 151.097 280.865 150.489C281.881 149.833 282.251 148.718 282.337 147.569L282.337 147.568Z" fill="#F7BE6E"/>
<path fill-rule="evenodd" clip-rule="evenodd" d="M278.944 145.08C279.888 145.784 280.82 146.448 281.711 147.162C281.99 147.385 282.316 147.726 282.349 148.041C282.436 148.883 282.925 149.449 283.507 149.945C285.04 151.25 285.388 152.932 285.042 154.767C284.42 158.07 283.305 161.219 281.612 164.143C279.423 167.927 277.234 171.713 274.938 175.435C273.319 178.062 271.546 180.599 269.796 183.147C269.258 183.932 268.351 184.325 267.443 184.119C266.033 183.802 264.618 183.393 263.305 182.805C260.925 181.741 258.587 180.578 256.294 179.342C253.662 177.924 251.074 176.422 248.515 174.881C246.579 173.714 244.719 172.424 242.822 171.193C242.382 170.908 242.198 170.549 242.047 170.014C241.655 168.622 241.838 167.35 242.394 166.062C243.743 162.935 245.541 160.055 247.359 157.184C248.813 154.888 250.178 152.536 251.668 150.263C253.602 147.319 255.556 144.391 258.471 142.227C260.759 140.53 263.406 140.019 266.121 139.512C267.755 139.206 268.95 140.032 270.307 140.501C270.622 140.61 270.928 140.742 271.271 140.874C272.191 139.182 273.102 137.562 273.958 135.914C275.346 133.242 276.727 130.566 278.051 127.863C278.665 126.609 279.143 125.289 279.672 123.994C280.04 123.092 280.334 122.84 281.181 123.133C282.911 123.734 284.605 124.44 286.309 125.112C286.666 125.253 287 125.454 287.355 125.599C288.465 126.051 288.843 126.969 288.262 127.978C287.204 129.813 286.062 131.603 285.041 133.456C283.651 135.98 282.337 138.543 280.999 141.094C280.332 142.364 279.683 143.643 278.943 145.08L278.944 145.08ZM249.648 166.211C250.971 165.472 252.301 164.744 253.609 163.98C253.738 163.906 253.731 163.608 253.844 163.219C252.414 164.179 251.18 165.001 249.957 165.838C249.827 165.928 249.757 166.105 249.66 166.242C249.083 166.577 248.505 166.911 247.928 167.246C247.989 167.327 248.048 167.408 248.108 167.49C248.622 167.064 249.135 166.637 249.649 166.211L249.648 166.211ZM246.186 167.591C246.614 167.258 246.923 166.982 247.265 166.758C248.909 165.684 250.539 164.585 252.222 163.575C252.972 163.124 253.459 162.604 253.639 161.742C253.73 161.312 254.014 160.904 254.27 160.527C254.765 159.801 255.385 159.147 255.805 158.384C256.786 156.602 257.682 154.773 258.607 152.961C258.736 152.711 258.835 152.445 258.929 152.23C257.894 151.642 256.93 151.103 255.976 150.548C255.369 150.194 254.976 150.404 254.554 150.905C252.213 153.683 250.149 156.652 248.562 159.901C247.405 162.271 245.874 164.513 245.753 167.305C245.716 168.156 245.889 168.762 246.422 169.368C247.227 170.281 248.265 170.7 249.439 170.907C251.128 171.205 252.821 171.49 254.494 171.859C256.636 172.332 258.472 173.423 260.088 174.854C260.786 175.473 261.329 176.256 262.001 176.906C263.257 178.122 264.514 179.268 266.456 179.442C268.011 179.583 268.982 179.174 269.818 177.822C272.476 173.523 275.267 169.304 277.998 165.05C278.262 164.64 278.47 164.195 278.746 163.691C277.325 162.963 276.255 161.95 274.68 161.584C273.386 164.912 271.023 167.595 269.979 170.949C269.697 171.854 269.384 171.957 268.428 171.717C268.139 171.645 267.823 171.599 267.575 171.452C266.441 170.776 265.331 170.064 264.206 169.372C263.515 168.946 262.825 168.517 262.116 168.125C261.517 167.794 260.875 167.542 260.278 167.209C258.461 166.194 256.656 165.157 254.829 164.117C252.596 165.579 250.496 166.97 248.372 168.325C248.087 168.506 247.618 168.65 247.341 168.543C246.944 168.39 246.644 167.991 246.186 167.595L246.186 167.591ZM268.967 170.963C269.141 170.517 269.304 170.145 269.431 169.761C269.508 169.527 269.463 169.241 269.579 169.036C270.394 167.605 271.278 166.211 272.058 164.764C272.862 163.274 273.581 161.74 274.32 160.218C274.641 159.558 274.56 158.881 274.202 158.267C273.303 156.725 272.281 155.274 270.906 154.091C269.989 153.301 268.845 152.919 267.824 152.327C266.188 151.378 264.465 151.145 262.645 151.132C261.784 151.127 260.982 151.324 260.453 151.998C259.54 153.16 258.563 154.308 257.878 155.599C256.789 157.657 255.893 159.814 254.594 161.768C254.125 162.471 254.173 162.559 254.848 163.093C257.004 164.8 259.603 165.759 261.932 167.174C262.987 167.815 264.036 168.464 265.087 169.111C266.276 169.843 267.446 170.612 268.967 170.966L268.967 170.963ZM265.675 140.561C263.614 140.707 261.736 141.066 260.006 142.112C256.877 144.003 254.74 146.793 252.827 149.761C250.711 153.045 248.71 156.402 246.661 159.73C245.279 161.973 243.944 164.239 242.977 166.7C242.658 167.511 242.304 168.342 242.673 169.146C243.024 169.91 243.514 170.695 244.154 171.225C245.2 172.09 246.382 172.809 247.564 173.492C251.189 175.586 254.795 177.723 258.501 179.67C260.993 180.979 263.636 182.014 266.228 183.133C267.041 183.484 267.942 183.571 268.681 182.99C269.266 182.531 269.785 181.957 270.221 181.355C271.118 180.12 271.983 178.857 272.784 177.559C274.188 175.284 275.53 172.973 276.905 170.681C278.019 168.825 279.165 166.985 280.259 165.117C281.962 162.207 283.193 159.101 284.026 155.849C284.571 153.725 284.485 151.719 282.599 150.179C282.452 150.06 282.21 150.055 282.013 149.996C283.21 151.332 283.248 152.778 282.932 154.355C282.306 157.488 280.993 160.374 279.725 163.279C279.387 164.053 279.047 164.84 278.591 165.547C275.628 170.153 272.635 174.74 269.645 179.329C269.393 179.714 269.093 180.069 268.866 180.371C267.808 180.303 266.872 180.245 265.936 180.184C265.061 180.127 264.228 179.92 263.562 179.331C262.513 178.406 261.413 177.52 260.481 176.489C258.684 174.502 256.573 173.069 253.921 172.496C252.371 172.162 250.81 171.876 249.244 171.634C248.241 171.479 247.318 171.161 246.522 170.57C245.29 169.655 244.456 168.515 244.858 166.88C245.068 166.022 245.236 165.133 245.606 164.341C246.68 162.04 247.779 159.745 249.001 157.518C249.833 156 250.836 154.563 251.853 153.154C253.469 150.918 255.151 148.729 256.826 146.537C257.545 145.594 258.19 144.54 259.094 143.803C260.756 142.445 262.66 141.454 264.918 141.457C265.521 141.458 265.594 141.117 265.674 140.565L265.675 140.561ZM271.946 141.377C273.816 142.459 275.539 143.421 277.478 144.259C277.972 143.233 278.386 142.311 278.855 141.418C281.015 137.288 283.202 133.172 285.35 129.037C285.71 128.344 285.93 127.578 286.224 126.824C284.186 126 282.311 125.241 280.426 124.478C277.641 130.027 274.836 135.619 271.946 141.377ZM269.103 151.698C269.654 152.142 270.027 152.492 270.447 152.775C272.291 154.015 273.652 155.68 274.837 157.51C275.391 158.366 275.717 159.246 275.29 160.262C275.23 160.405 275.274 160.589 275.268 160.843C276.536 161.488 277.808 162.138 279.213 162.853C280.009 160.728 280.783 158.808 281.439 156.85C281.813 155.735 282.029 154.563 282.256 153.404C282.421 152.558 282.242 151.745 281.809 150.968C280.925 151.734 280.935 151.716 279.882 151.126C278.503 150.353 277.103 149.618 275.716 148.859C275.125 148.536 274.542 148.194 274.038 147.907C272.335 149.216 270.789 150.403 269.105 151.698L269.103 151.698ZM255.829 149.492C256.823 150.057 257.642 150.591 258.521 150.999C259.09 151.263 259.721 151.387 260.339 150.922C260.661 150.681 261.108 150.582 261.514 150.473C263.053 150.064 264.574 150.298 266.092 150.621C266.637 150.736 267.145 150.828 267.636 150.354C268.885 149.151 270.184 147.999 271.623 146.68C271.072 146.367 270.683 146.132 270.281 145.92C269.487 145.504 268.683 145.107 267.888 144.69C266.763 144.1 265.85 143.307 265.405 142.044C263.099 142.153 261.077 143.029 259.462 144.494C257.929 145.885 256.892 147.731 255.83 149.494L255.829 149.492ZM267.512 140.175C265.929 141.177 266.038 142.162 267.4 143.361C267.84 143.748 268.372 144.047 268.893 144.333C270.835 145.401 272.792 146.443 274.739 147.5C276.318 148.356 277.883 149.238 279.476 150.069C279.785 150.229 280.256 150.353 280.546 150.237C281.25 149.955 281.504 148.216 280.921 147.701C280.127 146.998 279.328 146.261 278.412 145.738C275.631 144.15 272.804 142.636 269.97 141.142C269.184 140.728 268.305 140.482 267.513 140.176L267.512 140.175ZM281.042 138.64C281.135 138.688 281.229 138.736 281.322 138.785C282.14 137.22 282.951 135.652 283.776 134.092C284.029 133.614 284.322 133.156 284.598 132.69C285.543 131.089 286.497 129.495 287.419 127.882C287.507 127.727 287.406 127.468 287.392 127.257C287.326 127.247 287.261 127.235 287.195 127.224C285.145 131.03 283.094 134.835 281.043 138.642L281.042 138.64ZM273.087 147.746C272.474 146.963 272.07 147.304 271.731 147.608C270.557 148.655 269.404 149.726 268.257 150.803C268.136 150.914 268.111 151.123 268.04 151.287C268.11 151.345 268.179 151.404 268.25 151.463C269.843 150.24 271.438 149.014 273.087 147.746ZM280.251 140.863C280.207 140.82 280.164 140.777 280.121 140.734C279.958 141.064 279.797 141.396 279.634 141.728C279.664 141.722 279.692 141.715 279.758 141.701L280.25 140.862L280.251 140.863ZM279.264 142.994C279.201 142.958 279.139 142.922 279.076 142.885C278.929 143.203 278.782 143.52 278.636 143.839C278.67 143.857 278.704 143.873 278.738 143.891L279.264 142.994Z" fill="#FFC2D1"/>
<path fill-rule="evenodd" clip-rule="evenodd" d="M260.518 171.177C260.66 171.12 260.828 170.983 260.94 171.018C261.827 171.298 262.713 171.582 263.578 171.921C264.235 172.178 264.32 172.719 264.207 173.478C263.519 173.025 262.973 172.6 262.366 172.288C261.754 171.972 261.083 171.768 260.437 171.514C260.464 171.402 260.491 171.291 260.517 171.178L260.518 171.177Z" fill="#FFC2D1"/>
<path fill-rule="evenodd" clip-rule="evenodd" d="M255.324 168.313C256.202 168.688 257.097 169.031 257.955 169.447C258.56 169.74 258.528 169.915 257.813 170.548C257.17 169.58 255.744 169.611 255.12 168.591C255.188 168.499 255.257 168.406 255.324 168.313Z" fill="#FFC2D1"/>
<path fill-rule="evenodd" clip-rule="evenodd" d="M258.252 168.57C258.287 167.951 258.667 168.037 259.049 168.153C260.126 168.48 260.442 168.847 260.368 169.773L258.252 168.57Z" fill="#FFC2D1"/>
<path fill-rule="evenodd" clip-rule="evenodd" d="M255.899 155.55C255.071 155.414 254.313 155.162 253.539 154.597C254.989 154.118 255.945 154.547 255.899 155.55Z" fill="#FFC2D1"/>
<path fill-rule="evenodd" clip-rule="evenodd" d="M263.443 170.816C263.869 170.095 264.272 170.37 264.683 170.623C265.132 170.901 265.732 171.085 265.385 171.921L263.442 170.816L263.443 170.816Z" fill="#FFC2D1"/>
<path fill-rule="evenodd" clip-rule="evenodd" d="M255.201 153.078C256.149 152.931 256.711 153.306 257.259 153.664C257.367 153.736 257.334 154.015 257.395 154.365C256.555 154.023 255.743 154.006 255.203 153.077L255.201 153.078Z" fill="#FFC2D1"/>
<path fill-rule="evenodd" clip-rule="evenodd" d="M274.027 165.947C275.016 165.463 275.385 165.606 275.847 166.583C275.02 166.845 274.64 166.104 274.027 165.947Z" fill="#FFC2D1"/>
<path fill-rule="evenodd" clip-rule="evenodd" d="M253.051 156.868C252.626 156.8 252.408 156.811 252.241 156.726C252.033 156.621 251.844 156.454 251.705 156.27C251.67 156.222 251.846 155.908 251.941 155.9C252.176 155.877 252.483 155.89 252.647 156.023C252.823 156.167 252.869 156.464 253.051 156.868Z" fill="#FFC2D1"/>
<path fill-rule="evenodd" clip-rule="evenodd" d="M265.901 175.058C265.093 175.11 264.644 174.861 264.376 174.238C265.35 174.06 265.466 174.121 265.901 175.058Z" fill="#FFC2D1"/>
</svg>
