<svg width="300" height="196" viewBox="0 0 300 196" fill="none" xmlns="http://www.w3.org/2000/svg">
<path d="M265.7 133.012C265.504 133.158 265.308 133.303 265.11 133.445C257.745 138.849 249.453 143.964 240.468 148.772C240.364 148.828 240.254 148.889 240.146 148.945C239.902 149.077 239.654 149.208 239.409 149.338C233.598 152.416 227.503 155.363 221.188 158.175C219.764 158.813 218.324 159.44 216.875 160.064C211.843 162.224 206.682 164.298 201.429 166.285C189.449 170.818 176.978 174.887 164.374 178.458C159.781 179.759 155.174 180.991 150.566 182.156C147.067 183.043 143.566 183.886 140.074 184.693C138.806 184.984 137.537 185.271 136.273 185.552C136.043 185.6 135.815 185.651 135.589 185.703C128.408 187.291 121.28 188.704 114.263 189.937C109.102 190.844 104.005 191.653 98.9965 192.366C91.6072 193.413 84.4079 194.24 77.4927 194.841C76.6165 194.917 75.7424 194.987 74.8762 195.057C74.8102 195.061 74.7442 195.068 74.6802 195.072C74.5121 195.086 74.3441 195.1 74.1781 195.114C67.7169 195.612 61.5218 195.903 55.6608 195.979C53.5584 196.007 51.502 196.007 49.4897 195.979L48.7676 195.969C44.4588 195.895 40.3641 195.692 36.5234 195.355H36.5194C35.7832 195.288 35.0531 195.218 34.333 195.142H34.327C24.3732 194.112 16.2298 192.135 10.5287 189.138C10.2487 188.991 9.97265 188.842 9.7086 188.692C6.314 186.767 3.87556 184.448 2.54133 181.718C-5.00202 166.275 4.78973 146.606 24.7353 126.66C24.9073 126.488 25.0813 126.317 25.2514 126.144C29.4221 122.009 34.0289 117.862 39.0018 113.745C39.2039 113.572 39.4099 113.405 39.6139 113.241C53.2143 102.045 69.5232 91.0486 87.2664 80.9512C87.5184 80.8067 87.7685 80.6641 88.0205 80.5236C97.1042 75.3745 106.558 70.4684 116.212 65.8915C116.432 65.7871 116.652 65.6807 116.872 65.5803C119.32 64.424 121.783 63.2878 124.255 62.1777C127.107 60.8869 129.98 59.6323 132.857 58.4138C134.149 57.8637 135.445 57.3197 136.739 56.7878C138.56 56.035 140.382 55.2983 142.204 54.5736C147.229 52.5802 152.262 50.6932 157.285 48.9307C165.432 46.0681 173.55 43.5187 181.547 41.3386C181.787 41.2723 182.025 41.2081 182.263 41.1459C182.909 40.9712 183.552 40.7986 184.198 40.63C184.844 40.4573 185.486 40.2907 186.13 40.1261C190.157 39.0923 194.149 38.1568 198.092 37.3257C200.202 36.8801 202.301 36.4666 204.379 36.0811C210.128 35.0192 215.751 34.1962 221.212 33.6281C221.732 33.5759 222.25 33.5237 222.763 33.4735C223.737 33.3791 224.707 33.2948 225.671 33.2205C225.817 33.2065 225.961 33.1965 226.107 33.1864C227.231 33.0981 228.35 33.0258 229.46 32.9616C229.88 32.9415 230.294 32.9194 230.71 32.8994C231.144 32.8753 231.576 32.8572 232.01 32.8391C235.175 32.7127 238.265 32.6846 241.28 32.7649C250.625 33.0058 259.221 34.2624 266.792 36.6733C267.016 36.7436 267.236 36.8138 267.456 36.8881C281.039 41.3707 291.251 49.6534 296.512 62.6073C296.676 63.0068 296.836 63.4163 296.986 63.8278C297.488 65.1708 297.94 66.5579 298.338 67.9993C305.043 92.3052 290.921 114.345 265.7 133.022V133.012Z" fill="#FFC2D1"/>
<g opacity="0.66">
<path d="M199.34 148.013C197.14 148.013 195.352 149.81 195.352 152.016C195.352 154.222 197.142 156.019 199.34 156.019C201.539 156.019 203.329 154.222 203.329 152.016C203.329 149.81 201.539 148.013 199.34 148.013ZM199.34 155.318C197.526 155.318 196.05 153.837 196.05 152.016C196.05 150.195 197.526 148.714 199.34 148.714C201.155 148.714 202.631 150.195 202.631 152.016C202.631 153.837 201.155 155.318 199.34 155.318Z" fill="white"/>
<path d="M37.9418 144.99C40.1422 144.99 41.9305 143.193 41.9305 140.987C41.9305 138.781 40.1402 136.984 37.9418 136.984C35.7434 136.984 33.9531 138.781 33.9531 140.987C33.9531 143.193 35.7434 144.99 37.9418 144.99ZM37.9418 137.684C39.7562 137.684 41.2324 139.166 41.2324 140.987C41.2324 142.807 39.7562 144.289 37.9418 144.289C36.1275 144.289 34.6513 142.807 34.6513 140.987C34.6513 139.166 36.1275 137.684 37.9418 137.684Z" fill="white"/>
<path d="M275.502 91.3853C273.302 91.3853 271.514 93.1819 271.514 95.3881C271.514 97.5942 273.304 99.3909 275.502 99.3909C277.701 99.3909 279.491 97.5942 279.491 95.3881C279.491 93.1819 277.701 91.3853 275.502 91.3853ZM275.502 98.6903C273.688 98.6903 272.212 97.2088 272.212 95.3881C272.212 93.5673 273.688 92.0858 275.502 92.0858C277.317 92.0858 278.793 93.5673 278.793 95.3881C278.793 97.2088 277.317 98.6903 275.502 98.6903Z" fill="white"/>
<path d="M259.794 56.7873C253.015 71.2789 243.003 85.5578 232.319 95.9583C210.533 117.173 192.434 117.528 181.088 114.089C158.686 107.304 137.544 108.384 119.947 117.213C103.228 125.604 90.3561 140.517 82.7207 160.345C79.3261 169.163 73.3011 176.635 64.8076 182.563C58.0003 187.316 49.6048 191.086 39.8471 193.774C37.9828 194.29 36.1344 194.742 34.3281 195.145C35.0483 195.222 35.7784 195.292 36.5145 195.36H36.5185C37.6747 195.079 38.8409 194.782 40.0171 194.457C49.8529 191.747 58.3244 187.941 65.2016 183.147C73.8112 177.139 79.9262 169.551 83.3729 160.599C90.9402 140.937 103.696 126.154 120.261 117.843C137.693 109.095 158.654 108.029 180.884 114.766C184.709 115.922 188.464 116.442 192.122 116.442C208.453 116.442 222.87 106.138 232.803 96.4681C243.547 86.0094 253.611 71.6563 260.426 57.0904C263.859 49.7432 266.247 42.8076 267.454 36.8876C267.234 36.8134 267.014 36.7431 266.789 36.6729C265.605 42.5406 263.227 49.4521 259.794 56.7913V56.7873Z" fill="white"/>
<path d="M212.161 136.364C208.608 135.049 204.979 133.802 201.323 132.652C195.91 130.948 190.437 129.456 185.058 128.26C185.038 128.254 185.016 128.25 184.998 128.246C184.554 128.148 184.114 128.053 183.671 127.959C183.087 127.832 182.505 127.714 181.925 127.598C181.245 127.457 180.563 127.325 179.885 127.198C179.355 127.1 178.827 127.001 178.298 126.911C175.952 126.497 173.64 126.154 171.373 125.883C170.179 125.739 168.999 125.616 167.835 125.518C167.479 125.486 167.126 125.458 166.772 125.434C166.548 125.415 166.326 125.399 166.102 125.385C165.986 125.379 165.876 125.371 165.764 125.365C165.684 125.359 165.604 125.355 165.524 125.347C165.05 125.319 164.578 125.295 164.11 125.273C161.497 125.154 158.979 125.161 156.581 125.301C150.57 125.658 145.287 126.871 141.112 129.167C140.476 129.519 139.866 129.892 139.282 130.3C138.775 130.651 138.289 131.018 137.821 131.41C134.413 134.258 132.026 138.195 130.696 143.165C130.312 144.584 130.018 146.088 129.81 147.676C129.244 151.966 129.304 156.866 129.988 162.326C130.17 163.798 130.396 165.313 130.676 166.865C130.708 167.054 130.738 167.244 130.778 167.437C130.778 167.437 130.774 167.437 130.778 167.441C131.12 169.33 131.532 171.275 132.008 173.277C133.038 177.599 134.289 181.814 135.585 185.701C135.811 185.648 136.039 185.598 136.269 185.55C134.973 181.664 133.719 177.44 132.688 173.112C132.23 171.187 131.832 169.316 131.498 167.497V167.493C131.17 165.717 130.9 163.988 130.694 162.316C130.006 156.884 129.94 152.018 130.502 147.77C130.746 145.913 131.114 144.171 131.594 142.551C132.91 138.153 135.107 134.638 138.163 132.04C138.637 131.632 139.138 131.247 139.658 130.89C140.228 130.49 140.824 130.123 141.446 129.78C145.563 127.511 151.062 126.251 157.687 125.97H157.691C159.643 125.889 161.694 125.889 163.838 125.98C164.386 126 164.938 126.028 165.5 126.064C165.752 126.078 166.006 126.092 166.262 126.11C166.308 126.114 166.356 126.116 166.406 126.12C166.532 126.13 166.654 126.138 166.78 126.148C167.137 126.172 167.497 126.204 167.857 126.237C168.769 126.311 169.691 126.401 170.629 126.505C171.447 126.6 172.273 126.702 173.112 126.815C173.748 126.899 174.39 126.989 175.036 127.088C176.028 127.234 177.034 127.399 178.05 127.577C178.575 127.668 179.103 127.764 179.633 127.861C180.269 127.977 180.907 128.101 181.551 128.232C182.239 128.364 182.933 128.509 183.635 128.663C184.142 128.768 184.652 128.88 185.162 128.997C185.182 129.001 185.2 129.003 185.222 129.011C190.301 130.149 195.65 131.6 201.221 133.361C202.335 133.712 203.459 134.076 204.591 134.455C207.228 135.33 209.854 136.26 212.443 137.227C215.541 138.379 218.586 139.59 221.548 140.837C228.047 143.567 234.132 146.469 239.409 149.336C239.653 149.206 239.901 149.077 240.145 148.943C234.711 145.959 228.383 142.924 221.562 140.066C218.518 138.789 215.369 137.546 212.165 136.362L212.161 136.364Z" fill="white"/>
<path d="M149.595 92.3794C169.864 92.3794 188.956 89.2217 202.108 83.5548C213.588 78.6064 220.437 71.8514 221.914 64.0225C222.786 59.3893 221.666 55.3102 218.579 51.8996C213.298 46.06 202.412 42.1214 186.127 40.124C185.485 40.2886 184.841 40.4573 184.195 40.6279C201.2 42.545 212.782 46.5337 218.061 52.3693C220.992 55.6113 222.056 59.4877 221.226 63.894C219.797 71.4821 213.088 78.0604 201.832 82.9104C186.497 89.5208 163.013 92.6926 139.019 91.3918C119.433 90.3338 101.512 86.4675 88.0139 80.5235C87.7619 80.6641 87.5118 80.8066 87.2598 80.9511C100.894 87.0497 119.091 91.0144 138.981 92.0924C142.54 92.2851 146.08 92.3794 149.595 92.3794Z" fill="white"/>
<path d="M59.086 146.909C60.7383 137.898 59.202 130.205 54.5212 124.032C50.5004 118.741 44.7034 115.35 39.6085 113.236C39.4065 113.401 39.2004 113.57 38.9964 113.74C44.0853 115.808 49.9463 119.162 53.9611 124.454C58.5219 130.462 60.0141 137.972 58.3958 146.78C57.0016 154.375 52.7768 161.553 45.8376 168.111C40.2626 173.373 32.9433 178.251 24.0797 182.603C19.0568 185.07 14.094 187.09 9.70117 188.688C9.96722 188.838 10.2433 188.985 10.5213 189.133C14.7861 187.563 19.5529 185.608 24.3718 183.237C33.3054 178.853 40.6847 173.935 46.3077 168.625C53.3629 161.963 57.6577 154.656 59.084 146.905L59.086 146.909Z" fill="white"/>
</g>
<path d="M173.815 107.326L181.831 144.901L170.545 151.993L157.044 118.969L154.512 104.997L173.815 107.326Z" fill="#E76844"/>
<path d="M87.7253 122.32L84.1387 157.498L98.0812 159.897L106.845 120.722L87.7253 122.32Z" fill="#F3AA97"/>
<path d="M99.0625 62.5988C99.0625 62.5988 100.421 63.0143 102.553 63.4459C105.888 60.2039 107.214 55.1673 107.214 55.1673C107.324 58.7806 106.582 61.8681 105.838 64.012C112.521 64.9434 122.315 64.9454 126.339 58.1523C132.722 47.3804 135.435 18.6461 135.435 18.6461C135.435 18.6461 139.686 10.787 133.507 4.99959C127.326 -0.78783 112.065 -3.73273 105.572 8.57883C99.6046 19.8927 99.6586 28.0509 103.013 41.8901C106.368 55.7354 99.0645 62.6008 99.0645 62.6008L99.0625 62.5988Z" fill="#121414"/>
<path d="M135.894 15.1628C135.894 15.1628 135.894 9.47577 132.746 9.89733C129.597 10.3189 126.239 15.3736 126.239 15.3736C126.239 15.3736 122.88 15.1628 122.04 17.6902C121.2 20.2175 126.869 22.9557 126.869 22.9557L135.894 15.1608V15.1628Z" fill="#D40C51"/>
<path d="M159.587 179.135C155.266 180.357 150.931 181.52 146.592 182.614C143.3 183.449 140.007 184.244 136.72 185L135.488 181.881L136.71 169.138L136.983 166.291L142.231 164.892L148.735 163.158L149.411 162.979L156.102 161.194L156.756 164.561L156.89 165.257L159.585 179.133L159.587 179.135Z" fill="#121414"/>
<path d="M149.264 179.084L146.591 182.613C143.298 183.448 140.006 184.243 136.719 185C135.527 185.273 134.333 185.544 133.145 185.809C132.929 185.855 132.715 185.901 132.501 185.951C125.743 187.445 119.036 188.774 112.435 189.936C112.057 183.874 112.027 175.768 113.857 170.52C114.277 169.314 114.797 168.254 115.438 167.411C115.49 167.338 115.546 167.262 115.606 167.194V167.19H115.61C116.71 165.841 118.8 164.996 121.421 164.512C121.621 164.472 121.825 164.436 122.033 164.404C123.183 164.219 124.421 164.096 125.717 164.02C125.923 164.01 126.127 164 126.337 163.99C126.634 163.976 126.936 163.968 127.238 163.958C127.458 163.954 127.678 163.948 127.902 163.948C132.803 163.87 138.162 164.38 142.234 164.895C144.759 165.215 146.789 165.538 147.909 165.727C148.169 165.773 148.379 165.809 148.533 165.835C148.753 165.875 148.869 165.895 148.869 165.895L148.931 167.987L148.935 168.027L149.268 179.088L149.264 179.084Z" fill="#47404A"/>
<path d="M161.816 111.328C161.816 111.328 161.914 153.402 161.914 156.399C161.914 159.396 156.537 164.794 156.537 164.794C145.781 172.886 115.607 167.189 115.607 167.189C115.607 167.189 110.231 164.493 108.736 159.097C107.242 153.699 108.638 117.721 108.638 117.721L105.15 127.614L83.3438 121.618C89.3168 98.8315 94.7938 85.3416 98.0804 82.9427C99.1866 82.1358 102.189 80.6924 105.69 79.1367C112.581 76.0693 123.555 72.5503 123.555 72.5503L126.94 51.4321L128.372 52.0845L140.184 57.4604L141.978 70.2397L142.274 72.3515C142.274 72.3515 165.896 81.5456 167.991 83.9445C169.101 85.2192 171.109 91.8537 172.752 97.7897C174.2 103.033 175.356 107.73 175.356 107.73L161.816 111.328Z" fill="#F3AA97"/>
<path d="M107.24 81.7451C107.24 81.7451 140.6 102.699 173.364 97.4693C173.364 97.4693 150.56 113.226 132.933 106.629C115.306 100.033 107.24 81.7451 107.24 81.7451Z" fill="#E76844"/>
<path d="M141.975 70.2416C140.739 70.7134 139.481 70.8499 138.244 70.5969C132.337 69.3844 127.812 60.9613 128.369 52.0864L140.181 57.4623L141.975 70.2416Z" fill="#E76844"/>
<path d="M127.745 51.7367C127.745 51.7367 119.103 44.4437 120.362 32.2265C121.622 20.0093 127.079 17.4799 130.857 18.3231C130.857 18.3231 132.118 13.2663 137.575 12.8468C143.032 12.4252 171.581 18.3231 171.161 30.1207C170.74 41.9184 157.726 43.1811 157.726 43.1811L127.745 51.7387V51.7367Z" fill="#47404A"/>
<path d="M158.611 48.2153C156.28 59.2843 147.951 67.8881 139.803 66.2059C130.782 64.345 123.648 52.3647 125.979 41.2977C128.309 30.2288 136.007 23.532 148.241 26.1256C162.715 29.1949 160.941 37.1484 158.611 48.2153Z" fill="#F3AA97"/>
<path d="M155.625 29.1704C155.625 29.1704 164.441 29.1704 165.701 33.91C166.961 38.6495 159.544 42.9675 159.544 42.9675L155.625 29.1704Z" fill="#121414"/>
<path d="M158.145 28.153C158.145 28.153 142.577 41.4944 126.204 39.9506L126.1 28.0125L144.991 21.9741L158.145 28.153Z" fill="#47404A"/>
<path d="M139.592 45.4025C139.342 46.5146 139.835 47.5725 140.689 47.7652C141.543 47.9579 142.439 47.2132 142.689 46.1031C142.939 44.991 142.447 43.933 141.593 43.7403C140.739 43.5476 139.843 44.2924 139.592 45.4025Z" fill="#121414"/>
<path d="M153.395 48.3287C153.145 49.4409 153.637 50.4988 154.491 50.6915C155.346 50.8842 156.242 50.1395 156.492 49.0293C156.742 47.9172 156.25 46.8593 155.396 46.6666C154.541 46.4739 153.645 47.2186 153.395 48.3287Z" fill="#121414"/>
<path d="M148.356 55.1481C147.424 55.1481 146.322 54.9133 145.192 54.1585C144.97 54.0099 144.91 53.7088 145.058 53.486C145.206 53.2631 145.506 53.2029 145.728 53.3515C147.656 54.6382 149.501 54.0962 150.201 53.8072L149.269 47.9816C149.226 47.7166 149.407 47.4677 149.669 47.4255C149.933 47.3834 150.181 47.5641 150.223 47.827L151.265 54.3411L150.977 54.5077C150.907 54.5479 149.845 55.1461 148.356 55.1461V55.1481Z" fill="#E76844"/>
<path d="M145.297 40.0624C144.925 41.5861 139.828 40.5041 137.605 41.1565C137.745 40.755 140.69 37.8904 143.949 38.6813C145.299 39.0085 145.299 40.0624 145.299 40.0624H145.297Z" fill="#47404A"/>
<path d="M154.102 43.2847C153.71 44.4209 156.888 45.0111 158.05 46.3601C158.126 46.0429 157.698 43.5497 155.272 42.6965C154.266 42.3432 154.104 43.2847 154.104 43.2847H154.102Z" fill="#47404A"/>
<path d="M144.991 59.8173C144.991 59.8173 144.977 59.8173 144.971 59.8173C137.734 59.5262 135.323 53.1024 135.299 53.0382C135.207 52.7873 135.337 52.5082 135.589 52.4159C135.841 52.3236 136.117 52.454 136.209 52.707C136.301 52.9559 138.44 58.5847 145.011 58.8477C145.277 58.8577 145.485 59.0846 145.475 59.3516C145.465 59.6125 145.251 59.8173 144.993 59.8173H144.991Z" fill="#E76844"/>
<path d="M119.757 47.323C119.757 47.323 123.348 53.4095 127.743 51.7373C132.138 50.0652 128.791 41.0177 125.518 39.4398C122.248 37.86 116.039 39.4358 119.757 47.325V47.323Z" fill="#F3AA97"/>
<path d="M126.79 47.6102C126.662 47.6102 126.534 47.56 126.44 47.4596L122.276 43.0553C122.091 42.8606 122.099 42.5534 122.294 42.3688C122.488 42.1841 122.794 42.1921 122.978 42.3868L127.142 46.7911C127.326 46.9859 127.318 47.293 127.124 47.4777C127.03 47.566 126.91 47.6102 126.792 47.6102H126.79Z" fill="#E76844"/>
<path d="M123.076 46.8219C122.888 46.8219 122.708 46.7095 122.63 46.5248C122.526 46.2779 122.642 45.9928 122.888 45.8884L125.026 44.9851C125.272 44.8807 125.556 44.9971 125.661 45.244C125.765 45.4909 125.648 45.776 125.402 45.8804L123.264 46.7837C123.202 46.8098 123.14 46.8219 123.076 46.8219Z" fill="#E76844"/>
<path d="M180.137 115.625L162.512 118.923C162.512 118.923 163.86 152.391 162.412 158.498C161.416 162.695 156.835 165.293 156.835 165.293C154.46 167.078 150.844 167.694 147.113 168.346C146.817 168.4 146.517 168.447 146.215 168.493C140.478 169.372 133.895 169.229 128.304 168.794C128.026 168.772 127.752 168.75 127.482 168.728C126.301 168.629 125.173 168.515 124.111 168.402C123.803 168.368 123.499 168.332 123.203 168.298C118.674 167.772 115.609 167.194 115.609 167.194C115.609 167.194 110.232 164.498 108.738 159.102C107.244 153.704 108.64 117.727 108.64 117.727L105.152 127.619L83.3457 121.623C89.3188 98.837 94.7957 85.3471 98.0823 82.9482C99.1885 82.1412 102.191 80.6978 105.692 79.1421C107.874 82.5226 127.858 109.035 173.37 97.4739C175.36 102.003 180.141 115.629 180.141 115.629L180.137 115.625Z" fill="#E0F3FF"/>
<path d="M108.436 125.525C108.27 125.525 108.134 125.392 108.13 125.223L107.832 111.432C107.828 111.262 107.962 111.121 108.132 111.117C108.306 111.117 108.442 111.248 108.446 111.418L108.744 125.209C108.748 125.38 108.614 125.52 108.444 125.525C108.442 125.525 108.44 125.525 108.438 125.525H108.436Z" fill="#D40C51"/>
<path d="M98.5785 106.937C96.8782 106.937 95.834 103.58 95.834 101.175C95.834 100.115 96.018 99.2081 96.3641 98.5537C96.7882 97.7527 97.4503 97.3271 98.2804 97.3271C99.9467 97.3271 100.983 99.0415 100.983 101.8C100.983 104.325 100.085 106.937 98.5785 106.937ZM98.2804 97.9434C97.6743 97.9434 97.2242 98.2365 96.9042 98.8428C96.6041 99.4109 96.4461 100.218 96.4461 101.177C96.4461 103.727 97.5223 106.324 98.5785 106.324C99.0206 106.324 99.4706 105.837 99.8127 104.985C100.167 104.108 100.369 102.948 100.369 101.804C100.369 99.9388 99.8207 97.9474 98.2804 97.9474V97.9434Z" fill="#D40C51"/>
<path d="M118.896 125.919C118.666 125.919 118.436 125.882 118.206 125.812C116.573 125.308 116.059 123.415 116.83 120.749C117.744 117.59 120.196 114.462 122.258 115.028C122.617 115.127 123.091 115.44 123.327 116.377C123.881 118.589 122.759 123.194 120.806 125.055C120.206 125.627 119.556 125.919 118.896 125.919ZM121.75 115.576C120.156 115.576 118.178 118.296 117.418 120.922C117.168 121.785 116.501 124.644 118.384 125.224C119.062 125.433 119.734 125.226 120.382 124.608C122.168 122.905 123.237 118.541 122.731 116.526C122.641 116.168 122.459 115.719 122.096 115.62C121.982 115.59 121.866 115.574 121.748 115.574L121.75 115.576Z" fill="#D40C51"/>
<path d="M156.986 110.354C155.48 110.354 153.445 109.431 152.215 108.218C150.731 106.755 150.589 105.117 151.825 103.73C152.089 103.433 152.597 103.125 153.515 103.346C155.482 103.824 158.274 106.504 158.76 108.379C158.968 109.186 158.7 109.646 158.438 109.89C158.09 110.214 157.58 110.356 156.988 110.356L156.986 110.354ZM152.283 104.139C150.999 105.582 151.771 106.915 152.647 107.779C154.236 109.346 157.148 110.246 158.022 109.437C158.224 109.248 158.274 108.945 158.168 108.533C157.744 106.893 155.1 104.364 153.373 103.944C152.873 103.824 152.507 103.888 152.285 104.139H152.283Z" fill="#D40C51"/>
<path d="M144.084 129.508C144.002 129.508 143.914 129.5 143.82 129.484C142.342 129.233 140.137 126.951 139.529 125.044C139.217 124.062 139.341 123.251 139.889 122.701C140.225 122.364 141.002 121.978 142.412 123.205C144.062 124.642 145.888 127.82 144.932 129.099C144.786 129.293 144.526 129.506 144.084 129.506V129.508ZM140.321 123.139C139.941 123.52 139.871 124.098 140.111 124.859C140.686 126.664 142.778 128.685 143.92 128.88C144.246 128.936 144.372 128.824 144.44 128.733C145.038 127.934 143.698 125.144 142.008 123.675C141.65 123.364 140.772 122.689 140.321 123.141V123.139Z" fill="#D40C51"/>
<path d="M139.27 157.361C138.73 157.361 138.11 157.128 137.437 156.667C135.829 155.563 134.029 153.15 134.201 151.807C134.251 151.419 134.471 151.136 134.821 151.01C136.935 150.253 139.638 152.666 140.498 154.593C141.028 155.781 140.866 156.719 140.05 157.166C139.814 157.295 139.552 157.359 139.268 157.359L139.27 157.361ZM135.029 151.592C134.935 151.626 134.837 151.686 134.811 151.887C134.695 152.782 136.117 155.015 137.786 156.159C138.254 156.48 139.134 156.97 139.76 156.626C140.444 156.253 140.168 155.35 139.942 154.846C139.182 153.146 136.731 150.982 135.031 151.59L135.029 151.592Z" fill="#D40C51"/>
<path d="M153.619 150.248C153.509 150.248 153.407 150.223 153.313 150.177C152.377 149.708 152.801 147.319 153.399 145.773C154.267 143.535 155.584 142.427 156.92 142.81C157.42 142.953 157.734 143.304 157.83 143.822C158.136 145.478 156.006 148.746 154.553 149.842C154.197 150.111 153.883 150.248 153.617 150.248H153.619ZM156.392 143.35C155.106 143.35 154.227 145.339 153.971 145.996C153.243 147.877 153.287 149.475 153.587 149.625C153.623 149.643 153.811 149.631 154.185 149.35C155.488 148.367 157.484 145.317 157.228 143.934C157.174 143.645 157.028 143.481 156.752 143.402C156.628 143.366 156.508 143.35 156.392 143.35Z" fill="#D40C51"/>
<path d="M118.283 156.237C118.157 156.237 118.039 156.223 117.933 156.199C116.811 155.958 116.313 154.81 116.567 153.052C116.891 150.811 118.563 147.654 120.45 147.798C120.712 147.818 121.074 147.959 121.31 148.515C121.908 149.926 121.31 153.626 119.908 155.334C119.323 156.043 118.743 156.237 118.285 156.237H118.283ZM120.322 148.409C118.987 148.409 117.489 150.966 117.173 153.14C117.077 153.8 116.973 155.364 118.061 155.599C118.529 155.699 118.991 155.481 119.431 154.945C120.684 153.421 121.274 150.01 120.744 148.758C120.604 148.429 120.452 148.417 120.402 148.415C120.376 148.413 120.348 148.411 120.322 148.411V148.409Z" fill="#D40C51"/>
<path d="M134.131 130.914L84.7379 152.999L84.2838 158.146C83.9197 162.266 86.7142 165.993 90.7569 166.786L92.5973 167.148C94.7057 167.561 96.89 167.11 98.6664 165.897L138.912 138.411L134.131 130.916V130.914Z" fill="#F3AA97"/>
<path d="M134.131 130.912C134.131 130.912 143.991 123.416 148.472 123.717C152.952 124.016 161.02 128.515 161.616 130.314C162.214 132.112 154.745 130.613 154.745 130.613C154.745 130.613 155.043 133.012 154.447 135.109C153.849 137.207 150.264 139.606 150.264 139.606L138.912 138.408C138.912 138.408 133.235 136.908 134.131 130.912Z" fill="#F3AA97"/>
<path d="M154.743 131.099C154.659 131.099 154.573 131.077 154.495 131.03L150.678 128.732C150.45 128.593 150.374 128.296 150.512 128.065C150.65 127.835 150.946 127.76 151.176 127.899L154.993 130.197C155.221 130.336 155.297 130.633 155.159 130.864C155.069 131.016 154.909 131.099 154.745 131.099H154.743Z" fill="#E76844"/>
<path d="M153.05 137.695C152.808 137.695 152.6 137.514 152.57 137.267L152.098 133.29L148.895 131.116C148.673 130.966 148.615 130.665 148.765 130.442C148.915 130.219 149.215 130.163 149.437 130.311L153.006 132.734L153.53 137.153C153.562 137.42 153.372 137.66 153.108 137.693C153.088 137.695 153.07 137.697 153.05 137.697V137.695Z" fill="#E76844"/>
<path d="M151.159 139.292C150.933 139.292 150.731 139.134 150.685 138.903L150.039 135.665L146.202 134.163C145.954 134.065 145.83 133.784 145.928 133.535C146.026 133.286 146.306 133.161 146.554 133.26L150.883 134.956L151.631 138.714C151.683 138.977 151.513 139.232 151.251 139.284C151.219 139.29 151.187 139.294 151.155 139.294L151.159 139.292Z" fill="#E76844"/>
<path d="M175.327 129.739C175.297 129.843 175.259 129.948 175.225 130.056L172.303 125.292C173.351 125.618 174.841 124.182 177.182 122.191C179.524 120.21 181.792 122.707 181.792 122.707C181.792 122.707 176.345 126.451 175.327 129.741V129.739Z" fill="#E76844"/>
<path d="M168.101 140.641H156.613C155.809 140.641 155.361 139.543 155.749 138.523L164.123 116.542C164.351 115.944 164.811 115.55 165.283 115.55H176.771C177.575 115.55 178.023 116.648 177.635 117.668L169.262 139.649C169.034 140.248 168.573 140.641 168.101 140.641Z" fill="#47404A"/>
<path d="M169.695 140.641H158.207C157.403 140.641 156.955 139.543 157.343 138.523L165.716 116.542C165.944 115.944 166.405 115.55 166.877 115.55H178.365C179.169 115.55 179.617 116.648 179.229 117.668L170.855 139.649C170.627 140.248 170.167 140.641 169.695 140.641Z" fill="#D40C51"/>
<path d="M166.729 119.491H169.928C170.158 119.491 170.43 119.262 170.534 118.981L171.076 117.504C171.18 117.22 171.076 116.994 170.846 116.994H167.648C167.418 116.994 167.145 117.223 167.041 117.504L166.499 118.981C166.395 119.264 166.499 119.491 166.729 119.491Z" fill="#47404A"/>
<path d="M168.378 118.224C168.24 118.601 167.876 118.908 167.566 118.908C167.256 118.908 167.118 118.601 167.258 118.224C167.398 117.846 167.76 117.539 168.07 117.539C168.38 117.539 168.518 117.846 168.378 118.224Z" fill="#121414"/>
<path d="M169.502 117.918C169.426 118.127 169.224 118.298 169.054 118.298C168.884 118.298 168.806 118.129 168.884 117.918C168.962 117.708 169.162 117.539 169.332 117.539C169.502 117.539 169.58 117.708 169.502 117.918Z" fill="#121414"/>
<path d="M170.512 117.918C170.436 118.127 170.234 118.298 170.064 118.298C169.894 118.298 169.816 118.129 169.894 117.918C169.972 117.708 170.172 117.539 170.342 117.539C170.512 117.539 170.59 117.708 170.512 117.918Z" fill="#121414"/>
<path d="M178.407 128.498C178.722 127.296 177.669 126.077 176.303 125.935L170.394 125.312C170.394 125.312 166.657 124.766 166.513 125.975C166.369 127.183 167.6 127.533 169.576 128.201C171.552 128.87 176.065 130.052 176.065 130.052C176.065 130.052 177.983 129.998 178.395 128.542C178.399 128.528 178.403 128.514 178.407 128.498Z" fill="#F3AA97"/>
<path d="M176.27 135.865C176.866 134.827 176.154 133.4 174.88 132.892L169.363 130.696C169.363 130.696 165.912 129.164 165.478 130.254C165.044 131.344 166.138 132.009 167.87 133.173C169.603 134.337 173.643 136.678 173.643 136.678C173.643 136.678 175.498 137.15 176.25 135.903C176.258 135.891 176.264 135.879 176.272 135.865H176.27Z" fill="#F3AA97"/>
<path d="M174.119 138.672C174.751 137.843 174.285 136.52 173.229 135.926L168.656 133.352C168.656 133.352 165.811 131.606 165.315 132.499C164.819 133.392 165.701 134.101 167.086 135.321C168.47 136.542 171.74 139.061 171.74 139.061C171.74 139.061 173.307 139.696 174.097 138.704C174.105 138.694 174.113 138.684 174.121 138.674L174.119 138.672Z" fill="#F3AA97"/>
<path d="M177.628 132.535C178.142 131.327 177.17 129.859 175.702 129.468L169.353 127.767C169.353 127.767 165.36 126.533 165.03 127.777C164.7 129.022 165.99 129.608 168.046 130.66C170.105 131.712 174.852 133.754 174.852 133.754C174.852 133.754 176.95 134.035 177.608 132.577C177.614 132.563 177.62 132.547 177.628 132.533V132.535Z" fill="#F3AA97"/>
<path d="M187.865 54.7642C185.263 54.7642 183.152 56.882 183.152 59.4937V104.966L197.575 97.5525H231.489C234.091 97.5525 236.202 95.4347 236.202 92.823V59.4937C236.202 56.882 234.091 54.7642 231.489 54.7642H187.863H187.865Z" fill="white"/>
<path d="M182.838 105.485V59.4944C182.838 56.7121 185.094 54.4497 187.865 54.4497H231.491C234.263 54.4497 236.517 56.7141 236.517 59.4944V92.8237C236.517 95.606 234.261 97.8684 231.491 97.8684H197.653L182.838 105.483V105.485ZM187.865 55.082C185.44 55.082 183.468 57.0614 183.468 59.4944V104.449L197.501 97.236H231.491C233.915 97.236 235.887 95.2567 235.887 92.8237V59.4944C235.887 57.0614 233.915 55.082 231.491 55.082H187.865Z" fill="#FFC2D1"/>
<path d="M208.379 69.3434C209.657 68.9202 210.572 67.7784 210.572 66.4362C210.572 64.7337 209.1 63.3535 207.283 63.3535C205.467 63.3535 203.995 64.7337 203.995 66.4362C203.995 67.7784 204.91 68.9202 206.187 69.3434V70.1566H205.529L205.266 71.007C206.166 74.9316 203.536 76.2847 202.468 77.9329C201.454 79.4989 200.268 81.3312 200.268 85.8887L201.232 87.5895H213.334L214.299 85.8887C214.299 81.3312 213.112 79.4989 212.098 77.9329C211.031 76.2847 208.401 74.9316 209.3 71.007L209.037 70.1566H208.379V69.3434Z" fill="#F5809D"/>
<path d="M224.025 74.1446C224.953 73.8327 225.619 72.9914 225.619 72.0024C225.619 70.7479 224.548 69.731 223.227 69.731C221.906 69.731 220.836 70.7479 220.836 72.0024C220.836 72.9914 221.501 73.8327 222.43 74.1446V74.7438H221.952L221.76 75.3704C222.415 78.2622 220.502 79.2592 219.725 80.4736C218.988 81.6275 218.125 82.9777 218.125 86.3359L218.827 87.5891H227.628L228.33 86.3359C228.33 82.9777 227.467 81.6275 226.729 80.4737C225.953 79.2592 224.04 78.2622 224.694 75.3704L224.503 74.7438H224.025V74.1446Z" fill="#F5809D"/>
<path d="M178.136 127.86L183.015 150.596C183.217 152.617 182.407 154.607 180.853 155.908C177.82 158.443 173.223 157.463 171.481 153.908L170.541 151.993L172.861 136.751L178.134 127.86H178.136Z" fill="#F3AA97"/>
<path d="M124.11 168.398C123.802 168.364 123.498 168.328 123.202 168.294C121.358 165.981 120.998 162.386 120.98 162.223C120.964 162.053 121.088 161.904 121.258 161.888C121.428 161.87 121.576 161.996 121.592 162.163C121.596 162.203 122.008 166.276 124.092 168.372C124.102 168.382 124.108 168.388 124.11 168.398Z" fill="#D40C51"/>
<path d="M149.671 161.484C149.309 164.238 148.435 166.577 147.113 168.346C146.817 168.4 146.517 168.446 146.215 168.492C149.984 164.106 149.169 156.815 149.159 156.735C149.141 156.566 149.259 156.411 149.427 156.393C149.597 156.375 149.749 156.494 149.767 156.662C149.779 156.751 150.02 158.83 149.669 161.486L149.671 161.484Z" fill="#D40C51"/>
<path d="M128.303 168.792C128.025 168.77 127.751 168.748 127.48 168.725C124.722 164.723 124.854 154.748 124.86 154.294C124.864 154.123 125.002 153.981 125.172 153.993C125.342 153.993 125.478 154.135 125.474 154.302C125.47 154.416 125.326 165.363 128.303 168.79V168.792Z" fill="#D40C51"/>
</svg>
