<svg width="300" height="196" viewBox="0 0 300 196" fill="none" xmlns="http://www.w3.org/2000/svg">
<path d="M265.7 125.865C265.504 126.012 265.308 126.157 265.11 126.299C257.745 131.711 249.453 136.833 240.468 141.647C240.364 141.703 240.254 141.763 240.146 141.82C239.902 141.952 239.654 142.083 239.409 142.214C233.598 145.295 227.503 148.246 221.188 151.062C219.764 151.702 218.324 152.329 216.875 152.954C211.843 155.117 206.682 157.193 201.429 159.183C189.449 163.722 176.978 167.797 164.374 171.373C159.781 172.676 155.174 173.91 150.566 175.076C147.067 175.964 143.566 176.808 140.074 177.617C138.806 177.908 137.537 178.195 136.273 178.477C136.043 178.525 135.815 178.575 135.589 178.628C128.408 180.218 121.28 181.633 114.263 182.867C109.102 183.776 104.005 184.586 98.9965 185.299C91.6072 186.349 84.4079 187.177 77.4927 187.778C76.6165 187.854 75.7424 187.925 74.8762 187.995C74.8102 187.999 74.7442 188.005 74.6802 188.009C74.5121 188.023 74.3441 188.037 74.1781 188.051C67.7169 188.55 61.5218 188.841 55.6608 188.918C53.5584 188.946 51.502 188.946 49.4897 188.918L48.7676 188.908C44.4588 188.833 40.3641 188.63 36.5234 188.292H36.5194C35.7832 188.226 35.0531 188.156 34.333 188.079H34.327C24.3732 187.048 16.2298 185.068 10.5287 182.067C10.2487 181.92 9.97265 181.772 9.7086 181.621C6.314 179.693 3.87556 177.371 2.54133 174.637C-5.00202 159.173 4.78973 139.478 24.7353 119.505C24.9073 119.332 25.0813 119.161 25.2514 118.988C29.4221 114.848 34.0289 110.695 39.0018 106.572C39.2039 106.399 39.4099 106.232 39.6139 106.067C53.2143 94.8566 69.5232 83.845 87.2664 73.7339C87.5184 73.5892 87.7685 73.4464 88.0205 73.3057C97.1042 68.1497 106.558 63.2369 116.212 58.6537C116.432 58.5492 116.652 58.4427 116.872 58.3422C119.32 57.1843 121.783 56.0466 124.255 54.935C127.107 53.6424 129.98 52.3861 132.857 51.1659C134.149 50.6151 135.445 50.0704 136.739 49.5377C138.56 48.7839 140.382 48.0462 142.204 47.3205C147.229 45.3244 152.262 43.4349 157.285 41.67C165.432 38.8035 173.55 36.2506 181.547 34.0676C181.787 34.0012 182.025 33.9369 182.263 33.8746C182.909 33.6997 183.552 33.5268 184.198 33.358C184.844 33.1851 185.486 33.0183 186.13 32.8534C190.157 31.8182 194.149 30.8815 198.092 30.0493C200.202 29.603 202.301 29.1889 204.379 28.803C210.128 27.7396 215.751 26.9154 221.212 26.3466C221.732 26.2943 222.25 26.242 222.763 26.1918C223.737 26.0973 224.707 26.0129 225.671 25.9385C225.817 25.9244 225.961 25.9144 226.107 25.9043C227.231 25.8159 228.35 25.7435 229.46 25.6792C229.88 25.6591 230.294 25.637 230.71 25.6169C231.144 25.5928 231.576 25.5747 232.01 25.5566C235.175 25.4299 238.265 25.4018 241.28 25.4822C250.625 25.7234 259.221 26.9818 266.792 29.396C267.016 29.4663 267.236 29.5367 267.456 29.6111C281.039 34.0997 291.251 42.3936 296.512 55.3651C296.676 55.7651 296.836 56.1752 296.986 56.5873C297.488 57.9321 297.94 59.3211 298.338 60.7644C305.043 85.1033 290.921 107.173 265.7 125.875V125.865Z" fill="#FFC2D1"/>
<g opacity="0.66">
<path d="M199.34 140.887C197.14 140.887 195.352 142.686 195.352 144.895C195.352 147.105 197.142 148.904 199.34 148.904C201.539 148.904 203.329 147.105 203.329 144.895C203.329 142.686 201.539 140.887 199.34 140.887ZM199.34 148.202C197.526 148.202 196.05 146.719 196.05 144.895C196.05 143.072 197.526 141.589 199.34 141.589C201.155 141.589 202.631 143.072 202.631 144.895C202.631 146.719 201.155 148.202 199.34 148.202Z" fill="white"/>
<path d="M37.9418 137.86C40.1422 137.86 41.9305 136.061 41.9305 133.852C41.9305 131.642 40.1402 129.843 37.9418 129.843C35.7434 129.843 33.9531 131.642 33.9531 133.852C33.9531 136.061 35.7434 137.86 37.9418 137.86ZM37.9418 130.545C39.7562 130.545 41.2324 132.028 41.2324 133.852C41.2324 135.675 39.7562 137.158 37.9418 137.158C36.1275 137.158 34.6513 135.675 34.6513 133.852C34.6513 132.028 36.1275 130.545 37.9418 130.545Z" fill="white"/>
<path d="M275.502 84.1821C273.302 84.1821 271.514 85.9812 271.514 88.1904C271.514 90.3995 273.304 92.1986 275.502 92.1986C277.701 92.1986 279.491 90.3995 279.491 88.1904C279.491 85.9812 277.701 84.1821 275.502 84.1821ZM275.502 91.4971C273.688 91.4971 272.212 90.0136 272.212 88.1904C272.212 86.3672 273.688 84.8837 275.502 84.8837C277.317 84.8837 278.793 86.3672 278.793 88.1904C278.793 90.0136 277.317 91.4971 275.502 91.4971Z" fill="white"/>
<path d="M259.794 49.5372C253.015 64.0485 243.003 78.3467 232.319 88.7613C210.533 110.005 192.434 110.36 181.088 106.917C158.686 100.123 137.544 101.204 119.947 110.045C103.228 118.447 90.3561 133.381 82.7207 153.235C79.3261 162.066 73.3011 169.547 64.8075 175.483C58.0003 180.243 49.6048 184.018 39.8471 186.71C37.9828 187.227 36.1344 187.679 34.3281 188.083C35.0483 188.159 35.7784 188.23 36.5145 188.298H36.5185C37.6747 188.017 38.8409 187.719 40.0171 187.393C49.8529 184.68 58.3244 180.869 65.2016 176.068C73.8112 170.052 79.9262 162.454 83.3729 153.49C90.9402 133.801 103.696 118.998 120.261 110.676C137.693 101.916 158.654 100.848 180.884 107.594C184.709 108.752 188.464 109.273 192.122 109.273C208.453 109.273 222.87 98.9548 232.803 89.2719C243.547 78.799 253.611 64.4264 260.426 49.8408C263.859 42.4836 266.247 35.5385 267.454 29.6106C267.234 29.5362 267.014 29.4659 266.789 29.3955C265.605 35.2712 263.227 42.1921 259.794 49.5413V49.5372Z" fill="white"/>
<path d="M212.161 129.222C208.608 127.906 204.979 126.657 201.323 125.506C195.91 123.799 190.437 122.305 185.058 121.107C185.038 121.101 185.016 121.097 184.998 121.093C184.554 120.995 184.114 120.9 183.671 120.806C183.087 120.679 182.505 120.561 181.925 120.444C181.245 120.303 180.563 120.171 179.885 120.044C179.355 119.946 178.827 119.847 178.298 119.757C175.952 119.343 173.64 118.999 171.373 118.727C170.179 118.583 168.999 118.46 167.835 118.362C167.479 118.329 167.126 118.301 166.772 118.277C166.548 118.259 166.326 118.243 166.102 118.229C165.986 118.223 165.876 118.215 165.764 118.209C165.684 118.203 165.604 118.199 165.524 118.191C165.05 118.163 164.578 118.138 164.11 118.116C161.497 117.998 158.979 118.004 156.581 118.144C150.57 118.502 145.287 119.716 141.112 122.016C140.476 122.368 139.866 122.742 139.282 123.15C138.775 123.502 138.289 123.869 137.821 124.261C134.413 127.114 132.026 131.056 130.696 136.033C130.312 137.454 130.018 138.96 129.81 140.55C129.244 144.845 129.304 149.752 129.988 155.22C130.17 156.693 130.396 158.211 130.676 159.765C130.708 159.954 130.738 160.145 130.778 160.338C130.778 160.338 130.774 160.338 130.778 160.342C131.12 162.233 131.532 164.181 132.008 166.185C133.038 170.513 134.289 174.734 135.585 178.626C135.811 178.574 136.039 178.523 136.269 178.475C134.973 174.583 133.719 170.354 132.688 166.02C132.23 164.093 131.832 162.219 131.498 160.398V160.394C131.17 158.615 130.9 156.884 130.694 155.21C130.006 149.77 129.94 144.898 130.502 140.644C130.746 138.785 131.114 137.04 131.594 135.418C132.91 131.013 135.107 127.494 138.163 124.893C138.637 124.484 139.138 124.099 139.658 123.741C140.228 123.341 140.824 122.973 141.446 122.629C145.563 120.358 151.062 119.095 157.687 118.814H157.691C159.643 118.733 161.694 118.733 163.838 118.824C164.386 118.844 164.938 118.872 165.5 118.908C165.752 118.922 166.006 118.936 166.262 118.955C166.308 118.959 166.356 118.961 166.406 118.965C166.532 118.975 166.654 118.983 166.78 118.993C167.137 119.017 167.497 119.049 167.857 119.081C168.769 119.156 169.691 119.246 170.629 119.351C171.447 119.445 172.273 119.548 173.112 119.66C173.748 119.745 174.39 119.835 175.036 119.933C176.028 120.08 177.034 120.245 178.05 120.424C178.575 120.514 179.103 120.611 179.633 120.707C180.269 120.824 180.907 120.949 181.551 121.079C182.239 121.212 182.933 121.357 183.635 121.511C184.142 121.616 184.652 121.729 185.162 121.845C185.182 121.849 185.2 121.851 185.222 121.859C190.301 122.999 195.65 124.452 201.221 126.215C202.335 126.567 203.459 126.931 204.591 127.311C207.228 128.187 209.854 129.118 212.443 130.087C215.541 131.241 218.586 132.453 221.548 133.701C228.047 136.435 234.132 139.342 239.409 142.212C239.653 142.081 239.901 141.953 240.145 141.818C234.711 138.831 228.383 135.792 221.562 132.929C218.518 131.651 215.369 130.406 212.165 129.22L212.161 129.222Z" fill="white"/>
<path d="M149.595 85.1778C169.864 85.1778 188.956 82.0159 202.108 76.3412C213.588 71.3862 220.437 64.622 221.914 56.7824C222.786 52.143 221.666 48.0584 218.579 44.6431C213.298 38.7956 202.412 34.8517 186.127 32.8516C185.485 33.0164 184.841 33.1852 184.195 33.3561C201.2 35.2758 212.782 39.27 218.061 45.1135C220.992 48.3599 222.056 52.2415 221.226 56.6538C219.797 64.2521 213.088 70.8394 201.832 75.6959C186.497 82.3154 163.013 85.4914 139.019 84.1888C119.433 83.1295 101.512 79.2579 88.0139 73.3059C87.7619 73.4466 87.5118 73.5893 87.2598 73.734C100.894 79.8409 119.091 83.8109 138.981 84.8904C142.54 85.0834 146.08 85.1778 149.595 85.1778Z" fill="white"/>
<path d="M59.086 139.782C60.7383 130.758 59.202 123.055 54.5212 116.874C50.5004 111.575 44.7034 108.18 39.6085 106.063C39.4065 106.228 39.2004 106.397 38.9964 106.568C44.0853 108.638 49.9463 111.997 53.9611 117.296C58.5219 123.313 60.0141 130.833 58.3958 139.653C57.0016 147.258 52.7768 154.446 45.8376 161.013C40.2626 166.282 32.9433 171.166 24.0797 175.524C19.0568 177.995 14.094 180.017 9.70117 181.617C9.96722 181.768 10.2433 181.915 10.5213 182.063C14.7861 180.491 19.5529 178.533 24.3718 176.159C33.3054 171.769 40.6847 166.844 46.3077 161.528C53.3629 154.856 57.6577 147.539 59.084 139.778L59.086 139.782Z" fill="white"/>
</g>
<path d="M36.3234 85.8507C35.7532 83.7124 37.0233 81.5126 39.1602 80.9372L61.6598 74.8789C63.7966 74.3035 65.9911 75.5705 66.5613 77.7088L70.9784 94.2742C71.5485 96.4125 70.2784 98.6123 68.1415 99.1877L41.7728 106.288L36.3234 85.8507Z" fill="#FFC77B"/>
<path d="M54.025 90.5927L54.4807 92.3017L46.5534 94.4363L46.0947 93.1414L48.7401 84.6241L50.4706 84.1582L49.4333 87.801L48.1532 92.1738L54.025 90.5927ZM50.9392 84.032L53.8749 95.0422L51.6985 95.6282L48.7627 84.618L50.9392 84.032ZM54.4272 88.2131L54.3107 87.7764C54.2271 87.4625 54.219 87.1588 54.2864 86.865C54.3539 86.5713 54.4992 86.3113 54.7224 86.0851C54.9455 85.8588 55.2498 85.6938 55.6352 85.59C56.032 85.4832 56.3832 85.4717 56.6891 85.5555C56.9987 85.6383 57.2539 85.7904 57.4547 86.0119C57.6593 86.2324 57.8034 86.4996 57.8871 86.8134L58.0035 87.2501C58.0852 87.5563 58.0923 87.8563 58.0248 88.1501C57.9611 88.4428 57.8177 88.7023 57.5945 88.9285C57.3714 89.1547 57.0652 89.3203 56.676 89.425C56.2831 89.5309 55.9318 89.5424 55.6222 89.4596C55.3163 89.3758 55.0611 89.2236 54.8565 89.0032C54.652 88.7827 54.5088 88.5193 54.4272 88.2131ZM55.3933 87.4849L55.5097 87.9216C55.545 88.0539 55.6033 88.174 55.6847 88.2817C55.7689 88.3847 55.8739 88.4597 55.9999 88.5069C56.1286 88.5492 56.2704 88.5495 56.4254 88.5078C56.5878 88.4641 56.7105 88.3925 56.7934 88.2932C56.8752 88.1901 56.9251 88.0734 56.943 87.9429C56.9598 87.8087 56.9506 87.6754 56.9153 87.5431L56.7989 87.1064C56.7616 86.9665 56.7008 86.8451 56.6167 86.7421C56.5353 86.6343 56.4321 86.5588 56.3072 86.5154C56.185 86.4673 56.0427 86.4651 55.8802 86.5088C55.7291 86.5495 55.6107 86.6219 55.525 86.726C55.4384 86.8264 55.3848 86.9441 55.3641 87.0794C55.3463 87.2098 55.356 87.345 55.3933 87.4849ZM59.6105 91.7958L59.494 91.3591C59.4114 91.0491 59.4038 90.7472 59.4712 90.4535C59.5425 90.1587 59.6897 89.8982 59.9128 89.672C60.1398 89.4447 60.4478 89.2787 60.837 89.1739C61.23 89.0681 61.5794 89.0571 61.8852 89.1409C62.191 89.2247 62.4463 89.3768 62.6508 89.5973C62.8554 89.8178 62.999 90.083 63.0817 90.3931L63.1982 90.8298C63.2808 91.1398 63.2884 91.4417 63.221 91.7354C63.1573 92.0282 63.0138 92.2876 62.7907 92.5139C62.5675 92.7401 62.2613 92.9056 61.8722 93.0104C61.4792 93.1162 61.1279 93.1277 60.8183 93.045C60.5087 92.9622 60.2497 92.8111 60.0413 92.5916C59.8368 92.3711 59.6931 92.1059 59.6105 91.7958ZM60.5822 91.0661L60.6987 91.5028C60.735 91.6389 60.7995 91.7593 60.8922 91.864C60.9849 91.9688 61.0937 92.0428 61.2187 92.0861C61.3474 92.1285 61.4836 92.1303 61.6272 92.0916C61.8085 92.0428 61.9407 91.9687 62.0235 91.8694C62.1064 91.7701 62.1506 91.6549 62.1561 91.5237C62.1654 91.3915 62.1519 91.2574 62.1156 91.1213L61.9992 90.6846C61.9629 90.5485 61.9027 90.4289 61.8185 90.3259C61.7333 90.2192 61.6283 90.1442 61.5033 90.1008C61.3811 90.0527 61.2407 90.0499 61.082 90.0927C60.9233 90.1354 60.8011 90.2088 60.7155 90.3129C60.6326 90.4122 60.5809 90.5295 60.5603 90.6647C60.5386 90.7962 60.5459 90.93 60.5822 91.0661ZM60.3457 85.7137L58.0369 93.2529L57.1315 93.0469L59.4403 85.5077L60.3457 85.7137Z" fill="white"/>
<path d="M60.4057 15.4064C60.8095 13.8924 62.3633 12.9953 63.8763 13.4027L87.0005 19.6292C88.5136 20.0366 89.4129 21.5942 89.0091 23.1082L84.9528 38.3207C84.5491 39.8348 82.9953 40.7319 81.4823 40.3245L55.6185 33.3603L60.4057 15.4064Z" fill="#F5809D"/>
<path d="M68.9026 20.9683L66.8196 28.7801L65.2786 28.3652L66.8876 22.3309L64.8792 22.4214L65.2033 21.206L68.7367 20.9236L68.9026 20.9683ZM75.8217 26.2917L75.462 27.641C75.3059 28.2264 75.1088 28.7147 74.8706 29.1058C74.6335 29.4934 74.361 29.7912 74.0532 29.9991C73.75 30.2043 73.4207 30.328 73.0654 30.3701C72.7101 30.4121 72.3362 30.3803 71.9439 30.2747C71.6299 30.1901 71.3479 30.0721 71.0977 29.9206C70.8485 29.7655 70.638 29.573 70.4661 29.343C70.2977 29.1141 70.1698 28.8482 70.0823 28.5453C69.9994 28.2399 69.9654 27.8941 69.9804 27.5079C69.9955 27.1217 70.0658 26.693 70.1915 26.2219L70.5512 24.8726C70.7073 24.2872 70.9035 23.8025 71.1397 23.4185C71.3804 23.0318 71.6524 22.7359 71.9557 22.5306C72.2625 22.3263 72.5931 22.2049 72.9474 22.1664C73.3027 22.1243 73.6766 22.1561 74.069 22.2618C74.3829 22.3463 74.6627 22.4657 74.9083 22.6198C75.1585 22.7713 75.37 22.9603 75.5428 23.1866C75.7157 23.413 75.8436 23.6789 75.9266 23.9843C76.0105 24.2862 76.0449 24.6302 76.0299 25.0164C76.0158 25.399 75.9464 25.8241 75.8217 26.2917ZM73.8613 27.4281L74.331 25.6665C74.4062 25.3845 74.4559 25.1339 74.4799 24.9147C74.5075 24.6964 74.5105 24.5059 74.4889 24.3432C74.4682 24.177 74.4257 24.0355 74.3613 23.9186C74.2968 23.8018 74.2132 23.7066 74.1105 23.6331C74.0078 23.5595 73.8869 23.504 73.7477 23.4665C73.5729 23.4194 73.4087 23.4116 73.2551 23.4429C73.105 23.4752 72.9636 23.5538 72.8309 23.6787C72.6991 23.8001 72.5754 23.9772 72.4598 24.2101C72.3487 24.4403 72.2466 24.7303 72.1533 25.0802L71.6836 26.8417C71.6084 27.1237 71.5565 27.3756 71.5279 27.5975C71.5029 27.8203 71.5003 28.0166 71.52 28.1864C71.5442 28.3536 71.5863 28.497 71.6462 28.6164C71.7107 28.7332 71.7942 28.8284 71.897 28.902C72.0033 28.9765 72.126 29.0325 72.2651 29.0699C72.4363 29.1161 72.597 29.123 72.747 29.0907C72.9016 29.0558 73.0453 28.9759 73.178 28.8509C73.3152 28.7234 73.4399 28.5427 73.5519 28.3089C73.664 28.0751 73.7671 27.7815 73.8613 27.4281ZM76.6753 26.7038L76.7578 26.3946C76.817 26.1724 76.9191 25.9832 77.0639 25.8271C77.2088 25.671 77.3895 25.5633 77.606 25.5039C77.8226 25.4446 78.0673 25.4517 78.3402 25.5251C78.6211 25.6008 78.8406 25.7187 78.9986 25.8789C79.1593 26.0398 79.2621 26.2239 79.3072 26.4311C79.355 26.6391 79.3493 26.8542 79.29 27.0764L79.2076 27.3856C79.1498 27.6025 79.0484 27.7889 78.9036 27.9451C78.7614 28.1019 78.582 28.21 78.3655 28.2693C78.1489 28.3286 77.9029 28.3212 77.6273 28.247C77.3491 28.1721 77.1296 28.0542 76.9689 27.8933C76.8109 27.7331 76.708 27.549 76.6603 27.341C76.6125 27.133 76.6175 26.9206 76.6753 26.7038ZM77.5243 26.601L77.4418 26.9102C77.4168 27.0039 77.4103 27.0982 77.4223 27.1933C77.4376 27.2863 77.4756 27.3697 77.5362 27.4434C77.6002 27.5152 77.6871 27.5659 77.7968 27.5954C77.9118 27.6264 78.0122 27.6261 78.098 27.5947C78.1845 27.5606 78.2562 27.5068 78.3132 27.4332C78.3708 27.3568 78.4121 27.2718 78.4371 27.1781L78.5195 26.8689C78.5459 26.7699 78.5515 26.6738 78.5361 26.5807C78.5242 26.4857 78.4876 26.4027 78.4262 26.3316C78.3683 26.2586 78.2818 26.2067 78.1667 26.1757C78.0597 26.1469 77.9616 26.1491 77.8724 26.1825C77.7839 26.2132 77.7096 26.2664 77.6493 26.3419C77.5923 26.4156 77.5507 26.5019 77.5243 26.601ZM78.5915 30.7447L78.6739 30.4355C78.7325 30.216 78.8342 30.0282 78.979 29.872C79.1265 29.7167 79.3086 29.6093 79.5251 29.55C79.7443 29.4913 79.9917 29.4991 80.2673 29.5733C80.5455 29.6482 80.7637 29.7658 80.9217 29.926C81.0797 30.0862 81.1826 30.2703 81.2303 30.4782C81.2781 30.6862 81.2727 30.9 81.2142 31.1195L81.1318 31.4287C81.0732 31.6482 80.9715 31.836 80.8267 31.9922C80.6845 32.149 80.5051 32.2571 80.2886 32.3164C80.072 32.3757 79.826 32.3683 79.5504 32.2941C79.2722 32.2192 79.0527 32.1013 78.892 31.9404C78.7313 31.7795 78.6258 31.5947 78.5753 31.386C78.5276 31.178 78.5329 30.9642 78.5915 30.7447ZM79.4444 30.643L79.362 30.9522C79.3363 31.0486 79.3334 31.1453 79.3534 31.2425C79.3733 31.3397 79.414 31.4238 79.4753 31.4949C79.5394 31.5666 79.6222 31.6162 79.7239 31.6436C79.8523 31.6782 79.9594 31.6797 80.0452 31.6483C80.131 31.6169 80.1987 31.562 80.2483 31.4835C80.3006 31.4058 80.3396 31.3187 80.3653 31.2223L80.4477 30.9131C80.4734 30.8167 80.4786 30.722 80.4633 30.6289C80.4486 30.5332 80.4107 30.4498 80.3493 30.3787C80.2914 30.3058 80.2062 30.2541 80.0938 30.2239C79.9815 30.1936 79.8807 30.1952 79.7915 30.2285C79.7057 30.26 79.6327 30.3135 79.5724 30.389C79.5128 30.462 79.4701 30.5466 79.4444 30.643ZM81.185 27.2768L77.1132 31.0784L76.6306 30.6299L80.7024 26.8283L81.185 27.2768Z" fill="white"/>
<path d="M181.77 3.31561C182.258 1.48445 184.138 0.399444 185.968 0.892182L208.586 6.98239C210.416 7.47513 211.504 9.35902 211.015 11.1902L207.141 25.7185C206.653 27.5497 204.774 28.6347 202.944 28.142L177.012 21.1596L181.77 3.31561Z" fill="#F5809D"/>
<path d="M189.856 7.48061L187.337 16.9288L185.473 16.427L187.419 9.12872L184.99 9.23814L185.382 7.76813L189.656 7.42659L189.856 7.48061ZM197.239 18.0333L196.85 19.4903L190.405 17.7548L190.736 16.5114L194.656 14.0619C195.053 13.8033 195.375 13.5683 195.621 13.3569C195.868 13.1412 196.058 12.9402 196.191 12.7538C196.329 12.5644 196.424 12.3747 196.475 12.1847C196.551 11.8998 196.568 11.6431 196.527 11.4146C196.488 11.1818 196.39 10.9843 196.235 10.8221C196.083 10.6611 195.874 10.5446 195.606 10.4725C195.322 10.3959 195.057 10.3987 194.813 10.4811C194.574 10.5647 194.367 10.715 194.194 10.932C194.025 11.1502 193.899 11.4147 193.816 11.7256L191.945 11.222C192.095 10.6607 192.366 10.183 192.758 9.78875C193.151 9.3902 193.628 9.11841 194.189 8.97338C194.751 8.82404 195.367 8.83939 196.035 9.01946C196.696 9.1972 197.223 9.45499 197.619 9.79282C198.02 10.1275 198.283 10.527 198.409 10.9912C198.54 11.4523 198.532 11.9591 198.385 12.5117C198.302 12.8226 198.171 13.1136 197.993 13.3847C197.815 13.6516 197.595 13.9068 197.331 14.1504C197.072 14.3909 196.774 14.6252 196.436 14.8534C196.098 15.0816 195.728 15.313 195.328 15.5477L193.201 16.9459L197.239 18.0333ZM199.257 14.4175L199.357 14.0436C199.429 13.7748 199.552 13.546 199.727 13.3572C199.902 13.1684 200.121 13.0381 200.383 12.9663C200.645 12.8946 200.941 12.9031 201.271 12.992C201.611 13.0835 201.876 13.2261 202.067 13.4198C202.261 13.6145 202.386 13.8371 202.44 14.0878C202.498 14.3393 202.491 14.5995 202.42 14.8682L202.32 15.2422C202.25 15.5045 202.127 15.73 201.952 15.9188C201.78 16.1085 201.563 16.2392 201.301 16.311C201.039 16.3827 200.742 16.3738 200.409 16.284C200.072 16.1934 199.807 16.0508 199.612 15.8562C199.421 15.6624 199.297 15.4398 199.239 15.1882C199.181 14.9367 199.187 14.6798 199.257 14.4175ZM200.284 14.2932L200.184 14.6671C200.154 14.7805 200.146 14.8946 200.161 15.0095C200.179 15.1221 200.225 15.223 200.298 15.3121C200.376 15.3989 200.481 15.4602 200.614 15.4959C200.753 15.5334 200.874 15.5331 200.978 15.4951C201.083 15.4539 201.169 15.3887 201.238 15.2997C201.308 15.2074 201.358 15.1046 201.388 14.9913L201.488 14.6173C201.52 14.4975 201.526 14.3813 201.508 14.2687C201.493 14.1538 201.449 14.0534 201.375 13.9674C201.305 13.8792 201.2 13.8163 201.061 13.7788C200.932 13.744 200.813 13.7467 200.705 13.7871C200.598 13.8242 200.508 13.8885 200.435 13.9799C200.366 14.0689 200.316 14.1734 200.284 14.2932ZM201.575 19.3049L201.674 18.9309C201.745 18.6654 201.868 18.4383 202.043 18.2494C202.222 18.0615 202.442 17.9316 202.704 17.8599C202.969 17.789 203.268 17.7984 203.602 17.8882C203.938 17.9788 204.202 18.1209 204.393 18.3147C204.584 18.5084 204.709 18.7311 204.766 18.9826C204.824 19.2342 204.818 19.4927 204.747 19.7582L204.647 20.1322C204.576 20.3977 204.453 20.6248 204.278 20.8136C204.106 21.0033 203.889 21.1341 203.627 21.2058C203.365 21.2776 203.068 21.2686 202.735 21.1789C202.398 21.0882 202.133 20.9456 201.938 20.751C201.744 20.5564 201.616 20.3329 201.555 20.0805C201.497 19.8289 201.504 19.5704 201.575 19.3049ZM202.606 19.1818L202.507 19.5558C202.476 19.6724 202.472 19.7894 202.496 19.907C202.52 20.0246 202.57 20.1263 202.644 20.2122C202.721 20.299 202.821 20.3589 202.944 20.392C203.1 20.4339 203.229 20.4358 203.333 20.3978C203.437 20.3598 203.519 20.2933 203.579 20.1984C203.642 20.1044 203.689 19.9991 203.72 19.8826L203.82 19.5086C203.851 19.392 203.857 19.2774 203.839 19.1649C203.821 19.0491 203.775 18.9482 203.701 18.8623C203.631 18.774 203.528 18.7116 203.392 18.675C203.256 18.6384 203.134 18.6403 203.026 18.6806C202.922 18.7186 202.834 18.7833 202.761 18.8747C202.689 18.9629 202.637 19.0653 202.606 19.1818ZM204.712 15.1105L199.787 19.7084L199.203 19.1661L204.128 14.5682L204.712 15.1105Z" fill="white"/>
<path d="M13.1131 128.869C12.7907 127.66 13.509 126.415 14.7175 126.09L27.4419 122.664C28.6504 122.338 29.8915 123.055 30.2139 124.264L32.7119 133.633C33.0344 134.842 32.3161 136.086 31.1076 136.411L16.195 140.427L13.1131 128.869Z" fill="#FFD02C"/>
<path d="M19.9334 131.529L20.5916 131.352C20.8024 131.295 20.9667 131.212 21.0845 131.104C21.2015 130.993 21.2753 130.863 21.3058 130.715C21.3385 130.562 21.3312 130.398 21.2841 130.221C21.2415 130.061 21.1726 129.929 21.0772 129.823C20.9839 129.714 20.8655 129.642 20.7218 129.607C20.5775 129.569 20.4098 129.576 20.219 129.628C20.0679 129.668 19.9363 129.736 19.8241 129.83C19.7118 129.925 19.6317 130.036 19.5836 130.165C19.5356 130.294 19.5321 130.436 19.5732 130.59L18.338 130.923C18.2468 130.58 18.2585 130.258 18.3732 129.955C18.4908 129.651 18.6858 129.387 18.9584 129.16C19.2309 128.934 19.5538 128.771 19.927 128.67C20.3487 128.557 20.7359 128.526 21.0887 128.578C21.4407 128.626 21.74 128.758 21.9866 128.973C22.2332 129.188 22.4081 129.489 22.5115 129.877C22.564 130.073 22.5693 130.277 22.5276 130.487C22.4851 130.694 22.3981 130.894 22.2667 131.089C22.1373 131.279 21.9634 131.451 21.7447 131.605C21.5254 131.756 21.2647 131.872 20.9627 131.953L20.1079 132.183L19.9334 131.529ZM20.1832 132.465L20.0133 131.828L20.868 131.598C21.2071 131.507 21.5151 131.465 21.792 131.473C22.069 131.481 22.3137 131.534 22.5263 131.633C22.7381 131.729 22.9144 131.863 23.0552 132.036C23.1952 132.206 23.2968 132.409 23.3599 132.646C23.4374 132.937 23.451 133.211 23.4007 133.469C23.3497 133.724 23.2439 133.958 23.0834 134.169C22.9258 134.379 22.7241 134.562 22.4783 134.717C22.2318 134.869 21.9504 134.987 21.6341 135.072C21.372 135.143 21.1046 135.177 20.832 135.174C20.5616 135.167 20.3043 135.119 20.0604 135.029C19.8186 134.935 19.6068 134.793 19.425 134.604C19.2453 134.411 19.1143 134.16 19.0322 133.852L20.2674 133.52C20.3099 133.68 20.3878 133.811 20.5011 133.915C20.6143 134.019 20.7502 134.088 20.9088 134.122C21.0703 134.155 21.2379 134.148 21.4117 134.101C21.6083 134.048 21.7669 133.967 21.8875 133.858C22.0102 133.746 22.0911 133.614 22.1302 133.463C22.1714 133.308 22.1685 133.142 22.1213 132.966C22.0605 132.738 21.9705 132.566 21.8514 132.452C21.7316 132.334 21.5859 132.263 21.4146 132.239C21.2433 132.215 21.0522 132.231 20.8413 132.288L20.1832 132.465ZM23.6118 130.67L23.5459 130.423C23.4986 130.246 23.494 130.074 23.5322 129.908C23.5703 129.742 23.6525 129.595 23.7787 129.467C23.9049 129.339 24.077 129.245 24.295 129.187C24.5193 129.126 24.718 129.12 24.891 129.167C25.066 129.214 25.2104 129.3 25.3239 129.425C25.4396 129.55 25.5211 129.701 25.5685 129.879L25.6343 130.126C25.6805 130.299 25.6845 130.468 25.6464 130.635C25.6103 130.8 25.5292 130.947 25.403 131.075C25.2768 131.203 25.1037 131.296 24.8836 131.356C24.6613 131.415 24.4627 131.422 24.2876 131.375C24.1146 131.328 23.9703 131.242 23.8546 131.117C23.7389 130.992 23.6579 130.843 23.6118 130.67ZM24.1581 130.258L24.224 130.505C24.2439 130.58 24.2769 130.648 24.3229 130.709C24.3705 130.767 24.43 130.81 24.5012 130.836C24.574 130.86 24.6542 130.86 24.7418 130.837C24.8337 130.812 24.9031 130.772 24.9499 130.716C24.9962 130.657 25.0244 130.591 25.0345 130.517C25.0441 130.441 25.0389 130.366 25.0189 130.291L24.953 130.044C24.932 129.965 24.8976 129.897 24.85 129.838C24.804 129.777 24.7456 129.735 24.675 129.71C24.6059 129.683 24.5254 129.682 24.4335 129.706C24.348 129.729 24.2811 129.77 24.2326 129.829C24.1836 129.886 24.1533 129.953 24.1416 130.029C24.1315 130.103 24.137 130.179 24.1581 130.258ZM26.5431 132.696L26.4773 132.449C26.4305 132.274 26.4262 132.103 26.4644 131.937C26.5047 131.771 26.5879 131.623 26.7141 131.495C26.8425 131.367 27.0167 131.273 27.2368 131.214C27.459 131.154 27.6566 131.147 27.8296 131.195C28.0025 131.242 28.1469 131.328 28.2626 131.453C28.3783 131.578 28.4595 131.728 28.5062 131.903L28.5721 132.15C28.6188 132.325 28.6231 132.496 28.585 132.662C28.549 132.828 28.4679 132.975 28.3417 133.102C28.2154 133.23 28.0423 133.324 27.8222 133.383C27.6 133.443 27.4013 133.45 27.2262 133.403C27.0511 133.356 26.9046 133.271 26.7868 133.146C26.6711 133.022 26.5899 132.872 26.5431 132.696ZM27.0927 132.284L27.1585 132.531C27.1791 132.608 27.2155 132.676 27.268 132.735C27.3204 132.794 27.382 132.836 27.4526 132.861C27.5254 132.884 27.6024 132.886 27.6836 132.864C27.7862 132.836 27.8609 132.794 27.9078 132.738C27.9547 132.682 27.9796 132.617 27.9828 132.542C27.988 132.468 27.9804 132.392 27.9599 132.315L27.894 132.068C27.8735 131.991 27.8394 131.923 27.7918 131.865C27.7437 131.805 27.6843 131.762 27.6136 131.738C27.5445 131.711 27.4651 131.709 27.3753 131.733C27.2856 131.757 27.2165 131.799 27.1681 131.858C27.1212 131.914 27.0919 131.98 27.0803 132.057C27.068 132.131 27.0722 132.207 27.0927 132.284ZM26.9589 129.257L25.6532 133.52L25.1411 133.404L26.4469 129.14L26.9589 129.257Z" fill="white"/>
<path d="M16.5002 53.1017C16.9186 51.5324 18.5291 50.6026 20.0974 51.0248L36.6098 55.471C38.1781 55.8933 39.1102 57.5078 38.6918 59.077L35.4501 71.2344C35.0316 72.8037 33.4211 73.7335 31.8528 73.3112L12.5008 68.1005L16.5002 53.1017Z" fill="#FFC700"/>
<path d="M27.2279 57.5345L26.9985 58.3947L21.9509 64.7741L20.2649 64.3202L25.2089 58.3292L21.188 57.2465L21.521 55.9979L27.2279 57.5345ZM27.1749 61.278L27.2603 60.9575C27.3217 60.7272 27.4275 60.5311 27.5777 60.3693C27.7278 60.2075 27.9151 60.0958 28.1395 60.0343C28.364 59.9728 28.6176 59.9802 28.9005 60.0563C29.1917 60.1347 29.4191 60.2569 29.5829 60.423C29.7495 60.5898 29.8561 60.7806 29.9029 60.9954C29.9524 61.211 29.9464 61.4339 29.885 61.6642L29.7996 61.9847C29.7396 62.2095 29.6346 62.4028 29.4844 62.5646C29.3371 62.7271 29.1512 62.8391 28.9267 62.9007C28.7023 62.9622 28.4472 62.9544 28.1616 62.8775C27.8732 62.7999 27.6457 62.6777 27.4792 62.5109C27.3154 62.3449 27.2088 62.154 27.1592 61.9385C27.1097 61.7229 27.1149 61.5027 27.1749 61.278ZM28.0548 61.1714L27.9693 61.4919C27.9434 61.589 27.9367 61.6868 27.9491 61.7853C27.9649 61.8818 28.0043 61.9682 28.0672 62.0446C28.1335 62.119 28.2235 62.1715 28.3372 62.2021C28.4565 62.2342 28.5606 62.234 28.6495 62.2014C28.7392 62.1661 28.8135 62.1103 28.8725 62.034C28.9322 61.9549 28.975 61.8668 29.0009 61.7697L29.0864 61.4492C29.1137 61.3465 29.1195 61.2469 29.1036 61.1505C29.0912 61.0519 29.0533 60.9659 28.9897 60.8923C28.9296 60.8166 28.8399 60.7627 28.7207 60.7306C28.6098 60.7007 28.5081 60.7031 28.4157 60.7377C28.3239 60.7695 28.2468 60.8246 28.1843 60.9029C28.1254 60.9792 28.0822 61.0687 28.0548 61.1714ZM29.161 65.4664L29.2464 65.1459C29.3071 64.9184 29.4125 64.7237 29.5626 64.5619C29.7156 64.4008 29.9042 64.2895 30.1287 64.228C30.3559 64.1673 30.6123 64.1754 30.898 64.2523C31.1863 64.3299 31.4124 64.4518 31.5762 64.6178C31.74 64.7838 31.8466 64.9746 31.8961 65.1902C31.9457 65.4058 31.9401 65.6273 31.8794 65.8549L31.794 66.1754C31.7333 66.4029 31.6279 66.5976 31.4777 66.7594C31.3304 66.922 31.1445 67.034 30.92 67.0955C30.6956 67.157 30.4405 67.1493 30.1549 67.0724C29.8665 66.9947 29.639 66.8725 29.4725 66.7057C29.3059 66.5389 29.1965 66.3474 29.1442 66.1311C29.0947 65.9155 29.1003 65.6939 29.161 65.4664ZM30.0451 65.361L29.9596 65.6815C29.933 65.7813 29.93 65.8817 29.9507 65.9824C29.9714 66.0831 30.0135 66.1703 30.0771 66.244C30.1435 66.3183 30.2293 66.3697 30.3347 66.3981C30.4678 66.4339 30.5788 66.4356 30.6678 66.403C30.7567 66.3704 30.8269 66.3135 30.8783 66.2322C30.9324 66.1516 30.9728 66.0613 30.9995 65.9615L31.0849 65.641C31.1116 65.5411 31.117 65.4429 31.1011 65.3464C31.0859 65.2472 31.0466 65.1607 30.983 65.0871C30.9229 65.0114 30.8346 64.9579 30.7182 64.9266C30.6017 64.8952 30.4972 64.8968 30.4048 64.9314C30.3159 64.964 30.2401 65.0194 30.1776 65.0978C30.1159 65.1733 30.0717 65.2611 30.0451 65.361ZM31.8492 61.8719L27.6287 65.8122L27.1285 65.3474L31.349 61.4071L31.8492 61.8719Z" fill="white"/>
<path d="M111.171 50.9638C110.349 49.5319 110.84 47.6993 112.268 46.8705L129.574 36.8299C131.003 36.0012 132.827 36.4901 133.65 37.9221L140.015 49.0007C140.838 50.4326 140.347 52.2652 138.918 53.094L119.026 64.6352L111.171 50.9638Z" fill="#FFC472"/>
<path d="M119.059 49.0606L123.304 56.4488L121.849 57.2929L118.57 51.5858L117.143 53.1569L116.482 52.0074L118.903 49.1514L119.059 49.0606ZM125.139 50.908L123.817 51.3036L122.089 47.3231L126.221 44.9257L126.899 46.1056L123.964 47.8084L124.722 49.5496C124.787 49.4355 124.9 49.2888 125.062 49.1094C125.222 48.9266 125.425 48.7639 125.67 48.6212C126.027 48.4141 126.376 48.2861 126.716 48.2373C127.056 48.1885 127.383 48.2148 127.698 48.3161C128.015 48.4155 128.313 48.5894 128.59 48.838C128.868 49.0866 129.118 49.405 129.341 49.7933C129.529 50.1207 129.658 50.4623 129.728 50.818C129.795 51.1703 129.793 51.5226 129.722 51.8747C129.648 52.2234 129.494 52.5535 129.26 52.8649C129.026 53.1764 128.697 53.4552 128.273 53.7013C127.956 53.885 127.622 54.0155 127.272 54.093C126.924 54.1684 126.58 54.1817 126.237 54.1328C125.898 54.0819 125.582 53.9659 125.289 53.7846C124.998 53.598 124.751 53.3362 124.549 52.9991L125.993 52.1609C126.134 52.3585 126.291 52.5079 126.466 52.609C126.642 52.7048 126.828 52.7502 127.023 52.7452C127.217 52.7403 127.414 52.6802 127.613 52.5649C127.798 52.4574 127.936 52.3302 128.027 52.1831C128.117 52.036 128.167 51.8765 128.176 51.7047C128.183 51.5295 128.157 51.3468 128.097 51.1565C128.038 50.9609 127.952 50.7635 127.837 50.5643C127.723 50.3651 127.596 50.1982 127.455 50.0635C127.315 49.9288 127.162 49.8307 126.997 49.7692C126.831 49.7077 126.654 49.6889 126.466 49.7126C126.281 49.7345 126.089 49.803 125.89 49.9183C125.621 50.0746 125.436 50.238 125.337 50.4083C125.24 50.5767 125.174 50.7433 125.139 50.908ZM129.1 47.5211L128.932 47.2287C128.811 47.0185 128.747 46.801 128.739 46.5761C128.731 46.3511 128.785 46.1355 128.902 45.9291C129.02 45.7227 129.207 45.5448 129.465 45.3953C129.73 45.2414 129.981 45.1651 130.217 45.1663C130.456 45.1661 130.669 45.2264 130.857 45.3473C131.046 45.4667 131.202 45.6315 131.322 45.8417L131.49 46.1341C131.608 46.3392 131.671 46.5542 131.679 46.7791C131.69 47.0026 131.636 47.2175 131.519 47.4239C131.402 47.6303 131.213 47.809 130.953 47.9599C130.691 48.1123 130.44 48.1886 130.201 48.1889C129.964 48.1876 129.751 48.1273 129.561 48.0079C129.371 47.8885 129.218 47.7262 129.1 47.5211ZM129.655 46.8088L129.823 47.1013C129.874 47.1899 129.939 47.2652 130.019 47.3272C130.099 47.3851 130.189 47.4189 130.289 47.4285C130.39 47.4341 130.492 47.4069 130.596 47.3468C130.705 47.2838 130.779 47.2085 130.82 47.1208C130.859 47.0306 130.872 46.9367 130.86 46.8392C130.846 46.7391 130.814 46.6448 130.763 46.5561L130.595 46.2637C130.541 46.17 130.474 46.0942 130.394 46.0362C130.314 45.9742 130.225 45.9397 130.127 45.9326C130.03 45.9216 129.927 45.9475 129.818 46.0106C129.717 46.0692 129.646 46.1443 129.604 46.236C129.561 46.3251 129.545 46.4205 129.556 46.522C129.569 46.6195 129.602 46.7152 129.655 46.8088ZM133.524 49.1017L133.356 48.8093C133.236 48.6017 133.173 48.3854 133.165 48.1605C133.159 47.9341 133.215 47.7177 133.332 47.5113C133.452 47.3035 133.642 47.1241 133.902 46.9731C134.165 46.8207 134.414 46.7451 134.651 46.7464C134.887 46.7476 135.1 46.8079 135.29 46.9273C135.48 47.0468 135.635 47.2103 135.754 47.4179L135.922 47.7103C136.041 47.918 136.105 48.1342 136.113 48.3592C136.123 48.5826 136.07 48.7976 135.953 49.0039C135.836 49.2103 135.647 49.389 135.387 49.5399C135.124 49.6923 134.873 49.7687 134.634 49.7689C134.396 49.7691 134.18 49.7103 133.987 49.5923C133.798 49.4729 133.643 49.3094 133.524 49.1017ZM134.083 48.3873L134.251 48.6797C134.304 48.7709 134.373 48.8452 134.46 48.9028C134.547 48.9604 134.64 48.9927 134.738 48.9998C134.839 49.0054 134.938 48.9804 135.033 48.9247C135.155 48.8543 135.236 48.7753 135.276 48.6876C135.317 48.6 135.326 48.5083 135.305 48.4126C135.286 48.3155 135.251 48.2213 135.198 48.1302L135.03 47.8377C134.978 47.7466 134.912 47.672 134.831 47.6141C134.749 47.5535 134.659 47.5198 134.561 47.5127C134.463 47.5016 134.362 47.5268 134.256 47.5884C134.15 47.6499 134.076 47.7265 134.034 47.8182C133.994 47.9059 133.979 48.0005 133.99 48.102C134 48.201 134.031 48.2961 134.083 48.3873ZM132.882 44.5725L132.671 50.4574L131.979 50.4841L132.19 44.5992L132.882 44.5725Z" fill="white"/>
<path d="M66.0267 148.371C66.5254 146.501 68.4449 145.392 70.314 145.896L92.9326 151.986C94.8017 152.489 95.9126 154.413 95.4139 156.284L91.5504 170.773C91.0517 172.643 89.1322 173.752 87.2631 173.248L61.2602 166.247L66.0267 148.371Z" fill="#F5809D"/>
<path d="M73.8368 153.217L71.2636 162.867L69.36 162.354L71.3476 154.9L68.8666 155.012L69.2669 153.51L73.6319 153.162L73.8368 153.217ZM81.5848 162.817C81.4238 163.422 81.1469 163.893 80.7544 164.231C80.363 164.566 79.8923 164.772 79.3424 164.851C78.798 164.926 78.2151 164.881 77.5938 164.713C76.9724 164.546 76.4426 164.292 76.0043 163.952C75.5672 163.607 75.2601 163.192 75.083 162.704C74.9071 162.213 74.8997 161.665 75.0608 161.061C75.169 160.655 75.3481 160.311 75.5981 160.029C75.8494 159.742 76.1516 159.521 76.5047 159.365C76.8635 159.207 77.2576 159.119 77.6871 159.102C78.1178 159.081 78.5667 159.134 79.0338 159.259C79.6595 159.428 80.1898 159.689 80.6245 160.042C81.0593 160.396 81.3642 160.811 81.5392 161.288C81.7142 161.765 81.7295 162.275 81.5848 162.817ZM79.7015 162.176C79.7802 161.88 79.7906 161.611 79.7324 161.369C79.6799 161.123 79.5675 160.916 79.3954 160.746C79.2232 160.577 79.0028 160.456 78.734 160.384C78.4652 160.312 78.2141 160.305 77.9809 160.365C77.7476 160.426 77.5448 160.548 77.3727 160.733C77.2061 160.915 77.0834 161.154 77.0046 161.45C76.927 161.741 76.9151 162.007 76.9688 162.248C77.0269 162.491 77.1421 162.696 77.3142 162.866C77.4919 163.032 77.7174 163.151 77.9906 163.225C78.2638 163.299 78.5142 163.307 78.7419 163.25C78.9752 163.19 79.173 163.068 79.3351 162.885C79.5018 162.703 79.6239 162.467 79.7015 162.176ZM82.5633 158.324C82.4328 158.814 82.187 159.213 81.8259 159.522C81.466 159.827 81.0264 160.023 80.5073 160.11C79.9926 160.198 79.44 160.163 78.8495 160.004C78.2546 159.844 77.754 159.595 77.3478 159.259C76.9415 158.923 76.6583 158.532 76.4983 158.088C76.3394 157.638 76.3252 157.169 76.4557 156.68C76.6109 156.098 76.8714 155.643 77.2373 155.316C77.6086 154.986 78.0511 154.779 78.5647 154.695C79.0826 154.613 79.6347 154.65 80.2207 154.808C80.8156 154.968 81.3146 155.214 81.7176 155.544C82.1251 155.876 82.4053 156.278 82.5583 156.749C82.7168 157.217 82.7185 157.742 82.5633 158.324ZM80.6367 157.898C80.7061 157.637 80.7198 157.4 80.6778 157.185C80.637 156.967 80.5448 156.781 80.4012 156.629C80.2619 156.478 80.0689 156.369 79.8221 156.303C79.5842 156.239 79.3658 156.234 79.1669 156.289C78.9724 156.346 78.803 156.459 78.6587 156.628C78.52 156.794 78.4148 157.011 78.3431 157.28C78.2737 157.54 78.2566 157.781 78.2919 158.003C78.3327 158.222 78.4243 158.41 78.5668 158.567C78.7092 158.723 78.9016 158.834 79.144 158.899C79.3864 158.965 79.606 158.965 79.8028 158.899C80.0041 158.835 80.1746 158.718 80.3145 158.548C80.46 158.375 80.5674 158.158 80.6367 157.898ZM83.4387 160.302L83.5405 159.92C83.6137 159.646 83.7398 159.412 83.9187 159.219C84.0977 159.026 84.3209 158.893 84.5884 158.82C84.8559 158.746 85.1582 158.755 85.4953 158.846C85.8424 158.939 86.1135 159.085 86.3087 159.283C86.5072 159.482 86.6343 159.709 86.69 159.965C86.749 160.222 86.7419 160.488 86.6687 160.762L86.5669 161.144C86.4954 161.412 86.3702 161.643 86.1913 161.835C86.0157 162.029 85.7941 162.163 85.5266 162.236C85.2591 162.309 84.9551 162.3 84.6147 162.208C84.271 162.116 83.9999 161.97 83.8014 161.771C83.6062 161.574 83.4791 161.346 83.4201 161.089C83.3611 160.832 83.3673 160.57 83.4387 160.302ZM84.4874 160.175L84.3856 160.557C84.3547 160.673 84.3466 160.789 84.3614 160.907C84.3803 161.022 84.4272 161.125 84.5021 161.216C84.5812 161.304 84.6885 161.367 84.824 161.403C84.9661 161.442 85.0902 161.441 85.1962 161.403C85.3031 161.36 85.3916 161.294 85.4619 161.203C85.5331 161.109 85.5842 161.004 85.615 160.888L85.7169 160.506C85.7495 160.384 85.7563 160.265 85.7374 160.15C85.7227 160.033 85.6774 159.93 85.6016 159.842C85.53 159.752 85.4232 159.688 85.281 159.65C85.1488 159.614 85.0277 159.617 84.9175 159.658C84.8082 159.696 84.7163 159.762 84.6418 159.855C84.5715 159.946 84.52 160.053 84.4874 160.175ZM85.8058 165.294L85.9076 164.912C85.9799 164.641 86.1055 164.409 86.2845 164.216C86.4667 164.024 86.6916 163.891 86.9591 163.818C87.2299 163.746 87.5355 163.755 87.876 163.847C88.2197 163.939 88.4891 164.085 88.6843 164.282C88.8795 164.48 89.0066 164.708 89.0656 164.965C89.1246 165.222 89.118 165.486 89.0457 165.757L88.9438 166.139C88.8715 166.41 88.7459 166.642 88.567 166.835C88.3913 167.029 88.1697 167.162 87.9022 167.235C87.6347 167.309 87.3308 167.3 86.9904 167.208C86.6467 167.115 86.3755 166.97 86.177 166.771C85.9785 166.572 85.8481 166.344 85.7858 166.086C85.7268 165.829 85.7335 165.565 85.8058 165.294ZM86.8594 165.168L86.7576 165.55C86.7258 165.669 86.7223 165.789 86.747 165.909C86.7716 166.029 86.8219 166.133 86.8976 166.221C86.9767 166.309 87.0791 166.37 87.2047 166.404C87.3633 166.447 87.4956 166.449 87.6016 166.41C87.7076 166.371 87.7912 166.303 87.8525 166.207C87.9171 166.11 87.9652 166.003 87.997 165.884L88.0988 165.502C88.1306 165.383 88.137 165.266 88.118 165.151C88.1 165.033 88.0531 164.93 87.9773 164.842C87.9057 164.752 87.8005 164.688 87.6617 164.65C87.5229 164.613 87.3984 164.615 87.2882 164.656C87.1822 164.695 87.092 164.761 87.0175 164.855C86.9439 164.945 86.8912 165.049 86.8594 165.168ZM89.0097 161.01L83.9796 165.706L83.3835 165.152L88.4135 160.456L89.0097 161.01Z" fill="white"/>
<path d="M220.434 28.6076C219.35 26.7201 219.997 24.3043 221.88 23.2119L244.693 9.97656C246.576 8.88412 248.981 9.52868 250.066 11.4162L258.456 26.0199C259.54 27.9074 258.893 30.3231 257.01 31.4156L230.788 46.6289L220.434 28.6076Z" fill="#FFC2D1"/>
<path d="M236.809 32.6681L237.672 34.17L231.039 38.0179L230.303 36.7363L231.503 31.5457C231.616 31.0113 231.687 30.5578 231.715 30.1852C231.741 29.8081 231.733 29.4896 231.69 29.2296C231.649 28.9626 231.573 28.7312 231.46 28.5354C231.291 28.2417 231.098 28.0186 230.88 27.8661C230.66 27.7092 230.421 27.6282 230.164 27.6233C229.911 27.6158 229.647 27.6918 229.371 27.8515C229.078 28.0215 228.866 28.2395 228.735 28.5056C228.608 28.769 228.562 29.0598 228.597 29.3778C228.636 29.6933 228.748 30.0112 228.932 30.3316L227.007 31.4481C226.675 30.8696 226.508 30.2602 226.508 29.6199C226.504 28.9752 226.671 28.3649 227.009 27.789C227.345 27.2087 227.857 26.719 228.545 26.3198C229.224 25.9257 229.86 25.7047 230.454 25.6568C231.05 25.6018 231.587 25.7117 232.064 25.9865C232.544 26.2543 232.947 26.673 233.274 27.2426C233.458 27.563 233.588 27.9063 233.662 28.2726C233.734 28.6345 233.761 29.0221 233.744 29.4354C233.729 29.8418 233.676 30.2757 233.586 30.7373C233.496 31.1989 233.384 31.6884 233.249 32.2057L232.654 35.0788L236.809 32.6681ZM242.113 23.9746L243.08 25.6568C243.499 26.3866 243.783 27.0614 243.932 27.6811C244.078 28.2963 244.102 28.858 244.003 29.3662C243.907 29.8674 243.704 30.314 243.397 30.706C243.089 31.098 242.692 31.4357 242.203 31.719C241.813 31.9456 241.42 32.1079 241.027 32.2057C240.631 32.2991 240.236 32.3175 239.842 32.261C239.453 32.202 239.068 32.0667 238.686 31.8551C238.306 31.6366 237.934 31.33 237.571 30.9353C237.208 30.5406 236.858 30.0496 236.521 29.4622L235.554 27.78C235.135 27.0502 234.853 26.3799 234.71 25.7691C234.568 25.1513 234.545 24.5918 234.642 24.0906C234.743 23.5868 234.949 23.1412 235.259 22.7536C235.566 22.3616 235.964 22.024 236.453 21.7407C236.843 21.514 237.234 21.3553 237.626 21.2645C238.02 21.1666 238.412 21.1437 238.803 21.1958C239.194 21.2478 239.58 21.3831 239.96 21.6017C240.337 21.8158 240.707 22.1202 241.07 22.5149C241.431 22.9051 241.778 23.3917 242.113 23.9746ZM241.301 27.0269L240.039 24.8308C239.837 24.4793 239.641 24.1838 239.45 23.9444C239.264 23.7025 239.08 23.5121 238.9 23.3735C238.717 23.2304 238.537 23.1331 238.36 23.0818C238.182 23.0305 238.007 23.0194 237.834 23.0484C237.662 23.0774 237.489 23.1421 237.315 23.2426C237.098 23.3688 236.929 23.5231 236.809 23.7055C236.693 23.8854 236.631 24.1022 236.623 24.3561C236.613 24.6055 236.665 24.9018 236.779 25.2449C236.895 25.581 237.078 25.9671 237.329 26.4032L238.591 28.5993C238.793 28.9509 238.988 29.2499 239.177 29.4963C239.37 29.7401 239.56 29.9358 239.745 30.0833C239.933 30.2239 240.114 30.3233 240.29 30.3817C240.467 30.433 240.642 30.4441 240.815 30.4151C240.992 30.3835 241.167 30.3175 241.34 30.2171C241.553 30.0934 241.718 29.9417 241.833 29.7619C241.951 29.575 242.014 29.3546 242.022 29.1007C242.032 28.8398 241.977 28.5391 241.859 28.1986C241.74 27.858 241.554 27.4675 241.301 27.0269ZM243.354 23.5375L243.132 23.152C242.973 22.875 242.888 22.5883 242.878 22.2918C242.867 21.9953 242.939 21.711 243.093 21.4389C243.248 21.1669 243.495 20.9323 243.835 20.7353C244.184 20.5325 244.515 20.4319 244.826 20.4335C245.141 20.4332 245.422 20.5127 245.669 20.6721C245.92 20.8295 246.124 21.0467 246.283 21.3237L246.505 21.7092C246.66 21.9796 246.743 22.263 246.754 22.5595C246.768 22.854 246.697 23.1373 246.543 23.4094C246.388 23.6815 246.14 23.917 245.797 24.1159C245.451 24.3168 245.12 24.4174 244.805 24.4177C244.493 24.4161 244.212 24.3366 243.962 24.1792C243.712 24.0218 243.509 23.8079 243.354 23.5375ZM244.086 22.5986L244.307 22.9841C244.375 23.1009 244.46 23.2002 244.565 23.2819C244.671 23.3583 244.79 23.4028 244.922 23.4155C245.055 23.4229 245.189 23.387 245.326 23.3078C245.469 23.2247 245.567 23.1254 245.621 23.0099C245.672 22.8909 245.69 22.7672 245.674 22.6386C245.656 22.5067 245.613 22.3824 245.546 22.2655L245.325 21.88C245.254 21.7566 245.165 21.6566 245.059 21.5802C244.954 21.4985 244.837 21.453 244.708 21.4437C244.579 21.4291 244.444 21.4633 244.3 21.5463C244.167 21.6236 244.073 21.7227 244.018 21.8435C243.962 21.961 243.941 22.0867 243.955 22.2205C243.972 22.3491 244.015 22.4751 244.086 22.5986ZM249.185 25.6211L248.964 25.2356C248.807 24.9619 248.723 24.6768 248.712 24.3803C248.705 24.0819 248.779 23.7967 248.933 23.5246C249.091 23.2506 249.341 23.0141 249.684 22.8152C250.03 22.6143 250.359 22.5147 250.671 22.5163C250.983 22.5179 251.264 22.5974 251.514 22.7548C251.764 22.9123 251.968 23.1278 252.125 23.4015L252.347 23.787C252.504 24.0607 252.588 24.3457 252.598 24.6422C252.612 24.9368 252.542 25.2201 252.387 25.4922C252.233 25.7642 251.984 25.9997 251.641 26.1987C251.295 26.3996 250.964 26.5002 250.649 26.5005C250.334 26.5008 250.05 26.4232 249.796 26.2677C249.546 26.1103 249.342 25.8948 249.185 25.6211ZM249.923 24.6793L250.144 25.0648C250.213 25.1849 250.305 25.283 250.42 25.3588C250.534 25.4347 250.656 25.4774 250.786 25.4867C250.919 25.4941 251.049 25.4611 251.175 25.3877C251.335 25.295 251.442 25.1908 251.495 25.0752C251.549 24.9597 251.561 24.8388 251.533 24.7127C251.509 24.5847 251.462 24.4606 251.393 24.3404L251.171 23.9549C251.102 23.8348 251.015 23.7365 250.909 23.66C250.801 23.5803 250.682 23.5357 250.552 23.5264C250.424 23.5118 250.29 23.5451 250.15 23.6262C250.01 23.7073 249.913 23.8083 249.858 23.9292C249.804 24.0447 249.785 24.1694 249.8 24.3033C249.813 24.4338 249.854 24.5591 249.923 24.6793ZM248.339 19.6507L248.061 27.4081L247.149 27.4432L247.427 19.6859L248.339 19.6507Z" fill="white"/>
<path d="M151.235 156.182C152.461 154.047 155.181 153.318 157.31 154.554L183.107 169.52C185.236 170.755 185.968 173.487 184.741 175.621L175.254 192.135C174.027 194.27 171.307 194.998 169.178 193.763L139.527 176.56L151.235 156.182Z" fill="#FF6B90"/>
<path d="M156.729 174.749L155.754 176.447L148.254 172.096L149.087 170.646L154.823 168.892C155.408 168.701 155.89 168.515 156.269 168.332C156.651 168.145 156.957 167.956 157.186 167.767C157.423 167.576 157.605 167.37 157.733 167.148C157.923 166.816 158.032 166.5 158.057 166.199C158.085 165.894 158.029 165.613 157.889 165.357C157.753 165.104 157.529 164.887 157.218 164.706C156.887 164.514 156.554 164.428 156.221 164.45C155.893 164.474 155.583 164.593 155.293 164.807C155.008 165.024 154.761 165.313 154.553 165.676L152.377 164.413C152.752 163.759 153.252 163.251 153.876 162.888C154.502 162.52 155.191 162.339 155.944 162.346C156.699 162.348 157.465 162.575 158.243 163.026C159.011 163.472 159.587 163.974 159.969 164.531C160.36 165.086 160.556 165.677 160.558 166.302C160.568 166.925 160.388 167.559 160.018 168.203C159.81 168.565 159.549 168.886 159.234 169.167C158.922 169.442 158.559 169.688 158.147 169.905C157.742 170.12 157.29 170.313 156.789 170.486C156.288 170.658 155.748 170.824 155.167 170.984L152.031 172.023L156.729 174.749ZM162.025 173.413L160.531 171.993L164.357 166.785L170.516 170.358L169.506 172.117L165.131 169.579L163.459 171.86C163.654 171.859 163.927 171.896 164.278 171.972C164.632 172.044 164.992 172.185 165.359 172.398C165.891 172.707 166.315 173.064 166.631 173.468C166.947 173.873 167.157 174.317 167.261 174.8C167.37 175.286 167.369 175.802 167.256 176.347C167.144 176.892 166.921 177.454 166.589 178.033C166.308 178.521 165.966 178.943 165.561 179.298C165.158 179.649 164.704 179.909 164.199 180.078C163.696 180.243 163.157 180.289 162.583 180.218C162.008 180.146 161.405 179.927 160.772 179.56C160.3 179.286 159.884 178.951 159.523 178.553C159.167 178.159 158.893 177.722 158.701 177.241C158.513 176.763 158.427 176.267 158.442 175.752C158.464 175.235 158.617 174.72 158.899 174.206L161.052 175.455C160.903 175.784 160.829 176.1 160.829 176.402C160.837 176.703 160.917 176.977 161.069 177.226C161.22 177.475 161.444 177.685 161.74 177.857C162.016 178.017 162.283 178.101 162.539 178.109C162.796 178.117 163.038 178.063 163.265 177.947C163.495 177.825 163.71 177.655 163.91 177.435C164.118 177.214 164.307 176.954 164.478 176.657C164.648 176.36 164.768 176.071 164.836 175.789C164.905 175.506 164.917 175.235 164.872 174.974C164.828 174.714 164.72 174.47 164.549 174.243C164.383 174.02 164.152 173.822 163.856 173.65C163.455 173.417 163.107 173.299 162.814 173.297C162.526 173.298 162.263 173.336 162.025 173.413ZM169.328 176.027L169.578 175.591C169.758 175.278 169.99 175.032 170.273 174.854C170.556 174.676 170.873 174.586 171.226 174.584C171.578 174.582 171.946 174.693 172.33 174.916C172.726 175.145 173.011 175.414 173.185 175.721C173.364 176.031 173.445 176.352 173.429 176.686C173.418 177.021 173.322 177.345 173.142 177.658L172.891 178.094C172.716 178.4 172.486 178.642 172.203 178.82C171.924 179 171.608 179.091 171.256 179.093C170.903 179.095 170.533 178.983 170.145 178.758C169.754 178.531 169.469 178.262 169.29 177.953C169.116 177.645 169.034 177.324 169.046 176.988C169.058 176.653 169.152 176.332 169.328 176.027ZM170.657 176.217L170.406 176.653C170.33 176.785 170.282 176.925 170.262 177.074C170.247 177.222 170.271 177.364 170.333 177.501C170.401 177.636 170.512 177.748 170.667 177.838C170.829 177.932 170.981 177.972 171.124 177.96C171.269 177.943 171.399 177.89 171.516 177.802C171.634 177.709 171.731 177.597 171.807 177.465L172.057 177.029C172.138 176.89 172.185 176.746 172.199 176.598C172.22 176.449 172.198 176.308 172.134 176.175C172.075 176.041 171.965 175.927 171.804 175.833C171.653 175.745 171.503 175.709 171.354 175.723C171.208 175.734 171.073 175.784 170.951 175.874C170.835 175.963 170.737 176.077 170.657 176.217ZM170.594 182.944L170.845 182.508C171.023 182.198 171.253 181.955 171.536 181.777C171.823 181.601 172.142 181.512 172.495 181.51C172.851 181.51 173.223 181.623 173.611 181.848C174.002 182.075 174.285 182.343 174.46 182.65C174.635 182.958 174.716 183.279 174.704 183.615C174.692 183.95 174.597 184.272 174.42 184.582L174.169 185.018C173.991 185.327 173.761 185.571 173.478 185.749C173.199 185.929 172.883 186.02 172.531 186.022C172.178 186.024 171.808 185.912 171.42 185.687C171.029 185.46 170.744 185.192 170.565 184.882C170.387 184.572 170.302 184.248 170.31 183.911C170.322 183.576 170.417 183.253 170.594 182.944ZM171.929 183.137L171.679 183.573C171.601 183.709 171.557 183.854 171.548 184.01C171.539 184.166 171.566 184.31 171.63 184.443C171.698 184.578 171.804 184.687 171.947 184.77C172.128 184.875 172.29 184.921 172.432 184.908C172.575 184.896 172.7 184.84 172.807 184.741C172.918 184.644 173.012 184.528 173.091 184.392L173.341 183.956C173.419 183.82 173.465 183.678 173.48 183.531C173.497 183.379 173.473 183.237 173.409 183.104C173.35 182.97 173.242 182.857 173.084 182.765C172.926 182.673 172.772 182.635 172.624 182.649C172.481 182.662 172.348 182.713 172.226 182.803C172.106 182.89 172.007 183.001 171.929 183.137ZM175.934 178.735L168.217 182.848L167.667 181.97L175.384 177.857L175.934 178.735Z" fill="white"/>
<path d="M209.762 72.8742C209.076 70.3006 210.604 67.653 213.176 66.9605L244.299 58.5802C246.871 57.8877 249.512 59.4126 250.199 61.9861L255.515 81.9235C256.201 84.497 254.672 87.1447 252.101 87.8372L216.321 97.4713L209.762 72.8742Z" fill="#FF8AB3"/>
<path d="M220.076 79.5072L221.476 79.13C221.925 79.0092 222.275 78.8338 222.525 78.6037C222.774 78.3676 222.931 78.0912 222.996 77.7746C223.066 77.4502 223.051 77.0999 222.95 76.7238C222.86 76.384 222.713 76.1016 222.51 75.8766C222.311 75.6439 222.059 75.4907 221.754 75.4169C221.446 75.3371 221.09 75.3518 220.683 75.4612C220.362 75.5478 220.082 75.6915 219.843 75.8924C219.604 76.0932 219.434 76.331 219.331 76.6057C219.229 76.8803 219.222 77.1814 219.309 77.5091L216.681 78.2169C216.486 77.4888 216.511 76.8025 216.755 76.158C217.006 75.5118 217.421 74.9481 218.001 74.4668C218.581 73.9854 219.268 73.6378 220.062 73.4239C220.96 73.1823 221.784 73.1165 222.534 73.2265C223.283 73.3305 223.92 73.6109 224.445 74.0679C224.97 74.5249 225.342 75.166 225.562 75.9911C225.674 76.4098 225.685 76.8424 225.597 77.2891C225.506 77.7296 225.321 78.1567 225.041 78.5701C224.766 78.9759 224.396 79.3422 223.931 79.6691C223.464 79.9899 222.909 80.2368 222.266 80.4099L220.447 80.8997L220.076 79.5072ZM220.607 81.5004L220.246 80.1443L222.065 79.6545C222.786 79.4602 223.442 79.3715 224.031 79.3884C224.621 79.4052 225.141 79.5186 225.594 79.7285C226.045 79.9322 226.42 80.2182 226.719 80.5862C227.017 80.9482 227.233 81.381 227.368 81.8846C227.533 82.5034 227.562 83.0874 227.455 83.6365C227.346 84.1795 227.121 84.6758 226.779 85.1254C226.444 85.5734 226.015 85.9622 225.492 86.2916C224.967 86.6149 224.368 86.8672 223.695 87.0485C223.137 87.1987 222.568 87.2706 221.988 87.2642C221.413 87.2501 220.865 87.1471 220.346 86.9553C219.831 86.7557 219.381 86.4543 218.994 86.0513C218.611 85.6405 218.333 85.1075 218.158 84.4522L220.786 83.7444C220.877 84.0842 221.043 84.3647 221.284 84.586C221.525 84.8073 221.814 84.9537 222.152 85.0254C222.495 85.0955 222.852 85.0807 223.222 84.9811C223.64 84.8684 223.978 84.6963 224.234 84.4646C224.496 84.2252 224.668 83.9447 224.751 83.6232C224.839 83.2939 224.832 82.9412 224.732 82.565C224.603 82.0796 224.411 81.715 224.158 81.4711C223.902 81.2211 223.593 81.0705 223.228 81.0191C222.863 80.9677 222.457 81.0024 222.008 81.1232L220.607 81.5004ZM236.995 74.9223L237.606 77.2158C237.872 78.2109 237.994 79.098 237.975 79.8772C237.953 80.6503 237.804 81.3213 237.527 81.8901C237.254 82.4513 236.874 82.9146 236.387 83.28C235.899 83.6453 235.322 83.9178 234.655 84.0974C234.121 84.2411 233.606 84.3082 233.11 84.2988C232.612 84.2834 232.139 84.1798 231.692 83.9882C231.25 83.7949 230.837 83.5127 230.452 83.1416C230.072 82.7628 229.729 82.2828 229.425 81.7014C229.12 81.1201 228.861 80.429 228.647 79.6281L228.036 77.3346C227.771 76.3395 227.649 75.4584 227.672 74.6914C227.7 73.9167 227.85 73.2487 228.123 72.6875C228.401 72.1247 228.785 71.6636 229.275 71.3043C229.762 70.939 230.339 70.6665 231.006 70.4869C231.54 70.3432 232.053 70.2799 232.545 70.297C233.041 70.3064 233.512 70.4039 233.958 70.5895C234.404 70.7751 234.817 71.0573 235.198 71.4361C235.576 71.8088 235.918 72.2858 236.223 72.8671C236.525 73.4424 236.783 74.1275 236.995 74.9223ZM235.07 78.2694L234.272 75.2751C234.144 74.7958 234.005 74.3845 233.855 74.0412C233.711 73.6963 233.554 73.4133 233.385 73.1923C233.214 72.9652 233.031 72.7932 232.838 72.6763C232.644 72.5593 232.441 72.4906 232.227 72.47C232.014 72.4494 231.789 72.471 231.552 72.5347C231.255 72.6147 231.007 72.7433 230.807 72.9207C230.613 73.0964 230.472 73.3328 230.382 73.6301C230.291 73.9213 230.258 74.2877 230.285 74.7292C230.316 75.163 230.411 75.6772 230.57 76.2719L231.368 79.2662C231.496 79.7455 231.633 80.1606 231.778 80.5116C231.93 80.861 232.092 81.1522 232.265 81.3854C232.442 81.6108 232.625 81.7859 232.814 81.9105C233.008 82.0274 233.211 82.0962 233.425 82.1168C233.644 82.1357 233.872 82.1133 234.109 82.0496C234.4 81.9713 234.642 81.8442 234.836 81.6686C235.034 81.4852 235.178 81.2448 235.267 80.9475C235.362 80.6426 235.392 80.2701 235.359 79.8302C235.327 79.3904 235.23 78.8701 235.07 78.2694ZM238.6 74.7998L238.46 74.2742C238.359 73.8965 238.349 73.5309 238.43 73.1774C238.512 72.8239 238.687 72.511 238.955 72.2387C239.224 71.9664 239.59 71.7678 240.054 71.6429C240.531 71.5143 240.954 71.5005 241.322 71.6013C241.695 71.701 242.002 71.8841 242.244 72.1507C242.49 72.416 242.663 72.7375 242.764 73.1152L242.904 73.6408C243.002 74.0094 243.011 74.3705 242.93 74.724C242.853 75.0763 242.681 75.3886 242.412 75.6609C242.143 75.9332 241.775 76.1324 241.306 76.2585C240.833 76.3859 240.411 76.3997 240.038 76.3001C239.67 76.1992 239.363 76.0161 239.117 75.7508C238.87 75.4854 238.698 75.1684 238.6 74.7998ZM239.763 73.9234L239.903 74.449C239.945 74.6083 240.015 74.7528 240.113 74.8825C240.215 75.0064 240.341 75.0967 240.493 75.1534C240.648 75.2044 240.818 75.2048 241.005 75.1546C241.2 75.1019 241.348 75.0158 241.448 74.8963C241.546 74.7722 241.606 74.6317 241.628 74.4747C241.648 74.3132 241.637 74.1528 241.594 73.9935L241.454 73.4679C241.409 73.2995 241.336 73.1534 241.235 73.0295C241.137 72.8998 241.013 72.8088 240.863 72.7566C240.715 72.6987 240.544 72.696 240.349 72.7487C240.167 72.7977 240.024 72.8848 239.921 73.0101C239.817 73.1309 239.752 73.2726 239.727 73.4354C239.706 73.5924 239.718 73.755 239.763 73.9234ZM244.838 79.1119L244.698 78.5863C244.599 78.2131 244.589 77.8498 244.671 77.4963C244.756 77.1415 244.934 76.828 245.202 76.5557C245.475 76.2822 245.846 76.0824 246.314 75.9563C246.787 75.8289 247.208 75.8157 247.576 75.9165C247.944 76.0174 248.251 76.2005 248.497 76.4658C248.744 76.7312 248.917 77.0505 249.016 77.4236L249.156 77.9492C249.256 78.3224 249.265 78.6857 249.184 79.0392C249.107 79.3915 248.934 79.7038 248.666 79.9761C248.397 80.2484 248.029 80.4476 247.56 80.5737C247.087 80.7011 246.665 80.7149 246.292 80.6153C245.919 80.5157 245.608 80.3338 245.357 80.0696C245.111 79.8043 244.938 79.485 244.838 79.1119ZM246.008 78.2336L246.148 78.7592C246.192 78.923 246.269 79.068 246.381 79.194C246.492 79.32 246.623 79.4091 246.774 79.4613C246.929 79.5122 247.093 79.5145 247.265 79.4679C247.484 79.4091 247.643 79.32 247.742 79.2005C247.842 79.0809 247.895 78.9423 247.902 78.7844C247.913 78.6253 247.897 78.4638 247.853 78.3L247.713 77.7744C247.669 77.6106 247.597 77.4667 247.496 77.3428C247.393 77.2143 247.267 77.124 247.116 77.0718C246.969 77.0139 246.8 77.0106 246.609 77.062C246.418 77.1135 246.271 77.2018 246.168 77.3271C246.068 77.4467 246.006 77.5878 245.981 77.7506C245.955 77.9088 245.964 78.0698 246.008 78.2336ZM245.723 71.7917L242.944 80.8655L241.855 80.6176L244.633 71.5438L245.723 71.7917Z" fill="white"/>
<path d="M226.975 118.422C226.975 118.422 203.898 112.907 200.756 108.56C197.615 104.212 193.244 81.2715 190.529 77.5086C187.815 73.7434 179.966 59.2246 180.1 47.6176C180.234 36.0105 169.627 43.5458 167.984 56.3835C166.342 69.2213 176.388 83.4076 171.738 86.7108C167.088 90.0139 141.256 81.8067 135.825 87.4865C131.287 92.2302 136.169 97.3441 136.169 97.3441C136.169 97.3441 130.351 96.7947 128.823 102.371C127.296 107.947 132.479 111.677 132.479 111.677C132.479 111.677 129.028 112.308 127.603 117.09C126.177 121.871 136.233 127.473 136.233 127.473C136.233 127.473 133.607 128.513 132.709 131.793C131.81 135.072 145.697 144.206 151.821 145.781C157.945 147.356 172.902 147.021 185.044 148.848C197.185 150.676 226.959 159.493 226.959 159.493L226.973 118.424L226.975 118.422Z" fill="#F3AA97"/>
<path d="M151.876 102.038C151.85 102.038 151.824 102.035 151.799 102.028C151.252 101.903 138.362 98.9374 136.004 97.6525C134.976 97.0937 134.188 95.9455 133.789 94.42C133.259 92.3971 133.517 90.1997 134.462 88.6814C134.566 88.5163 134.784 88.4645 134.948 88.5682C135.112 88.6719 135.164 88.8912 135.061 89.0563C134.228 90.3931 133.996 92.4278 134.472 94.2409C134.817 95.5541 135.497 96.5726 136.342 97.03C138.615 98.2678 151.824 101.307 151.958 101.338C152.148 101.38 152.266 101.571 152.223 101.762C152.186 101.927 152.04 102.038 151.881 102.038H151.876Z" fill="#BA5D1A"/>
<path d="M145.784 115.176C145.77 115.176 145.754 115.176 145.74 115.173C145.359 115.124 136.364 113.957 132.329 111.995C128.166 109.972 127.627 105.104 128.27 103.067C128.328 102.88 128.525 102.779 128.711 102.835C128.896 102.894 128.999 103.092 128.941 103.279C128.359 105.118 128.856 109.52 132.634 111.356C136.566 113.268 145.735 114.459 145.826 114.471C146.019 114.497 146.155 114.674 146.131 114.867C146.108 115.046 145.958 115.176 145.782 115.176H145.784Z" fill="#BA5D1A"/>
<path d="M145.131 130.428C144.07 130.428 139.725 130.265 136.037 127.764C131.054 124.383 126.525 120.893 127.138 118.267C127.182 118.076 127.37 117.958 127.56 118.003C127.75 118.047 127.867 118.238 127.823 118.427C127.236 120.94 133.679 125.309 136.429 127.177C140.378 129.855 145.29 129.718 145.34 129.716C145.534 129.702 145.696 129.862 145.703 130.058C145.71 130.253 145.558 130.416 145.363 130.423C145.34 130.423 145.26 130.425 145.129 130.425L145.131 130.428Z" fill="#BA5D1A"/>
<path d="M172.659 81.4413C172.483 81.4413 172.33 81.3069 172.309 81.1254C172.196 80.1068 171.737 78.8172 171.152 77.1833C170.115 74.2857 168.698 70.3176 167.87 64.3715C166.563 54.9784 171.363 45.986 171.413 45.8941C171.507 45.722 171.72 45.6583 171.889 45.7526C172.06 45.8469 172.124 46.0615 172.03 46.2312C171.983 46.3185 167.29 55.1151 168.564 64.2701C169.381 70.1432 170.786 74.0735 171.812 76.9428C172.412 78.6215 172.886 79.9465 173.006 81.0476C173.027 81.2409 172.889 81.4154 172.694 81.439C172.68 81.439 172.668 81.439 172.654 81.439L172.659 81.4413Z" fill="#BA5D1A"/>
<path d="M178.524 53.943C177.968 53.943 177.419 53.8346 176.964 53.5375C175.375 52.5001 176.957 45.8938 177.287 44.5806C177.334 44.3919 177.527 44.2764 177.714 44.3259C177.902 44.3754 178.017 44.5664 177.968 44.755C177.191 47.8177 176.485 52.3846 177.344 52.9434C178.404 53.6342 180.452 52.9151 181.152 52.5779C181.328 52.493 181.536 52.5685 181.621 52.7453C181.705 52.9221 181.63 53.132 181.454 53.2169C181.37 53.2569 179.922 53.9407 178.519 53.9407L178.524 53.943Z" fill="#BA5D1A"/>
<path d="M154.335 97.6198C154.15 97.6198 153.995 97.4736 153.983 97.285C153.746 92.8054 156.536 91.3907 156.655 91.3342C156.831 91.2493 157.04 91.3224 157.125 91.4992C157.209 91.6737 157.136 91.8859 156.963 91.9707C156.859 92.0226 154.473 93.2581 154.687 97.2497C154.696 97.4454 154.548 97.6104 154.354 97.6222C154.347 97.6222 154.342 97.6222 154.335 97.6222V97.6198Z" fill="#BA5D1A"/>
<path d="M150.575 114.774C150.388 114.774 150.23 114.626 150.223 114.435C149.993 108.277 153.039 106.341 153.168 106.261C153.334 106.159 153.55 106.211 153.651 106.379C153.752 106.546 153.7 106.763 153.534 106.864C153.494 106.89 150.714 108.708 150.925 114.409C150.932 114.605 150.779 114.767 150.587 114.774C150.582 114.774 150.578 114.774 150.573 114.774H150.575Z" fill="#BA5D1A"/>
<path d="M148.545 111.075C148.388 111.075 148.245 110.969 148.205 110.809C147.677 108.698 149.136 107.248 149.2 107.187C149.338 107.05 149.561 107.055 149.697 107.197C149.833 107.336 149.828 107.56 149.69 107.696C149.636 107.751 148.463 108.934 148.887 110.636C148.934 110.825 148.819 111.018 148.632 111.066C148.604 111.073 148.573 111.075 148.545 111.075Z" fill="#BA5D1A"/>
<path d="M148.85 127.316C148.693 127.316 148.552 127.21 148.51 127.052C147.318 122.478 150.406 120.139 150.438 120.115C150.596 120 150.816 120.033 150.931 120.191C151.046 120.349 151.013 120.568 150.856 120.683C150.743 120.766 148.125 122.775 149.193 126.87C149.242 127.059 149.129 127.252 148.942 127.302C148.911 127.309 148.883 127.313 148.852 127.313L148.85 127.316Z" fill="#BA5D1A"/>
<path d="M148.788 141.257C148.701 141.257 148.614 141.226 148.546 141.16C146.036 138.796 148.1 133.986 148.19 133.783C148.267 133.604 148.476 133.524 148.654 133.601C148.832 133.679 148.912 133.889 148.835 134.068C148.816 134.113 146.88 138.623 149.03 140.644C149.17 140.778 149.18 141.002 149.046 141.144C148.976 141.219 148.884 141.255 148.79 141.255L148.788 141.257Z" fill="#BA5D1A"/>
<path d="M137.731 94.5573C137.569 94.5573 137.423 94.4442 137.388 94.2791C136.879 91.9261 138.707 89.2171 138.784 89.1016C138.895 88.9413 139.113 88.8988 139.272 89.0096C139.432 89.1204 139.474 89.3397 139.364 89.5C139.347 89.526 137.632 92.0723 138.076 94.1259C138.118 94.3168 137.996 94.5055 137.806 94.5455C137.78 94.5503 137.757 94.5526 137.731 94.5526V94.5573Z" fill="#BA5D1A"/>
<path d="M131.529 120.079C131.393 120.079 131.264 119.999 131.205 119.864C130.393 117.969 131.738 114.713 131.796 114.576C131.871 114.397 132.078 114.312 132.256 114.387C132.435 114.463 132.519 114.67 132.444 114.85C132.432 114.88 131.158 117.966 131.85 119.584C131.928 119.763 131.846 119.97 131.665 120.048C131.62 120.067 131.573 120.077 131.527 120.077L131.529 120.079Z" fill="#BA5D1A"/>
<path d="M131.944 105.325C131.771 105.325 131.62 105.197 131.597 105.02C131.365 103.361 132.317 102.33 132.36 102.286C132.493 102.144 132.716 102.139 132.857 102.271C132.998 102.406 133.005 102.627 132.871 102.771C132.84 102.804 132.111 103.613 132.294 104.921C132.322 105.115 132.186 105.294 131.993 105.32C131.977 105.32 131.961 105.322 131.944 105.322V105.325Z" fill="#BA5D1A"/>
<path d="M171.329 87.9887C168.589 87.9887 165.663 87.9109 163.422 87.6562C162.493 87.5502 161.454 87.4323 160.353 87.305C154.795 86.666 147.189 85.7913 145.169 85.7913C145.164 85.7913 145.159 85.7913 145.155 85.7913C144.96 85.7913 144.803 85.6333 144.803 85.4376C144.803 85.242 144.96 85.084 145.155 85.084H145.169C147.229 85.084 154.549 85.9257 160.433 86.6024C161.534 86.7297 162.573 86.8476 163.502 86.9537C169.194 87.5973 179.381 87.0928 179.482 87.088C179.675 87.081 179.841 87.2295 179.851 87.4228C179.86 87.6185 179.71 87.7836 179.517 87.793C179.454 87.7954 175.618 87.9863 171.329 87.9863V87.9887Z" fill="#BA5D1A"/>
<path d="M212.059 114.507C212.024 114.507 211.986 114.503 211.951 114.491C211.5 114.345 211.048 114.201 210.597 114.059C205.257 112.367 200.215 110.768 198.444 104.223C196.726 97.8784 193.791 87.9383 193.763 87.8393C193.707 87.653 193.815 87.455 194 87.4008C194.185 87.3442 194.382 87.4526 194.436 87.6389C194.467 87.7379 197.404 97.6875 199.122 104.039C200.792 110.212 205.658 111.754 210.808 113.385C211.259 113.529 211.714 113.673 212.167 113.819C212.352 113.878 212.453 114.078 212.392 114.265C212.345 114.413 212.207 114.51 212.056 114.51L212.059 114.507Z" fill="#BA5D1A"/>
<path d="M215.021 156.436C214.986 156.436 214.95 156.431 214.915 156.419C214.662 156.339 189.431 148.455 173.868 148.045C173.673 148.04 173.521 147.877 173.525 147.682C173.53 147.486 173.687 147.326 173.887 147.338C189.546 147.75 214.871 155.665 215.126 155.745C215.312 155.804 215.415 156.002 215.356 156.188C215.309 156.339 215.171 156.436 215.021 156.436Z" fill="#BA5D1A"/>
<path d="M155.911 146.821C155.911 146.821 155.895 146.821 155.885 146.821C147.941 146.239 137.65 139.326 133.77 134.627C132.759 133.401 132.282 132.434 132.36 131.753C132.707 128.679 135.954 127.21 136.09 127.151C136.269 127.071 136.475 127.153 136.555 127.332C136.635 127.512 136.555 127.719 136.374 127.799C136.344 127.813 133.359 129.167 133.059 131.836C133.035 132.055 133.108 132.72 134.312 134.179C138.113 138.781 148.178 145.55 155.937 146.119C156.132 146.133 156.277 146.303 156.263 146.498C156.249 146.684 156.094 146.826 155.913 146.826L155.911 146.821Z" fill="#BA5D1A"/>
<path d="M221.77 162.209L221.676 115.232L243.873 121.369L235.199 165.597L221.77 162.209Z" fill="#FFCF5A"/>
<path d="M220.453 157.609L215.432 115.232L221.677 116.958L221.759 158.324L220.453 157.609Z" fill="#BA5D1A"/>
<path d="M235.473 166.032L224.876 163.358C224.688 163.311 224.573 163.117 224.62 162.929C224.667 162.74 224.857 162.625 225.047 162.672L234.927 165.164L241.707 130.595C241.745 130.404 241.933 130.277 242.12 130.317C242.31 130.355 242.435 130.541 242.397 130.732L235.473 166.032Z" fill="#453445"/>
<path d="M225.869 150.824C225.869 150.824 225.85 150.824 225.84 150.824C225.646 150.81 225.503 150.638 225.517 150.445L228.339 113.943C228.348 113.837 228.402 113.738 228.492 113.679C228.581 113.617 228.691 113.601 228.792 113.634L245.689 118.847C245.875 118.903 245.98 119.101 245.922 119.288C245.865 119.474 245.668 119.58 245.483 119.521L229.005 114.438L226.218 150.501C226.204 150.688 226.049 150.827 225.869 150.827V150.824Z" fill="#FF9538"/>
</svg>
